<svg xmlns="http://www.w3.org/2000/svg" id="a" viewBox="0 0 100 106.02"><defs><style>.b{fill:#f1f2f2}.c{fill:#0d8473}.d{fill:#19677f}</style></defs><circle cx="50" cy="52.43" r="49" class="b"/><g><path d="M33.25,63.86l-1.38,2.38c-.57,1-.21,2.28,.79,2.84,.99,.56,2.24,.22,2.82-.76l1.38-2.38c.58-1,.23-2.28-.76-2.85s-2.28-.23-2.85,.76h0Z" class="d"/><path d="M44.01,40.07l-1.74,3.38c-.7,1.48-.07,3.25,1.41,3.95,1.41,.67,3.1,.13,3.86-1.23l1.32-2.56c.72-1.4,2.45-1.95,3.85-1.23,.04,.02,.08,.04,.12,.07l13.73,7.93,8.1,8.1,6.44-2.71-8.06-19.18-4.91,2.06c-.72,.3-1.53,.3-2.25-.01l-10.71-4.67c-1.14-.5-2.45-.39-3.49,.27l-5.58,3.54c-.89,.56-1.61,1.35-2.09,2.28h0Z" class="d"/><path d="M47.68,71.83c.84-1.68,.15-3.73-1.53-4.57-.91-.45-1.97-.48-2.89-.07-.21-1.87-1.89-3.22-3.76-3.01-.34,.04-.68,.13-1,.27-.2-1.87-1.88-3.22-3.75-3.02-.76,.08-1.48,.42-2.02,.96-.63-1.77-2.58-2.7-4.35-2.07-.55,.2-1.04,.53-1.42,.97l-7.11-4.11,10.85-18.79,2.78,1.61c.51,.3,1.15,.27,1.64-.07l7.85-5.39c1.35-.93,3.2-.58,4.12,.77,.04,.06,.08,.13,.12,.19l-1.82,1.16c-1.08,.69-1.96,1.65-2.55,2.79l-1.74,3.38c-1.07,2.11-.22,4.69,1.9,5.76,2.08,1.05,4.62,.24,5.72-1.82l1.32-2.56c.39-.75,1.32-1.05,2.07-.66,.02,.01,.04,.02,.06,.03l13.59,7.84,8.47,8.47c1.15,1.17,1.14,3.05-.03,4.2-1.16,1.14-3.01,1.14-4.17,0l-7.57-7.57c-.27-.24-.69-.22-.93,.05-.23,.25-.23,.64,0,.89l6.79,6.79c1.15,1.17,1.14,3.05-.03,4.2-1.16,1.14-3.01,1.14-4.17,0l-6.79-6.79c-.27-.24-.69-.22-.93,.05-.23,.25-.23,.64,0,.89l5.14,5.15c1.12,1.19,1.07,3.07-.12,4.19-1.14,1.08-2.93,1.08-4.07,0l-5.15-5.15c-.27-.24-.69-.22-.93,.05-.23,.25-.23,.64,0,.89l3.83,3.83c1.12,1.19,1.07,3.07-.12,4.19-1.14,1.08-2.93,1.08-4.07,0l-3.48-3.47,.26-.44Z" class="d"/><path d="M81.48,29.47l-7.09,2.98c-.78,.33-1.15,1.23-.82,2.01h0l10.1,24.04c.33,.78,1.23,1.15,2.01,.82h0l7.09-2.98c.78-.33,1.15-1.23,.82-2.01h0l-10.1-24.04c-.33-.78-1.23-1.15-2.01-.82h0Z" class="c"/><path d="M17.82,58.06l13.04-22.59c.42-.74,.17-1.68-.56-2.1h0l-6.66-3.85c-.74-.42-1.67-.17-2.1,.56l-13.04,22.59c-.42,.74-.17,1.68,.56,2.1h0l6.66,3.85c.73,.43,1.68,.18,2.1-.56h0Z" class="c"/><path d="M39.84,71.79l1.92-3.33c.5-1.04,.06-2.29-.97-2.79-.99-.47-2.17-.11-2.72,.84l-1.84,3.18c-.59,.99-.26,2.27,.74,2.86,.99,.59,2.27,.26,2.86-.74l.02-.03Z" class="d"/><path d="M42.83,69.27l-1.7,2.92c-.56,1.01-.19,2.28,.82,2.84,1,.55,2.25,.2,2.82-.79l1.74-3.02c.47-1.05,0-2.29-1.04-2.76-.96-.43-2.09-.08-2.64,.82Z" class="d"/><path d="M31.32,64.58c.57-1,.23-2.28-.77-2.85-1-.57-2.28-.23-2.85,.77-.11,.19-.19,.4-.24,.62-.23,1.13,.5,2.23,1.63,2.46,.88,.18,1.78-.22,2.23-1Z" class="d"/></g></svg>