<svg xmlns="http://www.w3.org/2000/svg" id="a" viewBox="0 0 100 106.02"><defs><style>.b{fill:#0d8473;stroke:#0d8473;stroke-linecap:round;stroke-linejoin:round}.c{fill:#f1f2f2}.d{fill:#19677f}</style></defs><circle cx="50" cy="52.43" r="49" class="c"/><g><path d="M52.69,62.67l2.54-1.88c.9,.41,1.23,.49,2.13,.9l.49,3.11c.08,.82,.82,1.47,1.64,1.47h3.6c.82,0,1.55-.65,1.64-1.47l.49-3.11c.9-.41,1.23-.49,2.13-.9l2.54,1.88c.65,.49,1.64,.41,2.21-.16l2.54-2.54c.57-.57,.65-1.55,.16-2.21l-1.88-2.54c.41-.9,.49-1.23,.9-2.13l3.11-.49c.82-.08,1.47-.82,1.47-1.64v-3.6c0-.82-.65-1.55-1.47-1.64l-3.11-.49c-.41-.9-.49-1.23-.9-2.13l1.88-2.54c.49-.65,.41-1.64-.16-2.21l-2.54-2.54c-.57-.57-1.55-.65-2.21-.16l-2.54,1.88c-.98-.41-1.23-.49-2.13-.9l-.49-3.03c-.08-.82-.82-1.47-1.64-1.47h-3.6c-.82,0-1.55,.57-1.64,1.47l-.49,3.11c-.9,.41-1.23,.49-2.13,.9l-2.54-1.88c-.65-.49-1.64-.41-2.21,.16l-2.54,2.54c-.57,.57-.65,1.55-.16,2.21l1.88,2.54c-.41,.98-.49,1.23-.9,2.13l-3.11,.41c-.82,.08-1.47,.82-1.47,1.64v3.6c0,.82,.65,1.55,1.47,1.64l3.11,.49c.41,.9,.49,1.23,.9,2.13l-1.88,2.54c-.49,.65-.41,1.64,.16,2.21l2.54,2.54c.65,.57,1.55,.65,2.21,.16Zm2.29-14.72c.74-.74,1.88-.74,2.54,0l2.04,2.04,5.4-5.4c.74-.74,1.88-.74,2.54,0,.74,.74,.74,1.88,0,2.54l-6.71,6.71c-.33,.33-.82,.49-1.31,.49s-.9-.16-1.31-.49l-3.35-3.35c-.57-.74-.57-1.88,.16-2.54Z" class="d"/><path d="M35.71,58.33c-2.29,1.8-5.15,2.94-8.34,2.94s-6.05-1.06-8.34-2.94c-3.93,2.7-6.54,7.2-6.54,12.27v3.93c0,1.39,1.15,2.54,2.54,2.54h24.62c1.39,0,2.54-1.15,2.54-2.54v-3.93c0-4.09-1.64-7.85-4.33-10.47-.57-.65-1.31-1.31-2.13-1.8Z" class="d"/><path d="M27.45,57.43c5.23,0,9.41-4.17,9.41-9.41s-4.25-9.41-9.41-9.41-9.41,4.17-9.41,9.41,4.17,9.41,9.41,9.41Z" class="d"/><g><path d="M67.11,25.58l-.98,1.78c-.09,.15,.03,.32,.22,.33l6.09-.99c.12-.03,.21-.19,.17-.31l-2.48-5.59c-.11-.16-.31-.17-.4-.02l-1.45,2.63c-.04,.08-.16,.11-.24,.07-10.53-2.86-21.95,.86-28.62,9.71-.38,.5-.24,1.18,.3,1.48h0c.46,.26,.95,.12,1.28-.31,6.08-7.96,16.38-11.48,25.94-9.06,.2,0,.19,.21,.15,.28Z" class="b"/><path d="M53.67,72.86l1.06-1.94c.09-.15-.03-.32-.22-.33l-6.17,.95c-.12,.03-.21,.19-.17,.31l2.51,5.71c.11,.16,.31,.17,.4,.02l1.36-2.48c.04-.08,.21-.19,.28-.15,9.46,2.97,19.68,.52,26.75-6.3,.5-.53,.41-1.29-.21-1.63h0c-.39-.21-.9-.19-1.19,.15-6.41,6.16-15.63,8.46-24.24,5.96-.2,0-.19-.21-.15-.28Z" class="b"/><path d="M82.72,63.29l5.71-2.51c.12-.03,.13-.23-.03-.32l-2.4-1.32c-.08-.04-.15-.09-.11-.16,4.04-10.49,.97-22.35-7.29-29.71-.46-.45-1.26-.29-1.55,.26h0c-.21,.39-.12,.95,.23,1.24,7.57,6.78,10.4,17.61,6.83,27.24-.04,.08-.16,.11-.24,.07l-2.32-1.28c-.15-.09-.32,.03-.28,.15l1.03,6.21c.03,.12,.19,.21,.43,.14Z" class="b"/></g></g></svg>