<svg xmlns="http://www.w3.org/2000/svg" id="a" viewBox="0 0 100 106.02"><defs><style>.b{fill:#f1f2f2}.c{fill:#0d8473}.d{fill:#19677f}</style></defs><circle cx="50" cy="52.43" r="49" class="b"/><g><path d="M53,61.26l3.23-2.75c1.24,.47,1.69,.55,2.93,1.02l.93,4.12c.18,1.09,1.23,1.9,2.32,1.83l4.83-.32c1.1-.07,2.03-1.01,2.06-2.12l.38-4.21c1.17-.63,1.6-.77,2.77-1.39l3.57,2.3c.92,.6,2.23,.4,2.95-.41l3.18-3.62c.72-.82,.74-2.14,.02-2.98l-2.75-3.23c.47-1.24,.55-1.69,1.02-2.93l4.12-.93c1.09-.18,1.9-1.23,1.83-2.32l-.32-4.83c-.07-1.1-1.01-2.03-2.12-2.06l-4.21-.38c-.63-1.17-.77-1.6-1.39-2.77l2.3-3.57c.6-.92,.4-2.23-.41-2.95l-3.62-3.18c-.82-.72-2.14-.74-2.98-.02l-3.23,2.75c-1.35-.46-1.69-.55-2.93-1.02l-.93-4.01c-.18-1.09-1.23-1.9-2.32-1.83l-4.83,.32c-1.1,.07-2.03,.91-2.06,2.12l-.38,4.21c-1.17,.63-1.6,.77-2.77,1.39l-3.57-2.3c-.92-.6-2.23-.4-2.95,.41l-3.18,3.62c-.72,.82-.74,2.14-.02,2.98l2.75,3.23c-.46,1.35-.55,1.69-1.02,2.93l-4.13,.82c-1.09,.18-1.9,1.23-1.83,2.32l.32,4.83c.07,1.1,1.01,2.03,2.12,2.06l4.21,.38c.63,1.17,.77,1.6,1.39,2.77l-2.3,3.57c-.6,.92-.4,2.23,.41,2.95l3.62,3.18c.93,.71,2.14,.74,2.98,.02Zm21.25-19.52c.4,6.03-4.17,11.24-10.2,11.64-6.03,.4-11.24-4.17-11.64-10.2-.4-6.03,4.17-11.24,10.2-11.64,6.03-.4,11.24,4.17,11.64,10.2Z" class="d"/><path d="M21.33,75.66l2.31-1.71c.82,.37,1.12,.45,1.93,.82l.45,2.83c.07,.74,.74,1.34,1.49,1.34h3.27c.74,0,1.41-.6,1.49-1.34l.45-2.83c.82-.37,1.12-.45,1.93-.82l2.31,1.71c.6,.45,1.49,.37,2.01-.15l2.31-2.31c.52-.52,.6-1.41,.15-2.01l-1.71-2.31c.37-.82,.45-1.12,.82-1.93l2.83-.45c.74-.07,1.34-.74,1.34-1.49v-3.27c0-.74-.6-1.41-1.34-1.49l-2.83-.45c-.37-.82-.45-1.12-.82-1.93l1.71-2.31c.45-.6,.37-1.49-.15-2.01l-2.31-2.31c-.52-.52-1.41-.6-2.01-.15l-2.31,1.71c-.89-.37-1.12-.45-1.93-.82l-.45-2.75c-.07-.74-.74-1.34-1.49-1.34h-3.27c-.74,0-1.41,.52-1.49,1.34l-.45,2.83c-.82,.37-1.12,.45-1.93,.82l-2.31-1.71c-.6-.45-1.49-.37-2.01,.15l-2.31,2.31c-.52,.52-.6,1.41-.15,2.01l1.71,2.31c-.37,.89-.45,1.12-.82,1.93l-2.83,.37c-.74,.07-1.34,.74-1.34,1.49v3.27c0,.74,.6,1.41,1.34,1.49l2.83,.45c.37,.82,.45,1.12,.82,1.93l-1.71,2.31c-.45,.6-.37,1.49,.15,2.01l2.31,2.31c.6,.52,1.41,.6,2.01,.15Zm15.22-12.24c0,4.09-3.32,7.41-7.41,7.41s-7.41-3.32-7.41-7.41,3.32-7.41,7.41-7.41,7.41,3.32,7.41,7.41Z" class="c"/></g></svg>