<?xml version="1.0" encoding="UTF-8"?><svg id="a" xmlns="http://www.w3.org/2000/svg" viewBox="0 0 100 106.02"><defs><style>.b{fill:#f1f2f2;}.c{fill:#0d8473;}.d{fill:#19677f;fill-rule:evenodd;}</style></defs><circle class="b" cx="49.87" cy="52.43" r="49"/><g><path class="c" d="M67.47,55.03c.14,0,.27-.03,.41-.07,.6-.18,1.21-.35,1.85-.62,.58-.24,1.2-.55,1.74-.87,.73-.43,1-1.24,.7-1.94-.21-.51-.43-1.03-.64-1.54-.13-.32,.01-.72,.29-.95,.85-.69,1.67-1.48,2.28-2.3,.21-.28,.59-.39,.96-.24,.52,.21,.91,.42,1.54,.64,.7,.24,1.51-.01,1.89-.71,.65-1.17,1.14-2.35,1.5-3.63,.22-.76-.11-1.54-.84-1.84-.51-.21-1.03-.43-1.55-.64-.36-.15-.56-.44-.5-.85,.15-1.11,.17-2.17,.01-3.24-.05-.35,.15-.74,.47-.87,.51-.21,.93-.32,1.54-.64,.74-.38,1.1-1.14,.88-1.87-.18-.6-.35-1.21-.62-1.85-.24-.58-.55-1.2-.87-1.74-.43-.73-1.24-.99-1.94-.7-.51,.21-1.03,.43-1.54,.64-.32,.13-.72-.01-.95-.29-.7-.85-1.48-1.66-2.3-2.28-.28-.21-.39-.59-.24-.95,.21-.51,.42-.91,.64-1.54,.24-.7-.01-1.51-.71-1.89-1.17-.65-2.35-1.14-3.64-1.5-.76-.22-1.54,.11-1.84,.84-.21,.51-.43,1.03-.64,1.55-.15,.36-.44,.55-.85,.5-1.11-.15-2.18-.17-3.24-.01-.35,.05-.74-.15-.87-.47-.21-.51-.32-.93-.64-1.54-.38-.74-1.13-1.1-1.87-.88-.6,.18-1.21,.35-1.85,.62-.58,.24-1.21,.55-1.75,.87-.73,.43-.99,1.24-.7,1.94,.21,.51,.43,1.03,.64,1.54,.13,.32-.01,.72-.29,.95-.03,.02-.06,.05-.09,.08,1.62,.79,3.11,1.81,4.44,3.01,.32-.18,.66-.35,1.01-.5,4.76-1.97,10.21,.29,12.18,5.04,1.97,4.75-.29,10.21-5.05,12.17-.46,.19-.93,.34-1.4,.45-.13,1.81-.54,3.57-1.17,5.24,.21-.02,.41-.04,.61-.07,.35-.05,.74,.15,.87,.47,.21,.51,.32,.93,.64,1.54,.31,.6,.87,.95,1.46,.95h0Zm-13.32-1.68c1.95-2.2,3.04-5.13,3.11-8.08-1.28-.97-2.33-2.27-2.99-3.86-.71-1.71-.86-3.51-.56-5.2-2.07-2.08-4.88-3.44-7.82-3.73-.04,.14-.08,.28-.12,.42-.22,.76,.11,1.54,.84,1.84,.51,.21,1.03,.43,1.55,.64,.36,.15,.55,.44,.5,.85-.15,1.11-.17,2.17,0,3.24,.05,.35-.15,.74-.47,.87-.51,.21-.93,.32-1.54,.64-.74,.38-1.1,1.13-.88,1.87,.18,.6,.35,1.21,.62,1.85,.24,.58,.55,1.21,.87,1.75,.43,.73,1.24,.99,1.94,.7,.51-.21,1.03-.43,1.54-.64,.32-.13,.72,.01,.95,.29,.7,.85,1.48,1.66,2.3,2.28,.28,.21,.39,.59,.24,.95-.21,.51-.42,.91-.64,1.54-.22,.65-.02,1.39,.56,1.8h0Z"/><path class="d" d="M54.43,28.97c-8.76-5.06-19.95-2.05-25,6.7-4.61,7.99-2.52,17.98,4.5,23.53l-1.82,3.15c-1.04-.62-2.4-.25-3.01,.8l-6.8,11.8-2.38,4.1c-.59,1.04-.25,2.4,.82,3.01l4.57,2.62c1.04,.61,2.4,.24,3.01-.8l2.35-4.1,6.82-11.8c.59-1.04,.23-2.4-.82-3.01l1.82-3.15c8.31,3.34,18.02,.12,22.63-7.84,5.04-8.77,2.05-19.95-6.7-25Zm3.17,22.98c-3.93,6.8-12.64,9.13-19.45,5.2-6.8-3.93-9.13-12.63-5.2-19.43,3.93-6.82,12.64-9.15,19.43-5.22,6.82,3.93,9.15,12.63,5.22,19.45Z"/></g></svg>