<?xml version="1.0" encoding="UTF-8"?><svg id="a" xmlns="http://www.w3.org/2000/svg" viewBox="0 0 100 106.02"><defs><style>.b{fill:#fff;}.c{fill:#f1f2f2;}.d{fill:#0d8473;}.e{fill:#19677f;}</style></defs><circle class="c" cx="49.35" cy="52.43" r="49"/><g><path class="d" d="M49.36,66.11c-4.03,0-7.31,3.28-7.31,7.31,0,2.09,.91,4.09,2.49,5.48,1.34,1.18,3.05,1.83,4.83,1.83s3.49-.65,4.83-1.83c1.17-1.04,1.99-2.43,2.32-3.94,.11-.51,.17-1.03,.17-1.54,0-4.03-3.28-7.31-7.31-7.31Zm2.43,8.1l.57,3.34-3-1.58-3,1.58,.57-3.34-2.43-2.37,3.36-.49,1.5-3.05,1.5,3.05,3.35,.49-2.43,2.37Z"/><path class="d" d="M52.6,83.24l-.25,.08c-.44,.13-.89,.24-1.33,.31l-.2,.03c-.56,.08-1.03,.11-1.46,.11-1.5,0-2.96-.33-4.31-.95v9.43l4.31-3.19,4.31,3.19v-9.43c-.35,.16-.69,.29-1.07,.42Z"/><path class="e" d="M28.06,15.69V82.59h13.94v-1.91l-.07-.07c-.09-.1-.19-.19-.28-.29-.12-.14-.24-.28-.36-.43l-.08-.1c-.08-.1-.17-.21-.24-.31-.09-.12-.16-.24-.24-.36l-.16-.25c-.06-.09-.12-.19-.18-.28-.09-.15-.17-.31-.24-.46l-.09-.18c-.05-.1-.11-.21-.15-.31-.07-.16-.13-.31-.19-.47l-.09-.23c-.04-.1-.08-.2-.11-.31-.05-.17-.1-.34-.14-.51l-.06-.24c-.03-.1-.05-.2-.08-.3-.05-.22-.08-.45-.11-.68l-.02-.13c-.02-.09-.03-.17-.04-.26-.04-.36-.06-.73-.06-1.09,0-5.71,4.65-10.36,10.36-10.36s10.35,4.65,10.35,10.36c0,.36-.02,.72-.06,1.08-.01,.1-.03,.18-.04,.26l-.03,.21c-.03,.2-.06,.4-.1,.6-.02,.1-.05,.2-.08,.31l-.07,.27c-.04,.15-.08,.31-.13,.45-.04,.12-.08,.23-.13,.34l-.08,.22c-.06,.15-.11,.3-.18,.44-.05,.11-.1,.21-.16,.32l-.06,.12c-.11,.23-.19,.38-.27,.53-.06,.11-.13,.22-.2,.32l-.06,.09c-.14,.22-.23,.36-.32,.49-.07,.1-.16,.21-.24,.31l-.11,.13c-.11,.14-.22,.27-.34,.4-.08,.09-.17,.18-.26,.27l-.08,.09v1.91h13.94V15.69H28.06Z"/><path class="b" d="M32.96,27.58c0-.8,.66-1.46,1.46-1.46h29.86c.8,0,1.46,.66,1.46,1.46,0,.8-.66,1.46-1.46,1.46h-29.86c-.8,0-1.46-.66-1.46-1.46Z"/><path class="b" d="M32.96,36.86c0-.8,.66-1.46,1.46-1.46h29.86c.8,0,1.46,.66,1.46,1.46,0,.8-.66,1.46-1.46,1.46h-29.86c-.8,0-1.46-.66-1.46-1.46Z"/><path class="b" d="M32.96,46.15c0-.8,.66-1.46,1.46-1.46h29.86c.8,0,1.46,.66,1.46,1.46,0,.8-.66,1.46-1.46,1.46h-29.86c-.8,0-1.46-.66-1.46-1.46Z"/><path class="b" d="M32.96,55.43c0-.8,.66-1.46,1.46-1.46h29.86c.8,0,1.46,.66,1.46,1.46,0,.8-.66,1.46-1.46,1.46h-29.86c-.8,0-1.46-.66-1.46-1.46Z"/></g></svg>