<?xml version="1.0" encoding="UTF-8"?><svg id="a" xmlns="http://www.w3.org/2000/svg" viewBox="0 0 100 106.02"><defs><style>.b{fill:#f1f2f2;}.c{fill:#19677f;}.d{fill:#0d8473;stroke:#0d8473;stroke-miterlimit:10;}</style></defs><circle class="b" cx="50.63" cy="52.43" r="49"/><g><path class="c" d="M53.54,76.09V42.95c0-.52,.42-.95,.95-.95h7.58c.52,0,.95,.42,.95,.95v33.14h-9.47Z"/><path class="c" d="M50.7,76.09v-25.57c0-.52-.42-.95-.95-.95h-7.58c-.52,0-.95,.42-.95,.95v25.57h9.47Z"/><path class="c" d="M75.32,76.09V35.37c0-.52-.42-.95-.95-.95h-7.58c-.52,0-.95,.42-.95,.95v40.72h9.47Z"/><path class="c" d="M38.39,76.09v-17.99c0-.52-.42-.95-.95-.95h-7.58c-.52,0-.95,.42-.95,.95v17.99h9.47Z"/><path class="d" d="M79.11,78.93H25.13V24.96c-.02-.52-.46-.93-.98-.91-.5,.02-.9,.42-.91,.91v54.92c0,.52,.42,.95,.95,.95h54.92c.52-.02,.93-.46,.91-.98-.02-.5-.42-.9-.91-.91Z"/></g></svg>