<svg xmlns="http://www.w3.org/2000/svg" id="Layer_2" data-name="Layer 2" viewBox="0 0 98 98"><defs><style>.cls-1{fill:#008673}.cls-2{fill:#f0f1f1}.cls-3{fill:#006982;fill-rule:evenodd}</style></defs><g id="Layer_1-2" data-name="Layer 1"><circle cx="49" cy="49" r="49" class="cls-2"/><path d="m66.61,51.6c.14,0,.28-.03.41-.07.63-.17,1.25-.38,1.86-.62.6-.25,1.18-.54,1.74-.87.7-.37,1-1.21.7-1.94-.21-.52-.42-1-.64-1.55-.12-.34,0-.72.29-.94.85-.68,1.61-1.45,2.28-2.3.23-.32.65-.42,1-.25.5.24,1.02.45,1.54.64.72.26,1.52-.04,1.89-.7.64-1.15,1.15-2.37,1.51-3.64.24-.74-.12-1.53-.84-1.83l-1.55-.64c-.35-.13-.56-.48-.5-.85.15-1.07.15-2.17,0-3.24-.06-.36.13-.72.47-.87.53-.18,1.04-.4,1.54-.64.72-.32,1.09-1.11.88-1.87-.17-.63-.38-1.25-.62-1.85-.25-.6-.54-1.18-.87-1.74-.37-.7-1.22-1-1.95-.7l-1.54.64c-.36.13-.77.01-1-.29-.67-.85-1.45-1.61-2.3-2.28-.31-.23-.41-.65-.24-1,.21-.51.42-.9.64-1.54.25-.72-.05-1.51-.71-1.89-1.15-.64-2.37-1.15-3.64-1.5-.74-.24-1.53.12-1.84.83-.21.52-.42,1-.64,1.55-.12.35-.47.56-.84.5-1.07-.15-2.17-.15-3.24,0-.36.05-.72-.14-.87-.47-.22-.52-.33-.93-.64-1.54-.32-.72-1.11-1.09-1.87-.88-.61.18-1.21.35-1.86.61-.6.26-1.18.55-1.74.88-.7.37-1,1.21-.7,1.94.21.51.42,1,.64,1.54.14.36.02.77-.29,1l-.08.07c1.61.78,3.11,1.79,4.44,3,.32-.19.65-.36,1-.5,4.72-2.04,10.21.13,12.25,4.86,2.04,4.72-.13,10.21-4.86,12.25-.09.04-.18.08-.27.11-.45.19-.92.34-1.4.45-.13,1.79-.53,3.56-1.17,5.24l.61-.07c.36-.05.71.14.87.47.22.51.33.93.64,1.54.27.57.83.93,1.46.95h.04Zm-13.31-1.69c1.95-2.25,3.04-5.11,3.11-8.08-2.8-2.11-4.17-5.61-3.55-9.06-2.1-2.1-4.86-3.42-7.81-3.73-.05.13-.09.27-.13.41-.24.74.13,1.54.84,1.84l1.55.64c.35.12.56.48.49.84-.15,1.08-.15,2.17,0,3.25.06.36-.14.72-.47.87-.53.18-1.04.4-1.54.64-.71.32-1.09,1.11-.88,1.86.17.61.37,1.22.61,1.81.25.6.54,1.19.87,1.75.38.7,1.22,1,1.95.7l1.54-.64c.35-.11.73,0,.95.29.67.85,1.45,1.61,2.3,2.28.29.22.39.62.24.95-.21.52-.42.91-.64,1.54-.23.66,0,1.39.57,1.8v.04Z" class="cls-1"/><path d="m53.57,25.54c-8.77-5.03-19.96-2.01-24.99,6.77-4.51,7.85-2.6,17.82,4.49,23.45l-1.85,3.16c-1.05-.61-2.39-.25-3,.79l-6.8,11.8-2.38,4.1c-.59,1.06-.23,2.39.82,3l4.59,2.59c1.05.59,2.38.24,3-.8l2.35-4.1,6.82-11.79c.59-1.06.23-2.39-.82-3l1.83-3.16c9.39,3.73,20.03-.87,23.76-10.26,3.34-8.43.01-18.03-7.83-22.58v.03Zm3.17,23c-3.93,6.8-12.64,9.13-19.44,5.2-6.8-3.93-9.13-12.64-5.2-19.44,3.93-6.8,12.62-9.13,19.42-5.21,6.8,3.93,9.13,12.62,5.22,19.42v.03Z" class="cls-3"/></g></svg>