<?xml version="1.0" encoding="UTF-8"?>
<svg id="Layer_2" data-name="Layer 2" xmlns="http://www.w3.org/2000/svg" viewBox="0 0 98 98">
  <defs>
    <style>
      .cls-1 {
        fill: #008673;
        stroke: #008673;
        stroke-linecap: round;
        stroke-linejoin: round;
      }

      .cls-2 {
        fill: #006982;
      }

      .cls-3 {
        fill: #f0f1f1;
      }
    </style>
  </defs>
  <g id="Layer_1-2" data-name="Layer 1">
    <circle class="cls-3" cx="49" cy="49" r="49"/>
    <path class="cls-2" d="m51.71,59.2l2.54-1.88c.9.41,1.22.49,2.12.9l.49,3.11c.1.83.8,1.46,1.64,1.47h3.6c.82-.03,1.49-.63,1.61-1.44l.49-3.11c.9-.41,1.22-.49,2.12-.9l2.55,1.85c.68.48,1.61.42,2.21-.16l2.53-2.54c.58-.6.65-1.53.17-2.21l-1.89-2.53c.41-.9.49-1.23.9-2.13l3.11-.49c.83-.1,1.46-.8,1.47-1.63v-3.6c0-.84-.64-1.54-1.47-1.64l-3.11-.49c-.41-.9-.49-1.23-.9-2.13l1.89-2.45c.48-.68.41-1.61-.17-2.21l-2.53-2.54c-.6-.58-1.53-.64-2.21-.16l-2.54,1.88c-1-.41-1.22-.49-2.12-.9l-.5-3.07c-.1-.83-.8-1.46-1.64-1.48h-3.6c-.85,0-1.56.64-1.63,1.48l-.49,3.1c-.9.41-1.22.49-2.12.9l-2.52-1.88c-.68-.48-1.61-.41-2.21.17l-2.53,2.53c-.58.6-.65,1.53-.17,2.21l1.91,2.54c-.41,1-.49,1.22-.9,2.12l-3.1.41c-.83.1-1.46.8-1.47,1.64v3.6c0,.85.63,1.56,1.47,1.66l3.11.49c.41.9.49,1.23.9,2.13l-1.89,2.53c-.48.68-.41,1.61.17,2.21l2.53,2.54c.61.54,1.52.58,2.18.1Zm2.29-14.72c.65-.7,1.74-.74,2.44-.1.03.03.06.06.1.1l2,2,5.4-5.39c.7-.7,1.83-.7,2.53,0,.7.7.7,1.83,0,2.53l-6.71,6.71c-.36.32-.83.5-1.31.49-.48,0-.94-.18-1.31-.49l-3.35-3.36c-.56-.75-.48-1.8.18-2.46l.02-.03Z"/>
    <path class="cls-2" d="m34.71,54.9c-2.37,1.89-5.31,2.93-8.34,2.94-3.04.01-5.98-1.02-8.34-2.94-4.08,2.77-6.53,7.37-6.54,12.3v3.93c0,1.4,1.13,2.53,2.53,2.54h24.62c1.4-.01,2.53-1.14,2.54-2.54v-3.93c.03-3.93-1.54-7.7-4.34-10.46-.61-.72-1.33-1.34-2.13-1.84Z"/>
    <path class="cls-2" d="m26.45,54c5.2,0,9.41-4.2,9.42-9.4,0-5.2-4.2-9.41-9.4-9.42-5.2,0-9.41,4.2-9.42,9.4h0c-.03,5.18,4.14,9.39,9.31,9.42.03,0,.06,0,.09,0Z"/>
    <path class="cls-1" d="m66.11,22.2l-1,1.78c-.06.11-.02.24.09.3.04.02.09.03.14.02l6.09-1c.13-.05.2-.18.17-.31l-2.48-5.59c-.06-.11-.19-.15-.3-.09-.04.02-.07.05-.09.09l-1.45,2.64c-.05.08-.15.11-.24.07-10.63-2.91-21.95.93-28.62,9.7-.3.46-.18,1.08.28,1.39,0,0,0,0,0,0h0c.44.23.99.1,1.28-.31,6.06-7.93,16.26-11.49,25.94-9.06.23.04.22.24.18.37Z"/>
    <path class="cls-1" d="m52.71,69.42l1-1.93c.09-.16,0-.32-.22-.33l-6.17,1c-.12.05-.19.18-.17.31l2.56,5.66c.06.11.2.15.31.09.04-.02.07-.05.09-.09l1.36-2.48c0-.08.2-.19.28-.15,9.39,2.95,19.64.53,26.72-6.3.41-.37.44-1,.07-1.41-.08-.09-.18-.16-.29-.22h0c-.38-.24-.88-.18-1.19.15-6.42,6.2-15.67,8.49-24.24,6-.2-.02-.19-.22-.11-.3Z"/>
    <path class="cls-1" d="m81.71,59.85l5.71-2.51c.12,0,.13-.23,0-.32l-2.41-1.32c-.07,0-.15-.08-.11-.16,3.96-10.46,1.06-22.27-7.29-29.71-.41-.37-1.04-.34-1.41.07-.05.06-.1.12-.14.19h0c-.22.41-.13.92.23,1.23,7.64,6.82,10.35,17.62,6.83,27.24-.05.08-.15.12-.24.07l-2.33-1.27c-.15-.09-.31,0-.28.15l1,6.21c.05.12.21.2.44.13Z"/>
  </g>
</svg>