<?xml version="1.0" encoding="UTF-8"?>
<svg id="Layer_2" data-name="Layer 2" xmlns="http://www.w3.org/2000/svg" viewBox="0 0 98 98">
  <defs>
    <style>
      .cls-1 {
        fill: #006982;
      }

      .cls-2 {
        fill: #008673;
      }

      .cls-3 {
        fill: #fff;
      }

      .cls-4 {
        fill: #f0f1f1;
      }
    </style>
  </defs>
  <g id="Layer_1-2" data-name="Layer 1">
    <circle class="cls-4" cx="49" cy="49" r="49"/>
    <path class="cls-2" d="m49,62.67c-4.04-.02-7.34,3.24-7.35,7.29-.02,4.04,3.24,7.34,7.29,7.35,1.81,0,3.55-.65,4.9-1.85,1.59-1.38,2.49-3.38,2.48-5.48,0-4.04-3.27-7.31-7.31-7.31Zm2.43,8.1l.57,3.34-3-1.57-3,1.57.57-3.34-2.43-2.36,3.36-.49,1.5-3,1.5,3,3.36.49-2.43,2.36Z"/>
    <path class="cls-2" d="m52.24,79.8l-.25.09c-.44.13-.88.23-1.33.3h-.2c-1.96.31-3.98.02-5.77-.84v9.44l4.31-3.19,4.31,3.19v-9.4c-.35.16-.71.29-1.07.41Z"/>
    <path class="cls-1" d="m27.71,12.25v66.95h13.9v-2h0l-.28-.29-.36-.43-.08-.1-.24-.32c-.09-.11-.17-.23-.24-.36l-.17-.25-.18-.28-.24-.47-.09-.17-.15-.32c-.07-.15-.13-.31-.19-.46l-.09-.23c0-.11-.08-.21-.11-.31s-.1-.34-.14-.51l-.07-.24c0-.1-.05-.19-.07-.3s-.08-.45-.11-.68v-.12c0-.09,0-.17,0-.26-.04-.36-.06-.73-.06-1.09.18-5.72,4.96-10.21,10.68-10.03,5.47.17,9.86,4.56,10.03,10.03,0,.36-.02.72-.06,1.08v.48c0,.2-.06.4-.11.61s0,.2-.07.3l-.08.27-.12.46-.13.33-.08.22c-.06.15-.11.3-.18.45l-.15.31-.07.12c-.11.23-.19.38-.27.53-.06.11-.13.22-.2.32l-.06.09c-.14.22-.23.36-.33.49-.07.11-.15.21-.24.31l-.11.14c-.1.13-.21.27-.33.4l-.26.27-.08.08v1.93h13.94V12.25H27.71Z"/>
    <path class="cls-3" d="m32.61,24.14c0-.8.66-1.45,1.46-1.46h29.86c.81,0,1.46.65,1.46,1.46,0,.81-.65,1.46-1.46,1.46h-29.86c-.8,0-1.45-.66-1.46-1.46Z"/>
    <path class="cls-3" d="m32.61,33.43c0-.81.65-1.46,1.46-1.47h29.86c.81-.07,1.52.53,1.59,1.34s-.53,1.52-1.34,1.59c-.08,0-.16,0-.24,0h-29.86c-.8,0-1.45-.66-1.46-1.46Z"/>
    <path class="cls-3" d="m32.61,42.71c0-.8.66-1.45,1.46-1.46h29.86c.81,0,1.46.65,1.46,1.46s-.65,1.46-1.46,1.46h-29.86c-.8,0-1.45-.66-1.46-1.46Z"/>
    <path class="cls-3" d="m32.61,52c0-.81.65-1.46,1.46-1.47h29.86c.81-.07,1.52.53,1.59,1.34s-.53,1.52-1.34,1.59c-.08,0-.16,0-.24,0h-29.86c-.8,0-1.45-.66-1.46-1.46Z"/>
  </g>
</svg>