<svg xmlns="http://www.w3.org/2000/svg" id="Layer_2" data-name="Layer 2" viewBox="0 0 98 98"><defs><style>.cls-1{fill:#006982}.cls-2{fill:#008673}.cls-3{fill:#f0f1f1}</style></defs><g id="Layer_1-2" data-name="Layer 1"><circle cx="49" cy="49" r="49" class="cls-3"/><path d="m52.01,57.82l3.23-2.75c1.24.47,1.69.55,2.93,1l.93,4.13c.21,1.1,1.21,1.88,2.33,1.82l4.82-.31c1.12-.09,2-1,2.06-2.12l.39-4.21c1.17-.63,1.6-.77,2.77-1.4l3.56,2.3c.95.59,2.19.42,2.95-.41l3.18-3.63c.73-.87.73-2.13,0-3l-2.75-3.24c.47-1.24.55-1.68,1-2.93l4.13-.93c1.1-.21,1.88-1.2,1.83-2.32l-.32-4.83c-.1-1.12-1-1.99-2.12-2.06l-4.21-.38c-.63-1.17-.77-1.61-1.4-2.78l2.3-3.56c.62-.96.45-2.24-.41-3l-3.56-3.07c-.87-.73-2.13-.73-3,0l-3.23,2.75c-1.36-.46-1.69-.55-2.93-1l-.93-4c-.2-1.11-1.2-1.89-2.32-1.83l-4.83.32c-1.14.05-2.04.97-2.06,2.11l-.39,4.21c-1.17.63-1.6.77-2.77,1.4l-3.54-2.36c-.97-.62-2.24-.44-3,.41l-3.17,3.63c-.73.87-.73,2.13,0,3l2.75,3.24c-.46,1.35-.55,1.69-1,2.93l-4.13.82c-1.1.21-1.88,1.2-1.83,2.32l.32,4.83c.1,1.09.97,1.95,2.06,2.03l4.21.39c.62,1.17.76,1.6,1.39,2.77l-2.3,3.56c-.62.97-.44,2.24.42,3l3.62,3.18c.88.73,2.16.72,3.02-.03Zm21.24-19.52c.4,6.03-4.17,11.24-10.2,11.63-6.03.4-11.24-4.17-11.63-10.2s4.17-11.24,10.2-11.63c.01,0,.02,0,.03,0,6.02-.38,11.2,4.18,11.6,10.2Z" class="cls-1"/><path d="m20.33,72.2l2.32-1.69c.82.38,1.11.45,1.93.82l.45,2.83c.09.76.73,1.33,1.49,1.34h3.27c.75-.01,1.37-.56,1.48-1.3l.45-2.83c.81-.37,1.11-.44,1.93-.82l2.31,1.65c.62.43,1.45.37,2-.15l2.3-2.31c.52-.54.59-1.38.15-2l-1.71-2.31c.37-.81.45-1.11.82-1.93l2.83-.45c.75-.09,1.33-.72,1.34-1.48v-3.26c-.02-.76-.59-1.39-1.34-1.49l-2.83-.44c-.37-.82-.45-1.12-.82-1.94l1.71-2.3c.44-.62.37-1.46-.15-2l-2.3-2.31c-.54-.52-1.38-.59-2-.15l-2.31,1.7c-.89-.37-1.12-.44-1.93-.82l-.45-2.75c-.09-.76-.73-1.33-1.49-1.34h-3.27c-.77-.02-1.43.57-1.49,1.34l-.45,2.83c-.82.37-1.11.44-1.93.82l-2.31-1.71c-.61-.44-1.45-.38-2,.14l-2.31,2.31c-.52.54-.59,1.38-.15,2l1.71,2.31c-.37.89-.45,1.11-.82,1.93l-2.83.37c-.75.1-1.32.73-1.34,1.49v3.28c.01.76.59,1.39,1.34,1.48l2.83.45c.37.82.45,1.12.82,1.93l-1.71,2.31c-.44.62-.37,1.46.15,2l2.3,2.31c.55.52,1.39.58,2.01.14Zm15.22-12.21c0,4.09-3.32,7.41-7.41,7.41s-7.41-3.32-7.41-7.41,3.32-7.41,7.41-7.41c4.09,0,7.4,3.3,7.41,7.39v.02Z" class="cls-2"/></g></svg>