<svg xmlns="http://www.w3.org/2000/svg" width="60" height="60" viewBox="0 0 60 60"><title>gsa-white</title><path fill="#00538E" fill-rule="evenodd" d="M52.698 49.839l-3.218-7.47 2.296-2.15 4.305 9.62h-3.383zm-10.23-9.74l4.63-10.303L51.723 40.1H48.5l-1.404-3.424-1.404 3.424h-3.223l-.001-.001zm2.244 2.272l-1.696 3.875 4.074-2.136 2.347 1.806-8.022 3.924h-3.304l4.306-9.62 2.296 2.15-.001.001zm-14.096-4.453c2.8 1.396 5.667 2.543 5.667 6.406 0 4.216-3.31 5.977-7.13 5.854-1.357-.043-2.678-.386-4.116-.856l.326-3.035c1.218.502 2.796 1.045 4.118 1.024 1.725-.027 3.45-.827 3.45-2.825 0-1.54-1.232-2.296-2.423-2.9-2.635-1.336-5.665-2.264-5.665-5.997 0-3.53 2.808-5.37 6.29-5.37 1.264 0 2.775.22 4.29.757l-.454 2.988c-1.65-.646-2.372-.876-3.728-.876-1.502 0-3.045.526-3.045 2.258 0 1.353 1.39 2.056 2.423 2.572h-.003zM14.552 47.31c1.124 0 2.08-.082 2.767-.263v-4.995h-3.628v-2.816h6.876v10.037c-1.214.415-3.074.905-6.042.905-6.09 0-10.167-3.936-10.167-10.06 0-5.944 4.328-9.898 10.196-9.898 2.785 0 4.027.413 5.787 1.02l-.264 3.328c-1.622-1.057-3-1.48-5.39-1.48-4.195 0-6.996 3.034-6.976 7.11.02 4.385 3.07 7.112 6.842 7.112h-.001zM0 59.998h60V0H0v59.998z"/></svg>