<svg xmlns="http://www.w3.org/2000/svg" id="Layer_2" data-name="Layer 2" viewBox="0 0 98 98"><defs><style>.cls-1{fill:none;stroke:#999;stroke-linecap:round;stroke-linejoin:round}.cls-2{fill:#006982}.cls-3{fill:#f0f1f1}.cls-4{fill:#008673;stroke:#008673;stroke-miterlimit:10}</style></defs><g id="Layer_1-2" data-name="Layer 1"><line x1="61.73" x2="62.23" y1="53.46" y2="53.46" class="cls-1"/><circle cx="49" cy="49" r="49" class="cls-3"/><path d="m51.91,72.66v-33.15c0-.52.42-.94.94-.94,0,0,0,0,.01,0h7.57c.52-.03.96.36,1,.88,0,.02,0,.04,0,.06v33.15h-9.52Z" class="cls-2"/><path d="m49.07,72.66v-25.57c0-.55-.45-1-1-1h-7.57c-.55,0-1,.45-1,1v25.57h9.57Z" class="cls-2"/><path d="m73.69,72.66V31.94c.03-.52-.36-.97-.88-1-.04,0-.08,0-.12,0h-7.57c-.52-.03-.97.36-1,.88,0,.04,0,.08,0,.12v40.72h9.57Z" class="cls-2"/><path d="m36.81,72.66v-18c0-.52-.42-.94-.94-.94-.02,0-.04,0-.06,0h-7.57c-.52,0-.94.41-.95.93,0,0,0,0,0,.01v18h9.52Z" class="cls-2"/><path d="m77.48,75.5H23.48V21.5c-.05-.52-.52-.9-1.04-.85-.45.05-.8.4-.85.85v54.94c-.03.52.36.97.88,1,.04,0,.08,0,.12,0h54.92c.52-.05.91-.48.91-1,0-.51-.41-.93-.92-.94,0,0-.01,0-.02,0Z" class="cls-4"/></g></svg>