<?xml version="1.0" encoding="UTF-8"?>
<svg id="Layer_2" data-name="Layer 2" xmlns="http://www.w3.org/2000/svg" viewBox="0 0 98 98">
  <defs>
    <style>
      .cls-1 {
        fill: none;
        stroke: #999;
        stroke-linecap: round;
        stroke-linejoin: round;
      }

      .cls-2 {
        fill: #006982;
      }

      .cls-3 {
        fill: #008673;
      }

      .cls-4 {
        fill: #f0f1f1;
      }
    </style>
  </defs>
  <g id="Layer_1-2" data-name="Layer 1">
    <line class="cls-1" x1="57.93" y1="53.46" x2="58.43" y2="53.46"/>
    <circle class="cls-4" cx="49" cy="49" r="49"/>
    <path class="cls-2" d="m32.25,60.42l-1.38,2.39c-.53,1.03-.12,2.29.91,2.81.96.49,2.13.17,2.71-.73l1.38-2.38c.58-1,.23-2.28-.76-2.85-1-.58-2.28-.23-2.85.76Z"/>
    <path class="cls-2" d="m43.01,36.63l-1.75,3.38c-.56,1.56.25,3.28,1.81,3.84,1.28.46,2.7,0,3.48-1.12l1.3-2.53c.72-1.4,2.45-1.95,3.85-1.23l.12.07,13.73,7.9,8.1,8.1,6.44-2.71-8.06-19.13-4.91,2c-.72.31-1.53.31-2.25,0l-10.71-4.67c-1.14-.5-2.44-.39-3.49.27l-5.58,3.54c-.88.57-1.6,1.36-2.08,2.29Z"/>
    <path class="cls-2" d="m46.68,68.39c.84-1.68.16-3.72-1.52-4.56-.91-.46-1.97-.48-2.9-.07-.21-1.87-1.89-3.21-3.76-3,0,0,0,0,0,0-.35.03-.68.12-1,.26-.24-1.87-1.94-3.19-3.81-2.96-.74.09-1.44.43-1.97.96-.63-1.77-2.57-2.7-4.34-2.07-.55.2-1.05.53-1.43.97l-7.11-4.11,10.85-18.85,2.78,1.6c.51.3,1.15.27,1.64-.06l7.85-5.39c1.35-.9,3.18-.56,4.12.77.05.06.09.12.12.19l-1.81,1.13c-1.09.69-1.97,1.65-2.56,2.79l-1.74,3.41c-1.09,2.1-.26,4.68,1.84,5.77s4.68.26,5.77-1.84h0l1.33-2.56c.39-.75,1.31-1.04,2.06-.65,0,0,0,0,0,0h.06l13.59,7.87,8.47,8.47c.99,1.33.73,3.21-.6,4.2-1.07.8-2.53.8-3.6,0l-7.57-7.57c-.25-.26-.66-.26-.92-.01,0,0,0,0-.01.01-.23.25-.23.64,0,.89l6.78,6.79c.97,1.34.67,3.22-.67,4.19-1.05.76-2.47.76-3.52,0l-6.79-6.76c-.26-.26-.68-.25-.94,0-.26.26-.25.68,0,.94h0l5.16,5.15c.99,1.33.73,3.21-.6,4.2-1.07.8-2.53.8-3.6,0l-5.15-5.15c-.26-.26-.67-.26-.93,0-.23.25-.23.63,0,.88l3.83,3.84c.97,1.34.67,3.22-.67,4.19-1.05.76-2.47.76-3.52,0l-3.47-3.47.24-.39Z"/>
    <path class="cls-3" d="m80.48,26.03l-7.1,3c-.77.33-1.14,1.22-.82,2h0l10.11,24c.33.77,1.22,1.14,2,.82h0l7.09-3c.78-.33,1.14-1.22.82-2h0l-10.09-24c-.33-.77-1.22-1.14-2-.82h-.01Z"/>
    <path class="cls-3" d="m16.82,54.62l13-22.59c.42-.74.17-1.68-.57-2.1h0l-6.66-3.84c-.73-.43-1.67-.18-2.09.55,0,0,0,0,0,.01l-13,22.55c-.42.74-.17,1.67.56,2.1h0l6.66,3.9c.73.43,1.67.18,2.09-.55,0,0,0,0,0-.01v-.02Z"/>
    <path class="cls-2" d="m38.84,68.35l1.92-3.32c.55-1.02.17-2.29-.84-2.85-1.02-.55-2.29-.17-2.85.85h0l-1.85,3.18c-.59.99-.26,2.28.74,2.86s2.28.26,2.86-.74h.02Z"/>
    <path class="cls-2" d="m41.83,65.83l-1.7,2.92c-.44,1.07.07,2.29,1.14,2.73.9.37,1.94.07,2.5-.73l1.74-3c.55-1.02.18-2.29-.84-2.84-1.02-.55-2.29-.18-2.84.84v.08Z"/>
    <path class="cls-2" d="m30.32,61.14c.62-.97.34-2.26-.63-2.89-.97-.62-2.26-.34-2.89.63-.04.06-.07.12-.1.18-.11.19-.19.4-.23.62-.25,1.12.46,2.23,1.58,2.48.9.2,1.83-.22,2.27-1.02Z"/>
  </g>
</svg>