<?xml version="1.0" encoding="UTF-8"?><svg id="Layer_2" xmlns="http://www.w3.org/2000/svg" viewBox="0 0 352 461"><defs><style>.cls-1,.cls-2,.cls-3,.cls-4{stroke-miterlimit:10;}.cls-1,.cls-4{stroke:#000;stroke-width:.5px;}.cls-2,.cls-3{stroke:#333;}.cls-2,.cls-3,.cls-4{fill:none;}.cls-5,.cls-6,.cls-7{stroke-width:0px;}.cls-3{stroke-dasharray:0 0 2.98 4.97;}.cls-6{fill:#19677f;}.cls-7{fill:#d63a3a;}</style></defs><rect class="cls-6" x="119.19" y="153" width="60.42" height="262.67"/><rect class="cls-7" x="230.21" y="128.34" width="60.42" height="287.33"/><path class="cls-5" d="m39.75,401.63c0,.88-.09,1.64-.28,2.28s-.45,1.17-.77,1.59-.71.73-1.16.94-.92.31-1.43.31-.99-.1-1.43-.31-.83-.52-1.15-.94c-.33-.42-.58-.95-.77-1.59-.19-.64-.28-1.4-.28-2.28s.09-1.64.28-2.28c.19-.64.44-1.18.77-1.6.33-.42.71-.74,1.15-.94s.92-.31,1.43-.31.99.1,1.43.31.83.52,1.16.94c.33.42.58.96.77,1.6.19.64.28,1.4.28,2.28Zm-1.3,0c0-.77-.06-1.41-.19-1.93s-.3-.94-.52-1.26c-.22-.32-.47-.54-.75-.68s-.58-.21-.89-.21-.6.07-.89.21-.53.37-.75.68c-.21.32-.39.74-.51,1.26s-.19,1.16-.19,1.93.06,1.41.19,1.92c.13.52.3.94.51,1.25.21.32.46.54.75.68s.58.21.89.21.6-.07.89-.21.54-.37.75-.68c.22-.32.39-.74.52-1.25.13-.52.19-1.16.19-1.92Z"/><path class="cls-5" d="m40.91,405.87c0-.12.02-.24.07-.34.04-.11.11-.2.18-.28.08-.08.17-.14.28-.19.11-.05.22-.07.34-.07s.24.02.34.07.2.11.28.19c.08.08.14.17.19.28.05.11.07.22.07.34s-.02.24-.07.35c-.05.11-.11.2-.19.28-.08.08-.17.14-.28.19-.11.04-.22.07-.34.07s-.24-.02-.34-.07c-.11-.04-.2-.11-.28-.19-.08-.08-.14-.17-.18-.28-.04-.1-.07-.22-.07-.35Z"/><path class="cls-5" d="m51.1,401.63c0,.88-.09,1.64-.28,2.28s-.45,1.17-.77,1.59-.71.73-1.16.94-.92.31-1.43.31-.99-.1-1.43-.31-.83-.52-1.15-.94c-.33-.42-.58-.95-.77-1.59-.19-.64-.28-1.4-.28-2.28s.09-1.64.28-2.28c.19-.64.44-1.18.77-1.6.33-.42.71-.74,1.15-.94s.92-.31,1.43-.31.99.1,1.43.31.83.52,1.16.94c.33.42.58.96.77,1.6.19.64.28,1.4.28,2.28Zm-1.3,0c0-.77-.06-1.41-.19-1.93s-.3-.94-.52-1.26c-.22-.32-.47-.54-.75-.68s-.58-.21-.89-.21-.6.07-.89.21-.53.37-.75.68c-.21.32-.39.74-.51,1.26s-.19,1.16-.19,1.93.06,1.41.19,1.92c.13.52.3.94.51,1.25.21.32.46.54.75.68s.58.21.89.21.6-.07.89-.21.54-.37.75-.68c.22-.32.39-.74.52-1.25.13-.52.19-1.16.19-1.92Z"/><path class="cls-5" d="m59.63,401.63c0,.88-.09,1.64-.28,2.28s-.45,1.17-.77,1.59-.71.73-1.16.94-.92.31-1.43.31-.99-.1-1.43-.31-.83-.52-1.15-.94c-.33-.42-.58-.95-.77-1.59-.19-.64-.28-1.4-.28-2.28s.09-1.64.28-2.28c.19-.64.44-1.18.77-1.6.33-.42.71-.74,1.15-.94s.92-.31,1.43-.31.99.1,1.43.31.83.52,1.16.94c.33.42.58.96.77,1.6.19.64.28,1.4.28,2.28Zm-1.3,0c0-.77-.06-1.41-.19-1.93s-.3-.94-.52-1.26c-.22-.32-.47-.54-.75-.68s-.58-.21-.89-.21-.6.07-.89.21-.53.37-.75.68c-.21.32-.39.74-.51,1.26s-.19,1.16-.19,1.93.06,1.41.19,1.92c.13.52.3.94.51,1.25.21.32.46.54.75.68s.58.21.89.21.6-.07.89-.21.54-.37.75-.68c.22-.32.39-.74.52-1.25.13-.52.19-1.16.19-1.92Z"/><path class="cls-5" d="m41.33,325.3c0,.88-.09,1.64-.28,2.28s-.45,1.17-.77,1.59-.71.73-1.16.94-.92.31-1.43.31-.99-.1-1.43-.31-.83-.52-1.15-.94c-.33-.42-.58-.95-.77-1.59-.19-.64-.28-1.4-.28-2.28s.09-1.64.28-2.28c.19-.64.44-1.18.77-1.6.33-.42.71-.74,1.15-.94s.92-.31,1.43-.31.99.1,1.43.31.83.52,1.16.94c.33.42.58.96.77,1.6.19.64.28,1.4.28,2.28Zm-1.3,0c0-.77-.06-1.41-.19-1.93s-.3-.94-.52-1.26c-.22-.32-.47-.54-.75-.68s-.58-.21-.89-.21-.6.07-.89.21-.53.37-.75.68c-.21.32-.39.74-.51,1.26s-.19,1.16-.19,1.93.06,1.41.19,1.92c.13.52.3.94.51,1.25.21.32.46.54.75.68s.58.21.89.21.6-.07.89-.21.54-.37.75-.68c.22-.32.39-.74.52-1.25.13-.52.19-1.16.19-1.92Z"/><path class="cls-5" d="m42.5,329.55c0-.12.02-.24.07-.34.04-.11.11-.2.18-.28.08-.08.17-.14.28-.19.11-.05.22-.07.34-.07s.24.02.34.07.2.11.28.19c.08.08.14.17.19.28.05.11.07.22.07.34s-.02.24-.07.35c-.05.11-.11.2-.19.28-.08.08-.17.14-.28.19-.11.04-.22.07-.34.07s-.24-.02-.34-.07c-.11-.04-.2-.11-.28-.19-.08-.08-.14-.17-.18-.28-.04-.1-.07-.22-.07-.35Z"/><path class="cls-5" d="m51.53,329.36v.95h-5.38v-.95h2.15v-6.84c0-.21,0-.41.02-.62l-1.79,1.53c-.06.05-.12.08-.18.09-.06.01-.12.01-.17,0-.05,0-.1-.03-.14-.06s-.08-.06-.1-.09l-.39-.54,2.99-2.58h1.01v9.1h1.97Z"/><path class="cls-5" d="m59.63,325.3c0,.88-.09,1.64-.28,2.28s-.45,1.17-.77,1.59-.71.73-1.16.94-.92.31-1.43.31-.99-.1-1.43-.31-.83-.52-1.15-.94c-.33-.42-.58-.95-.77-1.59-.19-.64-.28-1.4-.28-2.28s.09-1.64.28-2.28c.19-.64.44-1.18.77-1.6.33-.42.71-.74,1.15-.94s.92-.31,1.43-.31.99.1,1.43.31.83.52,1.16.94c.33.42.58.96.77,1.6.19.64.28,1.4.28,2.28Zm-1.3,0c0-.77-.06-1.41-.19-1.93s-.3-.94-.52-1.26c-.22-.32-.47-.54-.75-.68s-.58-.21-.89-.21-.6.07-.89.21-.53.37-.75.68c-.21.32-.39.74-.51,1.26s-.19,1.16-.19,1.93.06,1.41.19,1.92c.13.52.3.94.51,1.25.21.32.46.54.75.68s.58.21.89.21.6-.07.89-.21.54-.37.75-.68c.22-.32.39-.74.52-1.25.13-.52.19-1.16.19-1.92Z"/><path class="cls-5" d="m40.03,248.98c0,.88-.09,1.64-.28,2.28s-.45,1.17-.77,1.59-.71.73-1.16.94-.92.31-1.43.31-.99-.1-1.43-.31-.83-.52-1.15-.94c-.33-.42-.58-.95-.77-1.59-.19-.64-.28-1.4-.28-2.28s.09-1.64.28-2.28c.19-.64.44-1.18.77-1.6.33-.42.71-.74,1.15-.94s.92-.31,1.43-.31.99.1,1.43.31.83.52,1.16.94c.33.42.58.96.77,1.6.19.64.28,1.4.28,2.28Zm-1.3,0c0-.77-.06-1.41-.19-1.93s-.3-.94-.52-1.26c-.22-.32-.47-.54-.75-.68s-.58-.21-.89-.21-.6.07-.89.21-.53.37-.75.68c-.21.32-.39.74-.51,1.26s-.19,1.16-.19,1.93.06,1.41.19,1.92c.13.52.3.94.51,1.25.21.32.46.54.75.68s.58.21.89.21.6-.07.89-.21.54-.37.75-.68c.22-.32.39-.74.52-1.25.13-.52.19-1.16.19-1.92Z"/><path class="cls-5" d="m41.19,253.22c0-.12.02-.24.07-.34.04-.11.11-.2.18-.28.08-.08.17-.14.28-.19.11-.05.22-.07.34-.07s.24.02.34.07.2.11.28.19c.08.08.14.17.19.28.05.11.07.22.07.34s-.02.24-.07.35c-.05.11-.11.2-.19.28-.08.08-.17.14-.28.19-.11.04-.22.07-.34.07s-.24-.02-.34-.07c-.11-.04-.2-.11-.28-.19-.08-.08-.14-.17-.18-.28-.04-.1-.07-.22-.07-.35Z"/><path class="cls-5" d="m50.83,252.81c.14,0,.24.04.32.12.08.08.12.18.12.31v.76h-6.69v-.43c0-.09.02-.18.06-.27.04-.09.1-.18.18-.26l3.21-3.23c.27-.27.51-.53.73-.78.22-.25.41-.5.56-.75.15-.25.27-.51.36-.77s.13-.54.13-.83-.05-.55-.14-.77-.22-.4-.38-.55-.35-.25-.57-.33c-.22-.07-.45-.11-.71-.11s-.49.04-.71.11c-.21.07-.41.18-.57.31s-.3.29-.42.47c-.11.18-.19.38-.24.6-.06.16-.13.27-.23.33s-.23.07-.4.04l-.65-.11c.07-.46.19-.86.38-1.21s.43-.65.71-.89.61-.42.98-.54c.37-.12.77-.19,1.2-.19s.82.06,1.19.19.69.31.96.55c.27.24.48.53.64.88.15.35.23.74.23,1.18,0,.37-.06.72-.17,1.04-.11.32-.26.62-.46.91-.19.29-.41.57-.66.85-.25.28-.51.55-.79.83l-2.65,2.7c.19-.05.38-.09.57-.12s.38-.04.55-.04h3.36Z"/><path class="cls-5" d="m59.63,248.98c0,.88-.09,1.64-.28,2.28s-.45,1.17-.77,1.59-.71.73-1.16.94-.92.31-1.43.31-.99-.1-1.43-.31-.83-.52-1.15-.94c-.33-.42-.58-.95-.77-1.59-.19-.64-.28-1.4-.28-2.28s.09-1.64.28-2.28c.19-.64.44-1.18.77-1.6.33-.42.71-.74,1.15-.94s.92-.31,1.43-.31.99.1,1.43.31.83.52,1.16.94c.33.42.58.96.77,1.6.19.64.28,1.4.28,2.28Zm-1.3,0c0-.77-.06-1.41-.19-1.93s-.3-.94-.52-1.26c-.22-.32-.47-.54-.75-.68s-.58-.21-.89-.21-.6.07-.89.21-.53.37-.75.68c-.21.32-.39.74-.51,1.26s-.19,1.16-.19,1.93.06,1.41.19,1.92c.13.52.3.94.51,1.25.21.32.46.54.75.68s.58.21.89.21.6-.07.89-.21.54-.37.75-.68c.22-.32.39-.74.52-1.25.13-.52.19-1.16.19-1.92Z"/><path class="cls-5" d="m39.89,172.65c0,.88-.09,1.64-.28,2.28s-.45,1.17-.77,1.59-.71.73-1.16.94-.92.31-1.43.31-.99-.1-1.43-.31-.83-.52-1.15-.94c-.33-.42-.58-.95-.77-1.59-.19-.64-.28-1.4-.28-2.28s.09-1.64.28-2.28c.19-.64.44-1.18.77-1.6.33-.42.71-.74,1.15-.94s.92-.31,1.43-.31.99.1,1.43.31.83.52,1.16.94c.33.42.58.96.77,1.6.19.64.28,1.4.28,2.28Zm-1.3,0c0-.77-.06-1.41-.19-1.93s-.3-.94-.52-1.26c-.22-.32-.47-.54-.75-.68s-.58-.21-.89-.21-.6.07-.89.21-.53.37-.75.68c-.21.32-.39.74-.51,1.26s-.19,1.16-.19,1.93.06,1.41.19,1.92c.13.52.3.94.51,1.25.21.32.46.54.75.68s.58.21.89.21.6-.07.89-.21.54-.37.75-.68c.22-.32.39-.74.52-1.25.13-.52.19-1.16.19-1.92Z"/><path class="cls-5" d="m41.05,176.89c0-.12.02-.24.07-.34.04-.11.11-.2.18-.28.08-.08.17-.14.28-.19.11-.05.22-.07.34-.07s.24.02.34.07.2.11.28.19c.08.08.14.17.19.28.05.11.07.22.07.34s-.02.24-.07.35c-.05.11-.11.2-.19.28-.08.08-.17.14-.28.19-.11.04-.22.07-.34.07s-.24-.02-.34-.07c-.11-.04-.2-.11-.28-.19-.08-.08-.14-.17-.18-.28-.04-.1-.07-.22-.07-.35Z"/><path class="cls-5" d="m44.56,170.35c.06-.46.19-.86.38-1.21.19-.35.42-.65.71-.89s.62-.42.99-.54c.37-.12.77-.19,1.2-.19s.82.06,1.18.18.67.29.93.52c.26.22.46.5.61.81s.22.67.22,1.06c0,.32-.04.6-.12.85-.08.25-.2.47-.35.65-.15.19-.33.35-.55.48-.21.13-.46.24-.72.32.65.17,1.14.46,1.47.87.33.41.49.92.49,1.53,0,.46-.09.88-.26,1.25-.18.37-.41.68-.72.94s-.66.46-1.06.59-.84.21-1.3.21c-.53,0-.99-.07-1.37-.2-.38-.13-.7-.32-.96-.55s-.48-.51-.64-.83c-.17-.32-.31-.67-.43-1.04l.54-.22c.14-.06.28-.08.41-.05.13.03.23.11.29.23.06.13.14.29.23.47.09.18.22.36.37.53s.36.31.61.43c.25.12.56.17.93.17.35,0,.66-.06.92-.17.26-.12.48-.26.66-.45.17-.18.31-.38.4-.61.09-.22.13-.45.13-.67,0-.27-.03-.52-.1-.74-.07-.22-.2-.42-.39-.58s-.45-.29-.79-.38c-.33-.09-.76-.14-1.28-.14v-.9c.43,0,.79-.05,1.1-.14.3-.09.55-.21.73-.36.19-.15.33-.34.41-.55.09-.21.13-.45.13-.71,0-.29-.05-.54-.14-.76-.09-.21-.22-.39-.37-.53-.16-.14-.35-.25-.56-.31-.22-.07-.45-.11-.7-.11s-.49.04-.7.11c-.22.07-.41.18-.57.31s-.3.29-.42.47c-.11.18-.19.38-.24.6-.06.16-.14.27-.23.33s-.22.07-.4.04l-.65-.11Z"/><path class="cls-5" d="m59.63,172.65c0,.88-.09,1.64-.28,2.28s-.45,1.17-.77,1.59-.71.73-1.16.94-.92.31-1.43.31-.99-.1-1.43-.31-.83-.52-1.15-.94c-.33-.42-.58-.95-.77-1.59-.19-.64-.28-1.4-.28-2.28s.09-1.64.28-2.28c.19-.64.44-1.18.77-1.6.33-.42.71-.74,1.15-.94s.92-.31,1.43-.31.99.1,1.43.31.83.52,1.16.94c.33.42.58.96.77,1.6.19.64.28,1.4.28,2.28Zm-1.3,0c0-.77-.06-1.41-.19-1.93s-.3-.94-.52-1.26c-.22-.32-.47-.54-.75-.68s-.58-.21-.89-.21-.6.07-.89.21-.53.37-.75.68c-.21.32-.39.74-.51,1.26s-.19,1.16-.19,1.93.06,1.41.19,1.92c.13.52.3.94.51,1.25.21.32.46.54.75.68s.58.21.89.21.6-.07.89-.21.54-.37.75-.68c.22-.32.39-.74.52-1.25.13-.52.19-1.16.19-1.92Z"/><path class="cls-5" d="m40.04,96.33c0,.88-.09,1.64-.28,2.28s-.45,1.17-.77,1.59-.71.73-1.16.94-.92.31-1.43.31-.99-.1-1.43-.31-.83-.52-1.15-.94c-.33-.42-.58-.95-.77-1.59-.19-.64-.28-1.4-.28-2.28s.09-1.64.28-2.28c.19-.64.44-1.18.77-1.6.33-.42.71-.74,1.15-.94s.92-.31,1.43-.31.99.1,1.43.31.83.52,1.16.94c.33.42.58.96.77,1.6.19.64.28,1.4.28,2.28Zm-1.3,0c0-.77-.06-1.41-.19-1.93s-.3-.94-.52-1.26c-.22-.32-.47-.54-.75-.68s-.58-.21-.89-.21-.6.07-.89.21-.53.37-.75.68c-.21.32-.39.74-.51,1.26s-.19,1.16-.19,1.93.06,1.41.19,1.92c.13.52.3.94.51,1.25.21.32.46.54.75.68s.58.21.89.21.6-.07.89-.21.54-.37.75-.68c.22-.32.39-.74.52-1.25.13-.52.19-1.16.19-1.92Z"/><path class="cls-5" d="m41.21,100.57c0-.12.02-.24.07-.34.04-.11.11-.2.18-.28.08-.08.17-.14.28-.19.11-.05.22-.07.34-.07s.24.02.34.07.2.11.28.19c.08.08.14.17.19.28.05.11.07.22.07.34s-.02.24-.07.35c-.05.11-.11.2-.19.28-.08.08-.17.14-.28.19-.11.04-.22.07-.34.07s-.24-.02-.34-.07c-.11-.04-.2-.11-.28-.19-.08-.08-.14-.17-.18-.28-.04-.1-.07-.22-.07-.35Z"/><path class="cls-5" d="m51.32,97.72v.71c0,.08-.02.14-.07.19-.04.05-.11.08-.21.08h-1.25v2.64h-1.09v-2.64h-4.45c-.09,0-.17-.03-.24-.08-.07-.05-.11-.12-.13-.2l-.13-.64,4.88-6.48h1.16v6.41h1.52Zm-2.61,0v-4.14c0-.12,0-.25.01-.4s.02-.29.04-.44l-3.65,4.98h3.6Z"/><path class="cls-5" d="m59.63,96.33c0,.88-.09,1.64-.28,2.28s-.45,1.17-.77,1.59-.71.73-1.16.94-.92.31-1.43.31-.99-.1-1.43-.31-.83-.52-1.15-.94c-.33-.42-.58-.95-.77-1.59-.19-.64-.28-1.4-.28-2.28s.09-1.64.28-2.28c.19-.64.44-1.18.77-1.6.33-.42.71-.74,1.15-.94s.92-.31,1.43-.31.99.1,1.43.31.83.52,1.16.94c.33.42.58.96.77,1.6.19.64.28,1.4.28,2.28Zm-1.3,0c0-.77-.06-1.41-.19-1.93s-.3-.94-.52-1.26c-.22-.32-.47-.54-.75-.68s-.58-.21-.89-.21-.6.07-.89.21-.53.37-.75.68c-.21.32-.39.74-.51,1.26s-.19,1.16-.19,1.93.06,1.41.19,1.92c.13.52.3.94.51,1.25.21.32.46.54.75.68s.58.21.89.21.6-.07.89-.21.54-.37.75-.68c.22-.32.39-.74.52-1.25.13-.52.19-1.16.19-1.92Z"/><path class="cls-5" d="m115.63,436.45h-1.36v-10.03h1.36v10.03Z"/><path class="cls-5" d="m118.99,430.39c.15-.17.32-.33.49-.47.17-.14.36-.26.55-.36.19-.1.4-.18.62-.23s.45-.08.7-.08c.39,0,.73.06,1.03.19.3.13.54.31.74.55.2.24.35.52.45.85.1.33.15.7.15,1.1v4.51h-1.25v-4.51c0-.54-.12-.95-.37-1.25-.25-.3-.62-.44-1.12-.44-.37,0-.71.09-1.03.27-.32.18-.62.42-.89.72v5.22h-1.25v-7.09h.75c.18,0,.29.09.33.26l.1.77Z"/><path class="cls-5" d="m129.65,430.53c-.06.1-.14.15-.26.15-.07,0-.15-.03-.24-.08-.09-.05-.2-.11-.33-.17-.13-.06-.28-.12-.46-.17s-.39-.08-.63-.08c-.21,0-.4.03-.57.08s-.31.13-.43.22c-.12.09-.21.2-.27.33-.06.12-.09.26-.09.4,0,.18.05.33.16.46.11.12.24.23.42.32.17.09.37.17.59.23s.44.14.68.22c.23.08.46.16.67.26.22.09.42.21.59.35.17.14.31.31.42.51.11.2.16.45.16.73,0,.33-.06.63-.17.91-.12.28-.29.52-.52.72-.23.2-.51.36-.84.48-.33.12-.71.18-1.15.18-.5,0-.94-.08-1.34-.24-.4-.16-.74-.37-1.02-.62l.29-.48c.04-.06.08-.11.13-.14.05-.03.12-.05.2-.05.08,0,.17.03.27.1.09.07.21.14.34.22.13.08.29.15.49.22s.43.1.71.1c.24,0,.45-.03.64-.09.18-.06.33-.15.46-.25.12-.11.21-.23.27-.37.06-.14.09-.29.09-.45,0-.2-.05-.36-.16-.49-.1-.13-.24-.24-.42-.33-.17-.09-.37-.17-.59-.24-.22-.07-.45-.14-.68-.21-.23-.08-.46-.16-.68-.26s-.42-.22-.59-.36c-.17-.14-.31-.32-.42-.54-.1-.21-.16-.47-.16-.77,0-.27.06-.53.17-.78.11-.25.28-.47.49-.66.21-.19.48-.34.79-.45.31-.11.67-.17,1.07-.17.47,0,.89.07,1.26.22.37.15.69.35.96.61l-.28.46Z"/><path class="cls-5" d="m133.85,436.56c-.56,0-.99-.16-1.29-.47-.3-.31-.45-.76-.45-1.35v-4.34h-.85c-.08,0-.14-.02-.19-.07-.05-.04-.08-.11-.08-.21v-.5l1.16-.15.29-2.19c.01-.07.05-.13.09-.17.05-.04.11-.07.19-.07h.63v2.44h2.05v.9h-2.05v4.26c0,.3.07.52.22.67s.33.22.56.22c.13,0,.24-.02.34-.05.1-.03.18-.07.25-.12.07-.04.13-.08.18-.12.05-.04.09-.05.13-.05.07,0,.12.04.17.12l.36.59c-.21.2-.47.36-.78.47-.3.11-.62.17-.94.17Z"/><path class="cls-5" d="m137.89,430.78c.22-.49.5-.86.83-1.14.33-.27.73-.41,1.2-.41.15,0,.29.02.43.05s.26.08.37.15l-.09.93c-.03.12-.1.17-.21.17-.07,0-.16-.01-.29-.04-.13-.03-.27-.04-.43-.04-.22,0-.42.03-.6.1-.18.07-.33.16-.47.29-.14.13-.26.29-.37.48-.11.19-.21.41-.3.65v4.48h-1.25v-7.09h.71c.13,0,.23.03.28.08s.09.14.1.27l.08,1.08Z"/><path class="cls-5" d="m147.7,429.36v7.09h-.74c-.18,0-.29-.09-.34-.26l-.1-.76c-.31.34-.65.62-1.04.82-.38.21-.82.31-1.32.31-.39,0-.73-.06-1.03-.19-.3-.13-.54-.31-.75-.54-.2-.23-.35-.52-.45-.85-.1-.33-.15-.7-.15-1.1v-4.52h1.25v4.52c0,.54.12.95.37,1.25s.62.44,1.12.44c.37,0,.71-.09,1.03-.26s.62-.42.89-.72v-5.22h1.25Z"/><path class="cls-5" d="m154.58,430.62c-.04.05-.07.09-.11.12-.04.03-.09.04-.15.04-.07,0-.15-.03-.23-.09-.08-.06-.19-.12-.31-.19-.12-.07-.28-.13-.46-.19s-.4-.09-.66-.09c-.35,0-.66.06-.92.19-.27.12-.49.3-.67.54s-.31.52-.41.85c-.09.33-.14.7-.14,1.11s.05.81.15,1.14c.1.33.24.61.42.84s.4.4.65.52c.25.12.54.18.86.18s.55-.04.75-.11c.2-.07.36-.15.49-.24.13-.09.24-.17.32-.24.09-.07.17-.11.26-.11.1,0,.18.04.24.12l.35.46c-.15.19-.33.35-.53.49-.2.14-.41.25-.63.34-.23.09-.46.16-.71.2s-.5.06-.76.06c-.44,0-.86-.08-1.24-.25-.38-.16-.71-.4-.99-.71-.28-.31-.5-.69-.66-1.14-.16-.45-.24-.97-.24-1.55,0-.53.07-1.02.22-1.46.15-.45.36-.83.64-1.16.28-.32.63-.58,1.04-.76.41-.18.89-.27,1.42-.27.5,0,.94.08,1.32.24.38.16.72.39,1.01.68l-.33.45Z"/><path class="cls-5" d="m163.16,436.45h-1.25v-6.05h-3.65v4.26c0,.3.07.52.22.67s.33.22.56.22c.13,0,.24-.02.34-.05.1-.03.18-.07.25-.12.07-.04.13-.08.18-.12.05-.04.09-.05.13-.05.07,0,.12.04.17.12l.36.59c-.21.2-.47.36-.78.47-.3.11-.62.17-.94.17-.56,0-.99-.16-1.29-.47-.3-.31-.45-.76-.45-1.35v-4.34h-.85c-.08,0-.14-.02-.19-.07-.05-.04-.08-.11-.08-.21v-.5l1.16-.15.29-2.18c.01-.07.05-.13.09-.17.05-.04.11-.07.19-.07h.63v2.44h4.9v6.95Zm.31-9.37c0,.12-.02.23-.07.34-.05.1-.11.2-.2.28s-.18.14-.28.19c-.11.05-.22.07-.34.07s-.23-.02-.34-.07c-.11-.05-.2-.11-.28-.19-.08-.08-.14-.17-.19-.28-.05-.11-.07-.22-.07-.34s.02-.24.07-.35c.05-.11.11-.21.19-.29.08-.08.17-.15.28-.19.1-.05.22-.07.34-.07s.24.02.34.07c.11.05.2.11.28.19.08.08.15.18.2.29.05.11.07.23.07.35Z"/><path class="cls-5" d="m168.13,429.25c.52,0,.99.09,1.4.26.42.17.77.42,1.06.74s.52.7.67,1.15.23.95.23,1.51-.08,1.06-.23,1.51-.38.83-.67,1.15-.65.56-1.06.73c-.42.17-.88.25-1.4.25s-.99-.08-1.41-.25c-.42-.17-.77-.41-1.07-.73s-.52-.7-.68-1.15-.23-.95-.23-1.51.08-1.06.23-1.51.38-.83.68-1.15.65-.56,1.07-.74c.42-.17.89-.26,1.41-.26Zm0,6.33c.7,0,1.22-.23,1.57-.7.35-.47.52-1.12.52-1.96s-.17-1.5-.52-1.97c-.35-.47-.87-.71-1.57-.71-.35,0-.66.06-.93.18s-.48.3-.66.53-.31.51-.39.84c-.09.33-.13.71-.13,1.13,0,.84.17,1.49.52,1.96.35.47.88.7,1.58.7Z"/><path class="cls-5" d="m174.21,430.39c.15-.17.32-.33.49-.47.17-.14.36-.26.55-.36.19-.1.4-.18.62-.23s.45-.08.7-.08c.39,0,.73.06,1.03.19.3.13.54.31.74.55.2.24.35.52.45.85.1.33.15.7.15,1.1v4.51h-1.25v-4.51c0-.54-.12-.95-.37-1.25-.25-.3-.62-.44-1.12-.44-.37,0-.71.09-1.03.27-.32.18-.62.42-.89.72v5.22h-1.25v-7.09h.75c.18,0,.29.09.33.26l.1.77Z"/><path class="cls-5" d="m184.86,430.53c-.06.1-.14.15-.26.15-.07,0-.15-.03-.24-.08-.09-.05-.2-.11-.33-.17-.13-.06-.28-.12-.46-.17s-.39-.08-.63-.08c-.21,0-.4.03-.57.08s-.31.13-.43.22c-.12.09-.21.2-.27.33-.06.12-.09.26-.09.4,0,.18.05.33.16.46.11.12.24.23.42.32.17.09.37.17.59.23s.44.14.68.22c.23.08.46.16.67.26.22.09.42.21.59.35.17.14.31.31.42.51.11.2.16.45.16.73,0,.33-.06.63-.17.91-.12.28-.29.52-.52.72-.23.2-.51.36-.84.48-.33.12-.71.18-1.15.18-.5,0-.94-.08-1.34-.24-.4-.16-.74-.37-1.02-.62l.29-.48c.04-.06.08-.11.13-.14.05-.03.12-.05.2-.05.08,0,.17.03.27.1.09.07.21.14.34.22.13.08.29.15.49.22s.43.1.71.1c.24,0,.45-.03.64-.09.18-.06.33-.15.46-.25.12-.11.21-.23.27-.37.06-.14.09-.29.09-.45,0-.2-.05-.36-.16-.49-.1-.13-.24-.24-.42-.33-.17-.09-.37-.17-.59-.24-.22-.07-.45-.14-.68-.21-.23-.08-.46-.16-.68-.26s-.42-.22-.59-.36c-.17-.14-.31-.32-.42-.54-.1-.21-.16-.47-.16-.77,0-.27.06-.53.17-.78.11-.25.28-.47.49-.66.21-.19.48-.34.79-.45.31-.11.67-.17,1.07-.17.47,0,.89.07,1.26.22.37.15.69.35.96.61l-.28.46Z"/><path class="cls-5" d="m127.3,447.16c.39-.38.81-.66,1.27-.85.45-.19.95-.28,1.5-.28.4,0,.75.07,1.06.2.31.13.57.31.78.55s.37.52.48.85.16.7.16,1.09v4.54h-.55c-.12,0-.21-.02-.28-.06-.07-.04-.12-.12-.15-.23l-.14-.67c-.19.17-.37.33-.55.46-.18.13-.36.25-.56.34-.2.09-.41.16-.63.21-.22.05-.47.07-.74.07s-.53-.04-.78-.12c-.24-.08-.45-.19-.63-.35-.18-.15-.32-.35-.43-.58-.1-.24-.16-.51-.16-.84,0-.28.08-.55.23-.81.15-.26.4-.49.75-.69.35-.2.8-.37,1.35-.49.55-.13,1.24-.2,2.04-.22v-.55c0-.55-.12-.97-.36-1.25-.24-.28-.58-.42-1.04-.42-.31,0-.57.04-.77.12-.21.08-.39.16-.54.26-.15.1-.28.18-.39.26s-.22.12-.33.12c-.08,0-.16-.02-.22-.07s-.11-.1-.15-.17l-.22-.4Zm4.03,2.9c-.57.02-1.06.06-1.47.14-.4.07-.73.17-.99.28-.25.12-.44.25-.55.41-.11.16-.17.34-.17.53s.03.35.09.48c.06.13.14.25.25.33.11.09.23.15.37.19.14.04.29.06.46.06.22,0,.42-.02.6-.07.18-.04.35-.11.51-.19s.32-.18.46-.3c.15-.12.29-.25.43-.4v-1.47Z"/><path class="cls-5" d="m136.44,453.36c-.56,0-.99-.16-1.29-.47-.3-.31-.45-.76-.45-1.35v-4.34h-.85c-.08,0-.14-.02-.19-.07-.05-.04-.08-.11-.08-.21v-.5l1.16-.15.29-2.19c.01-.07.05-.13.09-.17.05-.04.11-.07.19-.07h.63v2.44h2.05v.9h-2.05v4.26c0,.3.07.52.22.67s.33.22.56.22c.13,0,.24-.02.34-.05.1-.03.18-.07.25-.12.07-.04.13-.08.18-.12.05-.04.09-.05.13-.05.07,0,.12.04.17.12l.36.59c-.21.2-.47.36-.78.47-.3.11-.62.17-.94.17Z"/><path class="cls-5" d="m143.32,453.25v-6.03l-.78-.09c-.1-.02-.18-.06-.24-.11-.06-.05-.09-.12-.09-.21v-.51h1.12v-.69c0-.41.06-.77.17-1.08.11-.31.28-.58.49-.8.21-.22.47-.38.77-.49.3-.11.63-.17,1.01-.17.32,0,.61.05.88.14l-.03.62c0,.11-.07.17-.19.18-.12,0-.27.01-.46.01-.21,0-.41.03-.58.08-.18.06-.33.15-.45.27s-.22.29-.29.5c-.07.21-.1.46-.1.76v.65h2.04v.9h-2v6.05h-1.25Z"/><path class="cls-5" d="m148.94,447.58c.22-.49.5-.86.83-1.14.33-.27.73-.41,1.2-.41.15,0,.29.02.43.05s.26.08.37.15l-.09.93c-.03.12-.1.17-.21.17-.07,0-.16-.01-.29-.04-.13-.03-.27-.04-.43-.04-.22,0-.42.03-.6.1-.18.07-.33.16-.47.29-.14.13-.26.29-.37.48-.11.19-.21.41-.3.65v4.48h-1.25v-7.09h.71c.13,0,.23.03.28.08s.09.14.1.27l.08,1.08Z"/><path class="cls-5" d="m155.74,446.05c.52,0,.99.09,1.4.26.42.17.77.42,1.06.74s.52.7.67,1.15.23.95.23,1.51-.08,1.06-.23,1.51-.38.83-.67,1.15-.65.56-1.06.73c-.42.17-.88.25-1.4.25s-.99-.08-1.41-.25c-.42-.17-.77-.41-1.07-.73s-.52-.7-.68-1.15-.23-.95-.23-1.51.08-1.06.23-1.51.38-.83.68-1.15.65-.56,1.07-.74c.42-.17.89-.26,1.41-.26Zm0,6.33c.7,0,1.22-.23,1.57-.7.35-.47.52-1.12.52-1.96s-.17-1.5-.52-1.97c-.35-.47-.87-.71-1.57-.71-.35,0-.66.06-.93.18s-.48.3-.66.53-.31.51-.39.84c-.09.33-.13.71-.13,1.13,0,.84.17,1.49.52,1.96.35.47.88.7,1.58.7Z"/><path class="cls-5" d="m161.82,447.19c.15-.17.32-.33.49-.47.17-.14.36-.26.55-.36.19-.1.4-.18.62-.23s.45-.08.7-.08c.39,0,.73.06,1.03.19.3.13.54.31.74.55.2.24.35.52.45.85.1.33.15.7.15,1.1v4.51h-1.25v-4.51c0-.54-.12-.95-.37-1.25-.25-.3-.62-.44-1.12-.44-.37,0-.71.09-1.03.27-.32.18-.62.42-.89.72v5.22h-1.25v-7.09h.75c.18,0,.29.09.33.26l.1.77Z"/><path class="cls-5" d="m170.45,453.36c-.56,0-.99-.16-1.29-.47-.3-.31-.45-.76-.45-1.35v-4.34h-.85c-.08,0-.14-.02-.19-.07-.05-.04-.08-.11-.08-.21v-.5l1.16-.15.29-2.19c.01-.07.05-.13.09-.17.05-.04.11-.07.19-.07h.63v2.44h2.05v.9h-2.05v4.26c0,.3.07.52.22.67s.33.22.56.22c.13,0,.24-.02.34-.05.1-.03.18-.07.25-.12.07-.04.13-.08.18-.12.05-.04.09-.05.13-.05.07,0,.12.04.17.12l.36.59c-.21.2-.47.36-.78.47-.3.11-.62.17-.94.17Z"/><path class="cls-5" d="m221.1,437.93h-1.55v-11.46h1.55v11.46Z"/><path class="cls-5" d="m224.94,431c.18-.2.36-.38.56-.54s.41-.3.63-.41c.22-.11.46-.2.7-.26.25-.06.52-.09.8-.09.44,0,.83.07,1.17.22s.62.35.85.62c.23.27.4.59.52.97s.18.8.18,1.26v5.16h-1.43v-5.16c0-.61-.14-1.09-.42-1.43-.28-.34-.71-.51-1.28-.51-.42,0-.81.1-1.18.3-.37.2-.7.48-1.01.82v5.97h-1.43v-8.1h.86c.2,0,.33.1.38.3l.11.88Z"/><path class="cls-5" d="m237.09,431.16c-.06.12-.16.18-.3.18-.08,0-.17-.03-.27-.09-.1-.06-.23-.12-.37-.2s-.32-.14-.52-.2c-.2-.06-.44-.09-.72-.09-.24,0-.46.03-.65.09-.19.06-.36.15-.49.25-.14.11-.24.23-.31.37-.07.14-.11.29-.11.46,0,.21.06.38.18.52s.28.26.48.36c.2.1.42.19.67.27.25.08.51.16.77.25s.52.19.77.29c.25.11.47.24.67.4.2.16.36.36.48.59.12.23.18.51.18.84,0,.37-.07.72-.2,1.04-.13.32-.33.59-.59.82-.26.23-.58.42-.96.55-.38.13-.82.2-1.31.2-.57,0-1.08-.09-1.54-.28-.46-.18-.85-.42-1.17-.71l.34-.54c.04-.07.09-.12.15-.16.06-.04.13-.06.22-.06.1,0,.2.04.3.11.11.07.24.16.39.25.15.09.34.17.56.25.22.07.49.11.82.11.28,0,.52-.04.73-.11s.38-.17.52-.29.24-.26.31-.42c.07-.16.1-.33.1-.51,0-.22-.06-.41-.18-.56s-.28-.27-.48-.38c-.2-.1-.42-.19-.68-.27-.25-.08-.51-.16-.78-.24-.26-.09-.52-.18-.78-.29s-.48-.25-.68-.41-.36-.37-.48-.61c-.12-.24-.18-.54-.18-.88,0-.31.06-.61.19-.89.13-.29.31-.54.56-.75.25-.22.55-.39.9-.52s.76-.19,1.22-.19c.53,0,1.01.08,1.44.25.42.17.79.4,1.1.69l-.32.52Z"/><path class="cls-5" d="m241.89,438.05c-.64,0-1.13-.18-1.48-.54-.34-.36-.52-.87-.52-1.54v-4.96h-.98c-.09,0-.16-.03-.22-.08s-.09-.13-.09-.24v-.57l1.33-.17.33-2.5c.02-.08.05-.15.11-.2.06-.05.13-.08.22-.08h.72v2.79h2.34v1.03h-2.34v4.86c0,.34.08.59.25.76s.38.25.64.25c.15,0,.28-.02.39-.06s.2-.08.28-.13c.08-.05.15-.09.2-.13.06-.04.11-.06.15-.06.07,0,.14.04.2.14l.42.68c-.25.23-.54.41-.89.54-.35.13-.7.2-1.07.2Z"/><path class="cls-5" d="m246.49,431.45c.26-.55.57-.99.94-1.3.37-.31.83-.47,1.37-.47.17,0,.33.02.49.06.16.04.3.1.42.18l-.1,1.06c-.03.13-.11.2-.24.2-.08,0-.18-.02-.33-.05-.14-.03-.31-.05-.49-.05-.26,0-.48.04-.68.11-.2.08-.38.19-.54.33-.16.15-.3.33-.42.54-.13.22-.24.46-.34.74v5.12h-1.43v-8.1h.82c.15,0,.26.03.32.09s.1.16.12.3l.1,1.23Z"/><path class="cls-5" d="m257.69,429.82v8.1h-.85c-.2,0-.33-.1-.38-.3l-.11-.87c-.35.39-.75.7-1.18.94-.44.24-.94.36-1.5.36-.44,0-.83-.07-1.17-.22s-.62-.35-.85-.62c-.23-.27-.4-.59-.52-.97-.11-.38-.17-.8-.17-1.26v-5.17h1.42v5.17c0,.61.14,1.09.42,1.42.28.34.71.5,1.28.5.42,0,.81-.1,1.18-.3.37-.2.7-.48,1.01-.83v-5.97h1.42Z"/><path class="cls-5" d="m265.54,431.26c-.04.06-.08.1-.13.14-.04.03-.1.05-.18.05-.08,0-.17-.03-.26-.1-.1-.07-.21-.14-.36-.22s-.31-.15-.52-.22c-.21-.07-.46-.1-.76-.1-.4,0-.75.07-1.06.21-.3.14-.56.35-.76.61s-.36.59-.46.97c-.1.38-.16.8-.16,1.27s.06.93.17,1.31c.11.38.27.7.48.96.21.26.45.46.74.59.29.14.62.2.98.2s.63-.04.86-.12c.22-.08.41-.17.56-.28.15-.1.27-.19.37-.28s.2-.12.29-.12c.12,0,.21.04.27.14l.4.52c-.18.22-.38.41-.6.56-.22.16-.46.28-.72.39-.26.1-.53.18-.81.23-.28.05-.57.07-.86.07-.51,0-.98-.09-1.41-.28s-.81-.46-1.13-.81c-.32-.35-.57-.79-.75-1.31-.18-.52-.27-1.11-.27-1.77,0-.6.08-1.16.25-1.67.17-.51.41-.95.74-1.32.32-.37.72-.66,1.19-.87.47-.21,1.01-.31,1.63-.31.57,0,1.07.09,1.51.28s.82.44,1.16.78l-.38.51Z"/><path class="cls-5" d="m275.34,437.93h-1.42v-6.91h-4.18v4.86c0,.34.08.59.25.76s.38.25.64.25c.15,0,.28-.02.39-.06s.2-.08.28-.13c.08-.05.15-.09.2-.13.06-.04.11-.06.15-.06.07,0,.14.04.2.14l.42.68c-.25.23-.54.41-.89.54-.35.13-.7.2-1.07.2-.64,0-1.13-.18-1.48-.54-.34-.36-.52-.87-.52-1.54v-4.96h-.98c-.09,0-.16-.03-.22-.08s-.09-.13-.09-.24v-.57l1.33-.18.33-2.5c.02-.08.05-.15.11-.2.06-.05.13-.08.22-.08h.72v2.79h5.6v7.94Zm.35-10.7c0,.14-.03.27-.08.39-.06.12-.13.23-.22.32-.09.09-.2.16-.32.22-.12.05-.25.08-.39.08s-.27-.03-.39-.08c-.12-.05-.23-.12-.32-.22-.09-.09-.16-.2-.22-.32-.05-.12-.08-.25-.08-.39s.03-.27.08-.4c.05-.13.13-.24.22-.33.09-.09.2-.17.32-.22.12-.05.25-.08.39-.08s.27.03.39.08c.12.05.23.13.32.22s.17.2.22.33c.06.12.08.26.08.4Z"/><path class="cls-5" d="m281.01,429.69c.59,0,1.12.1,1.6.3s.88.48,1.22.84c.34.36.59.8.77,1.32s.27,1.09.27,1.72-.09,1.22-.27,1.73-.44.95-.77,1.31c-.34.36-.74.64-1.22.84-.47.19-1.01.29-1.6.29s-1.13-.1-1.61-.29c-.48-.2-.88-.47-1.22-.84-.34-.36-.59-.8-.77-1.31-.18-.51-.27-1.09-.27-1.73s.09-1.21.27-1.72c.18-.51.44-.95.77-1.32.34-.36.74-.64,1.22-.84.48-.2,1.01-.3,1.61-.3Zm0,7.23c.8,0,1.4-.27,1.79-.8s.59-1.28.59-2.24-.2-1.72-.59-2.26c-.39-.54-.99-.81-1.79-.81-.41,0-.76.07-1.06.21-.3.14-.55.34-.75.6-.2.26-.35.58-.45.96-.1.38-.15.81-.15,1.29,0,.96.2,1.71.6,2.24.4.54,1,.8,1.81.8Z"/><path class="cls-5" d="m287.95,431c.18-.2.36-.38.56-.54s.41-.3.63-.41c.22-.11.46-.2.7-.26.25-.06.52-.09.8-.09.44,0,.83.07,1.17.22s.62.35.85.62c.23.27.4.59.52.97s.18.8.18,1.26v5.16h-1.43v-5.16c0-.61-.14-1.09-.42-1.43-.28-.34-.71-.51-1.28-.51-.42,0-.81.1-1.18.3-.37.2-.7.48-1.01.82v5.97h-1.43v-8.1h.86c.2,0,.33.1.38.3l.11.88Z"/><path class="cls-5" d="m300.11,431.16c-.06.12-.16.18-.3.18-.08,0-.17-.03-.27-.09-.1-.06-.23-.12-.37-.2s-.32-.14-.52-.2c-.2-.06-.44-.09-.72-.09-.24,0-.46.03-.65.09-.19.06-.36.15-.49.25-.14.11-.24.23-.31.37-.07.14-.11.29-.11.46,0,.21.06.38.18.52s.28.26.48.36c.2.1.42.19.67.27.25.08.51.16.77.25s.52.19.77.29c.25.11.47.24.67.4.2.16.36.36.48.59.12.23.18.51.18.84,0,.37-.07.72-.2,1.04-.13.32-.33.59-.59.82-.26.23-.58.42-.96.55-.38.13-.82.2-1.31.2-.57,0-1.08-.09-1.54-.28-.46-.18-.85-.42-1.17-.71l.34-.54c.04-.07.09-.12.15-.16.06-.04.13-.06.22-.06.1,0,.2.04.3.11.11.07.24.16.39.25.15.09.34.17.56.25.22.07.49.11.82.11.28,0,.52-.04.73-.11s.38-.17.52-.29.24-.26.31-.42c.07-.16.1-.33.1-.51,0-.22-.06-.41-.18-.56s-.28-.27-.48-.38c-.2-.1-.42-.19-.68-.27-.25-.08-.51-.16-.78-.24-.26-.09-.52-.18-.78-.29s-.48-.25-.68-.41-.36-.37-.48-.61c-.12-.24-.18-.54-.18-.88,0-.31.06-.61.19-.89.13-.29.31-.54.56-.75.25-.22.55-.39.9-.52s.76-.19,1.22-.19c.53,0,1.01.08,1.44.25.42.17.79.4,1.1.69l-.32.52Z"/><path class="cls-5" d="m230.25,455.99c-.18.21-.39.4-.63.56-.25.16-.51.29-.79.39-.28.1-.57.18-.87.23s-.59.08-.89.08c-.56,0-1.08-.09-1.55-.28-.47-.19-.88-.47-1.22-.83s-.61-.82-.8-1.36c-.19-.54-.29-1.16-.29-1.86,0-.57.09-1.09.26-1.58.17-.49.42-.92.75-1.28.33-.36.72-.64,1.19-.85.47-.21,1-.31,1.58-.31.49,0,.93.08,1.35.24.41.16.77.4,1.07.7.3.31.54.69.71,1.14.17.45.26.96.26,1.54,0,.22-.02.37-.07.45-.05.08-.14.11-.27.11h-5.42c.02.51.09.96.21,1.34.12.38.3.69.52.95.22.25.49.44.8.57.31.13.66.19,1.04.19.36,0,.67-.04.92-.12s.48-.17.67-.27c.19-.1.34-.18.47-.27s.23-.12.32-.12c.12,0,.21.04.27.14l.4.52Zm-1.15-3.8c0-.33-.05-.63-.14-.91-.09-.27-.23-.51-.41-.71-.18-.2-.4-.35-.65-.46-.26-.11-.55-.16-.87-.16-.68,0-1.22.2-1.62.6-.4.4-.64.95-.74,1.65h4.43Z"/><path class="cls-5" d="m232.09,457.13v-8.1h.86c.2,0,.33.1.38.3l.1.83c.3-.37.63-.67,1.01-.9.37-.23.81-.35,1.3-.35.54,0,.99.15,1.32.46.34.3.58.71.73,1.23.12-.29.27-.55.45-.76.18-.21.39-.39.62-.53.23-.14.47-.24.73-.3.26-.06.52-.1.79-.1.43,0,.81.07,1.14.2.33.14.62.33.85.6.23.26.41.58.53.96.12.38.18.82.18,1.31v5.16h-1.43v-5.16c0-.63-.14-1.12-.42-1.44-.28-.33-.68-.49-1.2-.49-.24,0-.46.04-.67.12-.21.08-.4.2-.56.36-.16.16-.29.36-.38.6-.09.24-.14.52-.14.84v5.16h-1.43v-5.16c0-.65-.13-1.14-.39-1.46-.26-.32-.64-.48-1.14-.48-.35,0-.68.09-.98.28-.3.19-.57.45-.82.77v6.04h-1.43Z"/><path class="cls-5" d="m246.62,450.19c.34-.4.73-.71,1.16-.94.43-.23.92-.35,1.48-.35.47,0,.9.09,1.28.27.38.18.71.44.97.79s.47.76.61,1.25c.14.49.21,1.04.21,1.66,0,.66-.08,1.25-.24,1.79-.16.54-.39,1-.69,1.38-.3.38-.67.68-1.1.89s-.92.32-1.46.32-.98-.1-1.35-.3c-.37-.2-.68-.48-.96-.85l-.07.74c-.04.2-.17.3-.37.3h-.92v-11.78h1.43v4.85Zm0,4.98c.26.35.55.6.86.74.31.14.65.22,1.03.22.76,0,1.35-.27,1.75-.81.41-.54.61-1.34.61-2.41,0-.99-.18-1.72-.54-2.19-.36-.47-.87-.7-1.54-.7-.46,0-.87.11-1.21.32-.34.21-.66.51-.96.9v3.92Z"/><path class="cls-5" d="m260.74,455.99c-.18.21-.39.4-.63.56-.25.16-.51.29-.79.39-.28.1-.57.18-.87.23s-.59.08-.89.08c-.56,0-1.08-.09-1.55-.28-.47-.19-.88-.47-1.22-.83s-.61-.82-.8-1.36c-.19-.54-.29-1.16-.29-1.86,0-.57.09-1.09.26-1.58.17-.49.42-.92.75-1.28.33-.36.72-.64,1.19-.85.47-.21,1-.31,1.58-.31.49,0,.93.08,1.35.24.41.16.77.4,1.07.7.3.31.54.69.71,1.14.17.45.26.96.26,1.54,0,.22-.02.37-.07.45-.05.08-.14.11-.27.11h-5.42c.02.51.09.96.21,1.34.12.38.3.69.52.95.22.25.49.44.8.57.31.13.66.19,1.04.19.36,0,.67-.04.92-.12s.48-.17.67-.27c.19-.1.34-.18.47-.27s.23-.12.32-.12c.12,0,.21.04.27.14l.4.52Zm-1.15-3.8c0-.33-.05-.63-.14-.91-.09-.27-.23-.51-.41-.71-.18-.2-.4-.35-.65-.46-.26-.11-.55-.16-.87-.16-.68,0-1.22.2-1.62.6-.4.4-.64.95-.74,1.65h4.43Z"/><path class="cls-5" d="m269.31,445.34v11.78h-.85c-.2,0-.33-.1-.38-.3l-.13-.98c-.35.42-.74.75-1.18,1.01-.44.26-.96.38-1.54.38-.46,0-.89-.09-1.26-.27-.38-.18-.7-.44-.97-.79-.27-.35-.47-.78-.62-1.3-.14-.52-.22-1.11-.22-1.78,0-.6.08-1.15.24-1.67s.39-.96.69-1.34c.3-.38.67-.68,1.1-.89s.92-.32,1.47-.32c.5,0,.92.08,1.28.25s.67.4.95.7v-4.49h1.42Zm-1.42,5.61c-.27-.36-.55-.61-.86-.75s-.66-.21-1.04-.21c-.75,0-1.33.27-1.74.81-.41.54-.61,1.31-.61,2.3,0,.53.04.98.14,1.36s.22.69.4.93c.18.24.39.42.65.53s.55.17.87.17c.47,0,.88-.11,1.23-.32.35-.21.67-.51.96-.9v-3.91Z"/><path class="cls-5" d="m278.23,445.34v11.78h-.85c-.2,0-.33-.1-.38-.3l-.13-.98c-.35.42-.74.75-1.18,1.01-.44.26-.96.38-1.54.38-.46,0-.89-.09-1.26-.27-.38-.18-.7-.44-.97-.79-.27-.35-.47-.78-.62-1.3-.14-.52-.22-1.11-.22-1.78,0-.6.08-1.15.24-1.67s.39-.96.69-1.34c.3-.38.67-.68,1.1-.89s.92-.32,1.47-.32c.5,0,.92.08,1.28.25s.67.4.95.7v-4.49h1.42Zm-1.42,5.61c-.27-.36-.55-.61-.86-.75s-.66-.21-1.04-.21c-.75,0-1.33.27-1.74.81-.41.54-.61,1.31-.61,2.3,0,.53.04.98.14,1.36s.22.69.4.93c.18.24.39.42.65.53s.55.17.87.17c.47,0,.88-.11,1.23-.32.35-.21.67-.51.96-.9v-3.91Z"/><path class="cls-5" d="m287.03,455.99c-.18.21-.39.4-.63.56-.25.16-.51.29-.79.39-.28.1-.57.18-.87.23s-.59.08-.89.08c-.56,0-1.08-.09-1.55-.28-.47-.19-.88-.47-1.22-.83s-.61-.82-.8-1.36c-.19-.54-.29-1.16-.29-1.86,0-.57.09-1.09.26-1.58.17-.49.42-.92.75-1.28.33-.36.72-.64,1.19-.85.47-.21,1-.31,1.58-.31.49,0,.93.08,1.35.24.41.16.77.4,1.07.7.3.31.54.69.71,1.14.17.45.26.96.26,1.54,0,.22-.02.37-.07.45-.05.08-.14.11-.27.11h-5.42c.02.51.09.96.21,1.34.12.38.3.69.52.95.22.25.49.44.8.57.31.13.66.19,1.04.19.36,0,.67-.04.92-.12s.48-.17.67-.27c.19-.1.34-.18.47-.27s.23-.12.32-.12c.12,0,.21.04.27.14l.4.52Zm-1.15-3.8c0-.33-.05-.63-.14-.91-.09-.27-.23-.51-.41-.71-.18-.2-.4-.35-.65-.46-.26-.11-.55-.16-.87-.16-.68,0-1.22.2-1.62.6-.4.4-.64.95-.74,1.65h4.43Z"/><path class="cls-5" d="m295.6,445.34v11.78h-.85c-.2,0-.33-.1-.38-.3l-.13-.98c-.35.42-.74.75-1.18,1.01-.44.26-.96.38-1.54.38-.46,0-.89-.09-1.26-.27-.38-.18-.7-.44-.97-.79-.27-.35-.47-.78-.62-1.3-.14-.52-.22-1.11-.22-1.78,0-.6.08-1.15.24-1.67s.39-.96.69-1.34c.3-.38.67-.68,1.1-.89s.92-.32,1.47-.32c.5,0,.92.08,1.28.25s.67.4.95.7v-4.49h1.42Zm-1.42,5.61c-.27-.36-.55-.61-.86-.75s-.66-.21-1.04-.21c-.75,0-1.33.27-1.74.81-.41.54-.61,1.31-.61,2.3,0,.53.04.98.14,1.36s.22.69.4.93c.18.24.39.42.65.53s.55.17.87.17c.47,0,.88-.11,1.23-.32.35-.21.67-.51.96-.9v-3.91Z"/><line class="cls-4" x1="63.95" y1="97.62" x2="71.81" y2="97.62"/><line class="cls-4" x1="63.95" y1="174.23" x2="71.81" y2="174.23"/><line class="cls-4" x1="63.95" y1="249.77" x2="71.81" y2="249.77"/><line class="cls-4" x1="63.95" y1="325.68" x2="71.81" y2="325.68"/><line class="cls-4" x1="63.95" y1="404.32" x2="71.81" y2="404.32"/><path class="cls-5" d="m142.42,115.2c0,1-.11,1.87-.32,2.6-.22.73-.51,1.34-.88,1.82-.37.48-.81.84-1.32,1.07-.51.24-1.05.35-1.64.35s-1.13-.12-1.64-.35c-.5-.23-.94-.59-1.32-1.07-.37-.48-.67-1.09-.88-1.82-.21-.73-.32-1.6-.32-2.6s.11-1.87.32-2.61c.21-.74.51-1.35.88-1.83.37-.48.81-.84,1.32-1.08.5-.23,1.05-.35,1.64-.35s1.13.12,1.64.35c.51.24.95.59,1.32,1.08s.67,1.09.88,1.83c.22.74.32,1.61.32,2.61Zm-1.48,0c0-.88-.07-1.61-.22-2.2-.15-.59-.34-1.07-.59-1.44-.25-.36-.53-.62-.86-.78-.33-.16-.66-.24-1.02-.24s-.69.08-1.02.24c-.33.16-.61.42-.86.78-.25.36-.44.84-.59,1.44s-.22,1.33-.22,2.2.07,1.61.22,2.2c.15.59.34,1.07.59,1.43.25.36.53.62.86.78.33.16.66.24,1.02.24s.69-.08,1.02-.24c.33-.16.61-.42.86-.78.25-.36.45-.84.59-1.43.15-.59.22-1.33.22-2.2Z"/><path class="cls-5" d="m143.74,120.05c0-.14.03-.27.08-.39.05-.12.12-.23.21-.32s.19-.16.32-.22c.12-.05.25-.08.39-.08s.27.03.39.08c.12.05.23.12.32.22s.16.2.22.32c.05.12.08.25.08.39s-.03.28-.08.4c-.05.12-.12.23-.22.32s-.2.16-.32.21c-.12.05-.25.08-.39.08s-.27-.03-.39-.08c-.12-.05-.23-.12-.32-.21s-.16-.2-.21-.32c-.05-.12-.08-.25-.08-.4Z"/><path class="cls-5" d="m147.73,112.57c.07-.52.22-.99.43-1.39.21-.4.48-.74.81-1.01.33-.27.7-.48,1.13-.62s.88-.21,1.37-.21.93.07,1.34.21.76.34,1.06.59c.3.26.53.57.69.93.17.36.25.77.25,1.21,0,.36-.05.69-.14.97-.09.29-.23.53-.4.75-.17.21-.38.39-.63.54s-.52.27-.82.37c.75.19,1.31.52,1.68.99s.56,1.05.56,1.75c0,.53-.1,1-.3,1.42-.2.42-.47.78-.82,1.08s-.75.52-1.21.68c-.46.16-.96.24-1.48.24-.61,0-1.13-.08-1.56-.23-.43-.15-.8-.36-1.1-.63s-.54-.58-.74-.95c-.19-.37-.35-.76-.49-1.19l.62-.26c.16-.07.32-.09.47-.06.15.03.26.12.33.26.07.15.16.33.26.54.1.21.25.41.43.6.18.19.41.36.69.49.28.13.64.2,1.07.2.4,0,.75-.07,1.05-.2.3-.13.55-.3.75-.51.2-.21.35-.44.45-.7.1-.26.15-.51.15-.76,0-.31-.04-.59-.12-.85s-.23-.48-.45-.66-.52-.33-.9-.44c-.38-.11-.87-.16-1.47-.16v-1.03c.49,0,.91-.06,1.25-.16.34-.1.62-.24.84-.42s.37-.39.47-.63c.1-.25.15-.52.15-.82,0-.33-.05-.62-.16-.86-.1-.25-.25-.45-.43-.61-.18-.16-.4-.28-.64-.36s-.52-.12-.8-.12-.56.04-.8.13c-.25.09-.47.2-.66.36-.19.15-.35.33-.48.54-.13.21-.22.44-.27.69-.07.19-.16.31-.26.37-.1.06-.25.08-.45.05l-.74-.13Z"/><path class="cls-5" d="m156.94,112.57c.07-.52.22-.99.43-1.39.21-.4.48-.74.81-1.01.33-.27.7-.48,1.13-.62s.88-.21,1.37-.21.93.07,1.34.21.76.34,1.06.59c.3.26.53.57.69.93.17.36.25.77.25,1.21,0,.36-.05.69-.14.97-.09.29-.23.53-.4.75-.17.21-.38.39-.63.54s-.52.27-.82.37c.75.19,1.31.52,1.68.99s.56,1.05.56,1.75c0,.53-.1,1-.3,1.42-.2.42-.47.78-.82,1.08s-.75.52-1.21.68c-.46.16-.96.24-1.48.24-.61,0-1.13-.08-1.56-.23-.43-.15-.8-.36-1.1-.63s-.54-.58-.74-.95c-.19-.37-.35-.76-.49-1.19l.62-.26c.16-.07.32-.09.47-.06.15.03.26.12.33.26.07.15.16.33.26.54.1.21.25.41.43.6.18.19.41.36.69.49.28.13.64.2,1.07.2.4,0,.75-.07,1.05-.2.3-.13.55-.3.75-.51.2-.21.35-.44.45-.7.1-.26.15-.51.15-.76,0-.31-.04-.59-.12-.85s-.23-.48-.45-.66-.52-.33-.9-.44c-.38-.11-.87-.16-1.47-.16v-1.03c.49,0,.91-.06,1.25-.16.34-.1.62-.24.84-.42s.37-.39.47-.63c.1-.25.15-.52.15-.82,0-.33-.05-.62-.16-.86-.1-.25-.25-.45-.43-.61-.18-.16-.4-.28-.64-.36s-.52-.12-.8-.12-.56.04-.8.13c-.25.09-.47.2-.66.36-.19.15-.35.33-.48.54-.13.21-.22.44-.27.69-.07.19-.16.31-.26.37-.1.06-.25.08-.45.05l-.74-.13Z"/><path class="cls-5" d="m249.07,83.07c0,1-.11,1.87-.32,2.6-.22.73-.51,1.34-.88,1.82-.37.48-.81.84-1.32,1.07-.51.24-1.05.35-1.64.35s-1.13-.12-1.64-.35c-.5-.23-.94-.59-1.32-1.07-.37-.48-.67-1.09-.88-1.82-.21-.73-.32-1.6-.32-2.6s.11-1.87.32-2.61c.21-.74.51-1.35.88-1.83.37-.48.81-.84,1.32-1.08.5-.23,1.05-.35,1.64-.35s1.13.12,1.64.35c.51.24.95.59,1.32,1.08s.67,1.09.88,1.83c.22.74.32,1.61.32,2.61Zm-1.48,0c0-.88-.07-1.61-.22-2.2-.15-.59-.34-1.07-.59-1.44-.25-.36-.53-.62-.86-.78-.33-.16-.66-.24-1.02-.24s-.69.08-1.02.24c-.33.16-.61.42-.86.78-.25.36-.44.84-.59,1.44s-.22,1.33-.22,2.2.07,1.61.22,2.2c.15.59.34,1.07.59,1.43.25.36.53.62.86.78.33.16.66.24,1.02.24s.69-.08,1.02-.24c.33-.16.61-.42.86-.78.25-.36.45-.84.59-1.43.15-.59.22-1.33.22-2.2Z"/><path class="cls-5" d="m250.39,87.92c0-.14.03-.27.08-.39.05-.12.12-.23.21-.32s.19-.16.32-.22c.12-.05.25-.08.39-.08s.27.03.39.08c.12.05.23.12.32.22s.16.2.22.32c.05.12.08.25.08.39s-.03.28-.08.4c-.05.12-.12.23-.22.32s-.2.16-.32.21c-.12.05-.25.08-.39.08s-.27-.03-.39-.08c-.12-.05-.23-.12-.32-.21s-.16-.2-.21-.32c-.05-.12-.08-.25-.08-.4Z"/><path class="cls-5" d="m254.39,80.43c.07-.52.22-.99.43-1.39.21-.4.48-.74.81-1.01.33-.27.7-.48,1.13-.62s.88-.21,1.37-.21.93.07,1.34.21.76.34,1.06.59c.3.26.53.57.69.93.17.36.25.77.25,1.21,0,.36-.05.69-.14.97-.09.29-.23.53-.4.75-.17.21-.38.39-.63.54s-.52.27-.82.37c.75.19,1.31.52,1.68.99s.56,1.05.56,1.75c0,.53-.1,1-.3,1.42-.2.42-.47.78-.82,1.08s-.75.52-1.21.68c-.46.16-.96.24-1.48.24-.61,0-1.13-.08-1.56-.23-.43-.15-.8-.36-1.1-.63s-.54-.58-.74-.95c-.19-.37-.35-.76-.49-1.19l.62-.26c.16-.07.32-.09.47-.06.15.03.26.12.33.26.07.15.16.33.26.54.1.21.25.41.43.6.18.19.41.36.69.49.28.13.64.2,1.07.2.4,0,.75-.07,1.05-.2.3-.13.55-.3.75-.51.2-.21.35-.44.45-.7.1-.26.15-.51.15-.76,0-.31-.04-.59-.12-.85s-.23-.48-.45-.66-.52-.33-.9-.44c-.38-.11-.87-.16-1.47-.16v-1.03c.49,0,.91-.06,1.25-.16.34-.1.62-.24.84-.42s.37-.39.47-.63c.1-.25.15-.52.15-.82,0-.33-.05-.62-.16-.86-.1-.25-.25-.45-.43-.61-.18-.16-.4-.28-.64-.36s-.52-.12-.8-.12-.56.04-.8.13c-.25.09-.47.2-.66.36-.19.15-.35.33-.48.54-.13.21-.22.44-.27.69-.07.19-.16.31-.26.37-.1.06-.25.08-.45.05l-.74-.13Z"/><path class="cls-5" d="m266.27,81.63c-.1.13-.2.25-.29.37-.09.12-.18.24-.27.36.27-.19.57-.33.9-.43s.68-.15,1.06-.15c.46,0,.9.08,1.31.23s.77.37,1.08.66.55.65.73,1.07c.18.42.27.91.27,1.45s-.1,1.02-.29,1.47-.46.85-.8,1.18-.76.6-1.24.79c-.48.19-1.01.29-1.6.29s-1.1-.09-1.57-.28c-.47-.18-.87-.44-1.2-.78-.33-.34-.58-.75-.76-1.23s-.27-1.02-.27-1.62c0-.5.11-1.04.33-1.6.22-.57.57-1.17,1.06-1.82l2.91-3.91c.07-.1.18-.18.31-.24.13-.07.28-.1.45-.1h1.26l-3.4,4.3Zm.83,6.11c.38,0,.73-.06,1.04-.18.31-.12.58-.29.8-.51.22-.22.39-.48.51-.78.12-.3.18-.62.18-.98,0-.37-.06-.71-.18-1.01-.12-.3-.28-.56-.5-.77-.22-.21-.47-.37-.77-.48-.3-.11-.63-.17-.98-.17-.38,0-.73.06-1.04.2-.31.13-.57.31-.79.53-.22.22-.38.48-.5.77-.12.29-.17.59-.17.91,0,.37.05.7.16,1.01.11.3.26.57.47.78.21.22.46.39.75.51s.63.18,1.01.18Z"/><path class="cls-5" d="m279.18,87.44c.15,0,.28.04.37.14s.14.21.14.35v.86h-7.65v-.49c0-.1.02-.21.06-.31.04-.11.11-.21.2-.3l3.67-3.69c.3-.31.58-.61.83-.89.25-.29.46-.57.64-.86s.31-.58.41-.88c.1-.3.14-.61.14-.95s-.05-.63-.16-.88c-.11-.25-.25-.46-.44-.63-.18-.17-.4-.29-.65-.37-.25-.08-.52-.12-.81-.12s-.56.04-.81.13c-.25.09-.46.2-.65.36-.19.15-.35.33-.48.54s-.22.44-.27.69c-.06.19-.15.31-.26.37-.11.06-.26.08-.46.05l-.74-.13c.07-.52.22-.99.44-1.39s.49-.74.82-1.01c.33-.27.7-.48,1.12-.62.42-.14.88-.21,1.37-.21s.94.07,1.36.22.79.35,1.1.63c.31.27.55.61.73,1s.26.84.26,1.34c0,.43-.06.82-.19,1.19s-.3.71-.52,1.04-.47.65-.76.97c-.29.32-.59.63-.91.95l-3.02,3.09c.21-.06.43-.11.65-.14.22-.04.43-.05.63-.05h3.84Z"/><path class="cls-5" d="m14.17,306.47h1.3v6.5H4.01v-1.54h10.16v-4.96Z"/><path class="cls-5" d="m4.83,303.32c.14,0,.27.03.39.08.12.06.23.13.32.22s.17.2.22.33c.05.12.08.26.08.4s-.03.27-.08.39c-.05.12-.13.23-.22.32-.09.09-.2.16-.32.22-.12.05-.25.08-.39.08s-.27-.03-.4-.08-.23-.13-.33-.22c-.09-.09-.17-.2-.22-.32s-.08-.25-.08-.39.03-.27.08-.4c.05-.13.13-.23.22-.33s.2-.17.33-.22.26-.08.4-.08Zm2.54.3h8.1v1.42H7.37v-1.42Z"/><path class="cls-5" d="m3.69,299.98h6.94v-.37c0-.11-.01-.2-.04-.27-.03-.07-.09-.15-.18-.23l-2.74-2.56c-.09-.07-.16-.15-.21-.24-.05-.08-.08-.19-.08-.33v-1.29l3.18,2.98c.18.14.32.3.42.46.06-.1.14-.18.22-.26.08-.08.18-.15.28-.22l4-3.17v1.27c0,.12-.02.23-.06.32-.04.09-.11.16-.22.23l-3.32,2.66c-.11.08-.19.16-.22.24-.03.08-.05.2-.05.36v.41h3.87v1.43H3.69v-1.43Z"/><path class="cls-5" d="m14.34,287.14c.21.18.4.39.56.63.16.25.29.51.39.79.1.28.18.57.23.87.05.3.08.59.08.89,0,.56-.09,1.08-.28,1.55-.19.47-.47.88-.83,1.22-.37.34-.82.61-1.36.8-.54.19-1.16.29-1.86.29-.57,0-1.09-.09-1.58-.26s-.92-.42-1.28-.75c-.36-.33-.64-.72-.85-1.19-.21-.47-.31-1-.31-1.58,0-.48.08-.93.24-1.35.16-.41.4-.77.7-1.07.31-.3.69-.54,1.14-.71.45-.17.96-.26,1.54-.26.22,0,.37.02.45.07.07.05.11.14.11.27v5.42c.51-.02.96-.09,1.34-.21.38-.12.69-.3.95-.52.25-.22.44-.49.57-.8.12-.31.19-.66.19-1.04,0-.36-.04-.67-.12-.92-.08-.26-.17-.48-.27-.67-.1-.19-.19-.34-.27-.47-.08-.12-.12-.23-.12-.32,0-.12.05-.21.14-.27l.52-.4Zm-3.8,1.15c-.33,0-.63.05-.91.14-.27.09-.51.23-.71.41-.2.18-.35.4-.46.65s-.16.55-.16.87c0,.68.2,1.22.6,1.62s.95.64,1.65.74v-4.43Z"/><path class="cls-5" d="m3.69,283.85h11.78v1.42H3.69v-1.42Z"/><path class="cls-5" d="m4.83,279.88c.14,0,.27.03.39.08.12.06.23.13.32.22s.17.2.22.33c.05.12.08.26.08.4s-.03.27-.08.39c-.05.12-.13.23-.22.32-.09.09-.2.16-.32.22-.12.05-.25.08-.39.08s-.27-.03-.4-.08-.23-.13-.33-.22c-.09-.09-.17-.2-.22-.32s-.08-.25-.08-.39.03-.27.08-.4c.05-.13.13-.23.22-.33s.2-.17.33-.22.26-.08.4-.08Zm2.54.3h8.1v1.42H7.37v-1.42Z"/><path class="cls-5" d="m8.45,276.53c-.37-.35-.66-.73-.88-1.15s-.33-.91-.33-1.46c0-.44.07-.83.22-1.17.15-.34.35-.62.62-.85.27-.23.59-.4.97-.52.38-.12.8-.18,1.26-.18h5.16v1.43h-5.16c-.61,0-1.09.14-1.43.42-.34.28-.51.71-.51,1.28,0,.42.1.81.3,1.18s.48.7.82,1.01h5.97v1.43H3.69v-1.43h4.76Z"/><path class="cls-5" d="m7.25,265.65c0-.59.1-1.13.3-1.6s.48-.88.84-1.22c.36-.34.8-.59,1.32-.77s1.09-.27,1.72-.27,1.22.09,1.73.27c.51.18.95.44,1.31.77.36.34.64.74.84,1.22.19.47.29,1.01.29,1.6s-.1,1.13-.29,1.61c-.19.48-.47.88-.84,1.22-.36.34-.8.59-1.31.77-.51.18-1.09.27-1.73.27s-1.21-.09-1.72-.27-.95-.44-1.32-.77c-.36-.34-.64-.74-.84-1.22-.2-.48-.3-1.01-.3-1.61Zm7.23,0c0-.8-.27-1.4-.8-1.79-.54-.39-1.28-.59-2.24-.59s-1.72.2-2.26.59c-.54.39-.81.99-.81,1.79,0,.41.07.76.21,1.06s.34.55.6.75c.26.2.58.35.96.45.38.1.81.15,1.29.15.96,0,1.71-.2,2.24-.6.54-.4.8-1,.8-1.81Z"/><path class="cls-5" d="m7.25,256.6c0-.59.1-1.13.3-1.6s.48-.88.84-1.22c.36-.34.8-.59,1.32-.77s1.09-.27,1.72-.27,1.22.09,1.73.27c.51.18.95.44,1.31.77.36.34.64.74.84,1.22.19.47.29,1.01.29,1.6s-.1,1.13-.29,1.61c-.19.48-.47.88-.84,1.22-.36.34-.8.59-1.31.77-.51.18-1.09.27-1.73.27s-1.21-.09-1.72-.27-.95-.44-1.32-.77c-.36-.34-.64-.74-.84-1.22-.2-.48-.3-1.01-.3-1.61Zm7.23,0c0-.8-.27-1.4-.8-1.79-.54-.39-1.28-.59-2.24-.59s-1.72.2-2.26.59c-.54.39-.81.99-.81,1.79,0,.41.07.76.21,1.06s.34.55.6.75c.26.2.58.35.96.45.38.1.81.15,1.29.15.96,0,1.71-.2,2.24-.6.54-.4.8-1,.8-1.81Z"/><path class="cls-5" d="m3.69,244.24h11.78v.85c0,.2-.1.33-.3.38l-.98.13c.42.35.75.74,1.01,1.18.26.44.38.96.38,1.54,0,.46-.09.89-.27,1.26-.18.38-.44.7-.79.97s-.78.47-1.3.62c-.52.14-1.11.22-1.78.22-.6,0-1.15-.08-1.67-.24-.51-.16-.96-.39-1.34-.69-.38-.3-.68-.67-.89-1.1-.22-.43-.32-.92-.32-1.47,0-.5.08-.92.25-1.28s.4-.67.7-.95H3.69v-1.42Zm5.61,1.42c-.36.27-.61.56-.75.86-.14.31-.21.66-.21,1.04,0,.75.27,1.33.81,1.74.54.41,1.31.61,2.3.61.53,0,.98-.04,1.36-.14s.69-.22.93-.4c.24-.18.42-.39.53-.65.11-.26.17-.55.17-.87,0-.47-.11-.88-.32-1.23-.21-.35-.51-.67-.9-.96h-3.91Z"/><path class="cls-5" d="m7.25,234.48c0-.59.1-1.13.3-1.6s.48-.88.84-1.22c.36-.34.8-.59,1.32-.77s1.09-.27,1.72-.27,1.22.09,1.73.27c.51.18.95.44,1.31.77.36.34.64.74.84,1.22.19.47.29,1.01.29,1.6s-.1,1.13-.29,1.61c-.19.48-.47.88-.84,1.22-.36.34-.8.59-1.31.77-.51.18-1.09.27-1.73.27s-1.21-.09-1.72-.27-.95-.44-1.32-.77c-.36-.34-.64-.74-.84-1.22-.2-.48-.3-1.01-.3-1.61Zm7.23,0c0-.8-.27-1.4-.8-1.79-.54-.39-1.28-.59-2.24-.59s-1.72.2-2.26.59c-.54.39-.81.99-.81,1.79,0,.41.07.76.21,1.06s.34.55.6.75c.26.2.58.35.96.45.38.1.81.15,1.29.15.96,0,1.71-.2,2.24-.6.54-.4.8-1,.8-1.81Z"/><path class="cls-5" d="m15.48,228.6h-6.89l-.1.9c-.03.11-.07.2-.12.28-.06.07-.14.11-.24.11h-.58v-1.28h-.78c-.46,0-.88-.07-1.24-.2-.36-.13-.66-.32-.91-.56s-.44-.53-.56-.88-.19-.73-.19-1.15c0-.36.05-.7.16-1l.71.03c.13.01.2.08.21.21.01.13.02.31.02.52,0,.25.03.47.1.67.06.2.17.37.31.52.14.14.33.25.57.33.23.08.53.12.87.12h.74v-2.34h1.03v2.29h6.91v1.43Z"/><path class="cls-5" d="m15.48,218.89h-6.89l-.1.9c-.03.11-.07.2-.12.28-.06.07-.14.11-.24.11h-.58v-1.28h-.78c-.46,0-.88-.07-1.24-.2-.36-.13-.66-.32-.91-.56s-.44-.53-.56-.88-.19-.73-.19-1.15c0-.36.05-.7.16-1l.71.03c.13.01.2.08.21.21.01.13.02.31.02.52,0,.25.03.47.1.67.06.2.17.37.31.52.14.14.33.25.57.33.23.08.53.12.87.12h.74v-2.34h1.03v2.29h6.91v1.43Z"/><path class="cls-5" d="m7.25,210.57c0-.59.1-1.13.3-1.6s.48-.88.84-1.22c.36-.34.8-.59,1.32-.77s1.09-.27,1.72-.27,1.22.09,1.73.27c.51.18.95.44,1.31.77.36.34.64.74.84,1.22.19.47.29,1.01.29,1.6s-.1,1.13-.29,1.61c-.19.48-.47.88-.84,1.22-.36.34-.8.59-1.31.77-.51.18-1.09.27-1.73.27s-1.21-.09-1.72-.27-.95-.44-1.32-.77c-.36-.34-.64-.74-.84-1.22-.2-.48-.3-1.01-.3-1.61Zm7.23,0c0-.8-.27-1.4-.8-1.79-.54-.39-1.28-.59-2.24-.59s-1.72.2-2.26.59c-.54.39-.81.99-.81,1.79,0,.41.07.76.21,1.06s.34.55.6.75c.26.2.58.35.96.45.38.1.81.15,1.29.15.96,0,1.71-.2,2.24-.6.54-.4.8-1,.8-1.81Z"/><path class="cls-5" d="m9,203.63c-.55-.26-.99-.57-1.3-.94-.31-.37-.47-.83-.47-1.37,0-.17.02-.33.06-.49.04-.16.1-.3.18-.42l1.06.1c.13.03.2.11.2.24,0,.07-.02.18-.05.33-.03.14-.05.31-.05.49,0,.26.04.48.11.68.07.2.19.38.33.54.15.16.33.3.54.42.22.13.46.24.74.34h5.12v1.43H7.37v-.82c0-.15.03-.26.09-.32.06-.06.16-.1.3-.12l1.23-.1Z"/><path class="cls-5" d="m15.48,199.13H7.37v-.86c0-.2.1-.33.3-.38l.83-.1c-.37-.3-.67-.63-.9-1.01-.23-.37-.35-.81-.35-1.3,0-.54.15-.99.46-1.32.3-.34.71-.58,1.23-.73-.29-.12-.55-.27-.76-.45-.21-.18-.39-.39-.53-.62s-.24-.47-.3-.73c-.06-.26-.1-.52-.1-.79,0-.43.07-.81.2-1.14.14-.33.33-.62.6-.85.26-.23.58-.41.96-.53s.82-.18,1.31-.18h5.16v1.43h-5.16c-.63,0-1.12.14-1.44.42s-.49.68-.49,1.2c0,.23.04.46.12.67.08.21.2.4.36.56.16.16.36.29.6.38s.52.14.84.14h5.16v1.43h-5.16c-.65,0-1.14.13-1.46.39-.32.26-.48.64-.48,1.14,0,.35.09.68.28.98.19.3.45.57.77.82h6.04v1.43Z"/><path class="cls-5" d="m8.71,177.15c.12.06.18.16.18.3,0,.08-.03.17-.09.27-.06.1-.12.23-.2.37-.07.15-.14.32-.2.52-.06.2-.09.44-.09.72,0,.24.03.46.09.65.06.19.15.36.25.49.11.14.23.24.37.31.14.07.29.11.46.11.21,0,.38-.06.52-.18.14-.12.26-.28.36-.48.1-.2.19-.42.27-.67.08-.25.16-.51.25-.77.09-.26.19-.52.29-.77.11-.25.24-.47.4-.67.16-.2.36-.36.59-.48s.51-.18.84-.18c.37,0,.72.07,1.04.2s.59.33.82.59c.23.26.42.58.55.96.13.38.2.82.2,1.31,0,.57-.09,1.08-.28,1.54-.18.46-.42.85-.71,1.17l-.54-.34c-.07-.04-.12-.09-.16-.15-.04-.06-.06-.13-.06-.22,0-.1.04-.2.11-.3.07-.11.16-.24.25-.39s.17-.34.25-.56.11-.49.11-.82c0-.28-.04-.52-.11-.73-.07-.21-.17-.38-.29-.52s-.26-.24-.42-.31c-.16-.07-.33-.1-.51-.1-.22,0-.41.06-.56.18-.15.12-.27.28-.38.48s-.19.42-.27.68c-.08.25-.16.51-.24.78-.08.26-.18.52-.29.78-.11.25-.25.48-.41.68-.17.2-.37.36-.61.48-.24.12-.54.18-.88.18-.31,0-.61-.06-.89-.19s-.54-.31-.75-.56c-.22-.25-.39-.55-.52-.9-.13-.36-.19-.77-.19-1.22,0-.53.08-1.01.25-1.44.17-.42.4-.79.69-1.1l.52.32Z"/><path class="cls-5" d="m7.37,168.43h8.1v.85c0,.2-.1.33-.3.38l-.87.11c.39.35.7.75.94,1.18.24.44.36.94.36,1.5,0,.44-.07.83-.22,1.17-.15.34-.35.62-.62.85-.27.23-.59.4-.97.52-.38.11-.8.17-1.26.17h-5.17v-1.42h5.17c.61,0,1.09-.14,1.42-.42.34-.28.5-.71.5-1.28,0-.42-.1-.81-.3-1.18-.2-.37-.48-.7-.83-1.01h-5.97v-1.42Z"/><path class="cls-5" d="m8.54,164.83c-.39-.34-.71-.73-.94-1.16s-.35-.92-.35-1.48c0-.47.09-.9.27-1.28s.44-.71.79-.97c.34-.27.76-.47,1.25-.61.49-.14,1.04-.21,1.66-.21.66,0,1.25.08,1.79.24.54.16,1,.39,1.38.69.38.3.68.67.89,1.1.21.43.32.92.32,1.46s-.1.98-.3,1.35-.48.68-.85.96l.74.07c.2.04.3.17.3.37v.92H3.69v-1.43h4.85Zm4.98,0c.35-.26.6-.55.74-.86s.22-.65.22-1.03c0-.76-.27-1.35-.81-1.75-.54-.41-1.34-.61-2.41-.61-.99,0-1.72.18-2.19.54s-.7.87-.7,1.54c0,.46.11.87.32,1.21.21.34.51.66.9.96h3.92Z"/><path class="cls-5" d="m15.48,157.33H7.37v-.86c0-.2.1-.33.3-.38l.83-.1c-.37-.3-.67-.63-.9-1.01-.23-.37-.35-.81-.35-1.3,0-.54.15-.99.46-1.32.3-.34.71-.58,1.23-.73-.29-.12-.55-.27-.76-.45-.21-.18-.39-.39-.53-.62s-.24-.47-.3-.73c-.06-.26-.1-.52-.1-.79,0-.43.07-.81.2-1.14.14-.33.33-.62.6-.85.26-.23.58-.41.96-.53s.82-.18,1.31-.18h5.16v1.43h-5.16c-.63,0-1.12.14-1.44.42s-.49.68-.49,1.2c0,.23.04.46.12.67.08.21.2.4.36.56.16.16.36.29.6.38s.52.14.84.14h5.16v1.43h-5.16c-.65,0-1.14.13-1.46.39-.32.26-.48.64-.48,1.14,0,.35.09.68.28.98.19.3.45.57.77.82h6.04v1.43Z"/><path class="cls-5" d="m4.83,142.47c.14,0,.27.03.39.08.12.06.23.13.32.22s.17.2.22.33c.05.12.08.26.08.4s-.03.27-.08.39c-.05.12-.13.23-.22.32-.09.09-.2.16-.32.22-.12.05-.25.08-.39.08s-.27-.03-.4-.08-.23-.13-.33-.22c-.09-.09-.17-.2-.22-.32s-.08-.25-.08-.39.03-.27.08-.4c.05-.13.13-.23.22-.33s.2-.17.33-.22.26-.08.4-.08Zm2.54.3h8.1v1.42H7.37v-1.42Z"/><path class="cls-5" d="m8.71,135.91c.12.06.18.16.18.3,0,.08-.03.17-.09.27-.06.1-.12.23-.2.37-.07.15-.14.32-.2.52-.06.2-.09.44-.09.72,0,.24.03.46.09.65.06.19.15.36.25.49.11.14.23.24.37.31.14.07.29.11.46.11.21,0,.38-.06.52-.18.14-.12.26-.28.36-.48.1-.2.19-.42.27-.67.08-.25.16-.51.25-.77.09-.26.19-.52.29-.77.11-.25.24-.47.4-.67.16-.2.36-.36.59-.48s.51-.18.84-.18c.37,0,.72.07,1.04.2s.59.33.82.59c.23.26.42.58.55.96.13.38.2.82.2,1.31,0,.57-.09,1.08-.28,1.54-.18.46-.42.85-.71,1.17l-.54-.34c-.07-.04-.12-.09-.16-.15-.04-.06-.06-.13-.06-.22,0-.1.04-.2.11-.3.07-.11.16-.24.25-.39s.17-.34.25-.56.11-.49.11-.82c0-.28-.04-.52-.11-.73-.07-.21-.17-.38-.29-.52s-.26-.24-.42-.31c-.16-.07-.33-.1-.51-.1-.22,0-.41.06-.56.18-.15.12-.27.28-.38.48s-.19.42-.27.68c-.08.25-.16.51-.24.78-.08.26-.18.52-.29.78-.11.25-.25.48-.41.68-.17.2-.37.36-.61.48-.24.12-.54.18-.88.18-.31,0-.61-.06-.89-.19s-.54-.31-.75-.56c-.22-.25-.39-.55-.52-.9-.13-.36-.19-.77-.19-1.22,0-.53.08-1.01.25-1.44.17-.42.4-.79.69-1.1l.52.32Z"/><path class="cls-5" d="m8.71,129.08c.12.06.18.16.18.3,0,.08-.03.17-.09.27-.06.1-.12.23-.2.37-.07.15-.14.32-.2.52-.06.2-.09.44-.09.72,0,.24.03.46.09.65.06.19.15.36.25.49.11.14.23.24.37.31.14.07.29.11.46.11.21,0,.38-.06.52-.18.14-.12.26-.28.36-.48.1-.2.19-.42.27-.67.08-.25.16-.51.25-.77.09-.26.19-.52.29-.77.11-.25.24-.47.4-.67.16-.2.36-.36.59-.48s.51-.18.84-.18c.37,0,.72.07,1.04.2s.59.33.82.59c.23.26.42.58.55.96.13.38.2.82.2,1.31,0,.57-.09,1.08-.28,1.54-.18.46-.42.85-.71,1.17l-.54-.34c-.07-.04-.12-.09-.16-.15-.04-.06-.06-.13-.06-.22,0-.1.04-.2.11-.3.07-.11.16-.24.25-.39s.17-.34.25-.56.11-.49.11-.82c0-.28-.04-.52-.11-.73-.07-.21-.17-.38-.29-.52s-.26-.24-.42-.31c-.16-.07-.33-.1-.51-.1-.22,0-.41.06-.56.18-.15.12-.27.28-.38.48s-.19.42-.27.68c-.08.25-.16.51-.24.78-.08.26-.18.52-.29.78-.11.25-.25.48-.41.68-.17.2-.37.36-.61.48-.24.12-.54.18-.88.18-.31,0-.61-.06-.89-.19s-.54-.31-.75-.56c-.22-.25-.39-.55-.52-.9-.13-.36-.19-.77-.19-1.22,0-.53.08-1.01.25-1.44.17-.42.4-.79.69-1.1l.52.32Z"/><path class="cls-5" d="m4.83,125.25c.14,0,.27.03.39.08.12.06.23.13.32.22s.17.2.22.33c.05.12.08.26.08.4s-.03.27-.08.39c-.05.12-.13.23-.22.32-.09.09-.2.16-.32.22-.12.05-.25.08-.39.08s-.27-.03-.4-.08-.23-.13-.33-.22c-.09-.09-.17-.2-.22-.32s-.08-.25-.08-.39.03-.27.08-.4c.05-.13.13-.23.22-.33s.2-.17.33-.22.26-.08.4-.08Zm2.54.3h8.1v1.42H7.37v-1.42Z"/><path class="cls-5" d="m7.25,119.95c0-.59.1-1.13.3-1.6s.48-.88.84-1.22c.36-.34.8-.59,1.32-.77s1.09-.27,1.72-.27,1.22.09,1.73.27c.51.18.95.44,1.31.77.36.34.64.74.84,1.22.19.47.29,1.01.29,1.6s-.1,1.13-.29,1.61c-.19.48-.47.88-.84,1.22-.36.34-.8.59-1.31.77-.51.18-1.09.27-1.73.27s-1.21-.09-1.72-.27-.95-.44-1.32-.77c-.36-.34-.64-.74-.84-1.22-.2-.48-.3-1.01-.3-1.61Zm7.23,0c0-.8-.27-1.4-.8-1.79-.54-.39-1.28-.59-2.24-.59s-1.72.2-2.26.59c-.54.39-.81.99-.81,1.79,0,.41.07.76.21,1.06s.34.55.6.75c.26.2.58.35.96.45.38.1.81.15,1.29.15.96,0,1.71-.2,2.24-.6.54-.4.8-1,.8-1.81Z"/><path class="cls-5" d="m8.55,113.02c-.2-.18-.38-.36-.54-.56-.16-.2-.3-.41-.41-.63-.11-.22-.2-.46-.26-.7-.06-.25-.09-.52-.09-.8,0-.44.07-.83.22-1.17.15-.34.35-.62.62-.85.27-.23.59-.4.97-.52.38-.12.8-.18,1.26-.18h5.16v1.43h-5.16c-.61,0-1.09.14-1.43.42-.34.28-.51.71-.51,1.28,0,.42.1.81.3,1.18s.48.7.82,1.01h5.97v1.43H7.37v-.86c0-.2.1-.33.3-.38l.88-.11Z"/><polyline class="cls-4" points="71.75 57 71.75 415.67 350.75 415.67"/><line class="cls-2" x1="71.75" y1="153" x2="73.25" y2="153"/><line class="cls-3" x1="78.21" y1="153" x2="346.02" y2="153"/><line class="cls-2" x1="348.5" y1="153" x2="350" y2="153"/><line class="cls-1" x1="139.38" y1="135.67" x2="159.42" y2="135.67"/><line class="cls-1" x1="139.38" y1="170.67" x2="159.42" y2="170.67"/><line class="cls-1" x1="149.4" y1="135.67" x2="149.4" y2="170.67"/><line class="cls-1" x1="250.4" y1="103.1" x2="270.44" y2="103.1"/><line class="cls-1" x1="250.4" y1="153" x2="270.44" y2="153"/><line class="cls-1" x1="260.42" y1="103.1" x2="260.42" y2="153"/></svg>