<?xml version="1.0" encoding="UTF-8" standalone="no"?>
<!-- This is a Stata 17.0 generated SVG file (http://www.stata.com) -->

<svg version="1.1" width="750px" height="500px" viewBox="0 0 4320 2880" xmlns="http://www.w3.org/2000/svg" xmlns:xlink="http://www.w3.org/1999/xlink">
	<desc>Stata Graph - Graph</desc>
	<rect x="0" y="0" width="4320" height="2880" style="fill:#FFFFFF;stroke:none"/>
	<rect x="0.00" y="0.00" width="4320.00" height="2880.00" style="fill:#FFFFFF"/>
	<rect x="2.88" y="2.88" width="4314.24" height="2874.24" style="fill:none;stroke:#FFFFFF;stroke-width:5.76"/>
	<rect x="817.16" y="100.85" width="3277.26" height="2489.57" style="fill:#FFFFFF"/>
	<rect x="820.03" y="103.73" width="3271.50" height="2483.81" style="fill:none;stroke:#FFFFFF;stroke-opacity:0.00;stroke-width:5.76"/>
	<line x1="817.16" y1="2260.07" x2="874.80" y2="2260.07" style="stroke:#000000;stroke-width:5.76"/>
	<line x1="903.56" y1="2260.07" x2="961.20" y2="2260.07" style="stroke:#000000;stroke-width:5.76"/>
	<line x1="989.96" y1="2260.07" x2="1047.60" y2="2260.07" style="stroke:#000000;stroke-width:5.76"/>
	<line x1="1076.36" y1="2260.07" x2="1134.00" y2="2260.07" style="stroke:#000000;stroke-width:5.76"/>
	<line x1="1162.76" y1="2260.07" x2="1220.40" y2="2260.07" style="stroke:#000000;stroke-width:5.76"/>
	<line x1="1249.16" y1="2260.07" x2="1306.80" y2="2260.07" style="stroke:#000000;stroke-width:5.76"/>
	<line x1="1335.56" y1="2260.07" x2="1393.20" y2="2260.07" style="stroke:#000000;stroke-width:5.76"/>
	<line x1="1421.96" y1="2260.07" x2="1479.60" y2="2260.07" style="stroke:#000000;stroke-width:5.76"/>
	<line x1="1508.36" y1="2260.07" x2="1566.00" y2="2260.07" style="stroke:#000000;stroke-width:5.76"/>
	<line x1="1594.76" y1="2260.07" x2="1652.40" y2="2260.07" style="stroke:#000000;stroke-width:5.76"/>
	<line x1="1681.16" y1="2260.07" x2="1738.80" y2="2260.07" style="stroke:#000000;stroke-width:5.76"/>
	<line x1="1767.56" y1="2260.07" x2="1825.20" y2="2260.07" style="stroke:#000000;stroke-width:5.76"/>
	<line x1="1853.96" y1="2260.07" x2="1911.60" y2="2260.07" style="stroke:#000000;stroke-width:5.76"/>
	<line x1="1940.36" y1="2260.07" x2="1998.00" y2="2260.07" style="stroke:#000000;stroke-width:5.76"/>
	<line x1="2026.76" y1="2260.07" x2="2084.40" y2="2260.07" style="stroke:#000000;stroke-width:5.76"/>
	<line x1="2113.16" y1="2260.07" x2="2170.80" y2="2260.07" style="stroke:#000000;stroke-width:5.76"/>
	<line x1="2199.55" y1="2260.07" x2="2257.20" y2="2260.07" style="stroke:#000000;stroke-width:5.76"/>
	<line x1="2285.96" y1="2260.07" x2="2343.60" y2="2260.07" style="stroke:#000000;stroke-width:5.76"/>
	<line x1="2372.36" y1="2260.07" x2="2430.00" y2="2260.07" style="stroke:#000000;stroke-width:5.76"/>
	<line x1="2458.76" y1="2260.07" x2="2516.40" y2="2260.07" style="stroke:#000000;stroke-width:5.76"/>
	<line x1="2545.16" y1="2260.07" x2="2602.80" y2="2260.07" style="stroke:#000000;stroke-width:5.76"/>
	<line x1="2631.56" y1="2260.07" x2="2689.20" y2="2260.07" style="stroke:#000000;stroke-width:5.76"/>
	<line x1="2717.96" y1="2260.07" x2="2775.60" y2="2260.07" style="stroke:#000000;stroke-width:5.76"/>
	<line x1="2804.36" y1="2260.07" x2="2862.00" y2="2260.07" style="stroke:#000000;stroke-width:5.76"/>
	<line x1="2890.76" y1="2260.07" x2="2948.40" y2="2260.07" style="stroke:#000000;stroke-width:5.76"/>
	<line x1="2977.16" y1="2260.07" x2="3034.80" y2="2260.07" style="stroke:#000000;stroke-width:5.76"/>
	<line x1="3063.56" y1="2260.07" x2="3121.20" y2="2260.07" style="stroke:#000000;stroke-width:5.76"/>
	<line x1="3149.96" y1="2260.07" x2="3207.60" y2="2260.07" style="stroke:#000000;stroke-width:5.76"/>
	<line x1="3236.36" y1="2260.07" x2="3294.00" y2="2260.07" style="stroke:#000000;stroke-width:5.76"/>
	<line x1="3322.76" y1="2260.07" x2="3380.40" y2="2260.07" style="stroke:#000000;stroke-width:5.76"/>
	<line x1="3409.16" y1="2260.07" x2="3466.80" y2="2260.07" style="stroke:#000000;stroke-width:5.76"/>
	<line x1="3495.56" y1="2260.07" x2="3553.20" y2="2260.07" style="stroke:#000000;stroke-width:5.76"/>
	<line x1="3581.96" y1="2260.07" x2="3639.60" y2="2260.07" style="stroke:#000000;stroke-width:5.76"/>
	<line x1="3668.36" y1="2260.07" x2="3726.00" y2="2260.07" style="stroke:#000000;stroke-width:5.76"/>
	<line x1="3754.76" y1="2260.07" x2="3812.40" y2="2260.07" style="stroke:#000000;stroke-width:5.76"/>
	<line x1="3841.16" y1="2260.07" x2="3898.80" y2="2260.07" style="stroke:#000000;stroke-width:5.76"/>
	<line x1="3927.56" y1="2260.07" x2="3985.20" y2="2260.07" style="stroke:#000000;stroke-width:5.76"/>
	<line x1="4013.96" y1="2260.07" x2="4071.60" y2="2260.07" style="stroke:#000000;stroke-width:5.76"/>
	<rect x="880.61" y="2260.07" width="1492.29" height="136.08" style="fill:#5099AF"/>
	<rect x="882.76" y="2262.23" width="1487.97" height="131.76" style="fill:none;stroke:#000000;stroke-width:4.32"/>
	<rect x="2538.68" y="1986.83" width="1492.42" height="409.33" style="fill:#E06161"/>
	<rect x="2540.83" y="1988.99" width="1488.11" height="405.01" style="fill:none;stroke:#000000;stroke-width:4.32"/>
	<text x="1717.20" y="2207.82" style="font-family:'Helvetica';font-size:100.04px;fill:#000000">0.12%</text>
	<text x="3375.27" y="1934.58" style="font-family:'Helvetica';font-size:100.04px;fill:#000000">0.37%</text>
	<line x1="1626.75" y1="1993.17" x2="1626.75" y2="2527.10" style="stroke:#000000;stroke-width:8.64"/>
	<line x1="1608.80" y1="2527.10" x2="1644.84" y2="2527.10" stroke-linecap="round" style="stroke:#000000;stroke-width:8.64"/>
	<line x1="1608.80" y1="1993.17" x2="1644.84" y2="1993.17" stroke-linecap="round" style="stroke:#000000;stroke-width:8.64"/>
	<line x1="3284.82" y1="1452.49" x2="3284.82" y2="2521.30" style="stroke:#000000;stroke-width:8.64"/>
	<line x1="3266.87" y1="2521.30" x2="3302.91" y2="2521.30" stroke-linecap="round" style="stroke:#000000;stroke-width:8.64"/>
	<line x1="3266.87" y1="1452.49" x2="3302.91" y2="1452.49" stroke-linecap="round" style="stroke:#000000;stroke-width:8.64"/>
	<line x1="817.16" y1="2590.42" x2="817.16" y2="100.85" style="stroke:#000000;stroke-width:5.76"/>
	<line x1="817.16" y1="2396.15" x2="777.20" y2="2396.15" style="stroke:#000000;stroke-width:4.32"/>
	<text x="757.22" y="2431.20" style="font-family:'Helvetica';font-size:100.04px;fill:#000000" text-anchor="end">0%</text>
	<line x1="817.16" y1="1838.19" x2="777.20" y2="1838.19" style="stroke:#000000;stroke-width:4.32"/>
	<text x="757.22" y="1873.24" style="font-family:'Helvetica';font-size:100.04px;fill:#000000" text-anchor="end">0.5%</text>
	<line x1="817.16" y1="1280.23" x2="777.20" y2="1280.23" style="stroke:#000000;stroke-width:4.32"/>
	<text x="757.22" y="1315.27" style="font-family:'Helvetica';font-size:100.04px;fill:#000000" text-anchor="end">1.0%</text>
	<line x1="817.16" y1="722.13" x2="777.20" y2="722.13" style="stroke:#000000;stroke-width:4.32"/>
	<text x="757.22" y="757.17" style="font-family:'Helvetica';font-size:100.04px;fill:#000000" text-anchor="end">1.5%</text>
	<line x1="817.16" y1="164.16" x2="777.20" y2="164.16" style="stroke:#000000;stroke-width:4.32"/>
	<text x="757.22" y="199.21" style="font-family:'Helvetica';font-size:100.04px;fill:#000000" text-anchor="end">2.0%</text>
	<text x="327.13" y="1345.57" style="font-family:'Helvetica';font-size:100.04px;fill:#000000" transform="rotate(-90 327.13,1345.57)" text-anchor="middle">Application Initiation Rate</text>
	<text x="427.17" y="1345.57" style="font-family:'Helvetica';font-size:100.04px;fill:#000000" transform="rotate(-90 427.17,1345.57)" text-anchor="middle">(95% Confidence Intervals)</text>
	<line x1="817.16" y1="2590.42" x2="4094.42" y2="2590.42" style="stroke:#000000;stroke-width:5.76"/>
	<line x1="1626.75" y1="2590.42" x2="1626.75" y2="2630.38" style="stroke:#000000;stroke-width:4.32"/>
	<text x="1626.75" y="2720.32" style="font-family:'Helvetica';font-size:100.04px;fill:#000000" text-anchor="middle">Holdout</text>
	<line x1="3284.82" y1="2590.42" x2="3284.82" y2="2630.38" style="stroke:#000000;stroke-width:4.32"/>
	<text x="3284.82" y="2720.32" style="font-family:'Helvetica';font-size:100.04px;fill:#000000" text-anchor="middle">Early Mailer</text>
</svg>
