<svg xmlns="http://www.w3.org/2000/svg" xmlns:xlink="http://www.w3.org/1999/xlink" width="750" height="500" version="1.1" viewBox="0 0 4320 2880"><desc>Stata Graph - Graph</desc><rect width="4320" height="2880" x="0" y="0" style="fill:#fff;stroke:none"/><rect width="4320" height="2880" x="0" y="0" style="fill:#fff"/><rect width="4314.24" height="2874.24" x="2.88" y="2.88" style="fill:none;stroke:#fff;stroke-width:5.76"/><rect width="3277.26" height="2489.57" x="817.16" y="100.85" style="fill:#fff"/><rect width="3271.5" height="2483.81" x="820.03" y="103.73" style="fill:none;stroke:#fff;stroke-opacity:0;stroke-width:5.76"/><line x1="817.16" x2="874.8" y1="2260.07" y2="2260.07" style="stroke:#000;stroke-width:5.76"/><line x1="903.56" x2="961.2" y1="2260.07" y2="2260.07" style="stroke:#000;stroke-width:5.76"/><line x1="989.96" x2="1047.6" y1="2260.07" y2="2260.07" style="stroke:#000;stroke-width:5.76"/><line x1="1076.36" x2="1134" y1="2260.07" y2="2260.07" style="stroke:#000;stroke-width:5.76"/><line x1="1162.76" x2="1220.4" y1="2260.07" y2="2260.07" style="stroke:#000;stroke-width:5.76"/><line x1="1249.16" x2="1306.8" y1="2260.07" y2="2260.07" style="stroke:#000;stroke-width:5.76"/><line x1="1335.56" x2="1393.2" y1="2260.07" y2="2260.07" style="stroke:#000;stroke-width:5.76"/><line x1="1421.96" x2="1479.6" y1="2260.07" y2="2260.07" style="stroke:#000;stroke-width:5.76"/><line x1="1508.36" x2="1566" y1="2260.07" y2="2260.07" style="stroke:#000;stroke-width:5.76"/><line x1="1594.76" x2="1652.4" y1="2260.07" y2="2260.07" style="stroke:#000;stroke-width:5.76"/><line x1="1681.16" x2="1738.8" y1="2260.07" y2="2260.07" style="stroke:#000;stroke-width:5.76"/><line x1="1767.56" x2="1825.2" y1="2260.07" y2="2260.07" style="stroke:#000;stroke-width:5.76"/><line x1="1853.96" x2="1911.6" y1="2260.07" y2="2260.07" style="stroke:#000;stroke-width:5.76"/><line x1="1940.36" x2="1998" y1="2260.07" y2="2260.07" style="stroke:#000;stroke-width:5.76"/><line x1="2026.76" x2="2084.4" y1="2260.07" y2="2260.07" style="stroke:#000;stroke-width:5.76"/><line x1="2113.16" x2="2170.8" y1="2260.07" y2="2260.07" style="stroke:#000;stroke-width:5.76"/><line x1="2199.55" x2="2257.2" y1="2260.07" y2="2260.07" style="stroke:#000;stroke-width:5.76"/><line x1="2285.96" x2="2343.6" y1="2260.07" y2="2260.07" style="stroke:#000;stroke-width:5.76"/><line x1="2372.36" x2="2430" y1="2260.07" y2="2260.07" style="stroke:#000;stroke-width:5.76"/><line x1="2458.76" x2="2516.4" y1="2260.07" y2="2260.07" style="stroke:#000;stroke-width:5.76"/><line x1="2545.16" x2="2602.8" y1="2260.07" y2="2260.07" style="stroke:#000;stroke-width:5.76"/><line x1="2631.56" x2="2689.2" y1="2260.07" y2="2260.07" style="stroke:#000;stroke-width:5.76"/><line x1="2717.96" x2="2775.6" y1="2260.07" y2="2260.07" style="stroke:#000;stroke-width:5.76"/><line x1="2804.36" x2="2862" y1="2260.07" y2="2260.07" style="stroke:#000;stroke-width:5.76"/><line x1="2890.76" x2="2948.4" y1="2260.07" y2="2260.07" style="stroke:#000;stroke-width:5.76"/><line x1="2977.16" x2="3034.8" y1="2260.07" y2="2260.07" style="stroke:#000;stroke-width:5.76"/><line x1="3063.56" x2="3121.2" y1="2260.07" y2="2260.07" style="stroke:#000;stroke-width:5.76"/><line x1="3149.96" x2="3207.6" y1="2260.07" y2="2260.07" style="stroke:#000;stroke-width:5.76"/><line x1="3236.36" x2="3294" y1="2260.07" y2="2260.07" style="stroke:#000;stroke-width:5.76"/><line x1="3322.76" x2="3380.4" y1="2260.07" y2="2260.07" style="stroke:#000;stroke-width:5.76"/><line x1="3409.16" x2="3466.8" y1="2260.07" y2="2260.07" style="stroke:#000;stroke-width:5.76"/><line x1="3495.56" x2="3553.2" y1="2260.07" y2="2260.07" style="stroke:#000;stroke-width:5.76"/><line x1="3581.96" x2="3639.6" y1="2260.07" y2="2260.07" style="stroke:#000;stroke-width:5.76"/><line x1="3668.36" x2="3726" y1="2260.07" y2="2260.07" style="stroke:#000;stroke-width:5.76"/><line x1="3754.76" x2="3812.4" y1="2260.07" y2="2260.07" style="stroke:#000;stroke-width:5.76"/><line x1="3841.16" x2="3898.8" y1="2260.07" y2="2260.07" style="stroke:#000;stroke-width:5.76"/><line x1="3927.56" x2="3985.2" y1="2260.07" y2="2260.07" style="stroke:#000;stroke-width:5.76"/><line x1="4013.96" x2="4071.6" y1="2260.07" y2="2260.07" style="stroke:#000;stroke-width:5.76"/><rect width="1492.29" height="136.08" x="880.61" y="2260.07" style="fill:#5099af"/><rect width="1487.97" height="131.76" x="882.76" y="2262.23" style="fill:none;stroke:#000;stroke-width:4.32"/><rect width="1492.42" height="409.33" x="2538.68" y="1986.83" style="fill:#e06161"/><rect width="1488.11" height="405.01" x="2540.83" y="1988.99" style="fill:none;stroke:#000;stroke-width:4.32"/><text x="1717.2" y="2207.82" style="font-family:'Helvetica';font-size:100.04px;fill:#000">0.12%</text><text x="3375.27" y="1934.58" style="font-family:'Helvetica';font-size:100.04px;fill:#000">0.37%</text><line x1="1626.75" x2="1626.75" y1="1993.17" y2="2527.1" style="stroke:#000;stroke-width:8.64"/><line x1="1608.8" x2="1644.84" y1="2527.1" y2="2527.1" stroke-linecap="round" style="stroke:#000;stroke-width:8.64"/><line x1="1608.8" x2="1644.84" y1="1993.17" y2="1993.17" stroke-linecap="round" style="stroke:#000;stroke-width:8.64"/><line x1="3284.82" x2="3284.82" y1="1452.49" y2="2521.3" style="stroke:#000;stroke-width:8.64"/><line x1="3266.87" x2="3302.91" y1="2521.3" y2="2521.3" stroke-linecap="round" style="stroke:#000;stroke-width:8.64"/><line x1="3266.87" x2="3302.91" y1="1452.49" y2="1452.49" stroke-linecap="round" style="stroke:#000;stroke-width:8.64"/><line x1="817.16" x2="817.16" y1="2590.42" y2="100.85" style="stroke:#000;stroke-width:5.76"/><line x1="817.16" x2="777.2" y1="2396.15" y2="2396.15" style="stroke:#000;stroke-width:4.32"/><text x="757.22" y="2431.2" style="font-family:'Helvetica';font-size:100.04px;fill:#000" text-anchor="end">0%</text><line x1="817.16" x2="777.2" y1="1838.19" y2="1838.19" style="stroke:#000;stroke-width:4.32"/><text x="757.22" y="1873.24" style="font-family:'Helvetica';font-size:100.04px;fill:#000" text-anchor="end">0.5%</text><line x1="817.16" x2="777.2" y1="1280.23" y2="1280.23" style="stroke:#000;stroke-width:4.32"/><text x="757.22" y="1315.27" style="font-family:'Helvetica';font-size:100.04px;fill:#000" text-anchor="end">1.0%</text><line x1="817.16" x2="777.2" y1="722.13" y2="722.13" style="stroke:#000;stroke-width:4.32"/><text x="757.22" y="757.17" style="font-family:'Helvetica';font-size:100.04px;fill:#000" text-anchor="end">1.5%</text><line x1="817.16" x2="777.2" y1="164.16" y2="164.16" style="stroke:#000;stroke-width:4.32"/><text x="757.22" y="199.21" style="font-family:'Helvetica';font-size:100.04px;fill:#000" text-anchor="end">2.0%</text><text x="327.13" y="1345.57" style="font-family:'Helvetica';font-size:100.04px;fill:#000" text-anchor="middle" transform="rotate(-90 327.13,1345.57)">Application Initiation Rate</text><text x="427.17" y="1345.57" style="font-family:'Helvetica';font-size:100.04px;fill:#000" text-anchor="middle" transform="rotate(-90 427.17,1345.57)">(95% Confidence Intervals)</text><line x1="817.16" x2="4094.42" y1="2590.42" y2="2590.42" style="stroke:#000;stroke-width:5.76"/><line x1="1626.75" x2="1626.75" y1="2590.42" y2="2630.38" style="stroke:#000;stroke-width:4.32"/><text x="1626.75" y="2720.32" style="font-family:'Helvetica';font-size:100.04px;fill:#000" text-anchor="middle">Holdout</text><line x1="3284.82" x2="3284.82" y1="2590.42" y2="2630.38" style="stroke:#000;stroke-width:4.32"/><text x="3284.82" y="2720.32" style="font-family:'Helvetica';font-size:100.04px;fill:#000" text-anchor="middle">Early Mailer</text></svg>