<?xml version="1.0" encoding="UTF-8"?><svg id="Layer_2" xmlns="http://www.w3.org/2000/svg" viewBox="0 0 640.47 317.85"><defs><style>.cls-1{stroke:#d63a3a;}.cls-1,.cls-2,.cls-3{stroke-width:4px;}.cls-1,.cls-2,.cls-3,.cls-4{stroke-miterlimit:10;}.cls-1,.cls-5{fill:#d63a3a;}.cls-2{stroke:#0d8473;}.cls-2,.cls-6{fill:#0d8473;}.cls-3{stroke:#19677f;}.cls-3,.cls-7{fill:#19677f;}.cls-8,.cls-7,.cls-6,.cls-5,.cls-9{stroke-width:0px;}.cls-9{fill:#fff;}.cls-4{fill:none;stroke:#000;stroke-width:.5px;}</style></defs><path class="cls-8" d="m505.07,8.97c-.04.07-.09.12-.14.16-.05.04-.11.05-.18.05-.08,0-.17-.04-.28-.12s-.24-.17-.4-.26c-.16-.1-.36-.18-.58-.26-.23-.08-.5-.12-.82-.12-.3,0-.57.04-.8.12-.23.08-.43.19-.58.33-.16.14-.27.3-.35.49-.08.19-.12.39-.12.61,0,.28.07.51.21.7.14.18.32.34.55.47.23.13.48.24.77.34s.58.19.88.3c.3.1.59.22.88.35.29.13.54.29.77.49.23.2.41.44.55.72.14.28.21.63.21,1.05,0,.44-.08.85-.22,1.24-.15.38-.37.72-.65,1-.29.28-.64.51-1.06.67-.42.16-.89.25-1.42.25-.65,0-1.25-.12-1.78-.35-.53-.24-.99-.55-1.37-.96l.39-.64c.04-.05.08-.09.14-.13.05-.04.11-.05.18-.05.06,0,.13.03.21.07.08.05.16.11.26.19.1.07.21.16.34.25.13.09.27.17.43.24.16.08.34.14.55.19.21.05.44.07.69.07.32,0,.61-.04.86-.13.25-.09.47-.21.64-.37s.31-.35.4-.58c.09-.22.14-.47.14-.75,0-.3-.07-.55-.21-.75-.14-.19-.32-.36-.54-.49-.22-.13-.48-.24-.77-.33-.29-.09-.58-.18-.88-.28s-.59-.21-.88-.33c-.29-.13-.55-.29-.77-.49-.22-.2-.4-.45-.54-.75s-.21-.67-.21-1.12c0-.35.07-.7.21-1.03s.34-.62.6-.88.59-.46.97-.62.83-.23,1.33-.23c.56,0,1.07.09,1.53.27.46.18.87.43,1.21.77l-.33.64Z"/><path class="cls-8" d="m513.05,10.34v7.09h-.74c-.18,0-.29-.09-.34-.26l-.1-.76c-.31.34-.65.62-1.04.82-.38.21-.82.31-1.32.31-.39,0-.73-.06-1.03-.19-.3-.13-.54-.31-.75-.54s-.35-.52-.45-.85c-.1-.33-.15-.7-.15-1.1v-4.52h1.25v4.52c0,.54.12.95.37,1.25.25.29.62.44,1.12.44.37,0,.71-.09,1.03-.26.32-.17.62-.42.89-.72v-5.22h1.25Z"/><path class="cls-8" d="m516.15,11.44c.3-.37.64-.67,1.04-.89.39-.22.84-.34,1.34-.34.41,0,.78.08,1.11.23.33.16.61.39.85.69s.41.68.54,1.14c.13.45.19.97.19,1.56,0,.52-.07,1.01-.21,1.46-.14.45-.34.84-.61,1.17-.26.33-.59.59-.97.78-.38.19-.81.28-1.28.28-.43,0-.81-.07-1.12-.22-.31-.15-.58-.35-.82-.61v3.14h-1.25v-9.49h.75c.18,0,.29.09.33.26l.11.84Zm.06,4.28c.23.31.48.53.75.65s.57.19.91.19c.66,0,1.17-.24,1.53-.71.35-.47.53-1.14.53-2.02,0-.46-.04-.86-.12-1.19-.08-.33-.2-.6-.35-.82-.15-.21-.34-.37-.57-.46-.22-.1-.48-.15-.76-.15-.41,0-.76.09-1.07.28s-.59.45-.84.79v3.43Z"/><path class="cls-8" d="m523.98,11.44c.3-.37.64-.67,1.04-.89.39-.22.84-.34,1.34-.34.41,0,.78.08,1.11.23s.61.39.85.69c.23.31.41.68.54,1.14.12.45.19.97.19,1.56,0,.52-.07,1.01-.21,1.46-.14.45-.34.84-.61,1.17-.26.33-.59.59-.97.78-.38.19-.81.28-1.28.28-.43,0-.81-.07-1.12-.22-.31-.15-.58-.35-.82-.61v3.14h-1.25v-9.49h.75c.18,0,.29.09.33.26l.11.84Zm.06,4.28c.23.31.48.53.75.65.27.13.57.19.91.19.66,0,1.17-.24,1.53-.71.35-.47.53-1.14.53-2.02,0-.46-.04-.86-.12-1.19-.08-.33-.2-.6-.35-.82-.15-.21-.34-.37-.57-.46-.22-.1-.48-.15-.76-.15-.41,0-.76.09-1.07.28-.31.19-.59.45-.84.79v3.43Z"/><path class="cls-8" d="m533.63,10.23c.52,0,.98.09,1.4.26.42.17.77.42,1.06.74s.52.7.68,1.15c.16.45.23.95.23,1.51s-.08,1.06-.23,1.51c-.16.45-.38.83-.68,1.15s-.65.56-1.06.73c-.42.17-.88.25-1.4.25s-.99-.08-1.41-.25c-.42-.17-.77-.41-1.07-.73-.29-.32-.52-.7-.68-1.15-.16-.45-.23-.95-.23-1.51s.08-1.06.23-1.51c.16-.45.38-.83.68-1.15.29-.32.65-.56,1.07-.74.42-.17.89-.26,1.41-.26Zm0,6.33c.7,0,1.22-.23,1.57-.7.34-.47.52-1.12.52-1.96s-.17-1.5-.52-1.97c-.35-.47-.87-.71-1.57-.71-.36,0-.66.06-.93.18s-.48.3-.66.53c-.17.23-.3.51-.39.84-.09.33-.13.71-.13,1.13,0,.84.17,1.49.52,1.96.35.47.88.7,1.59.7Z"/><path class="cls-8" d="m539.72,11.76c.22-.49.5-.86.83-1.14.33-.27.72-.41,1.2-.41.15,0,.29.02.43.05s.26.08.37.15l-.09.93c-.03.12-.1.17-.21.17-.07,0-.16-.01-.29-.04-.13-.03-.27-.04-.43-.04-.22,0-.42.03-.6.1-.17.07-.33.16-.47.29-.14.13-.26.29-.37.48-.11.19-.21.41-.3.65v4.48h-1.25v-7.09h.71c.13,0,.23.03.28.08.05.05.09.14.11.27l.08,1.08Z"/><path class="cls-8" d="m546.19,17.55c-.56,0-.99-.16-1.29-.47-.3-.31-.45-.76-.45-1.35v-4.34h-.85c-.07,0-.14-.02-.19-.07-.05-.04-.08-.11-.08-.21v-.5l1.16-.15.29-2.19c.01-.07.04-.13.09-.17.05-.04.11-.07.19-.07h.63v2.44h2.05v.9h-2.05v4.26c0,.3.07.52.22.67.15.14.33.22.56.22.13,0,.24-.02.34-.05.1-.03.18-.07.25-.12.07-.04.13-.08.18-.12s.09-.05.13-.05c.07,0,.12.04.18.12l.36.59c-.21.2-.47.36-.78.47-.3.11-.62.17-.94.17Z"/><path class="cls-8" d="m561.48,17.43h-1.21c-.14,0-.25-.02-.33-.05-.08-.03-.18-.1-.27-.2l-1.01-1.02c-.44.42-.94.76-1.52,1.01-.57.25-1.2.38-1.89.38-.37,0-.74-.06-1.1-.19-.36-.13-.68-.31-.96-.55-.29-.24-.51-.53-.69-.88-.17-.35-.26-.74-.26-1.17,0-.33.05-.64.16-.93.11-.29.26-.56.46-.81.2-.25.43-.47.69-.67s.56-.36.88-.5c-.29-.36-.49-.71-.63-1.05-.13-.34-.2-.69-.2-1.05,0-.34.06-.66.19-.96.12-.3.3-.56.54-.78s.52-.4.85-.52c.33-.13.71-.19,1.12-.19.37,0,.71.06,1.01.18.3.12.57.28.79.47.22.2.39.42.52.68.13.26.2.53.22.81l-.78.15c-.15.04-.27-.04-.34-.22-.03-.12-.08-.25-.16-.38-.07-.13-.17-.25-.28-.36-.11-.11-.25-.2-.41-.27-.16-.07-.35-.1-.56-.1-.23,0-.44.04-.63.11-.19.07-.35.18-.48.31-.13.13-.24.29-.3.47-.07.18-.11.37-.11.58,0,.16.02.32.06.47.04.15.1.3.18.46.08.15.19.31.31.47.13.16.28.33.46.5l2.88,2.93c.18-.32.32-.65.43-.99s.18-.68.21-1.03c0-.09.04-.16.08-.21s.11-.08.2-.08h.76c0,.54-.09,1.06-.25,1.58-.16.52-.4,1-.71,1.45l2.1,2.13Zm-6.47-4.94c-.5.26-.87.58-1.12.95-.25.37-.37.78-.37,1.22,0,.3.06.57.17.8.11.23.26.43.44.58.18.16.39.28.62.36.23.08.47.12.71.12.52,0,.99-.1,1.41-.29.42-.19.78-.45,1.1-.77l-2.96-2.98Z"/><path class="cls-8" d="m501.23,24.92c0,.12-.03.24-.07.34-.05.11-.11.2-.2.28-.08.08-.18.15-.29.19s-.23.07-.35.07-.23-.02-.34-.07c-.11-.05-.2-.11-.28-.19-.08-.08-.14-.17-.19-.28-.05-.1-.07-.22-.07-.34s.02-.24.07-.35c.05-.11.11-.21.19-.29.08-.08.17-.15.28-.19.1-.05.22-.07.34-.07s.24.02.35.07c.11.05.21.11.29.19s.15.18.2.29c.05.11.07.22.07.35Zm-.27,2.23v7.09h-1.25v-7.09h1.25Z"/><path class="cls-8" d="m504.09,28.17c.15-.17.32-.33.49-.47.17-.14.36-.26.55-.36s.4-.18.62-.23c.22-.05.45-.08.7-.08.39,0,.73.06,1.03.19.3.13.54.31.74.55.2.24.35.52.45.85.1.33.15.7.15,1.1v4.51h-1.25v-4.51c0-.54-.12-.95-.37-1.25-.25-.3-.62-.44-1.12-.44-.37,0-.71.09-1.03.27-.32.18-.61.42-.89.72v5.22h-1.25v-7.09h.75c.18,0,.29.09.33.26l.1.77Z"/><path class="cls-8" d="m510.97,34.23v-6.03l-.79-.09c-.1-.02-.18-.06-.24-.11s-.09-.12-.09-.21v-.51h1.12v-.69c0-.41.06-.77.17-1.08.11-.31.28-.58.49-.8.21-.22.47-.38.77-.49.3-.11.63-.17,1.01-.17.32,0,.61.05.88.14l-.03.62c0,.11-.07.17-.19.18-.11,0-.27.01-.46.01-.21,0-.41.03-.58.08-.17.06-.33.15-.45.27-.12.13-.22.29-.29.5-.07.21-.1.46-.1.76v.65h2.04v.9h-2v6.05h-1.25Z"/><path class="cls-8" d="m518.27,27.03c.52,0,.98.09,1.4.26.42.17.77.42,1.06.74s.52.7.68,1.15c.16.45.23.95.23,1.51s-.08,1.06-.23,1.51c-.16.45-.38.83-.68,1.15s-.65.56-1.06.73c-.42.17-.88.25-1.4.25s-.99-.08-1.41-.25c-.42-.17-.77-.41-1.07-.73-.29-.32-.52-.7-.68-1.15-.16-.45-.23-.95-.23-1.51s.08-1.06.23-1.51c.16-.45.38-.83.68-1.15.29-.32.65-.56,1.07-.74.42-.17.89-.26,1.41-.26Zm0,6.33c.7,0,1.22-.23,1.57-.7.34-.47.52-1.12.52-1.96s-.17-1.5-.52-1.97c-.35-.47-.87-.71-1.57-.71-.36,0-.66.06-.93.18s-.48.3-.66.53c-.17.23-.3.51-.39.84-.09.33-.13.71-.13,1.13,0,.84.17,1.49.52,1.96.35.47.88.7,1.59.7Z"/><path class="cls-8" d="m524.35,28.56c.22-.49.5-.86.83-1.14.33-.27.73-.41,1.2-.41.15,0,.29.02.43.05.14.03.26.08.37.15l-.09.93c-.03.12-.1.17-.21.17-.06,0-.16-.01-.29-.04-.12-.03-.27-.04-.43-.04-.22,0-.42.03-.6.1-.17.07-.33.16-.47.29-.14.13-.26.29-.37.48-.11.19-.21.41-.3.65v4.48h-1.25v-7.09h.71c.13,0,.23.03.28.08.05.05.09.14.11.27l.08,1.08Z"/><path class="cls-8" d="m528.3,34.23v-7.09h.75c.18,0,.29.09.33.26l.09.73c.26-.32.56-.59.88-.79.33-.21.71-.31,1.13-.31.48,0,.86.13,1.16.4.3.27.51.62.64,1.08.1-.26.23-.48.4-.67s.34-.34.54-.46c.2-.12.41-.21.64-.27s.46-.08.69-.08c.37,0,.71.06,1,.18.29.12.54.29.74.52s.36.51.46.84c.11.33.16.71.16,1.14v4.51h-1.25v-4.51c0-.56-.12-.98-.36-1.26s-.59-.43-1.05-.43c-.21,0-.4.04-.58.11-.19.07-.35.18-.49.32-.14.14-.25.32-.33.53-.08.21-.12.46-.12.74v4.51h-1.25v-4.51c0-.57-.11-.99-.34-1.27s-.56-.42-1-.42c-.31,0-.59.08-.85.25-.26.17-.5.39-.72.68v5.29h-1.25Z"/><path class="cls-8" d="m539.56,28.14c.39-.38.81-.66,1.27-.85.45-.19.96-.28,1.51-.28.4,0,.75.07,1.06.2.31.13.57.31.78.55s.37.52.48.85c.11.33.16.7.16,1.09v4.54h-.55c-.12,0-.21-.02-.28-.06-.07-.04-.12-.12-.15-.23l-.14-.67c-.19.17-.37.33-.55.46-.18.13-.36.25-.56.34-.2.09-.41.16-.63.21-.22.05-.47.07-.74.07s-.54-.04-.78-.12c-.24-.08-.45-.19-.63-.35-.18-.15-.32-.35-.43-.58s-.16-.51-.16-.84c0-.28.08-.55.23-.81.15-.26.4-.49.75-.69.35-.2.8-.37,1.35-.49.55-.13,1.24-.2,2.04-.22v-.55c0-.55-.12-.97-.36-1.25-.24-.28-.59-.42-1.04-.42-.31,0-.57.04-.77.12-.21.08-.39.16-.54.26-.15.1-.28.18-.39.26s-.22.12-.33.12c-.08,0-.16-.02-.22-.07s-.11-.1-.15-.17l-.22-.4Zm4.02,2.9c-.57.02-1.06.06-1.47.14s-.73.17-.99.28c-.25.12-.44.25-.55.41-.11.16-.17.34-.17.53s.03.35.09.48c.06.13.14.25.25.33.11.09.23.15.37.19.14.04.29.06.46.06.22,0,.42-.02.6-.07.18-.04.35-.11.51-.19s.32-.18.46-.3c.15-.12.29-.25.43-.4v-1.47Z"/><path class="cls-8" d="m553.13,34.23h-1.25v-6.05h-3.65v4.26c0,.3.07.52.22.67s.33.22.56.22c.13,0,.24-.02.34-.05.09-.03.18-.07.25-.12s.13-.08.18-.12.09-.05.13-.05c.07,0,.12.04.17.12l.36.59c-.21.2-.47.36-.78.47-.3.11-.62.17-.94.17-.56,0-.99-.16-1.29-.47-.3-.31-.45-.76-.45-1.35v-4.34h-.85c-.08,0-.14-.02-.19-.07-.05-.04-.08-.11-.08-.21v-.5l1.16-.15.29-2.18c.01-.07.05-.13.09-.17.05-.04.11-.07.19-.07h.63v2.44h4.9v6.95Zm.31-9.37c0,.12-.02.23-.07.34-.05.1-.12.2-.2.28s-.18.14-.28.19c-.11.05-.22.07-.34.07s-.23-.02-.34-.07c-.11-.05-.2-.11-.28-.19-.08-.08-.14-.17-.19-.28-.05-.11-.07-.22-.07-.34s.02-.24.07-.35c.05-.11.11-.21.19-.29.08-.08.17-.15.28-.19.11-.05.22-.07.34-.07s.23.02.34.07c.11.05.2.11.28.19.08.08.15.18.2.29.05.11.07.23.07.35Z"/><path class="cls-8" d="m558.11,27.03c.52,0,.98.09,1.4.26.42.17.77.42,1.06.74s.52.7.68,1.15.23.95.23,1.51-.08,1.06-.23,1.51-.38.83-.68,1.15-.65.56-1.06.73c-.42.17-.88.25-1.4.25s-.99-.08-1.41-.25c-.42-.17-.77-.41-1.07-.73-.29-.32-.52-.7-.68-1.15s-.23-.95-.23-1.51.08-1.06.23-1.51.38-.83.68-1.15c.29-.32.65-.56,1.07-.74.42-.17.89-.26,1.41-.26Zm0,6.33c.7,0,1.22-.23,1.57-.7.35-.47.52-1.12.52-1.96s-.17-1.5-.52-1.97c-.34-.47-.87-.71-1.57-.71-.35,0-.66.06-.93.18s-.48.3-.66.53c-.18.23-.31.51-.39.84-.09.33-.13.71-.13,1.13,0,.84.17,1.49.52,1.96.35.47.88.7,1.58.7Z"/><path class="cls-8" d="m564.19,28.17c.15-.17.32-.33.49-.47.17-.14.36-.26.55-.36s.4-.18.62-.23c.22-.05.45-.08.7-.08.39,0,.73.06,1.03.19.3.13.54.31.74.55.2.24.35.52.45.85.1.33.15.7.15,1.1v4.51h-1.25v-4.51c0-.54-.12-.95-.37-1.25-.25-.3-.62-.44-1.12-.44-.37,0-.71.09-1.03.27-.32.18-.61.42-.89.72v5.22h-1.25v-7.09h.75c.18,0,.29.09.33.26l.1.77Z"/><line class="cls-4" x1="21.71" y1="181.39" x2="486.8" y2="181.39"/><line class="cls-4" x1="21.71" y1="101.41" x2="486.8" y2="101.41"/><path class="cls-8" d="m26.2,276.14c0,.88-.09,1.64-.28,2.28s-.45,1.17-.77,1.59-.71.73-1.16.94-.92.31-1.43.31-.99-.1-1.43-.31-.83-.52-1.15-.94c-.33-.42-.58-.95-.77-1.59-.19-.64-.28-1.4-.28-2.28s.09-1.64.28-2.28c.19-.64.44-1.18.77-1.6.33-.42.71-.74,1.15-.94s.92-.31,1.43-.31.99.1,1.43.31.83.52,1.16.94c.33.42.58.96.77,1.6.19.64.28,1.4.28,2.28Zm-1.3,0c0-.77-.06-1.41-.19-1.93s-.3-.94-.52-1.26c-.22-.32-.47-.54-.75-.68s-.58-.21-.89-.21-.6.07-.89.21-.53.37-.75.68c-.21.32-.39.74-.51,1.26s-.19,1.16-.19,1.93.06,1.41.19,1.92c.13.52.3.94.51,1.25.21.32.46.54.75.68s.58.21.89.21.6-.07.89-.21.54-.37.75-.68c.22-.32.39-.74.52-1.25.13-.52.19-1.16.19-1.92Z"/><path class="cls-8" d="m92.45,276.14c0,.88-.09,1.64-.28,2.28s-.45,1.17-.77,1.59-.71.73-1.16.94-.92.31-1.43.31-.99-.1-1.43-.31-.83-.52-1.15-.94c-.33-.42-.58-.95-.77-1.59-.19-.64-.28-1.4-.28-2.28s.09-1.64.28-2.28c.19-.64.44-1.18.77-1.6.33-.42.71-.74,1.15-.94s.92-.31,1.43-.31.99.1,1.43.31.83.52,1.16.94c.33.42.58.96.77,1.6.19.64.28,1.4.28,2.28Zm-1.3,0c0-.77-.06-1.41-.19-1.93s-.3-.94-.52-1.26c-.22-.32-.47-.54-.75-.68s-.58-.21-.89-.21-.6.07-.89.21-.53.37-.75.68c-.21.32-.39.74-.51,1.26s-.19,1.16-.19,1.93.06,1.41.19,1.92c.13.52.3.94.51,1.25.21.32.46.54.75.68s.58.21.89.21.6-.07.89-.21.54-.37.75-.68c.22-.32.39-.74.52-1.25.13-.52.19-1.16.19-1.92Z"/><path class="cls-8" d="m93.61,280.38c0-.12.02-.24.07-.34.04-.11.11-.2.18-.28.08-.08.17-.14.28-.19.11-.05.22-.07.34-.07s.24.02.34.07.2.11.28.19c.08.08.14.17.19.28.05.11.07.22.07.34s-.02.24-.07.35c-.05.11-.11.2-.19.28-.08.08-.17.14-.28.19-.11.04-.22.07-.34.07s-.24-.02-.34-.07c-.11-.04-.2-.11-.28-.19-.08-.08-.14-.17-.18-.28-.04-.1-.07-.22-.07-.35Z"/><path class="cls-8" d="m98.81,274.9c.52-.11,1-.17,1.44-.17.52,0,.98.08,1.39.23.4.15.74.37,1,.64.27.27.47.59.61.96.14.37.21.77.21,1.2,0,.53-.09,1.01-.28,1.44-.18.43-.44.8-.76,1.1-.32.31-.71.54-1.14.7-.44.16-.91.25-1.42.25-.29,0-.58-.03-.85-.09s-.52-.14-.76-.23c-.24-.1-.45-.21-.65-.34s-.38-.26-.53-.4l.38-.53c.08-.12.19-.18.33-.18.09,0,.2.04.31.11s.26.15.43.24c.17.09.36.17.59.24.23.07.5.11.81.11.35,0,.67-.06.94-.17.28-.11.52-.27.72-.48s.35-.46.46-.75c.11-.29.16-.61.16-.97,0-.31-.05-.59-.14-.85s-.23-.47-.41-.64c-.18-.18-.41-.31-.69-.41-.28-.1-.6-.15-.97-.15-.25,0-.51.02-.79.06s-.55.11-.84.2l-.78-.23.81-4.69h4.75v.55c0,.18-.05.32-.16.44-.11.12-.3.17-.56.17h-3.15l-.46,2.63Z"/><path class="cls-8" d="m164.02,280.2v.95h-5.38v-.95h2.15v-6.84c0-.21,0-.41.02-.62l-1.79,1.53c-.06.05-.12.08-.18.09-.06.01-.12.01-.17,0-.05,0-.1-.03-.14-.06s-.08-.06-.1-.09l-.39-.54,2.99-2.58h1.01v9.1h1.97Z"/><path class="cls-8" d="m165.67,280.38c0-.12.02-.24.07-.34.04-.11.11-.2.18-.28.08-.08.17-.14.28-.19.11-.05.22-.07.34-.07s.24.02.34.07.2.11.28.19c.08.08.14.17.19.28.05.11.07.22.07.34s-.02.24-.07.35c-.05.11-.11.2-.19.28-.08.08-.17.14-.28.19-.11.04-.22.07-.34.07s-.24-.02-.34-.07c-.11-.04-.2-.11-.28-.19-.08-.08-.14-.17-.18-.28-.04-.1-.07-.22-.07-.35Z"/><path class="cls-8" d="m175.86,276.14c0,.88-.09,1.64-.28,2.28s-.45,1.17-.77,1.59-.71.73-1.16.94-.92.31-1.43.31-.99-.1-1.43-.31-.83-.52-1.15-.94c-.33-.42-.58-.95-.77-1.59-.19-.64-.28-1.4-.28-2.28s.09-1.64.28-2.28c.19-.64.44-1.18.77-1.6.33-.42.71-.74,1.15-.94s.92-.31,1.43-.31.99.1,1.43.31.83.52,1.16.94c.33.42.58.96.77,1.6.19.64.28,1.4.28,2.28Zm-1.3,0c0-.77-.06-1.41-.19-1.93s-.3-.94-.52-1.26c-.22-.32-.47-.54-.75-.68s-.58-.21-.89-.21-.6.07-.89.21-.53.37-.75.68c-.21.32-.39.74-.51,1.26s-.19,1.16-.19,1.93.06,1.41.19,1.92c.13.52.3.94.51,1.25.21.32.46.54.75.68s.58.21.89.21.6-.07.89-.21.54-.37.75-.68c.22-.32.39-.74.52-1.25.13-.52.19-1.16.19-1.92Z"/><path class="cls-8" d="m235.95,280.2v.95h-5.38v-.95h2.15v-6.84c0-.21,0-.41.02-.62l-1.79,1.53c-.06.05-.12.08-.18.09-.06.01-.12.01-.17,0-.05,0-.1-.03-.14-.06-.04-.03-.08-.06-.1-.09l-.39-.54,2.99-2.58h1.01v9.1h1.97Z"/><path class="cls-8" d="m237.6,280.38c0-.12.02-.24.07-.34.04-.11.11-.2.18-.28.08-.08.17-.14.28-.19s.22-.07.34-.07.24.02.34.07.2.11.28.19c.08.08.14.17.19.28.05.11.07.22.07.34s-.02.24-.07.35c-.05.11-.11.2-.19.28-.08.08-.17.14-.28.19-.11.04-.22.07-.34.07s-.24-.02-.34-.07c-.11-.04-.2-.11-.28-.19-.08-.08-.14-.17-.18-.28-.04-.1-.07-.22-.07-.35Z"/><path class="cls-8" d="m242.8,274.9c.52-.11,1-.17,1.44-.17.52,0,.98.08,1.39.23.4.15.74.37,1,.64.27.27.47.59.61.96.14.37.21.77.21,1.2,0,.53-.09,1.01-.28,1.44-.18.43-.44.8-.76,1.1s-.71.54-1.14.7-.91.25-1.42.25c-.29,0-.58-.03-.85-.09s-.52-.14-.76-.23-.45-.21-.65-.34c-.2-.13-.38-.26-.53-.4l.38-.53c.08-.12.19-.18.33-.18.09,0,.2.04.32.11.12.07.26.15.43.24.17.09.37.17.59.24.23.07.5.11.81.11.35,0,.67-.06.94-.17.28-.11.52-.27.72-.48.2-.21.35-.46.46-.75.11-.29.16-.61.16-.97,0-.31-.05-.59-.14-.85s-.23-.47-.41-.64c-.18-.18-.41-.31-.69-.41-.28-.1-.6-.15-.97-.15-.25,0-.51.02-.79.06-.27.04-.55.11-.84.2l-.78-.23.8-4.69h4.75v.55c0,.18-.05.32-.16.44-.11.12-.3.17-.56.17h-3.15l-.46,2.63Z"/><path class="cls-8" d="m307.78,279.96c.14,0,.24.04.32.12.08.08.12.18.12.31v.76h-6.69v-.43c0-.09.02-.18.06-.27.04-.09.1-.18.18-.26l3.21-3.23c.27-.27.51-.53.73-.78.22-.25.41-.5.56-.75.15-.25.27-.51.36-.77s.13-.54.13-.83-.05-.55-.14-.77c-.09-.22-.22-.4-.38-.55s-.35-.25-.57-.33c-.22-.07-.46-.11-.71-.11s-.49.04-.71.11-.41.18-.57.31c-.17.13-.3.29-.42.47-.11.18-.19.38-.24.6-.06.16-.13.27-.23.33s-.23.07-.4.04l-.65-.11c.07-.46.19-.86.38-1.21.19-.35.43-.65.71-.89s.61-.42.98-.54c.37-.12.77-.19,1.2-.19s.82.06,1.19.19c.37.13.69.31.96.55s.48.53.64.88c.15.35.23.74.23,1.18,0,.37-.06.72-.17,1.04s-.26.62-.46.91c-.19.29-.41.57-.66.85-.25.28-.51.55-.79.83l-2.65,2.7c.19-.05.38-.09.57-.12s.38-.04.55-.04h3.36Z"/><path class="cls-8" d="m309.76,280.38c0-.12.02-.24.07-.34.04-.11.11-.2.18-.28.08-.08.17-.14.28-.19s.22-.07.34-.07.24.02.34.07.2.11.28.19c.08.08.14.17.19.28.05.11.07.22.07.34s-.02.24-.07.35c-.05.11-.11.2-.19.28-.08.08-.17.14-.28.19-.11.04-.22.07-.34.07s-.24-.02-.34-.07c-.11-.04-.2-.11-.28-.19-.08-.08-.14-.17-.18-.28-.04-.1-.07-.22-.07-.35Z"/><path class="cls-8" d="m319.95,276.14c0,.88-.09,1.64-.28,2.28-.19.64-.45,1.17-.77,1.59-.33.42-.71.73-1.16.94-.45.21-.92.31-1.43.31s-.99-.1-1.43-.31c-.44-.21-.83-.52-1.15-.94-.33-.42-.58-.95-.77-1.59s-.28-1.4-.28-2.28.09-1.64.28-2.28c.19-.64.44-1.18.77-1.6.33-.42.71-.74,1.15-.94.44-.21.92-.31,1.43-.31s.99.1,1.43.31c.45.21.83.52,1.16.94.33.42.58.96.77,1.6.19.64.28,1.4.28,2.28Zm-1.29,0c0-.77-.06-1.41-.19-1.93-.13-.52-.3-.94-.52-1.26-.22-.32-.47-.54-.75-.68-.29-.14-.58-.21-.89-.21s-.6.07-.89.21c-.28.14-.53.37-.75.68s-.39.74-.51,1.26c-.13.52-.19,1.16-.19,1.93s.06,1.41.19,1.92c.13.52.3.94.51,1.25s.46.54.75.68c.29.14.58.21.89.21s.6-.07.89-.21c.28-.14.54-.37.75-.68.22-.32.39-.74.52-1.25.13-.52.19-1.16.19-1.92Z"/><path class="cls-8" d="m379.71,279.96c.14,0,.24.04.32.12.08.08.12.18.12.31v.76h-6.69v-.43c0-.09.02-.18.06-.27.04-.09.1-.18.18-.26l3.21-3.23c.27-.27.51-.53.73-.78.22-.25.41-.5.56-.75.15-.25.27-.51.36-.77s.13-.54.13-.83-.05-.55-.14-.77c-.09-.22-.22-.4-.38-.55s-.35-.25-.57-.33c-.22-.07-.46-.11-.71-.11s-.49.04-.71.11-.41.18-.57.31c-.17.13-.3.29-.42.47-.11.18-.19.38-.24.6-.06.16-.13.27-.23.33s-.23.07-.4.04l-.65-.11c.07-.46.19-.86.38-1.21.19-.35.43-.65.71-.89s.61-.42.98-.54c.37-.12.77-.19,1.2-.19s.82.06,1.19.19c.37.13.69.31.96.55s.48.53.64.88c.15.35.23.74.23,1.18,0,.37-.06.72-.17,1.04s-.26.62-.46.91c-.19.29-.41.57-.66.85-.25.28-.51.55-.79.83l-2.65,2.7c.19-.05.38-.09.57-.12s.38-.04.55-.04h3.36Z"/><path class="cls-8" d="m381.69,280.38c0-.12.02-.24.07-.34.04-.11.11-.2.18-.28.08-.08.17-.14.28-.19s.22-.07.34-.07.24.02.34.07.2.11.28.19c.08.08.14.17.19.28.05.11.07.22.07.34s-.02.24-.07.35c-.05.11-.11.2-.19.28-.08.08-.17.14-.28.19-.11.04-.22.07-.34.07s-.24-.02-.34-.07c-.11-.04-.2-.11-.28-.19-.08-.08-.14-.17-.18-.28-.04-.1-.07-.22-.07-.35Z"/><path class="cls-8" d="m386.89,274.9c.52-.11,1-.17,1.44-.17.52,0,.98.08,1.39.23.4.15.74.37,1,.64.27.27.47.59.61.96.14.37.21.77.21,1.2,0,.53-.09,1.01-.28,1.44-.18.43-.44.8-.76,1.1s-.71.54-1.14.7-.91.25-1.42.25c-.29,0-.58-.03-.85-.09s-.52-.14-.76-.23-.45-.21-.65-.34c-.2-.13-.38-.26-.53-.4l.38-.53c.08-.12.19-.18.33-.18.09,0,.2.04.32.11.12.07.26.15.43.24.17.09.37.17.59.24.23.07.5.11.81.11.35,0,.67-.06.94-.17.28-.11.52-.27.72-.48.2-.21.35-.46.46-.75.11-.29.16-.61.16-.97,0-.31-.05-.59-.14-.85s-.23-.47-.41-.64c-.18-.18-.41-.31-.69-.41-.28-.1-.6-.15-.97-.15-.25,0-.51.02-.79.06-.27.04-.55.11-.84.2l-.78-.23.8-4.69h4.75v.55c0,.18-.05.32-.16.44-.11.12-.3.17-.56.17h-3.15l-.46,2.63Z"/><path class="cls-8" d="m445.8,273.83c.06-.46.19-.86.38-1.21.19-.35.42-.65.71-.89s.62-.42.99-.54c.37-.12.77-.19,1.2-.19s.82.06,1.18.18.67.29.93.52c.26.22.46.5.61.81s.22.67.22,1.06c0,.32-.04.6-.12.85-.08.25-.2.47-.35.65-.15.19-.33.35-.55.48s-.46.24-.72.32c.65.17,1.14.46,1.47.87.33.41.49.92.49,1.53,0,.46-.09.88-.26,1.25-.17.37-.41.68-.72.94-.3.26-.66.46-1.06.59-.4.14-.84.21-1.3.21-.53,0-.99-.07-1.37-.2-.38-.13-.7-.32-.96-.55-.26-.23-.48-.51-.64-.83-.17-.32-.31-.67-.43-1.04l.54-.22c.14-.06.28-.08.41-.05.13.03.23.11.29.23.06.13.14.29.23.47s.22.36.37.53c.16.17.36.31.61.43.25.12.56.17.93.17.35,0,.66-.06.92-.17.26-.12.48-.26.66-.45.17-.18.31-.38.4-.61.09-.22.13-.45.13-.67,0-.27-.04-.52-.11-.74-.07-.22-.2-.42-.39-.58s-.45-.29-.79-.38c-.33-.09-.76-.14-1.29-.14v-.9c.43,0,.79-.05,1.1-.14.3-.09.55-.21.74-.36.19-.15.33-.34.41-.55.09-.21.13-.45.13-.71,0-.29-.04-.54-.14-.76-.09-.21-.22-.39-.37-.53-.16-.14-.35-.25-.56-.31-.22-.07-.45-.11-.7-.11s-.49.04-.7.11-.41.18-.57.31c-.17.13-.3.29-.42.47-.11.18-.19.38-.24.6-.06.16-.14.27-.23.33s-.22.07-.4.04l-.65-.11Z"/><path class="cls-8" d="m453.81,280.38c0-.12.02-.24.07-.34s.11-.2.18-.28c.08-.08.17-.14.28-.19.11-.05.22-.07.34-.07s.24.02.34.07.2.11.28.19.14.17.19.28.07.22.07.34-.02.24-.07.35c-.05.11-.11.2-.19.28s-.17.14-.28.19c-.11.04-.22.07-.34.07s-.24-.02-.34-.07c-.11-.04-.2-.11-.28-.19-.08-.08-.14-.17-.18-.28-.04-.1-.07-.22-.07-.35Z"/><path class="cls-8" d="m464,276.14c0,.88-.09,1.64-.28,2.28-.19.64-.45,1.17-.77,1.59-.33.42-.71.73-1.16.94-.45.21-.92.31-1.43.31s-.99-.1-1.43-.31c-.44-.21-.83-.52-1.15-.94-.33-.42-.58-.95-.77-1.59-.19-.64-.28-1.4-.28-2.28s.09-1.64.28-2.28c.19-.64.44-1.18.77-1.6.33-.42.71-.74,1.15-.94.44-.21.92-.31,1.43-.31s.99.1,1.43.31c.45.21.83.52,1.16.94.33.42.58.96.77,1.6.19.64.28,1.4.28,2.28Zm-1.3,0c0-.77-.06-1.41-.19-1.93-.13-.52-.3-.94-.52-1.26s-.47-.54-.75-.68c-.28-.14-.58-.21-.89-.21s-.6.07-.89.21c-.29.14-.54.37-.75.68-.21.32-.39.74-.51,1.26-.13.52-.19,1.16-.19,1.93s.06,1.41.19,1.92c.13.52.3.94.51,1.25.21.32.46.54.75.68.28.14.58.21.89.21s.6-.07.89-.21c.29-.14.54-.37.75-.68s.39-.74.52-1.25c.13-.52.19-1.16.19-1.92Z"/><path class="cls-8" d="m501.3,104.18h-1.36v-10.03h1.36v10.03Z"/><path class="cls-8" d="m504.66,98.12c.15-.17.32-.33.49-.47.17-.14.36-.26.55-.36.19-.1.4-.18.62-.23s.45-.08.7-.08c.39,0,.73.06,1.03.19.3.13.54.31.74.55.2.24.35.52.45.85.1.33.15.7.15,1.1v4.51h-1.25v-4.51c0-.54-.12-.95-.37-1.25-.24-.3-.62-.44-1.12-.44-.37,0-.71.09-1.03.27-.32.18-.62.42-.88.72v5.22h-1.25v-7.09h.75c.18,0,.29.09.33.26l.1.77Z"/><path class="cls-8" d="m511.54,104.18v-6.03l-.78-.09c-.1-.02-.18-.06-.24-.11s-.09-.12-.09-.21v-.51h1.12v-.69c0-.41.06-.77.17-1.08.11-.31.28-.58.49-.8.21-.22.47-.38.77-.49.3-.11.63-.17,1.01-.17.32,0,.61.05.88.14l-.03.62c0,.11-.07.17-.19.18-.11,0-.27.01-.46.01-.21,0-.41.03-.58.08-.17.06-.33.15-.45.27-.13.13-.22.29-.29.5-.07.21-.1.46-.1.76v.65h2.04v.9h-2v6.05h-1.25Z"/><path class="cls-8" d="m518.84,96.98c.52,0,.98.09,1.4.26.42.17.77.42,1.06.74s.52.7.68,1.15.23.95.23,1.51-.08,1.06-.23,1.51-.38.83-.68,1.15-.65.56-1.06.73c-.42.17-.88.25-1.4.25s-.99-.08-1.41-.25c-.42-.17-.77-.41-1.07-.73-.29-.32-.52-.7-.68-1.15s-.23-.95-.23-1.51.08-1.06.23-1.51.38-.83.68-1.15c.29-.32.65-.56,1.07-.74.42-.17.89-.26,1.41-.26Zm0,6.33c.7,0,1.22-.23,1.57-.7.35-.47.52-1.12.52-1.96s-.17-1.5-.52-1.97c-.34-.47-.87-.71-1.57-.71-.35,0-.66.06-.93.18s-.48.3-.66.53c-.18.23-.31.51-.39.84-.09.33-.13.71-.13,1.13,0,.84.17,1.49.52,1.96.35.47.88.7,1.58.7Z"/><path class="cls-8" d="m524.92,98.51c.22-.49.5-.86.83-1.14.33-.27.73-.41,1.2-.41.15,0,.29.02.43.05.14.03.26.08.37.15l-.09.93c-.03.12-.1.17-.21.17-.07,0-.16-.01-.29-.04-.13-.03-.27-.04-.43-.04-.22,0-.42.03-.6.1-.18.07-.33.16-.47.29-.14.13-.26.29-.37.48-.11.19-.21.41-.3.65v4.48h-1.25v-7.09h.71c.14,0,.23.03.28.08s.09.14.1.27l.08,1.08Z"/><path class="cls-8" d="m528.87,104.18v-7.09h.75c.18,0,.29.09.33.26l.09.73c.26-.32.56-.59.88-.79.33-.21.7-.31,1.13-.31.48,0,.86.13,1.16.4.3.27.51.62.64,1.08.1-.26.23-.48.4-.67.16-.19.34-.34.54-.46.2-.12.41-.21.64-.27.23-.06.46-.08.69-.08.37,0,.71.06,1,.18.29.12.54.29.74.52s.36.51.47.84c.11.33.16.71.16,1.14v4.51h-1.25v-4.51c0-.56-.12-.98-.36-1.26s-.59-.43-1.05-.43c-.21,0-.4.04-.58.11-.18.07-.35.18-.49.32-.14.14-.25.32-.33.53-.08.21-.12.46-.12.74v4.51h-1.25v-4.51c0-.57-.12-.99-.34-1.27s-.56-.42-1-.42c-.31,0-.59.08-.85.25-.26.17-.5.39-.72.68v5.29h-1.25Z"/><path class="cls-8" d="m540.13,98.09c.39-.38.81-.66,1.27-.85.45-.19.95-.28,1.5-.28.4,0,.75.07,1.06.2.31.13.57.31.78.55s.37.52.48.85.16.7.16,1.09v4.54h-.55c-.12,0-.21-.02-.28-.06-.07-.04-.12-.12-.15-.23l-.14-.67c-.19.17-.37.33-.55.46-.18.13-.36.25-.56.34-.2.09-.4.16-.63.21-.22.05-.47.07-.74.07s-.53-.04-.78-.12c-.24-.08-.45-.19-.63-.35-.18-.15-.32-.35-.43-.58s-.16-.51-.16-.84c0-.28.08-.55.23-.81.15-.26.4-.49.75-.69.34-.2.79-.37,1.35-.49.56-.13,1.24-.2,2.04-.22v-.55c0-.55-.12-.97-.36-1.25s-.59-.42-1.04-.42c-.31,0-.57.04-.77.12-.21.08-.39.16-.54.26-.15.1-.28.18-.39.26-.11.08-.22.12-.33.12-.08,0-.16-.02-.22-.07-.06-.04-.11-.1-.15-.17l-.22-.4Zm4.03,2.9c-.57.02-1.06.06-1.47.14-.4.07-.73.17-.99.28-.25.12-.44.25-.55.41-.12.16-.17.34-.17.53s.03.35.09.48c.06.13.14.25.25.33.1.09.23.15.37.19.14.04.3.06.46.06.22,0,.42-.02.6-.07.18-.04.35-.11.51-.19s.31-.18.46-.3c.15-.12.29-.25.43-.4v-1.47Z"/><path class="cls-8" d="m553.7,104.18h-1.25v-6.05h-3.65v4.26c0,.3.07.52.22.67.15.14.33.22.56.22.13,0,.24-.02.34-.05.1-.03.18-.07.25-.12.07-.04.13-.08.18-.12s.09-.05.13-.05c.07,0,.12.04.18.12l.36.59c-.21.2-.47.36-.78.47-.3.11-.62.17-.94.17-.56,0-.99-.16-1.29-.47-.3-.31-.45-.76-.45-1.35v-4.34h-.85c-.07,0-.14-.02-.19-.07-.05-.04-.08-.11-.08-.21v-.5l1.16-.15.29-2.18c.01-.07.04-.13.09-.17.05-.04.11-.07.19-.07h.63v2.44h4.9v6.95Zm.31-9.37c0,.12-.02.23-.07.34-.05.1-.11.2-.2.28s-.18.14-.28.19c-.11.05-.22.07-.34.07s-.23-.02-.34-.07c-.1-.05-.2-.11-.28-.19-.08-.08-.14-.17-.19-.28-.05-.11-.07-.22-.07-.34s.02-.24.07-.35c.05-.11.11-.21.19-.29.08-.08.17-.15.28-.19.1-.05.22-.07.34-.07s.24.02.34.07c.11.05.2.11.28.19.08.08.15.18.2.29.05.11.07.23.07.35Z"/><path class="cls-8" d="m558.68,96.98c.52,0,.98.09,1.4.26.42.17.77.42,1.06.74s.52.7.68,1.15c.16.45.23.95.23,1.51s-.08,1.06-.23,1.51c-.16.45-.38.83-.68,1.15s-.65.56-1.06.73c-.42.17-.88.25-1.4.25s-.99-.08-1.41-.25c-.42-.17-.77-.41-1.07-.73-.29-.32-.52-.7-.68-1.15-.16-.45-.23-.95-.23-1.51s.08-1.06.23-1.51c.16-.45.38-.83.68-1.15.29-.32.65-.56,1.07-.74.42-.17.89-.26,1.41-.26Zm0,6.33c.7,0,1.22-.23,1.57-.7.34-.47.52-1.12.52-1.96s-.17-1.5-.52-1.97c-.35-.47-.87-.71-1.57-.71-.36,0-.66.06-.93.18s-.48.3-.66.53c-.17.23-.3.51-.39.84-.09.33-.13.71-.13,1.13,0,.84.17,1.49.52,1.96.35.47.88.7,1.59.7Z"/><path class="cls-8" d="m564.76,98.12c.15-.17.32-.33.49-.47.17-.14.36-.26.55-.36.19-.1.4-.18.62-.23s.45-.08.7-.08c.39,0,.73.06,1.03.19.3.13.54.31.74.55.2.24.35.52.45.85.1.33.15.7.15,1.1v4.51h-1.25v-4.51c0-.54-.12-.95-.37-1.25-.24-.3-.62-.44-1.12-.44-.37,0-.71.09-1.03.27-.32.18-.62.42-.88.72v5.22h-1.25v-7.09h.75c.18,0,.29.09.33.26l.1.77Z"/><path class="cls-8" d="m508.1,185.38h-1.05c-.12,0-.22-.03-.29-.09s-.13-.14-.17-.23l-.94-2.42h-4.5l-.94,2.42c-.03.08-.08.16-.16.22-.08.07-.18.1-.29.1h-1.05l4.01-10.03h1.37l4.01,10.03Zm-2.83-3.72l-1.58-4.08c-.05-.12-.1-.26-.15-.42-.05-.16-.1-.33-.15-.51-.1.38-.2.69-.3.95l-1.58,4.07h3.75Z"/><path class="cls-8" d="m510.49,175.07v10.31h-1.25v-10.31h1.25Z"/><path class="cls-8" d="m513.68,175.07v10.31h-1.25v-10.31h1.25Z"/><path class="cls-8" d="m520.86,176.06c0,.12-.02.24-.07.34-.05.11-.12.2-.2.28-.08.08-.18.15-.29.19-.11.05-.23.07-.35.07s-.23-.02-.34-.07-.2-.11-.28-.19c-.08-.08-.14-.17-.19-.28-.05-.1-.07-.22-.07-.34s.02-.24.07-.35c.05-.11.11-.21.19-.29.08-.08.17-.15.28-.19.1-.05.22-.07.34-.07s.24.02.35.07c.11.05.21.11.29.19.08.08.15.18.2.29.05.11.07.22.07.35Zm-.27,2.23v7.09h-1.25v-7.09h1.25Z"/><path class="cls-8" d="m523.72,179.32c.15-.17.32-.33.49-.47.17-.14.36-.26.55-.36.19-.1.4-.18.62-.23s.45-.08.7-.08c.39,0,.73.06,1.03.19.3.13.54.31.74.55.2.24.35.52.45.85.1.33.15.7.15,1.1v4.51h-1.25v-4.51c0-.54-.12-.95-.37-1.25-.24-.3-.62-.44-1.12-.44-.37,0-.71.09-1.03.27-.32.18-.62.42-.88.72v5.22h-1.25v-7.09h.75c.18,0,.29.09.33.26l.1.77Z"/><path class="cls-8" d="m532.36,185.49c-.56,0-.99-.16-1.29-.47-.3-.31-.45-.76-.45-1.35v-4.34h-.85c-.08,0-.14-.02-.19-.07-.05-.04-.08-.11-.08-.21v-.5l1.16-.15.29-2.19c.01-.07.05-.13.09-.17.05-.04.11-.07.19-.07h.63v2.44h2.05v.9h-2.05v4.26c0,.3.07.52.22.67s.33.22.56.22c.13,0,.24-.02.34-.05.09-.03.18-.07.25-.12s.13-.08.18-.12.09-.05.13-.05c.07,0,.12.04.17.12l.36.59c-.21.2-.47.36-.78.47-.3.11-.62.17-.94.17Z"/><path class="cls-8" d="m540.77,184.39c-.15.19-.34.35-.55.49s-.44.25-.69.34-.5.16-.76.2c-.26.04-.52.07-.78.07-.49,0-.94-.08-1.36-.25-.41-.17-.77-.41-1.07-.73-.3-.32-.54-.71-.7-1.19-.17-.47-.25-1.01-.25-1.62,0-.49.08-.96.23-1.39.15-.43.37-.8.65-1.12.29-.32.63-.56,1.04-.74.41-.18.87-.27,1.39-.27.42,0,.82.07,1.18.21s.67.35.94.62c.26.27.47.6.62.99.15.39.22.84.22,1.35,0,.2-.02.33-.06.39-.04.07-.12.1-.24.1h-4.74c.01.45.08.84.19,1.17.11.33.26.61.46.83.2.22.43.39.7.5.27.11.57.17.91.17.31,0,.58-.04.81-.11.23-.07.42-.15.58-.23.16-.08.3-.16.41-.24.11-.07.2-.11.28-.11.1,0,.18.04.24.12l.35.46Zm-1.01-3.33c0-.29-.04-.55-.12-.79-.08-.24-.2-.45-.36-.62s-.35-.31-.57-.41-.48-.14-.76-.14c-.6,0-1.07.17-1.42.52s-.56.83-.65,1.45h3.88Z"/><path class="cls-8" d="m543.57,179.71c.22-.49.5-.86.83-1.14.33-.27.73-.41,1.2-.41.15,0,.29.02.43.05.14.03.26.08.37.15l-.09.93c-.03.12-.1.17-.21.17-.06,0-.16-.01-.29-.04-.12-.03-.27-.04-.43-.04-.22,0-.42.03-.6.1-.17.07-.33.16-.47.29-.14.13-.26.29-.37.48-.11.19-.21.41-.3.65v4.48h-1.25v-7.09h.71c.13,0,.23.03.28.08.05.05.09.14.11.27l.08,1.08Z"/><path class="cls-8" d="m554.01,178.29l-2.89,7.09h-1.12l-2.89-7.09h1.01c.1,0,.19.03.25.08.07.05.11.11.13.18l1.8,4.56c.06.17.11.34.15.5.04.16.08.33.12.49.04-.16.08-.33.12-.49.04-.16.09-.33.15-.5l1.82-4.56c.03-.07.07-.14.14-.19.06-.05.14-.07.23-.07h.97Z"/><path class="cls-8" d="m560.65,184.39c-.15.19-.34.35-.55.49s-.44.25-.69.34-.5.16-.76.2c-.26.04-.52.07-.78.07-.49,0-.94-.08-1.36-.25-.41-.17-.77-.41-1.07-.73-.3-.32-.54-.71-.7-1.19-.17-.47-.25-1.01-.25-1.62,0-.49.08-.96.23-1.39.15-.43.37-.8.65-1.12.29-.32.63-.56,1.04-.74.41-.18.87-.27,1.39-.27.42,0,.82.07,1.18.21s.67.35.94.62c.26.27.47.6.62.99.15.39.22.84.22,1.35,0,.2-.02.33-.06.39-.04.07-.12.1-.24.1h-4.74c.01.45.08.84.19,1.17.11.33.26.61.46.83.2.22.43.39.7.5.27.11.57.17.91.17.31,0,.58-.04.81-.11.23-.07.42-.15.58-.23.16-.08.3-.16.41-.24.11-.07.2-.11.28-.11.1,0,.18.04.24.12l.35.46Zm-1.01-3.33c0-.29-.04-.55-.12-.79-.08-.24-.2-.45-.36-.62s-.35-.31-.57-.41-.48-.14-.76-.14c-.6,0-1.07.17-1.42.52s-.56.83-.65,1.45h3.88Z"/><path class="cls-8" d="m563.44,179.32c.15-.17.32-.33.49-.47.17-.14.36-.26.55-.36s.4-.18.62-.23c.22-.05.45-.08.7-.08.39,0,.73.06,1.03.19.3.13.54.31.74.55.2.24.35.52.45.85.1.33.15.7.15,1.1v4.51h-1.25v-4.51c0-.54-.12-.95-.37-1.25-.25-.3-.62-.44-1.12-.44-.37,0-.71.09-1.03.27-.32.18-.61.42-.89.72v5.22h-1.25v-7.09h.75c.18,0,.29.09.33.26l.1.77Z"/><path class="cls-8" d="m576.52,185.38h-1.25v-6.05h-3.65v4.26c0,.3.07.52.22.67s.33.22.56.22c.13,0,.24-.02.34-.05.09-.03.18-.07.25-.12s.13-.08.18-.12.09-.05.13-.05c.07,0,.12.04.17.12l.36.59c-.21.2-.47.36-.78.47-.3.11-.62.17-.94.17-.56,0-.99-.16-1.29-.47-.3-.31-.45-.76-.45-1.35v-4.34h-.85c-.08,0-.14-.02-.19-.07-.05-.04-.08-.11-.08-.21v-.5l1.16-.15.29-2.18c.01-.07.05-.13.09-.17.05-.04.11-.07.19-.07h.63v2.44h4.9v6.95Zm.31-9.37c0,.12-.02.23-.07.34-.05.1-.12.2-.2.28s-.18.14-.28.19c-.11.05-.22.07-.34.07s-.23-.02-.34-.07c-.11-.05-.2-.11-.28-.19-.08-.08-.14-.17-.19-.28-.05-.11-.07-.22-.07-.34s.02-.24.07-.35c.05-.11.11-.21.19-.29.08-.08.17-.15.28-.19.11-.05.22-.07.34-.07s.23.02.34.07c.11.05.2.11.28.19.08.08.15.18.2.29.05.11.07.23.07.35Z"/><path class="cls-8" d="m581.49,178.18c.52,0,.98.09,1.4.26.42.17.77.42,1.06.74s.52.7.68,1.15.23.95.23,1.51-.08,1.06-.23,1.51-.38.83-.68,1.15-.65.56-1.06.73c-.42.17-.88.25-1.4.25s-.99-.08-1.41-.25c-.42-.17-.77-.41-1.07-.73-.29-.32-.52-.7-.68-1.15s-.23-.95-.23-1.51.08-1.06.23-1.51.38-.83.68-1.15c.29-.32.65-.56,1.07-.74.42-.17.89-.26,1.41-.26Zm0,6.33c.7,0,1.22-.23,1.57-.7.35-.47.52-1.12.52-1.96s-.17-1.5-.52-1.97c-.34-.47-.87-.71-1.57-.71-.35,0-.66.06-.93.18s-.48.3-.66.53c-.18.23-.31.51-.39.84-.09.33-.13.71-.13,1.13,0,.84.17,1.49.52,1.96.35.47.88.7,1.58.7Z"/><path class="cls-8" d="m587.57,179.32c.15-.17.32-.33.49-.47.17-.14.36-.26.55-.36s.4-.18.62-.23c.22-.05.45-.08.7-.08.39,0,.73.06,1.03.19.3.13.54.31.74.55.2.24.35.52.45.85.1.33.15.7.15,1.1v4.51h-1.25v-4.51c0-.54-.12-.95-.37-1.25-.25-.3-.62-.44-1.12-.44-.37,0-.71.09-1.03.27-.32.18-.61.42-.89.72v5.22h-1.25v-7.09h.75c.18,0,.29.09.33.26l.1.77Z"/><path class="cls-8" d="m598.22,179.46c-.06.1-.14.15-.26.15-.07,0-.15-.03-.24-.08-.09-.05-.2-.11-.33-.17-.13-.06-.28-.12-.46-.17-.18-.05-.39-.08-.63-.08-.21,0-.4.03-.57.08s-.31.13-.43.22c-.12.09-.21.2-.27.33-.06.12-.09.26-.09.4,0,.18.05.33.16.46s.24.23.42.32c.17.09.37.17.59.23.22.07.44.14.68.22.23.08.46.16.67.26.22.09.42.21.59.35s.31.31.42.51c.1.2.16.45.16.73,0,.33-.06.63-.17.91-.12.28-.29.52-.52.72-.23.2-.51.36-.84.48-.33.12-.71.18-1.15.18-.5,0-.94-.08-1.34-.24-.4-.16-.74-.37-1.02-.62l.29-.48c.04-.06.08-.11.13-.14.05-.03.12-.05.2-.05.08,0,.17.03.27.1.09.07.21.14.34.22.13.08.3.15.49.22s.43.1.71.1c.24,0,.46-.03.64-.09.18-.06.33-.15.46-.25s.21-.23.27-.37.09-.29.09-.45c0-.2-.05-.36-.16-.49-.1-.13-.24-.24-.42-.33s-.37-.17-.59-.24c-.22-.07-.45-.14-.68-.21-.23-.08-.46-.16-.68-.26-.22-.1-.42-.22-.59-.36s-.31-.32-.42-.54c-.11-.21-.16-.47-.16-.77,0-.27.06-.53.17-.78.11-.25.28-.47.49-.66.21-.19.48-.34.79-.45s.67-.17,1.07-.17c.47,0,.89.07,1.26.22.37.15.69.35.96.61l-.28.46Z"/><line class="cls-2" x1="80.55" y1="111.43" x2="80.55" y2="91.38"/><line class="cls-2" x1="138.28" y1="111.43" x2="138.28" y2="91.38"/><line class="cls-2" x1="80.55" y1="101.41" x2="138.28" y2="101.41"/><line class="cls-1" x1="108.99" y1="191.42" x2="108.99" y2="171.37"/><line class="cls-1" x1="195.03" y1="191.42" x2="195.03" y2="171.37"/><line class="cls-1" x1="108.99" y1="181.39" x2="195.03" y2="181.39"/><line class="cls-4" x1="21.71" y1="261" x2="486.8" y2="261"/><line class="cls-4" x1="21.71" y1="22.26" x2="486.8" y2="22.26"/><line class="cls-3" x1="166.3" y1="32.85" x2="166.3" y2="12.81"/><line class="cls-3" x1="453.7" y1="32.85" x2="453.7" y2="12.81"/><line class="cls-3" x1="166.3" y1="22.83" x2="453.7" y2="22.83"/><path class="cls-8" d="m40.82,311.63h-1.05c-.12,0-.22-.03-.29-.09s-.13-.14-.17-.23l-.94-2.42h-4.5l-.94,2.42c-.03.08-.08.16-.16.22-.08.07-.18.1-.29.1h-1.05l4.01-10.03h1.37l4.01,10.03Zm-2.83-3.72l-1.57-4.08c-.05-.12-.1-.26-.15-.42-.05-.16-.1-.33-.15-.51-.1.38-.2.69-.3.95l-1.58,4.07h3.75Z"/><path class="cls-8" d="m47.52,304.54l-2.89,7.09h-1.12l-2.89-7.09h1.01c.1,0,.19.03.25.08.06.05.11.11.13.18l1.8,4.56c.06.17.1.34.15.5.04.16.08.33.12.49.04-.16.08-.33.12-.49.04-.16.09-.33.15-.5l1.82-4.56c.03-.07.07-.14.14-.19s.14-.07.23-.07h.97Z"/><path class="cls-8" d="m54.16,310.64c-.15.19-.34.35-.55.49s-.44.25-.69.34-.5.16-.76.2c-.26.04-.52.07-.78.07-.49,0-.94-.08-1.35-.25-.41-.17-.77-.41-1.07-.73-.3-.32-.54-.71-.7-1.19-.17-.47-.25-1.01-.25-1.62,0-.49.08-.96.23-1.39.15-.43.37-.8.65-1.12.28-.32.63-.56,1.04-.74s.87-.27,1.39-.27c.42,0,.82.07,1.18.21.36.14.67.35.94.62.26.27.47.6.62.99.15.39.22.84.22,1.35,0,.2-.02.33-.06.39s-.12.1-.24.1h-4.74c.01.45.08.84.19,1.17.11.33.26.61.46.83.2.22.43.39.7.5.27.11.57.17.91.17.31,0,.58-.04.81-.11.23-.07.42-.15.58-.23s.3-.16.41-.24c.11-.07.2-.11.28-.11.1,0,.18.04.24.12l.35.46Zm-1.01-3.33c0-.29-.04-.55-.12-.79s-.2-.45-.36-.62-.35-.31-.57-.41-.48-.14-.76-.14c-.6,0-1.07.17-1.42.52s-.56.83-.65,1.45h3.88Z"/><path class="cls-8" d="m56.96,305.96c.22-.49.5-.86.83-1.14.33-.27.73-.41,1.2-.41.15,0,.29.02.43.05s.26.08.37.15l-.09.93c-.03.12-.1.17-.21.17-.07,0-.16-.01-.29-.04-.13-.03-.27-.04-.43-.04-.22,0-.42.03-.6.1-.17.07-.33.16-.47.29-.14.13-.26.29-.37.48-.11.19-.21.41-.3.65v4.48h-1.25v-7.09h.71c.14,0,.23.03.28.08.05.05.09.14.1.27l.08,1.08Z"/><path class="cls-8" d="m60.78,305.54c.39-.38.81-.66,1.27-.85.45-.19.95-.28,1.51-.28.4,0,.75.07,1.06.2.31.13.57.31.78.55s.37.52.48.85c.11.33.16.7.16,1.09v4.54h-.55c-.12,0-.21-.02-.28-.06-.07-.04-.12-.12-.15-.23l-.14-.67c-.19.17-.37.33-.55.46-.18.13-.36.25-.56.34-.2.09-.4.16-.63.21-.22.05-.47.07-.74.07s-.53-.04-.78-.12c-.24-.08-.45-.19-.63-.35-.18-.15-.32-.35-.43-.58s-.16-.51-.16-.84c0-.28.08-.55.23-.81.15-.26.4-.49.75-.69.35-.2.8-.37,1.35-.49.56-.13,1.24-.2,2.04-.22v-.55c0-.55-.12-.97-.36-1.25-.24-.28-.59-.42-1.04-.42-.31,0-.57.04-.77.12-.21.08-.39.16-.54.26-.15.1-.28.18-.39.26-.11.08-.22.12-.33.12-.08,0-.16-.02-.22-.07-.06-.04-.11-.1-.15-.17l-.22-.4Zm4.02,2.9c-.57.02-1.06.06-1.47.14-.4.07-.73.17-.99.28-.25.12-.44.25-.55.41-.11.16-.17.34-.17.53s.03.35.09.48c.06.13.14.25.25.33.1.09.23.15.37.19.14.04.3.06.46.06.22,0,.42-.02.6-.07.18-.04.35-.11.51-.19s.31-.18.46-.3c.15-.12.29-.25.43-.4v-1.47Z"/><path class="cls-8" d="m73.8,304.82v.46c0,.15-.1.25-.29.29l-.81.1c.16.31.24.65.24,1.02,0,.34-.07.66-.2.94-.13.28-.32.52-.55.72-.23.2-.51.35-.84.46s-.68.16-1.06.16c-.33,0-.64-.04-.94-.12-.15.09-.26.19-.34.3-.08.11-.12.21-.12.32,0,.17.07.29.21.38.14.09.32.15.54.19.22.04.48.06.77.07.29,0,.58.02.88.04.3.02.59.06.88.11.29.05.54.13.77.25.22.12.4.28.54.48.14.21.21.47.21.8,0,.3-.08.6-.23.88-.15.28-.37.54-.65.76-.28.22-.63.4-1.05.53-.41.13-.88.2-1.4.2s-.97-.05-1.36-.15c-.39-.1-.71-.24-.97-.41-.26-.17-.45-.37-.58-.6s-.19-.46-.19-.71c0-.35.11-.65.33-.89.22-.24.52-.44.9-.58-.21-.09-.38-.22-.5-.37-.12-.16-.19-.37-.19-.63,0-.1.02-.21.06-.32.04-.11.09-.22.17-.33s.17-.21.28-.31c.11-.1.24-.18.39-.26-.35-.2-.62-.46-.82-.78-.2-.32-.29-.7-.29-1.13,0-.35.07-.66.2-.94.13-.28.32-.52.56-.72.24-.2.52-.35.85-.46s.69-.16,1.08-.16c.31,0,.6.03.86.1.27.07.51.17.73.3h1.93Zm-1.27,7.2c0-.17-.05-.31-.15-.42-.1-.11-.23-.19-.4-.25-.17-.06-.36-.1-.58-.13-.22-.03-.45-.05-.7-.06-.25-.01-.49-.03-.75-.04-.25-.01-.49-.04-.73-.07-.26.12-.48.27-.64.46-.17.18-.25.4-.25.65,0,.16.04.31.12.45.08.14.21.26.37.36s.38.18.63.24c.25.06.55.09.9.09s.64-.03.9-.09.49-.15.68-.26c.18-.11.33-.25.42-.4.1-.15.15-.33.15-.51Zm-2.25-3.85c.25,0,.47-.04.67-.11.19-.07.35-.17.48-.29s.23-.28.29-.45.1-.37.1-.58c0-.43-.13-.78-.4-1.04s-.65-.39-1.14-.39-.89.13-1.15.39-.4.6-.4,1.04c0,.21.03.4.1.58.07.17.17.33.3.45.13.13.29.22.48.29.19.07.41.11.67.11Z"/><path class="cls-8" d="m80.63,310.64c-.15.19-.34.35-.55.49s-.44.25-.69.34-.5.16-.76.2c-.26.04-.52.07-.78.07-.49,0-.94-.08-1.35-.25-.41-.17-.77-.41-1.07-.73-.3-.32-.54-.71-.7-1.19-.17-.47-.25-1.01-.25-1.62,0-.49.08-.96.23-1.39.15-.43.37-.8.65-1.12.28-.32.63-.56,1.04-.74s.87-.27,1.39-.27c.42,0,.82.07,1.18.21.36.14.67.35.94.62.26.27.47.6.62.99.15.39.22.84.22,1.35,0,.2-.02.33-.06.39s-.12.1-.24.1h-4.74c.01.45.08.84.19,1.17.11.33.26.61.46.83.2.22.43.39.7.5.27.11.57.17.91.17.31,0,.58-.04.81-.11.23-.07.42-.15.58-.23s.3-.16.41-.24c.11-.07.2-.11.28-.11.1,0,.18.04.24.12l.35.46Zm-1.01-3.33c0-.29-.04-.55-.12-.79s-.2-.45-.36-.62-.35-.31-.57-.41-.48-.14-.76-.14c-.6,0-1.07.17-1.42.52s-.56.83-.65,1.45h3.88Z"/><path class="cls-8" d="m91.61,310.64c-.15.19-.34.35-.55.49s-.44.25-.69.34-.5.16-.76.2c-.26.04-.52.07-.78.07-.49,0-.94-.08-1.35-.25-.41-.17-.77-.41-1.07-.73-.3-.32-.54-.71-.7-1.19-.17-.47-.25-1.01-.25-1.62,0-.49.08-.96.23-1.39.15-.43.37-.8.65-1.12.28-.32.63-.56,1.04-.74s.87-.27,1.39-.27c.42,0,.82.07,1.18.21.36.14.67.35.94.62.26.27.47.6.62.99.15.39.22.84.22,1.35,0,.2-.02.33-.06.39s-.12.1-.24.1h-4.74c.01.45.08.84.19,1.17.11.33.26.61.46.83.2.22.43.39.7.5.27.11.57.17.91.17.31,0,.58-.04.81-.11.23-.07.42-.15.58-.23s.3-.16.41-.24c.11-.07.2-.11.28-.11.1,0,.18.04.24.12l.35.46Zm-1.01-3.33c0-.29-.04-.55-.12-.79s-.2-.45-.36-.62-.35-.31-.57-.41-.48-.14-.76-.14c-.6,0-1.07.17-1.42.52s-.56.83-.65,1.45h3.88Z"/><path class="cls-8" d="m97.39,305.71c-.06.1-.14.15-.26.15-.07,0-.15-.03-.24-.08-.09-.05-.2-.11-.33-.17-.13-.06-.28-.12-.46-.17s-.39-.08-.63-.08c-.21,0-.4.03-.57.08s-.31.13-.43.22c-.12.09-.21.2-.27.33s-.09.26-.09.4c0,.18.05.33.16.46s.24.23.42.32c.17.09.37.17.59.23s.44.14.68.22c.23.08.46.16.68.26.22.09.42.21.59.35.17.14.31.31.42.51s.16.45.16.73c0,.33-.06.63-.18.91-.12.28-.29.52-.52.72-.23.2-.51.36-.84.48-.33.12-.71.18-1.15.18-.49,0-.94-.08-1.34-.24-.4-.16-.74-.37-1.02-.62l.29-.48c.04-.06.08-.11.13-.14.05-.03.12-.05.2-.05.08,0,.17.03.27.1.09.07.21.14.34.22.13.08.3.15.49.22s.43.1.71.1c.24,0,.46-.03.64-.09.18-.06.33-.15.46-.25.12-.11.21-.23.27-.37.06-.14.09-.29.09-.45,0-.2-.05-.36-.16-.49s-.24-.24-.42-.33-.37-.17-.59-.24c-.22-.07-.45-.14-.68-.21-.23-.08-.46-.16-.68-.26-.22-.1-.42-.22-.59-.36s-.31-.32-.42-.54c-.1-.21-.16-.47-.16-.77,0-.27.06-.53.17-.78.11-.25.27-.47.49-.66.21-.19.48-.34.79-.45s.67-.17,1.07-.17c.47,0,.89.07,1.26.22.37.15.69.35.96.61l-.28.46Z"/><path class="cls-8" d="m106.03,311.63h-1.25v-6.05h-3.65v4.26c0,.3.07.52.22.67.15.14.33.22.56.22.13,0,.24-.02.34-.05.1-.03.18-.07.25-.12.07-.04.13-.08.18-.12s.09-.05.13-.05c.07,0,.12.04.18.12l.36.59c-.21.2-.47.36-.78.47s-.62.17-.94.17c-.56,0-.99-.16-1.29-.47-.3-.31-.45-.76-.45-1.35v-4.34h-.85c-.07,0-.14-.02-.19-.07-.05-.04-.08-.11-.08-.21v-.5l1.16-.15.29-2.18c.01-.07.05-.13.09-.17.05-.04.11-.07.19-.07h.63v2.44h4.9v6.95Zm.31-9.37c0,.12-.02.23-.07.34-.05.1-.11.2-.2.28s-.18.14-.28.19c-.11.05-.22.07-.34.07s-.23-.02-.34-.07c-.1-.05-.2-.11-.28-.19-.08-.08-.14-.17-.19-.28-.05-.11-.07-.22-.07-.34s.02-.24.07-.35c.05-.11.11-.21.19-.29.08-.08.17-.15.28-.19.1-.05.22-.07.34-.07s.24.02.34.07c.11.05.2.11.28.19.08.08.15.18.2.29.05.11.07.23.07.35Z"/><path class="cls-8" d="m108.02,311.63v-7.09h.75c.18,0,.29.09.33.26l.09.73c.26-.32.56-.59.88-.79.33-.21.7-.31,1.13-.31.48,0,.86.13,1.16.4.3.27.51.62.64,1.08.1-.26.23-.48.4-.67.16-.19.34-.34.54-.46.2-.12.41-.21.64-.27.23-.06.46-.08.69-.08.37,0,.71.06,1,.18.29.12.54.29.74.52s.36.51.47.84c.11.33.16.71.16,1.14v4.51h-1.25v-4.51c0-.56-.12-.98-.36-1.26s-.59-.43-1.05-.43c-.21,0-.4.04-.58.11-.18.07-.35.18-.49.32-.14.14-.25.32-.33.53-.08.21-.12.46-.12.74v4.51h-1.25v-4.51c0-.57-.11-.99-.34-1.27s-.56-.42-1-.42c-.31,0-.59.08-.85.25-.26.17-.5.39-.72.68v5.29h-1.25Z"/><path class="cls-8" d="m119.28,305.54c.39-.38.81-.66,1.27-.85.45-.19.95-.28,1.51-.28.4,0,.75.07,1.06.2.31.13.57.31.78.55s.37.52.48.85c.11.33.16.7.16,1.09v4.54h-.55c-.12,0-.21-.02-.28-.06-.07-.04-.12-.12-.15-.23l-.14-.67c-.19.17-.37.33-.55.46-.18.13-.36.25-.56.34-.2.09-.4.16-.63.21-.22.05-.47.07-.74.07s-.53-.04-.78-.12c-.24-.08-.45-.19-.63-.35-.18-.15-.32-.35-.43-.58s-.16-.51-.16-.84c0-.28.08-.55.23-.81.15-.26.4-.49.75-.69.35-.2.8-.37,1.35-.49.56-.13,1.24-.2,2.04-.22v-.55c0-.55-.12-.97-.36-1.25-.24-.28-.59-.42-1.04-.42-.31,0-.57.04-.77.12-.21.08-.39.16-.54.26-.15.1-.28.18-.39.26-.11.08-.22.12-.33.12-.08,0-.16-.02-.22-.07-.06-.04-.11-.1-.15-.17l-.22-.4Zm4.02,2.9c-.57.02-1.06.06-1.47.14-.4.07-.73.17-.99.28-.25.12-.44.25-.55.41-.11.16-.17.34-.17.53s.03.35.09.48c.06.13.14.25.25.33.1.09.23.15.37.19.14.04.3.06.46.06.22,0,.42-.02.6-.07.18-.04.35-.11.51-.19s.31-.18.46-.3c.15-.12.29-.25.43-.4v-1.47Z"/><path class="cls-8" d="m128.42,311.74c-.56,0-.99-.16-1.29-.47-.3-.31-.45-.76-.45-1.35v-4.34h-.85c-.07,0-.14-.02-.19-.07-.05-.04-.08-.11-.08-.21v-.5l1.16-.15.29-2.19c.01-.07.05-.13.09-.17.05-.04.11-.07.19-.07h.63v2.44h2.05v.9h-2.05v4.26c0,.3.07.52.22.67.15.14.33.22.56.22.13,0,.24-.02.34-.05.1-.03.18-.07.25-.12.07-.04.13-.08.18-.12s.09-.05.13-.05c.07,0,.12.04.18.12l.36.59c-.21.2-.47.36-.78.47s-.62.17-.94.17Z"/><path class="cls-8" d="m136.84,310.64c-.15.19-.34.35-.55.49s-.44.25-.69.34-.5.16-.76.2c-.26.04-.52.07-.78.07-.49,0-.94-.08-1.35-.25-.41-.17-.77-.41-1.07-.73-.3-.32-.54-.71-.7-1.19-.17-.47-.25-1.01-.25-1.62,0-.49.08-.96.23-1.39.15-.43.37-.8.65-1.12.28-.32.63-.56,1.04-.74s.87-.27,1.39-.27c.42,0,.82.07,1.18.21.36.14.67.35.94.62.26.27.47.6.62.99.15.39.22.84.22,1.35,0,.2-.02.33-.06.39s-.12.1-.24.1h-4.74c.01.45.08.84.19,1.17.11.33.26.61.46.83.2.22.43.39.7.5.27.11.57.17.91.17.31,0,.58-.04.81-.11.23-.07.42-.15.58-.23s.3-.16.41-.24c.11-.07.2-.11.28-.11.1,0,.18.04.24.12l.35.46Zm-1.01-3.33c0-.29-.04-.55-.12-.79s-.2-.45-.36-.62-.35-.31-.57-.41-.48-.14-.76-.14c-.6,0-1.07.17-1.42.52s-.56.83-.65,1.45h3.88Z"/><path class="cls-8" d="m144.34,301.32v10.31h-.74c-.18,0-.29-.09-.34-.26l-.11-.86c-.3.36-.65.66-1.04.88-.39.22-.84.34-1.34.34-.41,0-.77-.08-1.11-.23-.33-.16-.61-.39-.85-.69-.23-.3-.41-.68-.54-1.13-.13-.45-.19-.97-.19-1.56,0-.52.07-1.01.21-1.46s.34-.84.6-1.17c.26-.33.58-.59.96-.78.38-.19.81-.28,1.28-.28.43,0,.81.07,1.12.22.31.15.59.35.83.61v-3.93h1.25Zm-1.25,4.91c-.23-.31-.49-.53-.76-.65-.27-.12-.57-.19-.91-.19-.66,0-1.16.24-1.52.71-.35.47-.53,1.14-.53,2.02,0,.46.04.86.12,1.19.08.33.2.6.35.81.15.21.34.37.57.47.22.1.48.15.76.15.41,0,.77-.09,1.07-.28.31-.19.59-.45.84-.79v-3.42Z"/><path class="cls-8" d="m155.66,310.64c-.15.19-.34.35-.55.49s-.44.25-.69.34-.5.16-.76.2c-.26.04-.52.07-.78.07-.49,0-.94-.08-1.35-.25-.41-.17-.77-.41-1.07-.73-.3-.32-.54-.71-.7-1.19-.17-.47-.25-1.01-.25-1.62,0-.49.08-.96.23-1.39.15-.43.37-.8.65-1.12.28-.32.63-.56,1.04-.74s.87-.27,1.39-.27c.42,0,.82.07,1.18.21.36.14.67.35.94.62.26.27.47.6.62.99.15.39.22.84.22,1.35,0,.2-.02.33-.06.39s-.12.1-.24.1h-4.74c.01.45.08.84.19,1.17.11.33.26.61.46.83.2.22.43.39.7.5.27.11.57.17.91.17.31,0,.58-.04.81-.11.23-.07.42-.15.58-.23s.3-.16.41-.24c.11-.07.2-.11.28-.11.1,0,.18.04.24.12l.35.46Zm-1.01-3.33c0-.29-.04-.55-.12-.79s-.2-.45-.36-.62-.35-.31-.57-.41-.48-.14-.76-.14c-.6,0-1.07.17-1.42.52s-.56.83-.65,1.45h3.88Z"/><path class="cls-8" d="m157.64,311.63v-6.03l-.78-.09c-.1-.02-.18-.06-.24-.11s-.09-.12-.09-.21v-.51h1.12v-.58c0-.41.06-.77.17-1.08.11-.32.28-.58.49-.8.21-.22.47-.38.77-.49.3-.11.63-.17,1.01-.17.32,0,.61.05.88.14l-.03.63c0,.11-.07.17-.19.18-.11,0-.27.01-.46.01-.21,0-.41.03-.58.08-.17.05-.33.14-.45.27-.13.13-.22.29-.29.5-.07.21-.1.46-.1.77v.54h3.2v-.76c0-.41.06-.77.17-1.08.11-.31.28-.58.49-.8s.47-.38.77-.49c.3-.11.63-.17,1.01-.17.31,0,.6.05.88.14l-.03.62c0,.11-.07.17-.19.18-.11,0-.27.01-.46.01-.21,0-.41.03-.58.08-.18.06-.33.15-.45.27s-.22.29-.29.5c-.07.21-.1.46-.1.76v.73h2.04v.9h-2v6.05h-1.25v-6.05h-3.16v6.05h-1.25Z"/><path class="cls-8" d="m172.15,310.64c-.15.19-.34.35-.55.49s-.44.25-.69.34-.5.16-.76.2c-.26.04-.52.07-.78.07-.49,0-.94-.08-1.35-.25-.41-.17-.77-.41-1.07-.73-.3-.32-.54-.71-.7-1.19-.17-.47-.25-1.01-.25-1.62,0-.49.08-.96.23-1.39.15-.43.37-.8.65-1.12.28-.32.63-.56,1.04-.74s.87-.27,1.39-.27c.42,0,.82.07,1.18.21.36.14.67.35.94.62.26.27.47.6.62.99.15.39.22.84.22,1.35,0,.2-.02.33-.06.39s-.12.1-.24.1h-4.74c.01.45.08.84.19,1.17.11.33.26.61.46.83.2.22.43.39.7.5.27.11.57.17.91.17.31,0,.58-.04.81-.11.23-.07.42-.15.58-.23s.3-.16.41-.24c.11-.07.2-.11.28-.11.1,0,.18.04.24.12l.35.46Zm-1.01-3.33c0-.29-.04-.55-.12-.79s-.2-.45-.36-.62-.35-.31-.57-.41-.48-.14-.76-.14c-.6,0-1.07.17-1.42.52s-.56.83-.65,1.45h3.88Z"/><path class="cls-8" d="m178.74,305.8c-.04.05-.07.09-.11.12-.04.03-.09.04-.15.04-.07,0-.15-.03-.23-.09-.08-.06-.19-.12-.31-.19-.12-.07-.28-.13-.45-.19-.18-.06-.4-.09-.66-.09-.35,0-.66.06-.92.19-.27.12-.49.3-.67.54s-.31.52-.41.85-.14.7-.14,1.11.05.81.15,1.14c.1.33.24.61.42.84s.4.4.65.52c.25.12.54.18.86.18s.55-.04.75-.11c.2-.07.36-.15.49-.24s.24-.17.32-.24c.09-.07.17-.11.26-.11.1,0,.18.04.24.12l.35.46c-.15.19-.33.35-.52.49-.2.14-.41.25-.63.34-.23.09-.46.16-.71.2-.25.04-.5.06-.76.06-.44,0-.85-.08-1.24-.25-.38-.16-.71-.4-.99-.71-.28-.31-.5-.69-.66-1.14-.16-.45-.24-.97-.24-1.55,0-.53.07-1.02.22-1.46.15-.45.36-.83.64-1.16.28-.32.63-.58,1.04-.76.41-.18.89-.27,1.42-.27.5,0,.94.08,1.32.24.38.16.72.39,1.01.68l-.33.45Z"/><path class="cls-8" d="m182.88,311.74c-.56,0-.99-.16-1.29-.47-.3-.31-.45-.76-.45-1.35v-4.34h-.85c-.07,0-.14-.02-.19-.07-.05-.04-.08-.11-.08-.21v-.5l1.16-.15.29-2.19c.01-.07.05-.13.09-.17.05-.04.11-.07.19-.07h.63v2.44h2.05v.9h-2.05v4.26c0,.3.07.52.22.67.15.14.33.22.56.22.13,0,.24-.02.34-.05.1-.03.18-.07.25-.12.07-.04.13-.08.18-.12s.09-.05.13-.05c.07,0,.12.04.18.12l.36.59c-.21.2-.47.36-.78.47s-.62.17-.94.17Z"/><path class="cls-8" d="m190.89,302.31c0,.12-.02.24-.07.34-.05.11-.11.2-.2.28-.08.08-.18.15-.29.19-.11.05-.23.07-.35.07s-.23-.02-.34-.07-.2-.11-.28-.19c-.08-.08-.14-.17-.19-.28-.05-.1-.07-.22-.07-.34s.02-.24.07-.35c.05-.11.11-.21.19-.29.08-.08.17-.15.28-.19.1-.05.22-.07.34-.07s.24.02.35.07c.11.05.21.11.29.19.08.08.15.18.2.29.05.11.07.22.07.35Zm-.27,2.23v7.09h-1.25v-7.09h1.25Z"/><path class="cls-8" d="m193.75,305.57c.15-.17.32-.33.49-.47.17-.14.36-.26.55-.36.19-.1.4-.18.62-.23.22-.05.45-.08.7-.08.39,0,.73.06,1.03.19.3.13.54.31.74.55.2.24.35.52.45.85.1.33.15.7.15,1.1v4.51h-1.25v-4.51c0-.54-.12-.95-.37-1.25-.25-.3-.62-.44-1.12-.44-.37,0-.71.09-1.03.27-.32.18-.61.42-.89.72v5.22h-1.25v-7.09h.75c.18,0,.29.09.33.26l.1.77Z"/><path class="cls-8" d="m205.16,305.64c.3-.37.64-.67,1.04-.89.39-.22.84-.34,1.34-.34.41,0,.78.08,1.11.23.33.16.61.39.85.69s.41.68.54,1.14c.13.45.19.97.19,1.56,0,.52-.07,1.01-.21,1.46-.14.45-.34.84-.61,1.17-.26.33-.59.59-.97.78-.38.19-.81.28-1.28.28-.43,0-.81-.07-1.12-.22-.31-.15-.58-.35-.82-.61v3.14h-1.25v-9.49h.75c.18,0,.29.09.33.26l.11.84Zm.06,4.28c.23.31.48.53.75.65.27.13.57.19.91.19.66,0,1.17-.24,1.53-.71.35-.47.53-1.14.53-2.02,0-.46-.04-.86-.12-1.19-.08-.33-.2-.6-.35-.82-.15-.21-.34-.37-.57-.46-.22-.1-.48-.15-.76-.15-.41,0-.76.09-1.07.28s-.59.45-.84.79v3.43Z"/><path class="cls-8" d="m217.59,310.64c-.15.19-.34.35-.55.49s-.44.25-.69.34-.5.16-.76.2c-.26.04-.52.07-.78.07-.49,0-.94-.08-1.35-.25-.41-.17-.77-.41-1.07-.73-.3-.32-.54-.71-.7-1.19-.17-.47-.25-1.01-.25-1.62,0-.49.08-.96.23-1.39.15-.43.37-.8.65-1.12.29-.32.63-.56,1.04-.74.41-.18.87-.27,1.39-.27.42,0,.82.07,1.18.21.36.14.67.35.94.62.26.27.47.6.62.99.15.39.22.84.22,1.35,0,.2-.02.33-.06.39s-.12.1-.24.1h-4.74c.01.45.08.84.19,1.17.11.33.26.61.46.83.2.22.43.39.7.5.27.11.57.17.91.17.31,0,.58-.04.81-.11.23-.07.42-.15.58-.23.16-.08.3-.16.41-.24.11-.07.2-.11.28-.11.1,0,.18.04.24.12l.35.46Zm-1.01-3.33c0-.29-.04-.55-.12-.79-.08-.24-.2-.45-.36-.62s-.35-.31-.57-.41c-.22-.1-.48-.14-.76-.14-.6,0-1.07.17-1.42.52s-.56.83-.65,1.45h3.88Z"/><path class="cls-8" d="m220.38,305.96c.22-.49.5-.86.83-1.14.33-.27.73-.41,1.2-.41.15,0,.29.02.43.05s.26.08.37.15l-.09.93c-.03.12-.1.17-.21.17-.07,0-.16-.01-.29-.04-.13-.03-.27-.04-.43-.04-.22,0-.42.03-.6.1-.17.07-.33.16-.47.29-.14.13-.26.29-.37.48-.11.19-.21.41-.3.65v4.48h-1.25v-7.09h.71c.13,0,.23.03.28.08.05.05.09.14.11.27l.08,1.08Z"/><path class="cls-8" d="m229.13,305.8c-.04.05-.07.09-.11.12-.04.03-.09.04-.15.04-.07,0-.15-.03-.23-.09-.08-.06-.19-.12-.31-.19-.12-.07-.28-.13-.45-.19-.18-.06-.4-.09-.66-.09-.35,0-.66.06-.92.19-.27.12-.49.3-.67.54s-.31.52-.41.85-.14.7-.14,1.11.05.81.15,1.14c.1.33.24.61.42.84s.4.4.65.52c.25.12.54.18.86.18s.55-.04.75-.11c.2-.07.36-.15.49-.24.13-.09.24-.17.32-.24.09-.07.17-.11.25-.11.1,0,.18.04.24.12l.35.46c-.15.19-.33.35-.52.49-.2.14-.41.25-.63.34-.23.09-.46.16-.71.2-.25.04-.5.06-.76.06-.44,0-.85-.08-1.24-.25-.38-.16-.71-.4-.99-.71s-.5-.69-.66-1.14-.24-.97-.24-1.55c0-.53.07-1.02.22-1.46.15-.45.36-.83.64-1.16.28-.32.63-.58,1.04-.76.41-.18.89-.27,1.42-.27.5,0,.94.08,1.32.24.38.16.72.39,1.01.68l-.33.45Z"/><path class="cls-8" d="m236.42,310.64c-.15.19-.34.35-.55.49s-.44.25-.69.34-.5.16-.76.2c-.26.04-.52.07-.78.07-.49,0-.94-.08-1.35-.25-.41-.17-.77-.41-1.07-.73-.3-.32-.54-.71-.7-1.19-.17-.47-.25-1.01-.25-1.62,0-.49.08-.96.23-1.39.15-.43.37-.8.65-1.12.29-.32.63-.56,1.04-.74.41-.18.87-.27,1.39-.27.42,0,.82.07,1.18.21.36.14.67.35.94.62.26.27.47.6.62.99.15.39.22.84.22,1.35,0,.2-.02.33-.06.39s-.12.1-.24.1h-4.74c.01.45.08.84.19,1.17.11.33.26.61.46.83.2.22.43.39.7.5.27.11.57.17.91.17.31,0,.58-.04.81-.11.23-.07.42-.15.58-.23.16-.08.3-.16.41-.24.11-.07.2-.11.28-.11.1,0,.18.04.24.12l.35.46Zm-1.01-3.33c0-.29-.04-.55-.12-.79-.08-.24-.2-.45-.36-.62s-.35-.31-.57-.41c-.22-.1-.48-.14-.76-.14-.6,0-1.07.17-1.42.52s-.56.83-.65,1.45h3.88Z"/><path class="cls-8" d="m239.21,305.57c.15-.17.32-.33.49-.47.17-.14.36-.26.55-.36.19-.1.4-.18.62-.23.22-.05.45-.08.7-.08.39,0,.73.06,1.03.19.3.13.54.31.74.55.2.24.35.52.45.85.1.33.15.7.15,1.1v4.51h-1.25v-4.51c0-.54-.12-.95-.37-1.25-.25-.3-.62-.44-1.12-.44-.37,0-.71.09-1.03.27-.32.18-.62.42-.89.72v5.22h-1.25v-7.09h.75c.18,0,.29.09.33.26l.1.77Z"/><path class="cls-8" d="m247.84,311.74c-.56,0-.99-.16-1.29-.47-.3-.31-.45-.76-.45-1.35v-4.34h-.85c-.07,0-.14-.02-.19-.07-.05-.04-.08-.11-.08-.21v-.5l1.16-.15.29-2.19c.01-.07.04-.13.09-.17.05-.04.11-.07.19-.07h.63v2.44h2.05v.9h-2.05v4.26c0,.3.07.52.22.67s.33.22.56.22c.13,0,.24-.02.34-.05.1-.03.18-.07.25-.12.07-.04.13-.08.18-.12s.09-.05.13-.05c.07,0,.12.04.17.12l.36.59c-.21.2-.47.36-.78.47-.3.11-.62.17-.94.17Z"/><path class="cls-8" d="m250.68,305.54c.39-.38.81-.66,1.27-.85.45-.19.96-.28,1.51-.28.4,0,.75.07,1.06.2.31.13.57.31.78.55s.37.52.48.85.16.7.16,1.09v4.54h-.55c-.12,0-.21-.02-.28-.06-.07-.04-.12-.12-.15-.23l-.14-.67c-.19.17-.37.33-.55.46-.18.13-.36.25-.56.34-.2.09-.4.16-.63.21-.22.05-.47.07-.74.07s-.54-.04-.78-.12c-.24-.08-.45-.19-.63-.35-.18-.15-.32-.35-.43-.58-.11-.24-.16-.51-.16-.84,0-.28.08-.55.23-.81.15-.26.4-.49.75-.69.35-.2.8-.37,1.35-.49.55-.13,1.24-.2,2.04-.22v-.55c0-.55-.12-.97-.36-1.25s-.59-.42-1.04-.42c-.31,0-.57.04-.77.12s-.39.16-.54.26c-.15.1-.28.18-.39.26-.11.08-.22.12-.33.12-.08,0-.16-.02-.22-.07s-.11-.1-.15-.17l-.22-.4Zm4.03,2.9c-.57.02-1.06.06-1.47.14s-.73.17-.99.28c-.25.12-.44.25-.55.41-.11.16-.17.34-.17.53s.03.35.09.48c.06.13.14.25.25.33.11.09.23.15.37.19.14.04.29.06.46.06.22,0,.42-.02.6-.07.18-.04.35-.11.51-.19s.31-.18.46-.3c.15-.12.29-.25.43-.4v-1.47Z"/><path class="cls-8" d="m263.7,304.82v.46c0,.15-.1.25-.29.29l-.81.1c.16.31.24.65.24,1.02,0,.34-.07.66-.2.94-.13.28-.32.52-.55.72-.23.2-.51.35-.84.46-.33.11-.68.16-1.06.16-.33,0-.64-.04-.94-.12-.15.09-.26.19-.34.3-.08.11-.12.21-.12.32,0,.17.07.29.21.38.14.09.32.15.54.19.22.04.48.06.77.07.29,0,.58.02.88.04.3.02.59.06.88.11.29.05.54.13.77.25.22.12.4.28.54.48.14.21.21.47.21.8,0,.3-.08.6-.23.88-.15.28-.37.54-.65.76-.29.22-.63.4-1.05.53s-.88.2-1.4.2-.97-.05-1.36-.15c-.39-.1-.71-.24-.97-.41-.26-.17-.45-.37-.58-.6-.13-.23-.19-.46-.19-.71,0-.35.11-.65.33-.89.22-.24.52-.44.9-.58-.21-.09-.38-.22-.5-.37-.12-.16-.19-.37-.19-.63,0-.1.02-.21.06-.32.04-.11.09-.22.17-.33s.17-.21.28-.31c.11-.1.24-.18.39-.26-.35-.2-.62-.46-.82-.78-.2-.32-.29-.7-.29-1.13,0-.35.07-.66.2-.94s.32-.52.56-.72.52-.35.85-.46.69-.16,1.08-.16c.31,0,.6.03.86.1s.51.17.73.3h1.93Zm-1.27,7.2c0-.17-.05-.31-.15-.42-.1-.11-.23-.19-.4-.25-.17-.06-.36-.1-.58-.13-.22-.03-.45-.05-.7-.06-.25-.01-.49-.03-.75-.04-.25-.01-.5-.04-.73-.07-.26.12-.47.27-.64.46-.17.18-.25.4-.25.65,0,.16.04.31.12.45.08.14.21.26.38.36s.38.18.63.24c.25.06.55.09.9.09s.64-.03.9-.09c.27-.06.49-.15.68-.26s.33-.25.42-.4c.1-.15.15-.33.15-.51Zm-2.25-3.85c.25,0,.47-.04.67-.11.19-.07.35-.17.48-.29s.23-.28.29-.45.1-.37.1-.58c0-.43-.13-.78-.4-1.04s-.64-.39-1.14-.39-.89.13-1.15.39-.4.6-.4,1.04c0,.21.03.4.1.58s.17.33.3.45c.13.13.29.22.48.29.19.07.41.11.67.11Z"/><path class="cls-8" d="m270.53,310.64c-.15.19-.34.35-.55.49s-.44.25-.69.34-.5.16-.76.2c-.26.04-.52.07-.78.07-.49,0-.94-.08-1.35-.25-.41-.17-.77-.41-1.07-.73-.3-.32-.54-.71-.7-1.19-.17-.47-.25-1.01-.25-1.62,0-.49.08-.96.23-1.39.15-.43.37-.8.65-1.12.29-.32.63-.56,1.04-.74.41-.18.87-.27,1.39-.27.42,0,.82.07,1.18.21.36.14.67.35.94.62.26.27.47.6.62.99.15.39.22.84.22,1.35,0,.2-.02.33-.06.39s-.12.1-.24.1h-4.74c.01.45.08.84.19,1.17.11.33.26.61.46.83.2.22.43.39.7.5.27.11.57.17.91.17.31,0,.58-.04.81-.11.23-.07.42-.15.58-.23.16-.08.3-.16.41-.24.11-.07.2-.11.28-.11.1,0,.18.04.24.12l.35.46Zm-1.01-3.33c0-.29-.04-.55-.12-.79-.08-.24-.2-.45-.36-.62s-.35-.31-.57-.41c-.22-.1-.48-.14-.76-.14-.6,0-1.07.17-1.42.52s-.56.83-.65,1.45h3.88Z"/><path class="cls-8" d="m276.94,305.64c.3-.37.64-.67,1.04-.89.39-.22.84-.34,1.34-.34.41,0,.78.08,1.11.23.33.16.61.39.85.69s.41.68.54,1.14c.13.45.19.97.19,1.56,0,.52-.07,1.01-.21,1.46-.14.45-.34.84-.61,1.17-.26.33-.59.59-.97.78-.38.19-.81.28-1.28.28-.43,0-.81-.07-1.12-.22-.31-.15-.58-.35-.82-.61v3.14h-1.25v-9.49h.75c.18,0,.29.09.33.26l.11.84Zm.06,4.28c.23.31.48.53.75.65.27.13.57.19.91.19.66,0,1.17-.24,1.53-.71.35-.47.53-1.14.53-2.02,0-.46-.04-.86-.12-1.19-.08-.33-.2-.6-.35-.82-.15-.21-.34-.37-.57-.46-.22-.1-.48-.15-.76-.15-.41,0-.76.09-1.07.28s-.59.45-.84.79v3.43Z"/><path class="cls-8" d="m286.6,304.43c.52,0,.98.09,1.4.26.42.17.77.42,1.06.74s.52.7.68,1.15c.16.45.23.95.23,1.51s-.08,1.06-.23,1.51c-.16.45-.38.83-.68,1.15s-.65.56-1.06.73c-.42.17-.88.25-1.4.25s-.99-.08-1.41-.25c-.42-.17-.77-.41-1.07-.73s-.52-.7-.68-1.15c-.16-.45-.23-.95-.23-1.51s.08-1.06.23-1.51c.16-.45.38-.83.68-1.15s.65-.56,1.07-.74c.42-.17.89-.26,1.41-.26Zm0,6.33c.7,0,1.22-.23,1.57-.7.35-.47.52-1.12.52-1.96s-.17-1.5-.52-1.97c-.34-.47-.87-.71-1.57-.71-.36,0-.66.06-.93.18s-.48.3-.66.53-.31.51-.39.84c-.09.33-.13.71-.13,1.13,0,.84.17,1.49.52,1.96.35.47.88.7,1.59.7Z"/><path class="cls-8" d="m293.02,302.31c0,.12-.02.24-.07.34-.05.11-.11.2-.2.28s-.18.15-.29.19c-.11.05-.23.07-.35.07s-.23-.02-.34-.07c-.1-.05-.2-.11-.28-.19-.08-.08-.14-.17-.19-.28-.05-.1-.07-.22-.07-.34s.02-.24.07-.35c.05-.11.11-.21.19-.29.08-.08.17-.15.28-.19.11-.05.22-.07.34-.07s.24.02.35.07c.11.05.21.11.29.19.08.08.15.18.2.29.05.11.07.22.07.35Zm-.27,2.23v7.09h-1.25v-7.09h1.25Z"/><path class="cls-8" d="m295.89,305.57c.15-.17.32-.33.49-.47.17-.14.36-.26.55-.36s.4-.18.62-.23.45-.08.7-.08c.39,0,.73.06,1.03.19.3.13.54.31.74.55.2.24.35.52.45.85.1.33.15.7.15,1.1v4.51h-1.25v-4.51c0-.54-.12-.95-.37-1.25-.25-.3-.62-.44-1.12-.44-.37,0-.71.09-1.03.27-.32.18-.61.42-.88.72v5.22h-1.25v-7.09h.75c.18,0,.29.09.33.26l.1.77Z"/><path class="cls-8" d="m304.52,311.74c-.56,0-.99-.16-1.29-.47-.3-.31-.45-.76-.45-1.35v-4.34h-.85c-.08,0-.14-.02-.19-.07-.05-.04-.08-.11-.08-.21v-.5l1.16-.15.29-2.19c.01-.07.05-.13.09-.17.05-.04.11-.07.19-.07h.63v2.44h2.05v.9h-2.05v4.26c0,.3.07.52.22.67.15.14.33.22.56.22.13,0,.24-.02.34-.05.09-.03.18-.07.25-.12s.13-.08.18-.12.09-.05.13-.05c.07,0,.12.04.18.12l.36.59c-.21.2-.47.36-.78.47-.3.11-.62.17-.94.17Z"/><path class="cls-8" d="m311.76,305.71c-.06.1-.14.15-.26.15-.07,0-.15-.03-.24-.08-.09-.05-.2-.11-.33-.17-.13-.06-.28-.12-.46-.17-.18-.05-.39-.08-.63-.08-.21,0-.4.03-.57.08s-.31.13-.43.22c-.12.09-.21.2-.27.33-.06.12-.09.26-.09.4,0,.18.05.33.16.46.11.12.24.23.42.32.17.09.37.17.59.23.22.07.44.14.68.22.23.08.46.16.67.26.22.09.42.21.59.35.17.14.31.31.42.51.1.2.16.45.16.73,0,.33-.06.63-.17.91-.12.28-.29.52-.52.72-.23.2-.51.36-.84.48-.33.12-.71.18-1.15.18-.5,0-.94-.08-1.34-.24-.4-.16-.74-.37-1.02-.62l.29-.48c.04-.06.08-.11.13-.14.05-.03.12-.05.2-.05.08,0,.17.03.27.1.09.07.21.14.34.22.13.08.29.15.49.22s.43.1.71.1c.24,0,.46-.03.64-.09.18-.06.33-.15.46-.25.12-.11.21-.23.27-.37.06-.14.09-.29.09-.45,0-.2-.05-.36-.16-.49-.11-.13-.24-.24-.42-.33s-.37-.17-.59-.24c-.22-.07-.45-.14-.68-.21-.23-.08-.46-.16-.68-.26s-.42-.22-.59-.36-.31-.32-.42-.54c-.11-.21-.16-.47-.16-.77,0-.27.06-.53.17-.78.11-.25.27-.47.49-.66.21-.19.48-.34.79-.45s.67-.17,1.07-.17c.47,0,.89.07,1.26.22.37.15.69.35.96.61l-.28.46Z"/><path class="cls-8" d="m318,307.23c0,1,.13,1.97.38,2.91.25.94.63,1.84,1.12,2.69.08.14.09.25.06.33-.04.08-.09.14-.16.19l-.55.34c-.35-.54-.65-1.07-.89-1.6s-.44-1.06-.6-1.59c-.15-.53-.26-1.07-.33-1.61s-.11-1.09-.11-1.66.04-1.12.11-1.66c.07-.54.18-1.08.33-1.61.15-.53.35-1.06.6-1.58s.54-1.06.89-1.6l.55.34c.07.05.12.11.16.19.04.08.02.19-.06.33-.49.85-.86,1.75-1.12,2.69-.25.94-.38,1.91-.38,2.91Z"/><path class="cls-8" d="m324.47,307.63c.1-.13.2-.26.29-.38s.17-.24.25-.36c-.26.21-.55.36-.87.47-.32.11-.66.16-1.02.16-.38,0-.74-.06-1.08-.19-.34-.13-.64-.31-.89-.56-.26-.25-.46-.55-.61-.9-.15-.36-.23-.77-.23-1.23s.08-.85.25-1.23c.16-.38.39-.72.69-1,.29-.29.64-.51,1.05-.67.41-.16.85-.24,1.34-.24s.92.08,1.31.24c.39.16.73.38,1.01.67.28.29.5.63.65,1.02.15.4.23.83.23,1.32,0,.29-.03.56-.08.82-.05.26-.13.51-.23.76-.1.25-.22.5-.37.74s-.31.5-.49.75l-2.44,3.53c-.06.09-.15.16-.26.21-.11.05-.24.08-.39.08h-1.15l3.05-4Zm-2.91-3.09c0,.32.05.6.14.85s.22.46.39.63c.17.17.38.3.62.39.25.09.52.13.82.13.34,0,.63-.05.89-.16.26-.11.48-.26.65-.44.18-.18.31-.39.41-.63.09-.24.14-.49.14-.74,0-.31-.05-.6-.15-.85-.1-.25-.24-.47-.42-.65-.18-.18-.39-.31-.63-.41-.25-.1-.51-.14-.81-.14-.31,0-.59.05-.84.15-.25.1-.47.24-.65.42-.18.18-.32.39-.42.64-.1.25-.15.52-.15.81Z"/><path class="cls-8" d="m329.71,305.39c.52-.11,1-.17,1.44-.17.52,0,.98.08,1.39.23.4.15.74.37,1,.64.27.27.47.59.61.96.14.37.21.77.21,1.2,0,.53-.09,1.01-.28,1.44-.18.43-.44.8-.76,1.1s-.71.54-1.14.7-.91.25-1.42.25c-.29,0-.58-.03-.85-.09s-.52-.14-.76-.23-.45-.21-.65-.34c-.2-.13-.38-.26-.53-.4l.38-.53c.08-.12.19-.18.33-.18.09,0,.2.04.32.11.12.07.26.15.43.24.17.09.37.17.59.24.23.07.5.11.81.11.35,0,.67-.06.94-.17.28-.11.52-.27.72-.48.2-.21.35-.46.46-.75.11-.29.16-.61.16-.97,0-.31-.05-.59-.14-.85s-.23-.47-.41-.64c-.18-.18-.41-.31-.69-.41-.28-.1-.6-.15-.97-.15-.25,0-.51.02-.79.06-.27.04-.55.11-.84.2l-.78-.23.8-4.69h4.75v.55c0,.18-.05.32-.16.44-.11.12-.3.17-.56.17h-3.15l-.46,2.63Z"/><path class="cls-8" d="m339.9,304.02c0,.39-.06.74-.18,1.05-.12.31-.28.57-.49.78-.2.21-.44.37-.71.49-.27.11-.55.17-.85.17-.31,0-.6-.06-.88-.17-.27-.11-.51-.27-.7-.49s-.35-.47-.46-.78c-.11-.31-.17-.66-.17-1.05s.06-.76.17-1.07c.11-.31.27-.58.46-.79s.43-.38.7-.49c.27-.11.56-.17.88-.17s.61.06.88.17.51.28.71.49c.2.21.36.48.47.79s.17.67.17,1.07Zm3.55-2.21c.05-.06.1-.1.17-.15.06-.04.15-.06.25-.06h.9l-7.34,9.83c-.04.06-.1.11-.16.15-.07.04-.14.06-.24.06h-.92l7.33-9.82Zm-4.51,2.21c0-.31-.03-.57-.1-.78-.07-.21-.16-.39-.27-.53-.12-.14-.25-.24-.4-.3-.15-.06-.32-.09-.49-.09s-.33.03-.48.09-.28.16-.39.3c-.11.14-.2.31-.27.53-.07.21-.1.48-.1.78s.03.56.1.77c.07.21.15.39.27.52.11.13.24.23.39.29s.31.09.48.09.34-.03.49-.09c.15-.06.29-.15.4-.29.11-.13.2-.31.27-.52.06-.21.1-.47.1-.77Zm6.52,5.24c0,.39-.06.74-.18,1.05-.12.31-.28.57-.49.78-.2.21-.44.37-.71.49-.27.11-.55.17-.85.17-.32,0-.61-.06-.88-.17s-.5-.27-.7-.49c-.2-.21-.35-.47-.46-.78-.11-.31-.17-.66-.17-1.05s.06-.76.17-1.07c.11-.32.27-.58.46-.79.2-.21.43-.38.7-.49.27-.11.56-.17.88-.17s.61.06.88.17c.27.11.51.28.71.49.2.21.36.48.47.79.11.31.17.67.17,1.07Zm-.97,0c0-.31-.03-.57-.1-.79s-.16-.39-.27-.53c-.11-.14-.25-.23-.4-.29-.15-.06-.32-.09-.49-.09s-.33.03-.49.09c-.15.06-.28.16-.4.29-.11.13-.2.31-.26.53-.06.22-.09.48-.09.79s.03.56.09.77c.06.21.15.38.26.51.11.13.24.23.4.29.15.06.31.09.49.09s.34-.03.49-.09c.15-.06.29-.15.4-.29.11-.13.2-.3.27-.51s.1-.47.1-.77Z"/><path class="cls-8" d="m355.57,305.8c-.04.05-.07.09-.11.12-.04.03-.09.04-.15.04-.07,0-.15-.03-.23-.09-.08-.06-.19-.12-.31-.19-.12-.07-.28-.13-.45-.19-.18-.06-.4-.09-.66-.09-.35,0-.66.06-.92.19-.27.12-.49.3-.67.54s-.31.52-.41.85-.14.7-.14,1.11.05.81.15,1.14c.1.33.24.61.42.84s.4.4.65.52c.25.12.54.18.86.18s.55-.04.75-.11c.2-.07.36-.15.49-.24.13-.09.24-.17.32-.24.09-.07.17-.11.25-.11.1,0,.18.04.24.12l.35.46c-.15.19-.33.35-.52.49-.2.14-.41.25-.63.34-.23.09-.46.16-.71.2-.25.04-.5.06-.76.06-.44,0-.85-.08-1.24-.25-.38-.16-.71-.4-.99-.71s-.5-.69-.66-1.14-.24-.97-.24-1.55c0-.53.07-1.02.22-1.46.15-.45.36-.83.64-1.16.28-.32.63-.58,1.04-.76.41-.18.89-.27,1.42-.27.5,0,.94.08,1.32.24.38.16.72.39,1.01.68l-.33.45Z"/><path class="cls-8" d="m360.11,304.43c.52,0,.98.09,1.4.26.42.17.77.42,1.06.74s.52.7.68,1.15.23.95.23,1.51-.08,1.06-.23,1.51-.38.83-.68,1.15-.65.56-1.06.73c-.42.17-.88.25-1.4.25s-.99-.08-1.41-.25c-.42-.17-.77-.41-1.07-.73s-.52-.7-.68-1.15-.23-.95-.23-1.51.08-1.06.23-1.51.38-.83.68-1.15.65-.56,1.07-.74c.42-.17.89-.26,1.41-.26Zm0,6.33c.7,0,1.22-.23,1.57-.7.34-.47.52-1.12.52-1.96s-.17-1.5-.52-1.97c-.35-.47-.87-.71-1.57-.71-.35,0-.66.06-.93.18s-.48.3-.66.53c-.18.23-.31.51-.39.84-.09.33-.13.71-.13,1.13,0,.84.17,1.49.52,1.96.35.47.88.7,1.58.7Z"/><path class="cls-8" d="m366.18,305.57c.15-.17.32-.33.49-.47.17-.14.36-.26.55-.36s.4-.18.62-.23.45-.08.7-.08c.39,0,.73.06,1.03.19.3.13.54.31.74.55.2.24.35.52.45.85.1.33.15.7.15,1.1v4.51h-1.25v-4.51c0-.54-.12-.95-.37-1.25-.25-.3-.62-.44-1.12-.44-.37,0-.71.09-1.03.27-.32.18-.61.42-.88.72v5.22h-1.25v-7.09h.75c.18,0,.29.09.33.26l.1.77Z"/><path class="cls-8" d="m373.15,311.63v-6.03l-.78-.09c-.1-.02-.18-.06-.25-.11s-.09-.12-.09-.21v-.51h1.12v-.39c0-.43.07-.83.2-1.19.13-.36.34-.67.61-.93.27-.26.61-.46,1.01-.61s.87-.22,1.4-.22c.18,0,.36.01.55.04s.35.06.48.1l-.05.65s-.02.08-.05.1-.07.03-.12.04c-.05,0-.12,0-.19,0-.08,0-.17,0-.26,0-.83,0-1.43.17-1.81.51-.37.34-.56.86-.56,1.55v.36h4.28v6.95h-1.25v-6.05h-3v6.05h-1.25Z"/><path class="cls-8" d="m386.53,301.32v10.31h-.74c-.18,0-.29-.09-.34-.26l-.11-.86c-.3.36-.65.66-1.04.88-.39.22-.84.34-1.34.34-.41,0-.78-.08-1.11-.23s-.61-.39-.85-.69c-.23-.3-.41-.68-.54-1.13-.13-.45-.19-.97-.19-1.56,0-.52.07-1.01.21-1.46.14-.45.34-.84.6-1.17.26-.33.58-.59.96-.78.38-.19.81-.28,1.29-.28.43,0,.81.07,1.12.22.31.15.59.35.83.61v-3.93h1.25Zm-1.25,4.91c-.23-.31-.49-.53-.76-.65-.27-.12-.57-.19-.91-.19-.66,0-1.16.24-1.52.71-.35.47-.53,1.14-.53,2.02,0,.46.04.86.12,1.19.08.33.2.6.35.81.15.21.34.37.57.47.22.1.48.15.76.15.41,0,.77-.09,1.08-.28.31-.19.59-.45.84-.79v-3.42Z"/><path class="cls-8" d="m394.24,310.64c-.15.19-.34.35-.55.49s-.44.25-.69.34-.5.16-.76.2c-.26.04-.52.07-.78.07-.49,0-.94-.08-1.35-.25-.41-.17-.77-.41-1.07-.73-.3-.32-.54-.71-.7-1.19-.17-.47-.25-1.01-.25-1.62,0-.49.08-.96.23-1.39.15-.43.37-.8.65-1.12.29-.32.63-.56,1.04-.74.41-.18.87-.27,1.39-.27.42,0,.82.07,1.18.21.36.14.67.35.94.62.26.27.47.6.62.99.15.39.22.84.22,1.35,0,.2-.02.33-.06.39s-.12.1-.24.1h-4.74c.01.45.08.84.19,1.17.11.33.26.61.46.83.2.22.43.39.7.5.27.11.57.17.91.17.31,0,.58-.04.81-.11.23-.07.42-.15.58-.23.16-.08.3-.16.41-.24.11-.07.2-.11.28-.11.1,0,.18.04.24.12l.35.46Zm-1.01-3.33c0-.29-.04-.55-.12-.79-.08-.24-.2-.45-.36-.62s-.35-.31-.57-.41c-.22-.1-.48-.14-.76-.14-.6,0-1.07.17-1.42.52s-.56.83-.65,1.45h3.88Z"/><path class="cls-8" d="m397.03,305.57c.15-.17.32-.33.49-.47.17-.14.36-.26.55-.36.19-.1.4-.18.62-.23.22-.05.45-.08.7-.08.39,0,.73.06,1.03.19.3.13.54.31.74.55.2.24.35.52.45.85.1.33.15.7.15,1.1v4.51h-1.25v-4.51c0-.54-.12-.95-.37-1.25-.25-.3-.62-.44-1.12-.44-.37,0-.71.09-1.03.27-.32.18-.62.42-.89.72v5.22h-1.25v-7.09h.75c.18,0,.29.09.33.26l.1.77Z"/><path class="cls-8" d="m408.58,305.8c-.04.05-.07.09-.11.12-.04.03-.09.04-.15.04-.07,0-.15-.03-.23-.09-.08-.06-.19-.12-.31-.19-.12-.07-.28-.13-.45-.19-.18-.06-.4-.09-.66-.09-.35,0-.66.06-.92.19-.27.12-.49.3-.67.54s-.31.52-.41.85-.14.7-.14,1.11.05.81.15,1.14c.1.33.24.61.42.84s.4.4.65.52c.25.12.54.18.86.18s.55-.04.75-.11c.2-.07.36-.15.49-.24.13-.09.24-.17.32-.24.09-.07.17-.11.25-.11.1,0,.18.04.24.12l.35.46c-.15.19-.33.35-.52.49-.2.14-.41.25-.63.34-.23.09-.46.16-.71.2-.25.04-.5.06-.76.06-.44,0-.85-.08-1.24-.25-.38-.16-.71-.4-.99-.71s-.5-.69-.66-1.14-.24-.97-.24-1.55c0-.53.07-1.02.22-1.46.15-.45.36-.83.64-1.16.28-.32.63-.58,1.04-.76.41-.18.89-.27,1.42-.27.5,0,.94.08,1.32.24.38.16.72.39,1.01.68l-.33.45Z"/><path class="cls-8" d="m415.87,310.64c-.15.19-.34.35-.55.49s-.44.25-.69.34-.5.16-.76.2c-.26.04-.52.07-.78.07-.49,0-.94-.08-1.35-.25-.41-.17-.77-.41-1.07-.73-.3-.32-.54-.71-.7-1.19-.17-.47-.25-1.01-.25-1.62,0-.49.08-.96.23-1.39.15-.43.37-.8.65-1.12.29-.32.63-.56,1.04-.74.41-.18.87-.27,1.39-.27.42,0,.82.07,1.18.21.36.14.67.35.94.62.26.27.47.6.62.99.15.39.22.84.22,1.35,0,.2-.02.33-.06.39s-.12.1-.24.1h-4.74c.01.45.08.84.19,1.17.11.33.26.61.46.83.2.22.43.39.7.5.27.11.57.17.91.17.31,0,.58-.04.81-.11.23-.07.42-.15.58-.23.16-.08.3-.16.41-.24.11-.07.2-.11.28-.11.1,0,.18.04.24.12l.35.46Zm-1.01-3.33c0-.29-.04-.55-.12-.79-.08-.24-.2-.45-.36-.62s-.35-.31-.57-.41c-.22-.1-.48-.14-.76-.14-.6,0-1.07.17-1.42.52s-.56.83-.65,1.45h3.88Z"/><path class="cls-8" d="m422.67,302.31c0,.12-.02.24-.07.34-.05.11-.11.2-.2.28s-.18.15-.29.19c-.11.05-.23.07-.35.07s-.23-.02-.34-.07c-.1-.05-.2-.11-.28-.19-.08-.08-.14-.17-.19-.28-.05-.1-.07-.22-.07-.34s.02-.24.07-.35c.05-.11.11-.21.19-.29.08-.08.17-.15.28-.19.11-.05.22-.07.34-.07s.24.02.35.07c.11.05.21.11.29.19.08.08.15.18.2.29.05.11.07.22.07.35Zm-.27,2.23v7.09h-1.25v-7.09h1.25Z"/><path class="cls-8" d="m425.53,305.57c.15-.17.32-.33.49-.47.17-.14.36-.26.55-.36.19-.1.4-.18.62-.23.22-.05.45-.08.7-.08.39,0,.73.06,1.03.19.3.13.54.31.74.55.2.24.35.52.45.85.1.33.15.7.15,1.1v4.51h-1.25v-4.51c0-.54-.12-.95-.37-1.25-.25-.3-.62-.44-1.12-.44-.37,0-.71.09-1.03.27-.32.18-.62.42-.89.72v5.22h-1.25v-7.09h.75c.18,0,.29.09.33.26l.1.77Z"/><path class="cls-8" d="m434.17,311.74c-.56,0-.99-.16-1.29-.47-.3-.31-.45-.76-.45-1.35v-4.34h-.85c-.07,0-.14-.02-.19-.07-.05-.04-.08-.11-.08-.21v-.5l1.16-.15.29-2.19c.01-.07.04-.13.09-.17.05-.04.11-.07.19-.07h.63v2.44h2.05v.9h-2.05v4.26c0,.3.07.52.22.67s.33.22.56.22c.13,0,.24-.02.34-.05.1-.03.18-.07.25-.12.07-.04.13-.08.18-.12s.09-.05.13-.05c.07,0,.12.04.17.12l.36.59c-.21.2-.47.36-.78.47-.3.11-.62.17-.94.17Z"/><path class="cls-8" d="m442.59,310.64c-.15.19-.34.35-.55.49s-.44.25-.69.34-.5.16-.76.2c-.26.04-.52.07-.78.07-.49,0-.94-.08-1.35-.25-.41-.17-.77-.41-1.07-.73-.3-.32-.54-.71-.7-1.19-.17-.47-.25-1.01-.25-1.62,0-.49.08-.96.23-1.39.15-.43.37-.8.65-1.12.29-.32.63-.56,1.04-.74.41-.18.87-.27,1.39-.27.42,0,.82.07,1.18.21.36.14.67.35.94.62.26.27.47.6.62.99.15.39.22.84.22,1.35,0,.2-.02.33-.06.39s-.12.1-.24.1h-4.74c.01.45.08.84.19,1.17.11.33.26.61.46.83.2.22.43.39.7.5.27.11.57.17.91.17.31,0,.58-.04.81-.11.23-.07.42-.15.58-.23.16-.08.3-.16.41-.24.11-.07.2-.11.28-.11.1,0,.18.04.24.12l.35.46Zm-1.01-3.33c0-.29-.04-.55-.12-.79-.08-.24-.2-.45-.36-.62s-.35-.31-.57-.41c-.22-.1-.48-.14-.76-.14-.6,0-1.07.17-1.42.52s-.56.83-.65,1.45h3.88Z"/><path class="cls-8" d="m445.38,305.96c.22-.49.5-.86.83-1.14.33-.27.73-.41,1.2-.41.15,0,.29.02.43.05s.26.08.37.15l-.09.93c-.03.12-.1.17-.21.17-.07,0-.16-.01-.29-.04-.13-.03-.27-.04-.43-.04-.22,0-.42.03-.6.1-.17.07-.33.16-.47.29-.14.13-.26.29-.37.48-.11.19-.21.41-.3.65v4.48h-1.25v-7.09h.71c.13,0,.23.03.28.08.05.05.09.14.11.27l.08,1.08Z"/><path class="cls-8" d="m455.82,304.54l-2.89,7.09h-1.12l-2.89-7.09h1.01c.1,0,.19.03.25.08.07.05.11.11.13.18l1.8,4.56c.06.17.11.34.15.5.04.16.08.33.12.49.04-.16.08-.33.12-.49.04-.16.09-.33.15-.5l1.82-4.56c.03-.07.07-.14.14-.19s.14-.07.23-.07h.97Z"/><path class="cls-8" d="m456.72,305.54c.39-.38.81-.66,1.27-.85.45-.19.95-.28,1.5-.28.4,0,.75.07,1.06.2.31.13.57.31.78.55s.37.52.48.85c.11.33.16.7.16,1.09v4.54h-.55c-.12,0-.21-.02-.28-.06-.07-.04-.12-.12-.15-.23l-.14-.67c-.19.17-.37.33-.55.46-.18.13-.36.25-.56.34-.2.09-.41.16-.63.21-.22.05-.47.07-.74.07s-.53-.04-.78-.12c-.24-.08-.45-.19-.63-.35-.18-.15-.32-.35-.43-.58-.1-.24-.16-.51-.16-.84,0-.28.08-.55.23-.81.15-.26.4-.49.75-.69.34-.2.79-.37,1.35-.49.56-.13,1.24-.2,2.04-.22v-.55c0-.55-.12-.97-.36-1.25-.24-.28-.59-.42-1.04-.42-.31,0-.57.04-.77.12-.21.08-.39.16-.54.26-.15.1-.28.18-.39.26s-.22.12-.33.12c-.08,0-.16-.02-.22-.07-.06-.04-.11-.1-.15-.17l-.22-.4Zm4.02,2.9c-.57.02-1.06.06-1.47.14-.4.07-.73.17-.99.28-.25.12-.44.25-.55.41-.12.16-.17.34-.17.53s.03.35.09.48c.06.13.14.25.25.33.1.09.23.15.37.19.14.04.3.06.46.06.22,0,.42-.02.6-.07.18-.04.35-.11.51-.19s.32-.18.46-.3c.15-.12.29-.25.43-.4v-1.47Z"/><path class="cls-8" d="m465.08,301.32v10.31h-1.25v-10.31h1.25Z"/><path class="cls-8" d="m471.11,305.71c-.06.1-.14.15-.26.15-.07,0-.15-.03-.24-.08-.09-.05-.2-.11-.33-.17-.13-.06-.28-.12-.46-.17-.18-.05-.39-.08-.63-.08-.21,0-.4.03-.57.08s-.31.13-.43.22c-.12.09-.21.2-.27.33-.06.12-.09.26-.09.4,0,.18.05.33.16.46.11.12.24.23.42.32.17.09.37.17.59.23.22.07.44.14.68.22.23.08.46.16.67.26.22.09.42.21.59.35.17.14.31.31.42.51.1.2.16.45.16.73,0,.33-.06.63-.17.91-.12.28-.29.52-.52.72-.23.2-.51.36-.84.48-.33.12-.71.18-1.15.18-.5,0-.94-.08-1.34-.24-.4-.16-.74-.37-1.02-.62l.29-.48c.04-.06.08-.11.13-.14.05-.03.12-.05.2-.05.08,0,.17.03.27.1.09.07.21.14.34.22.13.08.29.15.49.22s.43.1.71.1c.24,0,.46-.03.64-.09.18-.06.33-.15.46-.25.12-.11.21-.23.27-.37.06-.14.09-.29.09-.45,0-.2-.05-.36-.16-.49-.11-.13-.24-.24-.42-.33s-.37-.17-.59-.24c-.22-.07-.45-.14-.68-.21-.23-.08-.46-.16-.68-.26s-.42-.22-.59-.36-.31-.32-.42-.54c-.11-.21-.16-.47-.16-.77,0-.27.06-.53.17-.78.11-.25.27-.47.49-.66.21-.19.48-.34.79-.45s.67-.17,1.07-.17c.47,0,.89.07,1.26.22.37.15.69.35.96.61l-.28.46Z"/><path class="cls-8" d="m473.59,307.23c0-1-.13-1.97-.38-2.91-.25-.94-.63-1.84-1.12-2.69-.04-.07-.06-.13-.07-.19,0-.05,0-.1,0-.14.01-.04.04-.08.07-.11s.06-.06.1-.08l.55-.34c.35.54.65,1.08.89,1.6.24.53.44,1.06.59,1.58.15.53.26,1.07.33,1.61.07.54.11,1.09.11,1.66s-.04,1.12-.11,1.66c-.07.54-.18,1.07-.33,1.61-.15.53-.35,1.06-.59,1.59-.25.53-.54,1.06-.89,1.6l-.55-.34s-.07-.05-.1-.08-.05-.07-.07-.11c-.01-.04-.02-.09,0-.14,0-.06.03-.12.07-.19.49-.85.86-1.75,1.12-2.69.25-.94.38-1.91.38-2.91Z"/><circle class="cls-7" cx="310.37" cy="22.83" r="13.46"/><path class="cls-9" d="m307.21,26.28c.19,0,.33.05.44.16.11.1.16.24.16.42v1.04h-6.94v-.57c0-.12.02-.24.07-.37s.13-.24.23-.35l3.07-3.08c.26-.26.49-.51.69-.75s.37-.47.51-.71c.14-.23.24-.47.31-.71s.11-.49.11-.76c0-.24-.03-.46-.1-.64s-.17-.34-.3-.47c-.13-.13-.28-.22-.46-.28-.18-.06-.38-.09-.61-.09-.21,0-.4.03-.57.09s-.33.14-.47.25c-.13.1-.25.23-.34.37s-.16.29-.21.46c-.08.21-.18.36-.31.43-.13.07-.31.09-.55.05l-.91-.16c.07-.49.21-.91.41-1.28.2-.37.45-.67.75-.92.3-.25.65-.43,1.04-.55.39-.12.81-.19,1.26-.19s.89.07,1.28.21c.39.14.72.33.99.58s.49.56.64.91c.15.35.23.75.23,1.18,0,.37-.05.72-.16,1.04-.11.32-.26.62-.44.91-.18.29-.4.57-.65.84-.25.27-.51.55-.78.83l-2.28,2.33c.22-.07.44-.12.65-.15s.42-.05.62-.05h2.6Z"/><path class="cls-9" d="m309.38,26.94c0-.14.03-.28.08-.41.05-.13.13-.24.22-.34s.21-.17.34-.22c.13-.06.27-.08.42-.08s.29.03.42.08c.13.06.24.13.34.22.1.09.17.21.23.34.06.13.08.27.08.41s-.03.29-.08.42c-.06.13-.13.24-.23.33-.1.09-.21.17-.34.22-.13.05-.27.08-.42.08s-.29-.03-.42-.08-.24-.13-.34-.22c-.09-.09-.17-.2-.22-.33-.05-.13-.08-.27-.08-.42Z"/><path class="cls-9" d="m319.87,22.83c0,.88-.09,1.65-.28,2.3-.19.65-.45,1.19-.78,1.61-.33.42-.73.74-1.18.95-.46.21-.95.31-1.47.31s-1.02-.1-1.47-.31c-.45-.21-.84-.52-1.17-.95-.33-.42-.59-.96-.78-1.61-.19-.65-.28-1.42-.28-2.3s.09-1.65.28-2.3c.19-.65.45-1.18.78-1.61.33-.42.72-.74,1.17-.95.45-.21.94-.31,1.47-.31s1.02.1,1.47.31c.46.21.85.52,1.18.95s.59.96.78,1.61c.19.65.28,1.42.28,2.3Zm-1.79,0c0-.73-.05-1.34-.16-1.82-.11-.48-.25-.86-.43-1.15-.18-.28-.39-.48-.62-.6-.23-.11-.48-.17-.73-.17s-.49.06-.72.17c-.23.12-.44.31-.61.6-.18.29-.32.67-.42,1.15-.1.48-.16,1.09-.16,1.82s.05,1.34.16,1.82c.11.48.25.86.42,1.15.18.28.38.48.61.6.23.11.47.17.72.17s.49-.06.73-.17.44-.31.62-.6c.18-.29.32-.67.43-1.15.11-.48.16-1.09.16-1.82Z"/><circle class="cls-6" cx="109.62" cy="100.71" r="13.46"/><path class="cls-9" d="m107.66,100.71c0,.88-.09,1.65-.28,2.3-.19.65-.45,1.19-.78,1.61-.33.42-.73.74-1.18.95-.46.21-.95.31-1.47.31s-1.02-.1-1.47-.31c-.45-.21-.84-.52-1.17-.95-.33-.42-.59-.96-.78-1.61-.19-.65-.28-1.42-.28-2.3s.09-1.65.28-2.3c.19-.65.45-1.18.78-1.61.33-.42.72-.74,1.17-.95.45-.21.94-.31,1.47-.31s1.02.1,1.47.31c.46.21.85.52,1.18.95s.59.96.78,1.61c.19.65.28,1.42.28,2.3Zm-1.79,0c0-.73-.05-1.34-.16-1.82-.11-.48-.25-.86-.43-1.15-.18-.28-.39-.48-.62-.6-.23-.11-.48-.17-.73-.17s-.49.06-.72.17c-.23.12-.44.31-.61.6-.18.29-.32.67-.42,1.15-.1.48-.16,1.09-.16,1.82s.05,1.34.16,1.82c.11.48.25.86.42,1.15.18.28.38.48.61.6.23.11.47.17.72.17s.49-.06.73-.17.44-.31.62-.6c.18-.29.32-.67.43-1.15.11-.48.16-1.09.16-1.82Z"/><path class="cls-9" d="m108.6,104.82c0-.14.03-.28.08-.41.05-.13.13-.24.22-.34.09-.09.21-.17.34-.22.13-.06.27-.08.42-.08s.29.03.42.08c.13.06.24.13.34.22.1.09.17.21.23.34.06.13.08.27.08.41s-.03.29-.08.42c-.06.13-.13.24-.23.33-.1.09-.21.17-.34.22s-.27.08-.42.08-.29-.03-.42-.08c-.13-.05-.24-.13-.34-.22s-.17-.2-.22-.33c-.05-.13-.08-.27-.08-.42Z"/><path class="cls-9" d="m115,99.32l-.35.43c.2-.1.41-.17.63-.23s.47-.08.73-.08c.38,0,.75.06,1.12.19.36.13.68.32.96.57.28.25.5.57.67.95s.25.82.25,1.32c0,.47-.09.91-.26,1.33s-.42.77-.73,1.08c-.31.31-.69.55-1.13.73-.44.18-.93.27-1.46.27s-1.03-.09-1.46-.26c-.43-.17-.8-.41-1.1-.72-.3-.31-.54-.68-.7-1.12s-.24-.92-.24-1.45c0-.48.1-.96.29-1.47.19-.5.49-1.02.9-1.56l2.42-3.24c.08-.11.21-.21.37-.29s.35-.12.56-.12h1.54l-3,3.67Zm.39,5.15c.28,0,.53-.05.76-.14.23-.09.43-.22.59-.39.17-.17.3-.37.39-.59.09-.23.14-.47.14-.74,0-.29-.04-.55-.13-.78-.09-.23-.21-.43-.38-.59s-.36-.28-.59-.37-.48-.13-.76-.13-.53.05-.75.14c-.22.09-.42.22-.57.39-.16.17-.28.36-.37.59-.09.23-.13.47-.13.73,0,.28.04.54.12.77.08.23.19.43.34.59.15.16.34.29.56.38.22.09.48.14.78.14Z"/><circle class="cls-5" cx="152.09" cy="180.21" r="13.46"/><path class="cls-9" d="m150.5,180.21c0,.88-.09,1.65-.28,2.3-.19.65-.45,1.19-.78,1.61-.33.42-.73.74-1.18.95-.46.21-.95.31-1.47.31s-1.02-.1-1.47-.31c-.45-.21-.84-.52-1.17-.95-.33-.42-.59-.96-.78-1.61-.19-.65-.28-1.42-.28-2.3s.09-1.65.28-2.3c.19-.65.45-1.18.78-1.61s.72-.74,1.17-.95c.45-.21.94-.31,1.47-.31s1.02.1,1.47.31c.46.21.85.52,1.18.95.33.42.59.96.78,1.61.19.65.28,1.42.28,2.3Zm-1.79,0c0-.73-.05-1.34-.16-1.82s-.25-.86-.43-1.15c-.18-.28-.39-.48-.62-.6-.23-.11-.48-.17-.73-.17s-.49.06-.72.17c-.23.12-.44.31-.61.6-.18.29-.32.67-.42,1.15-.11.48-.16,1.09-.16,1.82s.05,1.34.16,1.82c.1.48.25.86.42,1.15.18.28.38.48.61.6.23.11.47.17.72.17s.5-.06.73-.17.44-.31.62-.6c.18-.29.32-.67.43-1.15s.16-1.09.16-1.82Z"/><path class="cls-9" d="m151.44,184.32c0-.14.03-.28.08-.41.05-.13.13-.24.22-.34s.21-.17.34-.22c.13-.06.27-.08.42-.08s.29.03.42.08c.13.06.24.13.34.22.1.09.17.21.23.34.06.13.08.27.08.41s-.03.29-.08.42c-.06.13-.13.24-.23.33-.1.09-.21.17-.34.22-.13.05-.27.08-.42.08s-.29-.03-.42-.08-.24-.13-.34-.22c-.09-.09-.17-.2-.22-.33-.05-.13-.08-.27-.08-.42Z"/><path class="cls-9" d="m158.32,181.34c.08-.1.15-.19.22-.29s.14-.19.2-.28c-.23.15-.49.26-.77.34-.28.08-.57.12-.88.12-.35,0-.69-.06-1.03-.18-.34-.12-.63-.3-.9-.55-.26-.25-.47-.55-.63-.91-.16-.36-.24-.79-.24-1.27,0-.45.08-.88.25-1.27.17-.4.4-.75.71-1.04.3-.3.67-.54,1.09-.71.42-.17.89-.26,1.41-.26s.98.08,1.4.25c.41.16.77.39,1.06.69.29.29.52.65.67,1.06.16.41.23.86.23,1.35,0,.31-.03.61-.08.89s-.13.55-.23.81c-.1.26-.22.51-.36.76-.14.25-.3.49-.47.74l-2.32,3.3c-.08.11-.2.21-.36.28-.16.08-.34.12-.54.12h-1.59l3.14-3.93Zm-2.3-3.16c0,.56.15,1,.44,1.29.29.3.71.45,1.24.45.28,0,.53-.04.75-.13.22-.09.4-.21.55-.36.15-.15.26-.34.34-.55s.12-.44.12-.68c0-.28-.04-.52-.13-.74s-.2-.4-.36-.55c-.15-.15-.34-.26-.55-.34-.21-.08-.44-.12-.7-.12s-.5.04-.71.13-.39.21-.54.36-.26.34-.34.55c-.08.21-.12.44-.12.7Z"/></svg>