<?xml version="1.0" encoding="UTF-8"?><svg id="Layer_2" xmlns="http://www.w3.org/2000/svg" viewBox="0 0 481 227"><defs><style>.cls-1{stroke-dasharray:0 0 6 3;}.cls-1,.cls-2{fill:none;stroke:#000;stroke-miterlimit:10;stroke-width:.5px;}.cls-3{stroke-width:0px;}</style></defs><path class="cls-3" d="M10.17,11.52c.05,0,.1,0,.16.03.05.02.1.05.15.1l.87.92c-.38.5-.86.88-1.43,1.13-.57.25-1.25.38-2.04.38-.72,0-1.36-.12-1.93-.37-.57-.24-1.05-.58-1.45-1.01-.4-.43-.7-.94-.91-1.53-.21-.59-.32-1.23-.32-1.93s.12-1.36.34-1.95c.23-.59.55-1.1.97-1.53s.91-.76,1.5-1c.58-.24,1.22-.36,1.92-.36.36,0,.69.03,1,.09.31.06.61.15.88.26.27.11.52.24.75.4.23.16.43.33.61.51l-.74.99c-.05.06-.1.12-.17.17-.06.05-.16.08-.27.08-.08,0-.15-.02-.22-.05-.07-.03-.14-.08-.22-.13s-.16-.1-.26-.16c-.09-.06-.2-.11-.33-.16s-.28-.09-.45-.13c-.17-.03-.37-.05-.6-.05-.36,0-.7.07-1,.2-.3.13-.56.33-.78.59-.22.26-.39.57-.51.95s-.18.8-.18,1.28.07.92.2,1.29c.13.38.31.69.54.95s.49.45.8.59c.3.13.63.2.98.2.2,0,.38,0,.55-.03.16-.02.32-.05.46-.1.14-.04.28-.11.4-.18s.25-.17.38-.29c.05-.04.11-.08.17-.11.06-.03.12-.04.19-.04Z"/><path class="cls-3" d="M14.07,7.82c.24-.21.51-.38.79-.5s.62-.19,1.02-.19c.37,0,.69.06.98.19.28.13.52.3.72.53s.34.5.44.81c.1.31.15.66.15,1.02v4.28h-2.02v-4.28c0-.33-.08-.59-.23-.77s-.38-.28-.67-.28c-.22,0-.43.05-.62.14-.19.09-.38.22-.56.38v4.81h-2.01V4.24h2.01v3.58Z"/><path class="cls-3" d="M19.31,8.17c.41-.36.86-.63,1.36-.8.5-.18,1.03-.26,1.6-.26.41,0,.77.07,1.1.2.33.13.6.32.83.55.23.24.4.52.52.84.12.33.18.68.18,1.07v4.21h-.92c-.19,0-.33-.03-.43-.08s-.18-.16-.24-.33l-.14-.37c-.17.14-.33.27-.49.38s-.32.2-.48.28-.34.13-.53.17-.4.05-.63.05c-.31,0-.59-.04-.84-.12-.25-.08-.46-.2-.64-.35-.18-.16-.31-.35-.41-.58-.1-.23-.14-.5-.14-.8,0-.24.06-.49.18-.74.12-.25.33-.48.63-.68.3-.21.7-.38,1.21-.52s1.15-.22,1.92-.23v-.29c0-.39-.08-.68-.24-.85-.16-.18-.39-.26-.69-.26-.24,0-.43.03-.58.08-.15.05-.29.11-.41.18-.12.06-.23.12-.35.17-.11.05-.25.08-.4.08-.14,0-.26-.03-.35-.1s-.17-.15-.23-.25l-.36-.63ZM22.94,11.23c-.4.02-.73.05-1,.1-.26.05-.47.12-.62.19s-.26.17-.32.27-.09.21-.09.33c0,.23.06.39.19.48.12.09.31.14.55.14.26,0,.49-.05.68-.14s.39-.24.59-.44v-.94Z"/><path class="cls-3" d="M28.06,7.96c.13-.12.26-.23.4-.34.14-.1.29-.19.45-.26.16-.07.33-.13.51-.17.18-.04.38-.06.6-.06.37,0,.69.06.98.19.28.13.52.3.72.53s.34.5.44.81c.1.31.15.66.15,1.02v4.28h-2.02v-4.28c0-.33-.08-.59-.23-.77s-.38-.28-.67-.28c-.22,0-.43.05-.62.14-.19.09-.38.22-.56.38v4.81h-2.01v-6.74h1.25c.25,0,.42.11.49.34l.12.39Z"/><path class="cls-3" d="M39.67,7.44v.73c0,.11-.03.2-.09.27-.06.06-.17.11-.32.15l-.49.11c.03.1.05.19.06.29.02.1.02.2.02.31,0,.34-.07.64-.21.91s-.33.5-.58.69c-.25.19-.53.33-.87.44s-.69.15-1.07.15c-.1,0-.21,0-.31,0-.1,0-.2-.02-.29-.04-.15.09-.22.19-.22.31s.06.19.18.24c.12.05.28.08.48.1s.43.03.68.04c.25,0,.51.02.78.04.26.02.52.06.78.12.25.06.48.15.68.27s.36.29.48.5c.12.21.18.48.18.8,0,.3-.07.6-.22.89-.15.29-.36.55-.65.77-.29.22-.64.41-1.05.54-.42.14-.89.2-1.43.2s-.99-.05-1.37-.15c-.38-.1-.7-.23-.96-.39-.25-.16-.44-.35-.56-.56-.12-.21-.18-.43-.18-.66,0-.3.09-.55.26-.75.17-.2.42-.36.73-.48-.17-.1-.29-.23-.39-.38-.09-.16-.14-.36-.14-.6,0-.1.02-.21.05-.32.04-.11.09-.22.17-.33.08-.11.17-.21.28-.3.11-.1.25-.18.4-.25-.35-.19-.63-.43-.83-.74s-.31-.66-.31-1.07c0-.34.07-.64.21-.91.14-.27.34-.5.59-.69s.54-.33.88-.44c.34-.1.7-.15,1.1-.15.57,0,1.08.11,1.52.33h2.03ZM37.69,14.22c0-.16-.07-.28-.21-.35-.14-.07-.33-.12-.56-.15-.23-.03-.49-.05-.77-.05-.28,0-.57-.02-.85-.05-.13.09-.23.18-.31.29s-.12.23-.12.36c0,.09.02.18.06.26s.11.14.22.2c.1.06.24.1.42.13.18.03.4.05.67.05.29,0,.53-.02.72-.05.19-.03.33-.08.45-.14.11-.06.19-.13.23-.22.04-.08.06-.18.06-.28ZM36.13,10.25c.33,0,.58-.08.72-.25s.22-.38.22-.65-.08-.49-.22-.64c-.15-.16-.39-.23-.72-.23s-.58.08-.72.23c-.15.16-.22.37-.22.64,0,.13.02.25.06.36.04.11.09.2.17.28s.18.14.3.19c.12.05.26.07.43.07Z"/><path class="cls-3" d="M42.01,10.96c.07.56.24.97.51,1.23s.63.38,1.07.38c.23,0,.44-.03.6-.08.17-.06.32-.12.45-.19.13-.07.25-.13.36-.19.11-.06.23-.08.35-.08.16,0,.28.06.36.18l.58.72c-.21.24-.43.43-.67.58-.24.15-.49.27-.74.35-.25.08-.51.14-.76.18-.25.03-.5.05-.72.05-.47,0-.92-.08-1.33-.23-.41-.15-.78-.38-1.09-.69s-.55-.68-.73-1.13c-.18-.45-.27-.98-.27-1.57,0-.45.08-.88.23-1.28.15-.4.38-.76.66-1.06s.64-.54,1.05-.72c.41-.18.87-.27,1.39-.27.45,0,.85.07,1.22.21.37.14.69.34.96.6.27.26.47.59.62.97.15.38.22.82.22,1.3,0,.15,0,.28-.02.37-.01.1-.04.17-.07.23-.03.06-.08.1-.14.12s-.13.03-.22.03h-3.89ZM44.55,9.79c0-.16-.02-.32-.06-.47s-.11-.29-.2-.41c-.09-.12-.21-.22-.37-.29-.15-.07-.34-.11-.55-.11-.38,0-.68.11-.9.33s-.36.53-.43.95h2.51Z"/><path class="cls-3" d="M52.63,5.39c0,.16-.03.31-.1.45s-.15.26-.27.37c-.11.11-.24.19-.39.25s-.31.09-.48.09-.32-.03-.46-.09c-.14-.06-.27-.15-.38-.25-.11-.11-.2-.23-.26-.37s-.09-.29-.09-.45.03-.32.09-.46c.06-.14.15-.27.26-.38s.24-.19.38-.25c.14-.06.3-.09.46-.09s.33.03.48.09.28.15.39.25.2.23.27.38c.07.14.1.3.1.46ZM52.43,7.23v6.74h-2.02v-6.74h2.02Z"/><path class="cls-3" d="M55.68,7.96c.13-.12.26-.23.4-.34.14-.1.29-.19.45-.26.16-.07.33-.13.51-.17.18-.04.38-.06.6-.06.37,0,.69.06.98.19.28.13.52.3.72.53s.34.5.44.81c.1.31.15.66.15,1.02v4.28h-2.02v-4.28c0-.33-.08-.59-.23-.77s-.38-.28-.67-.28c-.22,0-.43.05-.62.14-.19.09-.38.22-.56.38v4.81h-2.01v-6.74h1.25c.25,0,.42.11.49.34l.12.39Z"/><path class="cls-3" d="M66.12,8.06c.26-.28.56-.51.9-.69.33-.18.74-.27,1.2-.27.35,0,.68.08.97.23s.56.38.77.68c.22.29.39.66.51,1.08.12.43.18.91.18,1.45,0,.51-.07.98-.21,1.4s-.34.8-.59,1.12c-.25.32-.56.56-.91.74-.35.18-.74.27-1.17.27-.35,0-.65-.05-.88-.15s-.46-.23-.65-.4v2.59h-2.01V7.23h1.25c.25,0,.42.11.49.34l.15.49ZM66.25,12.14c.15.17.32.28.49.35.18.07.36.1.56.1s.36-.04.51-.11c.16-.07.29-.19.41-.35.12-.16.21-.37.27-.63.06-.26.1-.58.1-.95s-.03-.65-.08-.9c-.05-.24-.12-.44-.22-.59-.09-.15-.21-.26-.33-.32-.13-.07-.28-.1-.44-.1-.29,0-.54.05-.73.16-.19.11-.37.27-.55.47v2.86Z"/><path class="cls-3" d="M73.59,8.27c.21-.36.45-.65.72-.86.27-.21.58-.31.93-.31.3,0,.55.07.74.21l-.13,1.48c-.02.09-.06.16-.11.2-.05.03-.12.05-.21.05-.04,0-.08,0-.14,0-.06,0-.11,0-.18-.02-.06,0-.12-.01-.18-.02-.06,0-.12,0-.17,0-.29,0-.53.08-.71.23s-.32.37-.45.65v4.09h-2.01v-6.74h1.2c.1,0,.18,0,.25.03.07.02.12.04.17.08.04.04.08.08.1.15.02.06.04.13.06.22l.1.57Z"/><path class="cls-3" d="M79.73,7.13c.51,0,.98.08,1.4.24.42.16.78.39,1.08.69.3.3.54.66.7,1.09.17.43.25.91.25,1.44s-.08,1.02-.25,1.45c-.17.43-.4.8-.7,1.1-.3.3-.66.53-1.08.7-.42.16-.89.24-1.4.24s-.98-.08-1.41-.24c-.42-.16-.79-.39-1.09-.7-.31-.3-.54-.67-.71-1.1-.17-.43-.25-.92-.25-1.45s.08-1.01.25-1.44c.17-.43.4-.79.71-1.09s.67-.53,1.09-.69c.42-.16.89-.24,1.41-.24ZM79.73,12.58c.46,0,.81-.16,1.02-.49s.33-.82.33-1.49-.11-1.16-.33-1.49c-.22-.32-.56-.49-1.02-.49s-.83.16-1.05.49c-.22.33-.33.82-.33,1.49s.11,1.16.33,1.49.57.49,1.05.49Z"/><path class="cls-3" d="M86.19,7.95c.26-.25.54-.45.86-.59.31-.15.66-.22,1.04-.22s.73.08,1.04.23c.31.16.58.38.8.67.22.29.39.64.51,1.04.12.41.18.86.18,1.37,0,.55-.07,1.04-.21,1.49s-.33.83-.59,1.15-.56.57-.91.74c-.35.18-.74.26-1.16.26-.2,0-.39-.02-.55-.06s-.31-.09-.44-.17c-.13-.07-.26-.16-.37-.26s-.22-.21-.32-.33l-.07.34c-.04.14-.09.23-.17.29-.08.05-.18.08-.31.08h-1.34V4.24h2.01v3.71ZM86.19,12.14c.15.17.32.28.49.35.18.07.36.1.54.1s.37-.04.53-.11c.16-.07.3-.19.41-.35.12-.16.21-.38.27-.64.06-.27.1-.59.1-.99,0-.34-.02-.62-.07-.86-.05-.24-.12-.43-.22-.58-.1-.15-.22-.26-.36-.33-.15-.07-.31-.1-.5-.1-.25,0-.46.05-.64.16-.18.11-.36.27-.54.47v2.86Z"/><path class="cls-3" d="M91.46,8.17c.41-.36.86-.63,1.36-.8.5-.18,1.03-.26,1.6-.26.41,0,.77.07,1.1.2.33.13.6.32.83.55.23.24.4.52.52.84.12.33.18.68.18,1.07v4.21h-.92c-.19,0-.33-.03-.43-.08s-.18-.16-.24-.33l-.14-.37c-.17.14-.33.27-.49.38s-.32.2-.48.28-.34.13-.53.17-.4.05-.63.05c-.31,0-.59-.04-.84-.12-.25-.08-.46-.2-.64-.35-.18-.16-.31-.35-.41-.58-.1-.23-.14-.5-.14-.8,0-.24.06-.49.18-.74.12-.25.33-.48.63-.68.3-.21.7-.38,1.21-.52s1.15-.22,1.92-.23v-.29c0-.39-.08-.68-.24-.85-.16-.18-.39-.26-.69-.26-.24,0-.43.03-.58.08-.15.05-.29.11-.41.18-.12.06-.23.12-.35.17-.11.05-.25.08-.4.08-.14,0-.26-.03-.35-.1s-.17-.15-.23-.25l-.36-.63ZM95.08,11.23c-.4.02-.73.05-1,.1-.26.05-.47.12-.62.19s-.26.17-.32.27-.09.21-.09.33c0,.23.06.39.19.48.12.09.31.14.55.14.26,0,.49-.05.68-.14s.39-.24.59-.44v-.94Z"/><path class="cls-3" d="M100.36,7.95c.26-.25.54-.45.86-.59.31-.15.66-.22,1.04-.22s.73.08,1.04.23c.31.16.58.38.8.67.22.29.39.64.51,1.04.12.41.18.86.18,1.37,0,.55-.07,1.04-.21,1.49s-.33.83-.59,1.15-.56.57-.91.74c-.35.18-.74.26-1.16.26-.2,0-.39-.02-.55-.06s-.31-.09-.44-.17c-.13-.07-.26-.16-.37-.26s-.22-.21-.32-.33l-.07.34c-.04.14-.09.23-.17.29-.08.05-.18.08-.31.08h-1.34V4.24h2.01v3.71ZM100.36,12.14c.15.17.32.28.49.35.18.07.36.1.54.1s.37-.04.53-.11c.16-.07.3-.19.41-.35.12-.16.21-.38.27-.64.06-.27.1-.59.1-.99,0-.34-.02-.62-.07-.86-.05-.24-.12-.43-.22-.58-.1-.15-.22-.26-.36-.33-.15-.07-.31-.1-.5-.1-.25,0-.46.05-.64.16-.18.11-.36.27-.54.47v2.86Z"/><path class="cls-3" d="M108.03,5.39c0,.16-.03.31-.1.45s-.15.26-.27.37c-.11.11-.24.19-.39.25s-.31.09-.48.09-.32-.03-.46-.09c-.14-.06-.27-.15-.38-.25-.11-.11-.2-.23-.26-.37s-.09-.29-.09-.45.03-.32.09-.46c.06-.14.15-.27.26-.38s.24-.19.38-.25c.14-.06.3-.09.46-.09s.33.03.48.09.28.15.39.25.2.23.27.38c.07.14.1.3.1.46ZM107.82,7.23v6.74h-2.02v-6.74h2.02Z"/><path class="cls-3" d="M111.22,4.24v9.73h-2.01V4.24h2.01Z"/><path class="cls-3" d="M114.82,5.39c0,.16-.03.31-.1.45s-.15.26-.27.37c-.11.11-.24.19-.39.25s-.31.09-.48.09-.32-.03-.46-.09c-.14-.06-.27-.15-.38-.25-.11-.11-.2-.23-.26-.37s-.09-.29-.09-.45.03-.32.09-.46c.06-.14.15-.27.26-.38s.24-.19.38-.25c.14-.06.3-.09.46-.09s.33.03.48.09.28.15.39.25.2.23.27.38c.07.14.1.3.1.46ZM114.61,7.23v6.74h-2.02v-6.74h2.02Z"/><path class="cls-3" d="M118.32,14.08c-.32,0-.6-.05-.85-.14-.25-.09-.45-.22-.62-.4-.17-.17-.29-.38-.38-.62-.09-.24-.13-.51-.13-.81v-3.48h-.57c-.1,0-.19-.03-.27-.1-.07-.07-.11-.17-.11-.3v-.79l1.07-.21.4-1.64c.05-.21.2-.31.44-.31h1.05v1.97h1.67v1.38h-1.67v3.35c0,.16.04.29.11.39.08.1.18.15.33.15.07,0,.13,0,.18-.02.05-.01.09-.03.13-.05.04-.02.07-.04.1-.05.03-.02.07-.02.11-.02.06,0,.11.01.15.04.04.03.08.07.11.13l.61.96c-.26.2-.55.34-.88.44s-.66.15-1.01.15Z"/><path class="cls-3" d="M127.56,7.23l-3.6,8.49c-.06.13-.13.23-.22.3-.09.06-.22.09-.42.09h-1.51l1.3-2.73-2.69-6.15h1.78c.16,0,.28.03.36.1.08.07.15.15.19.25l1.1,2.91c.1.26.19.54.25.81.05-.14.09-.28.14-.42s.1-.27.15-.41l1-2.89c.04-.1.11-.18.21-.25s.21-.1.33-.1h1.62Z"/><path class="cls-3" d="M134.26,7.13c.51,0,.98.08,1.4.24.42.16.78.39,1.08.69.3.3.54.66.7,1.09.17.43.25.91.25,1.44s-.08,1.02-.25,1.45c-.17.43-.4.8-.7,1.1-.3.3-.66.53-1.08.7-.42.16-.89.24-1.4.24s-.98-.08-1.41-.24c-.42-.16-.79-.39-1.09-.7-.31-.3-.54-.67-.71-1.1-.17-.43-.25-.92-.25-1.45s.08-1.01.25-1.44c.17-.43.4-.79.71-1.09s.67-.53,1.09-.69c.42-.16.89-.24,1.41-.24ZM134.26,12.58c.46,0,.81-.16,1.02-.49s.33-.82.33-1.49-.11-1.16-.33-1.49c-.22-.32-.56-.49-1.02-.49s-.83.16-1.05.49c-.22.33-.33.82-.33,1.49s.11,1.16.33,1.49.57.49,1.05.49Z"/><path class="cls-3" d="M138.96,13.97v-5.36l-.44-.09c-.15-.03-.27-.09-.37-.16-.09-.07-.14-.18-.14-.33v-.79h.95v-.38c0-.39.06-.73.19-1.05.12-.31.3-.58.53-.8.23-.22.51-.39.85-.51.33-.12.71-.18,1.14-.18.17,0,.32,0,.46.03s.28.05.44.09l-.04.98c0,.07-.02.13-.05.17-.03.04-.07.08-.12.11s-.1.05-.16.06c-.06.01-.11.02-.17.02-.18,0-.34.02-.47.05-.14.04-.25.1-.35.19-.09.09-.16.21-.21.35-.05.15-.07.33-.07.55v.32h1.58v1.38h-1.51v5.35h-2.02Z"/><path class="cls-3" d="M146.07,8.17c.41-.36.86-.63,1.36-.8.5-.18,1.03-.26,1.6-.26.41,0,.77.07,1.1.2.33.13.6.32.83.55.23.24.4.52.52.84.12.33.18.68.18,1.07v4.21h-.92c-.19,0-.33-.03-.43-.08s-.18-.16-.24-.33l-.14-.37c-.17.14-.33.27-.49.38s-.32.2-.48.28-.34.13-.53.17-.4.05-.63.05c-.31,0-.59-.04-.84-.12-.25-.08-.46-.2-.64-.35-.18-.16-.31-.35-.41-.58-.1-.23-.14-.5-.14-.8,0-.24.06-.49.18-.74.12-.25.33-.48.63-.68.3-.21.7-.38,1.21-.52s1.15-.22,1.92-.23v-.29c0-.39-.08-.68-.24-.85-.16-.18-.39-.26-.69-.26-.24,0-.43.03-.58.08-.15.05-.29.11-.41.18-.12.06-.23.12-.35.17-.11.05-.25.08-.4.08-.14,0-.26-.03-.35-.1s-.17-.15-.23-.25l-.36-.63ZM149.7,11.23c-.4.02-.73.05-1,.1-.26.05-.47.12-.62.19s-.26.17-.32.27-.09.21-.09.33c0,.23.06.39.19.48.12.09.31.14.55.14.26,0,.49-.05.68-.14s.39-.24.59-.44v-.94Z"/><path class="cls-3" d="M154.86,8.06c.26-.28.56-.51.9-.69.33-.18.74-.27,1.2-.27.35,0,.68.08.97.23s.56.38.77.68c.22.29.39.66.51,1.08.12.43.18.91.18,1.45,0,.51-.07.98-.21,1.4s-.34.8-.59,1.12c-.25.32-.56.56-.91.74-.35.18-.74.27-1.17.27-.35,0-.65-.05-.88-.15s-.46-.23-.65-.4v2.59h-2.01V7.23h1.25c.25,0,.42.11.49.34l.15.49ZM154.98,12.14c.15.17.32.28.49.35.18.07.36.1.56.1s.36-.04.51-.11c.16-.07.29-.19.41-.35.12-.16.21-.37.27-.63.06-.26.1-.58.1-.95s-.03-.65-.08-.9c-.05-.24-.12-.44-.22-.59-.09-.15-.21-.26-.33-.32-.13-.07-.28-.1-.44-.1-.29,0-.54.05-.73.16-.19.11-.37.27-.55.47v2.86Z"/><path class="cls-3" d="M162.34,8.06c.26-.28.56-.51.9-.69.33-.18.74-.27,1.2-.27.35,0,.68.08.97.23s.56.38.77.68c.22.29.39.66.51,1.08.12.43.18.91.18,1.45,0,.51-.07.98-.21,1.4s-.34.8-.59,1.12c-.25.32-.56.56-.91.74-.35.18-.74.27-1.17.27-.35,0-.65-.05-.88-.15s-.46-.23-.65-.4v2.59h-2.01V7.23h1.25c.25,0,.42.11.49.34l.15.49ZM162.46,12.14c.15.17.32.28.49.35.18.07.36.1.56.1s.36-.04.51-.11c.16-.07.29-.19.41-.35.12-.16.21-.37.27-.63.06-.26.1-.58.1-.95s-.03-.65-.08-.9c-.05-.24-.12-.44-.22-.59-.09-.15-.21-.26-.33-.32-.13-.07-.28-.1-.44-.1-.29,0-.54.05-.73.16-.19.11-.37.27-.55.47v2.86Z"/><path class="cls-3" d="M169.95,4.24v9.73h-2.01V4.24h2.01Z"/><path class="cls-3" d="M173.55,5.39c0,.16-.03.31-.1.45s-.15.26-.27.37c-.11.11-.24.19-.39.25s-.31.09-.48.09-.32-.03-.46-.09c-.14-.06-.27-.15-.38-.25-.11-.11-.2-.23-.26-.37s-.09-.29-.09-.45.03-.32.09-.46c.06-.14.15-.27.26-.38s.24-.19.38-.25c.14-.06.3-.09.46-.09s.33.03.48.09.28.15.39.25.2.23.27.38c.07.14.1.3.1.46ZM173.35,7.23v6.74h-2.02v-6.74h2.02Z"/><path class="cls-3" d="M179.64,8.83c-.06.07-.12.13-.18.18s-.14.06-.24.06-.19-.02-.27-.07c-.08-.05-.17-.1-.27-.16s-.22-.11-.35-.16c-.13-.05-.3-.07-.5-.07-.25,0-.46.04-.64.14-.18.09-.33.22-.45.39s-.2.38-.26.62c-.06.24-.08.52-.08.83,0,.65.12,1.14.37,1.49.25.35.59.52,1.03.52.23,0,.42-.03.56-.09s.25-.12.35-.2c.09-.07.18-.14.26-.2.08-.06.18-.09.3-.09.16,0,.28.06.36.18l.58.72c-.21.24-.43.43-.66.58-.23.15-.46.27-.71.35-.24.08-.48.14-.72.18-.24.03-.48.05-.71.05-.41,0-.81-.08-1.18-.23-.38-.16-.7-.38-.99-.68s-.51-.66-.68-1.09c-.17-.43-.25-.93-.25-1.48,0-.49.07-.94.22-1.36.15-.42.36-.79.64-1.1.28-.31.63-.55,1.05-.73.42-.18.9-.27,1.45-.27s.99.08,1.39.25c.4.17.76.42,1.08.74l-.53.71Z"/><path class="cls-3" d="M181.01,8.17c.41-.36.86-.63,1.36-.8.5-.18,1.03-.26,1.6-.26.41,0,.77.07,1.1.2.33.13.6.32.83.55.23.24.4.52.52.84.12.33.18.68.18,1.07v4.21h-.92c-.19,0-.33-.03-.43-.08s-.18-.16-.24-.33l-.14-.37c-.17.14-.33.27-.49.38s-.32.2-.48.28-.34.13-.53.17-.4.05-.63.05c-.31,0-.59-.04-.84-.12-.25-.08-.46-.2-.64-.35-.18-.16-.31-.35-.41-.58-.1-.23-.14-.5-.14-.8,0-.24.06-.49.18-.74.12-.25.33-.48.63-.68.3-.21.7-.38,1.21-.52s1.15-.22,1.92-.23v-.29c0-.39-.08-.68-.24-.85-.16-.18-.39-.26-.69-.26-.24,0-.43.03-.58.08-.15.05-.29.11-.41.18-.12.06-.23.12-.35.17-.11.05-.25.08-.4.08-.14,0-.26-.03-.35-.1s-.17-.15-.23-.25l-.36-.63ZM184.64,11.23c-.4.02-.73.05-1,.1-.26.05-.47.12-.62.19s-.26.17-.32.27-.09.21-.09.33c0,.23.06.39.19.48.12.09.31.14.55.14.26,0,.49-.05.68-.14s.39-.24.59-.44v-.94Z"/><path class="cls-3" d="M195.04,13.97h-2.01v-5.35h-2.82v3.35c0,.16.04.29.11.39.08.1.18.15.33.15.07,0,.13,0,.18-.02.05-.01.09-.03.13-.05.04-.02.07-.04.1-.05.03-.02.07-.02.11-.02.06,0,.11.01.15.04.04.03.08.07.11.13l.61.96c-.26.2-.55.34-.88.44s-.66.15-1.01.15c-.32,0-.6-.05-.85-.14-.25-.09-.45-.22-.62-.4-.17-.17-.29-.38-.38-.62-.09-.24-.13-.51-.13-.81v-3.48h-.57c-.1,0-.19-.03-.27-.1-.07-.07-.11-.17-.11-.3v-.79l1.07-.21.4-1.64c.05-.21.2-.31.44-.31h1.05v1.97h4.84v6.73ZM195.32,5.38c0,.16-.03.31-.1.46-.07.14-.15.27-.27.37-.11.11-.24.19-.39.25s-.31.09-.48.09-.32-.03-.46-.09c-.14-.06-.27-.14-.38-.25-.11-.11-.2-.23-.26-.37-.06-.14-.09-.29-.09-.46s.03-.31.09-.46c.06-.15.15-.27.26-.38.11-.11.24-.19.38-.25.14-.06.3-.09.46-.09s.33.03.48.09.28.15.39.25c.11.11.2.23.27.38.06.14.1.3.1.46Z"/><path class="cls-3" d="M199.51,7.13c.51,0,.98.08,1.4.24.42.16.78.39,1.08.69.3.3.54.66.7,1.09.17.43.25.91.25,1.44s-.08,1.02-.25,1.45c-.17.43-.4.8-.7,1.1-.3.3-.66.53-1.08.7-.42.16-.89.24-1.4.24s-.98-.08-1.41-.24c-.42-.16-.79-.39-1.09-.7-.31-.3-.54-.67-.71-1.1-.17-.43-.25-.92-.25-1.45s.08-1.01.25-1.44c.17-.43.4-.79.71-1.09s.67-.53,1.09-.69c.42-.16.89-.24,1.41-.24ZM199.51,12.58c.46,0,.81-.16,1.02-.49s.33-.82.33-1.49-.11-1.16-.33-1.49c-.22-.32-.56-.49-1.02-.49s-.83.16-1.05.49c-.22.33-.33.82-.33,1.49s.11,1.16.33,1.49.57.49,1.05.49Z"/><path class="cls-3" d="M205.82,7.96c.13-.12.26-.23.4-.34.14-.1.29-.19.45-.26.16-.07.33-.13.51-.17.18-.04.38-.06.6-.06.37,0,.69.06.98.19.28.13.52.3.72.53s.34.5.44.81c.1.31.15.66.15,1.02v4.28h-2.02v-4.28c0-.33-.08-.59-.23-.77s-.38-.28-.67-.28c-.22,0-.43.05-.62.14-.19.09-.38.22-.56.38v4.81h-2.01v-6.74h1.25c.25,0,.42.11.49.34l.12.39Z"/><path class="cls-3" d="M214.22,8.17c.41-.36.86-.63,1.36-.8.5-.18,1.03-.26,1.6-.26.41,0,.77.07,1.1.2.33.13.6.32.83.55.23.24.4.52.52.84.12.33.18.68.18,1.07v4.21h-.92c-.19,0-.33-.03-.43-.08s-.18-.16-.24-.33l-.14-.37c-.17.14-.33.27-.49.38s-.32.2-.48.28-.34.13-.53.17-.4.05-.63.05c-.31,0-.59-.04-.84-.12-.25-.08-.46-.2-.64-.35-.18-.16-.31-.35-.41-.58-.1-.23-.14-.5-.14-.8,0-.24.06-.49.18-.74.12-.25.33-.48.63-.68.3-.21.7-.38,1.21-.52s1.15-.22,1.92-.23v-.29c0-.39-.08-.68-.24-.85-.16-.18-.39-.26-.69-.26-.24,0-.43.03-.58.08-.15.05-.29.11-.41.18-.12.06-.23.12-.35.17-.11.05-.25.08-.4.08-.14,0-.26-.03-.35-.1s-.17-.15-.23-.25l-.36-.63ZM217.85,11.23c-.4.02-.73.05-1,.1-.26.05-.47.12-.62.19s-.26.17-.32.27-.09.21-.09.33c0,.23.06.39.19.48.12.09.31.14.55.14.26,0,.49-.05.68-.14s.39-.24.59-.44v-.94Z"/><path class="cls-3" d="M223.01,8.06c.26-.28.56-.51.9-.69.33-.18.74-.27,1.2-.27.35,0,.68.08.97.23s.56.38.77.68c.22.29.39.66.51,1.08.12.43.18.91.18,1.45,0,.51-.07.98-.21,1.4s-.34.8-.59,1.12c-.25.32-.56.56-.91.74-.35.18-.74.27-1.17.27-.35,0-.65-.05-.88-.15s-.46-.23-.65-.4v2.59h-2.01V7.23h1.25c.25,0,.42.11.49.34l.15.49ZM223.13,12.14c.15.17.32.28.49.35.18.07.36.1.56.1s.36-.04.51-.11c.16-.07.29-.19.41-.35.12-.16.21-.37.27-.63.06-.26.1-.58.1-.95s-.03-.65-.08-.9c-.05-.24-.12-.44-.22-.59-.09-.15-.21-.26-.33-.32-.13-.07-.28-.1-.44-.1-.29,0-.54.05-.73.16-.19.11-.37.27-.55.47v2.86Z"/><path class="cls-3" d="M230.49,8.06c.26-.28.56-.51.9-.69.33-.18.74-.27,1.2-.27.35,0,.68.08.97.23s.56.38.77.68c.22.29.39.66.51,1.08.12.43.18.91.18,1.45,0,.51-.07.98-.21,1.4s-.34.8-.59,1.12c-.25.32-.56.56-.91.74-.35.18-.74.27-1.17.27-.35,0-.65-.05-.88-.15s-.46-.23-.65-.4v2.59h-2.01V7.23h1.25c.25,0,.42.11.49.34l.15.49ZM230.61,12.14c.15.17.32.28.49.35.18.07.36.1.56.1s.36-.04.51-.11c.16-.07.29-.19.41-.35.12-.16.21-.37.27-.63.06-.26.1-.58.1-.95s-.03-.65-.08-.9c-.05-.24-.12-.44-.22-.59-.09-.15-.21-.26-.33-.32-.13-.07-.28-.1-.44-.1-.29,0-.54.05-.73.16-.19.11-.37.27-.55.47v2.86Z"/><path class="cls-3" d="M237.96,8.27c.21-.36.45-.65.72-.86.27-.21.58-.31.93-.31.3,0,.55.07.74.21l-.13,1.48c-.02.09-.06.16-.11.2-.05.03-.12.05-.21.05-.04,0-.08,0-.14,0-.06,0-.11,0-.18-.02-.06,0-.12-.01-.18-.02-.06,0-.12,0-.17,0-.29,0-.53.08-.71.23s-.32.37-.45.65v4.09h-2.01v-6.74h1.2c.1,0,.18,0,.25.03.07.02.12.04.17.08.04.04.08.08.1.15.02.06.04.13.06.22l.1.57Z"/><path class="cls-3" d="M244.09,7.13c.51,0,.98.08,1.4.24.42.16.78.39,1.08.69.3.3.54.66.7,1.09.17.43.25.91.25,1.44s-.08,1.02-.25,1.45c-.17.43-.4.8-.7,1.1-.3.3-.66.53-1.08.7-.42.16-.89.24-1.4.24s-.98-.08-1.41-.24c-.42-.16-.79-.39-1.09-.7-.31-.3-.54-.67-.71-1.1-.17-.43-.25-.92-.25-1.45s.08-1.01.25-1.44c.17-.43.4-.79.71-1.09s.67-.53,1.09-.69c.42-.16.89-.24,1.41-.24ZM244.09,12.58c.46,0,.81-.16,1.02-.49s.33-.82.33-1.49-.11-1.16-.33-1.49c-.22-.32-.56-.49-1.02-.49s-.83.16-1.05.49c-.22.33-.33.82-.33,1.49s.11,1.16.33,1.49.57.49,1.05.49Z"/><path class="cls-3" d="M254.62,7.23l-2.61,6.74h-1.83l-2.61-6.74h1.68c.14,0,.26.03.36.1s.16.15.2.25l.94,3.02c.08.25.15.49.22.72.06.23.12.47.17.7.1-.47.23-.94.4-1.42l.98-3.02c.03-.1.1-.18.19-.25.1-.07.21-.1.34-.1h1.6Z"/><path class="cls-3" d="M255.05,8.17c.41-.36.86-.63,1.36-.8.5-.18,1.03-.26,1.6-.26.41,0,.77.07,1.1.2.33.13.6.32.83.55.23.24.4.52.52.84.12.33.18.68.18,1.07v4.21h-.92c-.19,0-.33-.03-.43-.08s-.18-.16-.24-.33l-.14-.37c-.17.14-.33.27-.49.38s-.32.2-.48.28-.34.13-.53.17-.4.05-.63.05c-.31,0-.59-.04-.84-.12-.25-.08-.46-.2-.64-.35-.18-.16-.31-.35-.41-.58-.1-.23-.14-.5-.14-.8,0-.24.06-.49.18-.74.12-.25.33-.48.63-.68.3-.21.7-.38,1.21-.52s1.15-.22,1.92-.23v-.29c0-.39-.08-.68-.24-.85-.16-.18-.39-.26-.69-.26-.24,0-.43.03-.58.08-.15.05-.29.11-.41.18-.12.06-.23.12-.35.17-.11.05-.25.08-.4.08-.14,0-.26-.03-.35-.1s-.17-.15-.23-.25l-.36-.63ZM258.68,11.23c-.4.02-.73.05-1,.1-.26.05-.47.12-.62.19s-.26.17-.32.27-.09.21-.09.33c0,.23.06.39.19.48.12.09.31.14.55.14.26,0,.49-.05.68-.14s.39-.24.59-.44v-.94Z"/><path class="cls-3" d="M263.96,4.24v9.73h-2.01V4.24h2.01Z"/><polyline class="cls-2" points="4.57 23 4.57 166.34 474 166.34"/><line class="cls-1" x1="25.5" y1="26.5" x2="25.5" y2="173"/><line class="cls-2" x1="55.5" y1="110.75" x2="334.5" y2="110.75"/><line class="cls-2" x1="199" y1="77.5" x2="454" y2="77.5"/><circle class="cls-3" cx="326" cy="77" r="5"/><polygon class="cls-3" points="189 115.75 201 115.75 195 105.75 189 115.75"/><circle class="cls-3" cx="26" cy="215" r="4.5"/><polygon class="cls-3" points="208.3 219.5 219.1 219.5 213.7 210.5 208.3 219.5"/><line class="cls-2" x1="138.3" y1="166.5" x2="138.3" y2="173"/><line class="cls-2" x1="252.26" y1="166.32" x2="252.26" y2="172.82"/><line class="cls-2" x1="365.42" y1="166.32" x2="365.42" y2="172.82"/><path class="cls-3" d="M304.64,58.12h-3.26v3.44h-1.16v-3.44h-3.25v-1.08h3.25v-3.42h1.16v3.42h3.26v1.08Z"/><path class="cls-3" d="M312.2,61.86v1.09h-6.14v-1.09h2.46v-7.82c0-.23,0-.47.02-.71l-2.04,1.75c-.07.06-.14.09-.21.11-.07.01-.13.01-.19,0s-.11-.03-.16-.06c-.05-.03-.09-.07-.12-.1l-.45-.62,3.42-2.95h1.16v10.4h2.26Z"/><path class="cls-3" d="M313.82,54.59c.07-.52.22-.99.43-1.39.21-.4.48-.74.81-1.01.33-.27.7-.48,1.13-.62s.88-.21,1.37-.21.93.07,1.34.21.76.34,1.06.59c.3.26.53.57.69.93.17.36.25.77.25,1.21,0,.36-.05.69-.14.97-.09.29-.23.53-.4.75-.17.21-.38.39-.63.54s-.52.27-.82.37c.75.19,1.31.52,1.68.99s.56,1.05.56,1.75c0,.53-.1,1-.3,1.42-.2.42-.47.78-.82,1.08s-.75.52-1.21.68c-.46.16-.96.24-1.48.24-.61,0-1.13-.08-1.56-.23-.43-.15-.8-.36-1.1-.63s-.54-.58-.74-.95c-.19-.37-.35-.76-.49-1.19l.62-.26c.16-.07.32-.09.47-.06.15.03.26.12.33.26.07.15.16.33.26.54.1.21.25.41.43.6.18.19.41.36.69.49.28.13.64.2,1.07.2.4,0,.75-.07,1.05-.2.3-.13.55-.3.75-.51.2-.21.35-.44.45-.7.1-.26.15-.51.15-.76,0-.31-.04-.59-.12-.85s-.23-.48-.45-.66-.52-.33-.9-.44c-.38-.11-.87-.16-1.47-.16v-1.03c.49,0,.91-.06,1.25-.16.34-.1.62-.24.84-.42s.37-.39.47-.63c.1-.25.15-.52.15-.82,0-.33-.05-.62-.16-.86-.1-.25-.25-.45-.43-.61-.18-.16-.4-.28-.64-.36s-.52-.12-.8-.12-.56.04-.8.13c-.25.09-.47.2-.66.36-.19.15-.35.33-.48.54-.13.21-.22.44-.27.69-.07.19-.16.31-.26.37-.1.06-.25.08-.45.05l-.74-.13Z"/><path class="cls-3" d="M322.96,62.07c0-.14.03-.27.08-.39.05-.12.12-.23.21-.32s.19-.16.32-.22c.12-.05.25-.08.39-.08s.27.03.39.08c.12.05.23.12.32.22s.16.2.22.32c.05.12.08.25.08.39s-.03.28-.08.4c-.05.12-.12.23-.22.32s-.2.16-.32.21c-.12.05-.25.08-.39.08s-.27-.03-.39-.08c-.12-.05-.23-.12-.32-.21s-.16-.2-.21-.32c-.05-.12-.08-.25-.08-.4Z"/><path class="cls-3" d="M333.96,61.6c.15,0,.28.04.37.14s.14.21.14.35v.86h-7.65v-.49c0-.1.02-.21.06-.31.04-.11.11-.21.2-.3l3.67-3.69c.3-.31.58-.61.83-.89.25-.29.46-.57.64-.86s.31-.58.41-.88c.1-.3.14-.61.14-.95s-.05-.63-.16-.88c-.11-.25-.25-.46-.44-.63-.18-.17-.4-.29-.65-.37-.25-.08-.52-.12-.81-.12s-.56.04-.81.13c-.25.09-.46.2-.65.36-.19.15-.35.33-.48.54s-.22.44-.27.69c-.06.19-.15.31-.26.37-.11.06-.26.08-.46.05l-.74-.13c.07-.52.22-.99.44-1.39s.49-.74.82-1.01c.33-.27.7-.48,1.12-.62.42-.14.88-.21,1.37-.21s.94.07,1.36.22.79.35,1.1.63c.31.27.55.61.73,1s.26.84.26,1.34c0,.43-.06.82-.19,1.19s-.3.71-.52,1.04-.47.65-.76.97c-.29.32-.59.63-.91.95l-3.02,3.09c.21-.06.43-.11.65-.14.22-.04.43-.05.63-.05h3.84Z"/><path class="cls-3" d="M341.93,56.1c.34-.42.74-.76,1.18-1.02s.96-.38,1.54-.38c.47,0,.89.09,1.27.27.38.18.7.44.97.79.27.35.47.78.62,1.3.14.52.22,1.11.22,1.78,0,.6-.08,1.15-.24,1.67s-.39.96-.69,1.34c-.3.38-.67.67-1.1.89s-.92.32-1.47.32c-.5,0-.92-.08-1.28-.25s-.67-.4-.94-.7v3.58h-1.43v-10.85h.86c.2,0,.33.1.38.3l.13.96ZM342,61c.26.35.55.6.86.74s.66.22,1.04.22c.76,0,1.34-.27,1.74-.81.41-.54.61-1.31.61-2.3,0-.53-.05-.98-.14-1.36s-.23-.69-.4-.93c-.18-.24-.39-.42-.65-.53-.26-.11-.55-.17-.87-.17-.46,0-.87.11-1.22.32-.35.21-.67.51-.96.9v3.92Z"/><path class="cls-3" d="M350.87,56.1c.34-.42.74-.76,1.18-1.02s.96-.38,1.54-.38c.47,0,.89.09,1.27.27.38.18.7.44.97.79.27.35.47.78.62,1.3.14.52.22,1.11.22,1.78,0,.6-.08,1.15-.24,1.67s-.39.96-.69,1.34c-.3.38-.67.67-1.1.89s-.92.32-1.47.32c-.5,0-.92-.08-1.28-.25s-.67-.4-.94-.7v3.58h-1.43v-10.85h.86c.2,0,.33.1.38.3l.13.96ZM350.94,61c.26.35.55.6.86.74s.66.22,1.04.22c.76,0,1.34-.27,1.74-.81.41-.54.61-1.31.61-2.3,0-.53-.05-.98-.14-1.36s-.23-.69-.4-.93c-.18-.24-.39-.42-.65-.53-.26-.11-.55-.17-.87-.17-.46,0-.87.11-1.22.32-.35.21-.67.51-.96.9v3.92Z"/><path class="cls-3" d="M175.65,92.35h-3.26v3.44h-1.16v-3.44h-3.25v-1.08h3.25v-3.42h1.16v3.42h3.26v1.08Z"/><path class="cls-3" d="M183.29,85.72v.64c0,.18-.02.33-.06.45s-.08.22-.12.3l-4.75,9.58c-.07.14-.17.26-.29.36-.12.1-.29.15-.49.15h-1.02l4.82-9.46c.07-.13.14-.26.22-.37.07-.11.15-.22.24-.32h-5.98c-.09,0-.17-.04-.24-.11s-.1-.15-.1-.24v-.97h7.78Z"/><path class="cls-3" d="M183.06,96.31c0-.14.03-.27.08-.39.05-.12.12-.23.21-.32s.19-.16.32-.22c.12-.05.25-.08.39-.08s.27.03.39.08c.12.05.23.12.32.22s.16.2.22.32c.05.12.08.25.08.39s-.03.28-.08.4c-.05.12-.12.23-.22.32s-.2.16-.32.21c-.12.05-.25.08-.39.08s-.27-.03-.39-.08c-.12-.05-.23-.12-.32-.21s-.16-.2-.21-.32c-.05-.12-.08-.25-.08-.4Z"/><path class="cls-3" d="M188.99,90.05c.6-.13,1.15-.19,1.65-.19.6,0,1.12.09,1.58.26.46.18.84.42,1.15.73s.54.67.7,1.1c.16.42.24.88.24,1.38,0,.61-.11,1.16-.32,1.65-.21.49-.5.91-.87,1.26-.37.35-.81.62-1.31.8s-1.04.28-1.62.28c-.34,0-.66-.03-.97-.1-.31-.07-.6-.16-.87-.27-.27-.11-.52-.24-.75-.38s-.43-.3-.61-.46l.44-.61c.1-.14.22-.21.38-.21.11,0,.23.04.36.12.13.08.3.17.49.28.19.1.42.19.68.28.26.08.57.12.92.12.4,0,.76-.06,1.08-.19.32-.13.59-.31.82-.55.23-.24.41-.52.53-.85.12-.33.18-.7.18-1.11,0-.36-.05-.68-.16-.97-.1-.29-.26-.53-.47-.74-.21-.2-.47-.36-.79-.47-.32-.11-.68-.17-1.1-.17-.29,0-.59.02-.9.07-.31.05-.63.13-.96.23l-.9-.26.92-5.36h5.43v.62c0,.2-.06.37-.19.5s-.34.2-.64.2h-3.6l-.53,3.01Z"/><path class="cls-3" d="M201.95,90.34c.34-.42.74-.76,1.18-1.02s.96-.38,1.54-.38c.47,0,.89.09,1.27.27.38.18.7.44.97.79.27.35.47.78.62,1.3.14.52.22,1.11.22,1.78,0,.6-.08,1.15-.24,1.67s-.39.96-.69,1.34c-.3.38-.67.67-1.1.89s-.92.32-1.47.32c-.5,0-.92-.08-1.28-.25s-.67-.4-.94-.7v3.58h-1.43v-10.85h.86c.2,0,.33.1.38.3l.13.96ZM202.02,95.23c.26.35.55.6.86.74s.66.22,1.04.22c.76,0,1.34-.27,1.74-.81.41-.54.61-1.31.61-2.3,0-.53-.05-.98-.14-1.36s-.23-.69-.4-.93c-.18-.24-.39-.42-.65-.53-.26-.11-.55-.17-.87-.17-.46,0-.87.11-1.22.32-.35.21-.67.51-.96.9v3.92Z"/><path class="cls-3" d="M210.89,90.34c.34-.42.74-.76,1.18-1.02s.96-.38,1.54-.38c.47,0,.89.09,1.27.27.38.18.7.44.97.79.27.35.47.78.62,1.3.14.52.22,1.11.22,1.78,0,.6-.08,1.15-.24,1.67s-.39.96-.69,1.34c-.3.38-.67.67-1.1.89s-.92.32-1.47.32c-.5,0-.92-.08-1.28-.25s-.67-.4-.94-.7v3.58h-1.43v-10.85h.86c.2,0,.33.1.38.3l.13.96ZM210.96,95.23c.26.35.55.6.86.74s.66.22,1.04.22c.76,0,1.34-.27,1.74-.81.41-.54.61-1.31.61-2.3,0-.53-.05-.98-.14-1.36s-.23-.69-.4-.93c-.18-.24-.39-.42-.65-.53-.26-.11-.55-.17-.87-.17-.46,0-.87.11-1.22.32-.35.21-.67.51-.96.9v3.92Z"/><path class="cls-3" d="M18.78,183.41c0,.82-.09,1.52-.26,2.12-.17.6-.42,1.09-.72,1.48-.3.39-.66.68-1.08.87s-.86.29-1.33.29-.92-.1-1.33-.29-.77-.48-1.07-.87-.54-.88-.71-1.48c-.17-.6-.26-1.3-.26-2.12s.09-1.52.26-2.12c.17-.6.41-1.09.71-1.48.3-.39.66-.68,1.07-.88.41-.19.85-.29,1.33-.29s.92.1,1.33.29c.41.19.77.48,1.08.88.3.39.54.89.72,1.48.18.6.26,1.3.26,2.12ZM17.58,183.41c0-.71-.06-1.31-.18-1.79-.12-.48-.28-.87-.48-1.17s-.43-.51-.7-.63c-.26-.13-.54-.19-.83-.19s-.56.06-.83.19c-.26.13-.5.34-.7.63-.2.29-.36.68-.48,1.17-.12.48-.18,1.08-.18,1.79s.06,1.31.18,1.79c.12.48.28.87.48,1.16.2.29.43.51.7.63.26.13.54.19.83.19s.56-.06.83-.19c.26-.13.5-.34.7-.63s.36-.68.48-1.16c.12-.48.18-1.08.18-1.79Z"/><path class="cls-3" d="M19.87,187.35c0-.11.02-.22.06-.32s.1-.19.17-.26c.07-.07.16-.13.26-.17.1-.04.21-.07.32-.07s.22.02.32.07c.1.04.19.1.26.17.07.07.13.16.18.26.04.1.06.21.06.32s-.02.22-.06.32c-.04.1-.1.18-.18.26s-.16.13-.26.17c-.1.04-.21.06-.32.06s-.22-.02-.32-.06c-.1-.04-.18-.1-.26-.17-.07-.07-.13-.16-.17-.26s-.06-.2-.06-.32Z"/><path class="cls-3" d="M29.33,183.41c0,.82-.09,1.52-.26,2.12-.18.6-.42,1.09-.72,1.48-.3.39-.66.68-1.08.87-.41.19-.86.29-1.33.29s-.92-.1-1.33-.29c-.41-.19-.77-.48-1.07-.87-.3-.39-.54-.88-.72-1.48-.17-.6-.26-1.3-.26-2.12s.09-1.52.26-2.12c.17-.6.41-1.09.72-1.48.3-.39.66-.68,1.07-.88.41-.19.85-.29,1.33-.29s.92.1,1.33.29c.41.19.77.48,1.08.88.3.39.54.89.72,1.48.17.6.26,1.3.26,2.12ZM28.13,183.41c0-.71-.06-1.31-.18-1.79-.12-.48-.28-.87-.48-1.17-.2-.29-.43-.51-.7-.63-.26-.13-.54-.19-.83-.19s-.56.06-.83.19c-.26.13-.5.34-.7.63s-.36.68-.48,1.17c-.12.48-.18,1.08-.18,1.79s.06,1.31.18,1.79c.12.48.28.87.48,1.16s.43.51.7.63c.26.13.54.19.83.19s.56-.06.83-.19c.26-.13.5-.34.7-.63.2-.29.36-.68.48-1.16.12-.48.18-1.08.18-1.79Z"/><path class="cls-3" d="M37.25,183.41c0,.82-.09,1.52-.26,2.12-.17.6-.42,1.09-.72,1.48-.3.39-.66.68-1.08.87s-.86.29-1.33.29-.92-.1-1.33-.29-.77-.48-1.07-.87-.54-.88-.71-1.48c-.17-.6-.26-1.3-.26-2.12s.09-1.52.26-2.12c.17-.6.41-1.09.71-1.48.3-.39.66-.68,1.07-.88.41-.19.85-.29,1.33-.29s.92.1,1.33.29c.41.19.77.48,1.08.88.3.39.54.89.72,1.48.18.6.26,1.3.26,2.12ZM36.05,183.41c0-.71-.06-1.31-.18-1.79-.12-.48-.28-.87-.48-1.17s-.43-.51-.7-.63c-.26-.13-.54-.19-.83-.19s-.56.06-.83.19c-.26.13-.5.34-.7.63-.2.29-.36.68-.48,1.17-.12.48-.18,1.08-.18,1.79s.06,1.31.18,1.79c.12.48.28.87.48,1.16.2.29.43.51.7.63.26.13.54.19.83.19s.56-.06.83-.19c.26-.13.5-.34.7-.63s.36-.68.48-1.16c.12-.48.18-1.08.18-1.79Z"/><path class="cls-3" d="M132.02,186.41c0,.82-.09,1.52-.26,2.12-.17.6-.42,1.09-.72,1.48-.3.39-.66.68-1.08.87s-.86.29-1.33.29-.92-.1-1.33-.29-.77-.48-1.07-.87-.54-.88-.71-1.48c-.17-.6-.26-1.3-.26-2.12s.09-1.52.26-2.12c.17-.6.41-1.09.71-1.48.3-.39.66-.68,1.07-.88.41-.19.85-.29,1.33-.29s.92.1,1.33.29c.41.19.77.48,1.08.88.3.39.54.89.72,1.48.18.6.26,1.3.26,2.12ZM130.81,186.41c0-.71-.06-1.31-.18-1.79-.12-.48-.28-.87-.48-1.17s-.43-.51-.7-.63c-.26-.13-.54-.19-.83-.19s-.56.06-.83.19c-.26.13-.5.34-.7.63-.2.29-.36.68-.48,1.17-.12.48-.18,1.08-.18,1.79s.06,1.31.18,1.79c.12.48.28.87.48,1.16.2.29.43.51.7.63.26.13.54.19.83.19s.56-.06.83-.19c.26-.13.5-.34.7-.63s.36-.68.48-1.16c.12-.48.18-1.08.18-1.79Z"/><path class="cls-3" d="M133.1,190.35c0-.11.02-.22.06-.32s.1-.19.17-.26c.07-.07.16-.13.26-.17.1-.04.21-.07.32-.07s.22.02.32.07c.1.04.19.1.26.17.07.07.13.16.18.26.04.1.06.21.06.32s-.02.22-.06.32c-.04.1-.1.18-.18.26s-.16.13-.26.17c-.1.04-.21.06-.32.06s-.22-.02-.32-.06c-.1-.04-.18-.1-.26-.17-.07-.07-.13-.16-.17-.26s-.06-.2-.06-.32Z"/><path class="cls-3" d="M142.57,186.41c0,.82-.09,1.52-.26,2.12-.18.6-.42,1.09-.72,1.48-.3.39-.66.68-1.08.87-.41.19-.86.29-1.33.29s-.92-.1-1.33-.29c-.41-.19-.77-.48-1.07-.87-.3-.39-.54-.88-.72-1.48-.17-.6-.26-1.3-.26-2.12s.09-1.52.26-2.12c.17-.6.41-1.09.72-1.48.3-.39.66-.68,1.07-.88.41-.19.85-.29,1.33-.29s.92.1,1.33.29c.41.19.77.48,1.08.88.3.39.54.89.72,1.48.17.6.26,1.3.26,2.12ZM141.37,186.41c0-.71-.06-1.31-.18-1.79-.12-.48-.28-.87-.48-1.17-.2-.29-.43-.51-.7-.63-.26-.13-.54-.19-.83-.19s-.56.06-.83.19c-.26.13-.5.34-.7.63s-.36.68-.48,1.17c-.12.48-.18,1.08-.18,1.79s.06,1.31.18,1.79c.12.48.28.87.48,1.16s.43.51.7.63c.26.13.54.19.83.19s.56-.06.83-.19c.26-.13.5-.34.7-.63.2-.29.36-.68.48-1.16.12-.48.18-1.08.18-1.79Z"/><path class="cls-3" d="M145.2,185.27c.49-.1.93-.16,1.34-.16.49,0,.92.07,1.29.21.37.14.68.34.93.59.25.25.44.55.57.89.13.34.19.71.19,1.12,0,.49-.09.94-.26,1.34-.17.4-.41.74-.71,1.02-.3.28-.66.5-1.06.65-.41.15-.85.23-1.32.23-.27,0-.54-.03-.79-.08-.25-.05-.49-.13-.71-.22-.22-.09-.42-.19-.61-.31s-.35-.24-.49-.37l.36-.49c.08-.11.18-.17.31-.17.09,0,.18.03.29.1s.24.14.4.22c.16.08.34.16.55.22s.46.1.75.1c.33,0,.62-.05.88-.16.26-.1.48-.25.67-.45.19-.19.33-.42.43-.69s.15-.57.15-.9c0-.29-.04-.55-.13-.79-.08-.23-.21-.43-.38-.6-.17-.17-.38-.29-.64-.38s-.55-.14-.9-.14c-.23,0-.48.02-.73.06s-.51.1-.78.19l-.73-.21.75-4.35h4.41v.51c0,.17-.05.3-.15.41-.1.11-.28.16-.52.16h-2.92l-.43,2.44Z"/><path class="cls-3" d="M249.02,183.46c0,.82-.09,1.52-.26,2.12-.18.6-.42,1.09-.72,1.48-.3.39-.66.68-1.08.87-.41.19-.86.29-1.33.29s-.92-.1-1.33-.29c-.41-.19-.77-.48-1.07-.87-.3-.39-.54-.88-.72-1.48-.17-.6-.26-1.3-.26-2.12s.09-1.52.26-2.12c.17-.6.41-1.09.72-1.48.3-.39.66-.68,1.07-.88.41-.19.85-.29,1.33-.29s.92.1,1.33.29c.41.19.77.48,1.08.88.3.39.54.89.72,1.48.17.6.26,1.3.26,2.12ZM247.81,183.46c0-.71-.06-1.31-.18-1.79-.12-.48-.28-.87-.48-1.17-.2-.29-.43-.51-.7-.63-.26-.13-.54-.19-.83-.19s-.56.06-.83.19c-.26.13-.5.34-.7.63s-.36.68-.48,1.17c-.12.48-.18,1.08-.18,1.79s.06,1.31.18,1.79c.12.48.28.87.48,1.16s.43.51.7.63c.26.13.54.19.83.19s.56-.06.83-.19c.26-.13.5-.34.7-.63.2-.29.36-.68.48-1.16.12-.48.18-1.08.18-1.79Z"/><path class="cls-3" d="M250.1,187.4c0-.11.02-.22.06-.32s.1-.19.17-.26c.07-.07.16-.13.26-.17.1-.04.21-.07.32-.07s.22.02.32.07c.1.04.19.1.26.17s.13.16.18.26.07.21.07.32-.02.22-.07.32-.1.18-.18.26c-.07.07-.16.13-.26.17-.1.04-.21.06-.32.06s-.22-.02-.32-.06c-.1-.04-.19-.1-.26-.17-.07-.07-.13-.16-.17-.26s-.06-.2-.06-.32Z"/><path class="cls-3" d="M258.49,187.23v.88h-4.99v-.88h2v-6.35c0-.19,0-.38.02-.58l-1.66,1.42c-.06.05-.11.08-.17.09-.06.01-.11.01-.16,0-.05,0-.09-.03-.13-.05s-.07-.05-.09-.08l-.36-.5,2.78-2.4h.94v8.45h1.83Z"/><path class="cls-3" d="M266.02,183.46c0,.82-.09,1.52-.26,2.12-.17.6-.42,1.09-.72,1.48-.3.39-.66.68-1.08.87s-.86.29-1.33.29-.92-.1-1.33-.29-.77-.48-1.07-.87-.54-.88-.71-1.48c-.17-.6-.26-1.3-.26-2.12s.09-1.52.26-2.12c.17-.6.41-1.09.71-1.48.3-.39.66-.68,1.07-.88.41-.19.85-.29,1.33-.29s.92.1,1.33.29c.41.19.77.48,1.08.88.3.39.54.89.72,1.48.18.6.26,1.3.26,2.12ZM264.81,183.46c0-.71-.06-1.31-.18-1.79-.12-.48-.28-.87-.48-1.17s-.43-.51-.7-.63c-.26-.13-.54-.19-.83-.19s-.56.06-.83.19c-.26.13-.5.34-.7.63-.2.29-.36.68-.48,1.17-.12.48-.18,1.08-.18,1.79s.06,1.31.18,1.79c.12.48.28.87.48,1.16.2.29.43.51.7.63.26.13.54.19.83.19s.56-.06.83-.19c.26-.13.5-.34.7-.63s.36-.68.48-1.16c.12-.48.18-1.08.18-1.79Z"/><path class="cls-3" d="M358.44,183.07c0,.82-.09,1.52-.26,2.12s-.42,1.09-.72,1.48c-.3.39-.66.68-1.08.87-.41.19-.86.29-1.33.29s-.92-.1-1.33-.29c-.41-.19-.77-.48-1.07-.87-.3-.39-.54-.88-.71-1.48-.17-.6-.26-1.3-.26-2.12s.09-1.52.26-2.12c.17-.6.41-1.09.71-1.48.3-.39.66-.68,1.07-.88.41-.19.85-.29,1.33-.29s.92.1,1.33.29c.41.19.77.48,1.08.88.3.39.54.89.72,1.48.18.6.26,1.3.26,2.12ZM357.24,183.07c0-.71-.06-1.31-.18-1.79-.12-.48-.28-.87-.48-1.17-.2-.29-.43-.51-.7-.63s-.54-.19-.83-.19-.56.06-.83.19c-.26.13-.5.34-.7.63s-.36.68-.48,1.17c-.12.48-.18,1.08-.18,1.79s.06,1.31.18,1.79c.12.48.28.87.48,1.16s.43.51.7.63c.26.13.54.19.83.19s.56-.06.83-.19.5-.34.7-.63c.2-.29.36-.68.48-1.16.12-.48.18-1.08.18-1.79Z"/><path class="cls-3" d="M359.52,187.01c0-.11.02-.22.06-.32s.1-.19.17-.26c.07-.07.16-.13.26-.17.1-.04.21-.07.32-.07s.22.02.32.07c.1.04.19.1.26.17.07.07.13.16.18.26.04.1.06.21.06.32s-.02.22-.06.32c-.04.1-.1.18-.18.26s-.16.13-.26.17c-.1.04-.21.06-.32.06s-.22-.02-.32-.06c-.1-.04-.18-.1-.26-.17-.07-.07-.13-.16-.17-.26s-.06-.2-.06-.32Z"/><path class="cls-3" d="M367.92,186.84v.88h-4.99v-.88h2v-6.35c0-.19,0-.38.02-.58l-1.66,1.42c-.06.05-.11.08-.17.09-.06.01-.11.01-.16,0s-.09-.03-.13-.05-.07-.05-.09-.08l-.36-.5,2.78-2.4h.94v8.45h1.83Z"/><path class="cls-3" d="M370.97,181.92c.48-.1.93-.16,1.34-.16.49,0,.92.07,1.29.21.37.14.68.34.93.59.25.25.44.55.56.89.13.34.19.71.19,1.12,0,.49-.08.94-.26,1.34-.17.4-.41.74-.71,1.02-.3.28-.65.5-1.06.65-.41.15-.85.23-1.32.23-.27,0-.54-.03-.79-.08-.25-.05-.49-.13-.71-.22-.22-.09-.42-.19-.61-.31-.19-.12-.35-.24-.49-.37l.36-.49c.08-.11.18-.17.3-.17.09,0,.18.03.29.1s.24.14.4.22c.16.08.34.16.55.22.21.07.46.1.75.1.33,0,.62-.05.88-.16.26-.1.48-.25.67-.45.19-.19.33-.42.43-.69s.15-.57.15-.9c0-.29-.04-.55-.13-.79s-.21-.43-.38-.6c-.17-.17-.38-.29-.64-.38s-.55-.14-.9-.14c-.23,0-.48.02-.73.06s-.51.1-.78.19l-.73-.21.75-4.35h4.41v.51c0,.17-.05.3-.15.41s-.28.16-.52.16h-2.92l-.43,2.44Z"/><path class="cls-3" d="M49.07,210.49l-2.91,9.31h-1.13l-2.36-7.1c-.02-.07-.04-.14-.06-.22-.02-.08-.04-.16-.06-.25-.02.09-.04.17-.06.25-.02.08-.04.15-.07.22l-2.37,7.1h-1.13l-2.91-9.31h1.05c.11,0,.21.03.28.08.08.06.12.13.15.21l1.92,6.47c.03.12.06.24.09.38.03.13.06.28.08.43.03-.15.06-.3.09-.43s.07-.26.11-.37l2.19-6.47c.03-.07.08-.14.15-.21.08-.06.17-.09.28-.09h.36c.11,0,.2.03.27.08.07.06.12.13.16.21l2.18,6.47c.04.11.07.23.11.36.03.13.06.27.09.41.02-.14.05-.28.07-.41.03-.13.05-.25.08-.36l1.93-6.47c.02-.08.07-.15.15-.21.08-.06.17-.09.28-.09h.98Z"/><path class="cls-3" d="M55,218.88c-.14.17-.31.32-.51.45-.2.13-.41.23-.64.32-.23.08-.46.14-.71.19-.24.04-.48.06-.72.06-.46,0-.87-.08-1.26-.23-.38-.15-.71-.38-.99-.68s-.5-.66-.65-1.1c-.16-.44-.23-.94-.23-1.51,0-.46.07-.89.21-1.29.14-.4.34-.74.61-1.04.26-.29.59-.52.97-.69.38-.17.81-.25,1.29-.25.39,0,.76.07,1.09.2s.63.32.87.57.44.56.58.92.21.78.21,1.25c0,.18-.02.3-.06.36s-.11.09-.22.09h-4.4c.01.42.07.78.17,1.09s.24.56.43.77c.18.21.4.36.65.46.25.1.53.15.84.15.29,0,.54-.03.75-.1s.39-.14.54-.22c.15-.08.28-.15.38-.22s.19-.1.26-.1c.09,0,.17.04.22.11l.33.42ZM54.06,215.79c0-.27-.04-.51-.11-.74-.08-.22-.19-.42-.33-.58-.14-.16-.32-.29-.53-.38s-.44-.13-.71-.13c-.55,0-.99.16-1.32.48-.32.32-.52.77-.6,1.34h3.6Z"/><path class="cls-3" d="M57.91,211.15c0,.11-.02.22-.07.32-.05.1-.11.18-.18.26-.08.08-.16.14-.27.18-.1.04-.21.07-.32.07s-.22-.02-.32-.07-.18-.1-.26-.18c-.07-.08-.13-.16-.17-.26-.04-.1-.07-.2-.07-.32s.02-.22.07-.32c.04-.1.1-.19.17-.27.07-.08.16-.13.26-.18.1-.04.2-.06.32-.06s.22.02.32.06c.1.04.19.1.27.18s.14.17.18.27c.04.1.07.21.07.32ZM57.67,213.22v6.58h-1.16v-6.58h1.16Z"/><path class="cls-3" d="M65,213.48v.43c0,.14-.09.23-.27.27l-.75.1c.15.29.22.6.22.95,0,.32-.06.61-.19.87-.12.26-.29.49-.51.67-.22.19-.48.33-.78.43-.3.1-.63.15-.99.15-.31,0-.6-.04-.87-.11-.14.09-.25.18-.32.28-.07.1-.11.2-.11.3,0,.16.06.27.19.35s.3.14.5.17c.21.04.45.06.71.07s.54.02.82.04c.28.02.55.05.82.1.27.05.5.13.71.23s.38.26.5.45c.13.19.19.44.19.74,0,.28-.07.55-.21.82-.14.26-.34.5-.61.71-.26.21-.59.37-.97.49-.38.12-.82.18-1.3.18s-.9-.05-1.26-.14c-.36-.1-.66-.22-.9-.38s-.42-.35-.54-.56-.18-.43-.18-.66c0-.33.1-.6.31-.83.2-.22.48-.41.84-.54-.2-.09-.35-.2-.46-.35-.11-.15-.17-.34-.17-.59,0-.09.02-.19.05-.29.04-.1.09-.2.16-.31s.16-.2.26-.29c.1-.09.22-.17.36-.24-.32-.18-.58-.42-.76-.72-.18-.3-.27-.65-.27-1.05,0-.32.06-.61.19-.87.12-.26.3-.49.52-.67.22-.18.48-.33.79-.43.31-.1.64-.15,1-.15.29,0,.55.03.8.09s.47.16.68.28h1.79ZM63.82,220.16c0-.16-.05-.29-.14-.39s-.21-.18-.37-.23c-.15-.06-.33-.1-.54-.12-.2-.02-.42-.04-.65-.06-.23-.01-.46-.03-.69-.04-.23-.01-.46-.03-.68-.06-.24.11-.44.25-.59.43-.15.17-.23.37-.23.6,0,.15.04.28.11.41.08.13.19.24.35.33.16.09.35.17.59.22.24.05.51.08.83.08s.59-.03.84-.08c.25-.06.46-.14.63-.24.17-.1.3-.23.39-.37s.14-.3.14-.47ZM61.74,216.59c.23,0,.44-.03.62-.1.18-.06.33-.16.45-.27.12-.12.21-.26.27-.42.06-.16.09-.34.09-.54,0-.4-.12-.72-.37-.96-.24-.24-.6-.36-1.06-.36s-.82.12-1.07.36-.37.56-.37.96c0,.2.03.37.09.54.06.16.15.3.28.42.12.12.27.21.45.27.18.07.38.1.62.1Z"/><path class="cls-3" d="M67.31,214.1c.28-.3.59-.54.94-.71.34-.18.74-.27,1.18-.27.36,0,.68.06.95.18s.5.29.69.51c.18.22.32.48.42.79.09.31.14.65.14,1.02v4.19h-1.16v-4.19c0-.5-.11-.88-.34-1.16s-.57-.41-1.04-.41c-.34,0-.66.08-.96.25s-.57.39-.82.67v4.85h-1.16v-9.57h1.16v3.87Z"/><path class="cls-3" d="M75.26,219.91c-.52,0-.92-.14-1.2-.43-.28-.29-.42-.71-.42-1.25v-4.03h-.79c-.07,0-.13-.02-.18-.06-.05-.04-.07-.11-.07-.19v-.46l1.08-.14.27-2.03c.01-.07.04-.12.09-.16.04-.04.1-.06.18-.06h.58v2.27h1.9v.84h-1.9v3.95c0,.28.07.48.2.62s.31.2.52.2c.12,0,.23-.02.32-.05.09-.03.17-.07.23-.11.06-.04.12-.08.17-.11.04-.03.08-.05.12-.05.06,0,.11.04.16.11l.34.55c-.2.19-.44.33-.72.44-.28.11-.57.16-.87.16Z"/><path class="cls-3" d="M83.08,218.88c-.14.17-.31.32-.51.45-.2.13-.41.23-.64.32-.23.08-.46.14-.71.19-.24.04-.48.06-.72.06-.46,0-.87-.08-1.26-.23-.38-.15-.71-.38-.99-.68s-.5-.66-.65-1.1c-.16-.44-.23-.94-.23-1.51,0-.46.07-.89.21-1.29.14-.4.34-.74.61-1.04.26-.29.59-.52.97-.69.38-.17.81-.25,1.29-.25.39,0,.76.07,1.09.2s.63.32.87.57.44.56.58.92.21.78.21,1.25c0,.18-.02.3-.06.36s-.11.09-.22.09h-4.4c.01.42.07.78.17,1.09s.24.56.43.77c.18.21.4.36.65.46.25.1.53.15.84.15.29,0,.54-.03.75-.1s.39-.14.54-.22c.15-.08.28-.15.38-.22s.19-.1.26-.1c.09,0,.17.04.22.11l.33.42ZM82.14,215.79c0-.27-.04-.51-.11-.74-.08-.22-.19-.42-.33-.58-.14-.16-.32-.29-.53-.38s-.44-.13-.71-.13c-.55,0-.99.16-1.32.48-.32.32-.52.77-.6,1.34h3.6Z"/><path class="cls-3" d="M90.05,210.23v9.57h-.69c-.17,0-.27-.08-.31-.24l-.1-.8c-.28.34-.6.61-.96.82-.36.21-.78.31-1.25.31-.38,0-.72-.07-1.03-.22-.31-.14-.57-.36-.79-.64-.22-.28-.38-.63-.5-1.05-.12-.42-.18-.9-.18-1.45,0-.49.07-.94.2-1.36.13-.42.32-.78.56-1.09.24-.31.54-.55.89-.72.35-.17.75-.26,1.19-.26.4,0,.75.07,1.04.2.29.14.54.33.77.57v-3.65h1.16ZM88.9,214.79c-.22-.29-.45-.49-.7-.61-.25-.11-.53-.17-.85-.17-.61,0-1.08.22-1.41.66s-.49,1.06-.49,1.87c0,.43.04.8.11,1.1.07.31.18.56.33.75.14.2.32.34.53.43s.44.14.71.14c.38,0,.71-.09,1-.26.28-.17.54-.42.78-.73v-3.18Z"/><path class="cls-3" d="M96.31,214.54c.21-.45.46-.8.77-1.06.3-.25.67-.38,1.11-.38.14,0,.27.01.4.04s.24.08.34.14l-.08.86c-.03.11-.09.16-.19.16-.06,0-.15-.01-.27-.04-.12-.03-.25-.04-.4-.04-.21,0-.39.03-.56.09-.16.06-.31.15-.44.27-.13.12-.24.27-.34.44-.1.18-.19.38-.28.6v4.16h-1.16v-6.58h.66c.13,0,.21.02.26.07.05.05.08.13.1.25l.08,1Z"/><path class="cls-3" d="M105.21,218.88c-.14.17-.31.32-.51.45-.2.13-.41.23-.64.32-.23.08-.46.14-.71.19-.24.04-.48.06-.72.06-.46,0-.87-.08-1.26-.23-.38-.15-.71-.38-.99-.68s-.5-.66-.65-1.1c-.16-.44-.23-.94-.23-1.51,0-.46.07-.89.21-1.29.14-.4.34-.74.61-1.04.26-.29.59-.52.97-.69.38-.17.81-.25,1.29-.25.39,0,.76.07,1.09.2s.63.32.87.57.44.56.58.92.21.78.21,1.25c0,.18-.02.3-.06.36s-.11.09-.22.09h-4.4c.01.42.07.78.17,1.09s.24.56.43.77c.18.21.4.36.65.46.25.1.53.15.84.15.29,0,.54-.03.75-.1s.39-.14.54-.22c.15-.08.28-.15.38-.22s.19-.1.26-.1c.09,0,.17.04.22.11l.33.42ZM104.27,215.79c0-.27-.04-.51-.11-.74-.08-.22-.19-.42-.33-.58-.14-.16-.32-.29-.53-.38s-.44-.13-.71-.13c-.55,0-.99.16-1.32.48-.32.32-.52.77-.6,1.34h3.6Z"/><path class="cls-3" d="M112.21,213.48v.43c0,.14-.09.23-.27.27l-.75.1c.15.29.22.6.22.95,0,.32-.06.61-.19.87-.12.26-.29.49-.51.67-.22.19-.48.33-.78.43-.3.1-.63.15-.99.15-.31,0-.6-.04-.87-.11-.14.09-.25.18-.32.28-.07.1-.11.2-.11.3,0,.16.06.27.19.35s.3.14.5.17c.21.04.45.06.71.07s.54.02.82.04c.28.02.55.05.82.1.27.05.5.13.71.23s.38.26.5.45c.13.19.19.44.19.74,0,.28-.07.55-.21.82-.14.26-.34.5-.61.71-.26.21-.59.37-.97.49-.38.12-.82.18-1.3.18s-.9-.05-1.26-.14c-.36-.1-.66-.22-.9-.38s-.42-.35-.54-.56-.18-.43-.18-.66c0-.33.1-.6.31-.83.2-.22.48-.41.84-.54-.2-.09-.35-.2-.46-.35-.11-.15-.17-.34-.17-.59,0-.09.02-.19.05-.29.04-.1.09-.2.16-.31s.16-.2.26-.29c.1-.09.22-.17.36-.24-.32-.18-.58-.42-.76-.72-.18-.3-.27-.65-.27-1.05,0-.32.06-.61.19-.87.12-.26.3-.49.52-.67.22-.18.48-.33.79-.43.31-.1.64-.15,1-.15.29,0,.55.03.8.09s.47.16.68.28h1.79ZM111.04,220.16c0-.16-.05-.29-.14-.39s-.21-.18-.37-.23c-.15-.06-.33-.1-.54-.12-.2-.02-.42-.04-.65-.06-.23-.01-.46-.03-.69-.04-.23-.01-.46-.03-.68-.06-.24.11-.44.25-.59.43-.15.17-.23.37-.23.6,0,.15.04.28.11.41.08.13.19.24.35.33.16.09.35.17.59.22.24.05.51.08.83.08s.59-.03.84-.08c.25-.06.46-.14.63-.24.17-.1.3-.23.39-.37s.14-.3.14-.47ZM108.95,216.59c.23,0,.44-.03.62-.1.18-.06.33-.16.45-.27.12-.12.21-.26.27-.42.06-.16.09-.34.09-.54,0-.4-.12-.72-.37-.96-.24-.24-.6-.36-1.06-.36s-.82.12-1.07.36-.37.56-.37.96c0,.2.03.37.09.54.06.16.15.3.28.42.12.12.27.21.45.27.18.07.38.1.62.1Z"/><path class="cls-3" d="M114.46,214.54c.21-.45.46-.8.77-1.06.3-.25.67-.38,1.11-.38.14,0,.27.01.4.04s.24.08.34.14l-.08.86c-.03.11-.09.16-.19.16-.06,0-.15-.01-.27-.04-.12-.03-.25-.04-.4-.04-.21,0-.39.03-.56.09-.16.06-.31.15-.44.27-.13.12-.24.27-.34.44-.1.18-.19.38-.28.6v4.16h-1.16v-6.58h.66c.13,0,.21.02.26.07.05.05.08.13.1.25l.08,1Z"/><path class="cls-3" d="M123.35,218.88c-.14.17-.31.32-.51.45-.2.13-.41.23-.64.32-.23.08-.46.14-.71.19-.24.04-.48.06-.72.06-.46,0-.87-.08-1.26-.23-.38-.15-.71-.38-.99-.68s-.5-.66-.65-1.1c-.16-.44-.23-.94-.23-1.51,0-.46.07-.89.21-1.29.14-.4.34-.74.61-1.04.26-.29.59-.52.97-.69.38-.17.81-.25,1.29-.25.39,0,.76.07,1.09.2s.63.32.87.57.44.56.58.92.21.78.21,1.25c0,.18-.02.3-.06.36s-.11.09-.22.09h-4.4c.01.42.07.78.17,1.09s.24.56.43.77c.18.21.4.36.65.46.25.1.53.15.84.15.29,0,.54-.03.75-.1s.39-.14.54-.22c.15-.08.28-.15.38-.22s.19-.1.26-.1c.09,0,.17.04.22.11l.33.42ZM122.41,215.79c0-.27-.04-.51-.11-.74-.08-.22-.19-.42-.33-.58-.14-.16-.32-.29-.53-.38s-.44-.13-.71-.13c-.55,0-.99.16-1.32.48-.32.32-.52.77-.6,1.34h3.6Z"/><path class="cls-3" d="M128.72,214.31c-.05.1-.13.14-.24.14-.06,0-.14-.02-.22-.07s-.18-.1-.3-.16-.26-.11-.43-.16c-.16-.05-.36-.08-.58-.08-.19,0-.37.03-.53.08-.16.05-.29.12-.4.2-.11.09-.2.19-.25.3s-.09.24-.09.37c0,.17.05.31.15.42.1.11.23.21.39.29s.34.16.55.22c.2.06.41.13.63.2.21.07.42.15.63.24s.39.2.55.33.29.29.39.48.15.42.15.68c0,.3-.05.58-.16.84-.11.26-.27.48-.48.67s-.47.34-.78.45-.66.16-1.07.16c-.46,0-.88-.07-1.25-.22-.37-.15-.69-.34-.95-.58l.27-.44c.03-.06.08-.1.12-.13s.11-.05.18-.05c.08,0,.16.03.25.09s.19.13.32.2c.12.07.27.14.45.2.18.06.4.09.66.09.22,0,.42-.03.59-.09s.31-.14.42-.24c.11-.1.2-.21.25-.34.05-.13.08-.27.08-.42,0-.18-.05-.33-.15-.45-.1-.12-.23-.22-.39-.3-.16-.08-.34-.16-.55-.22-.21-.06-.42-.13-.63-.2-.21-.07-.42-.15-.63-.24s-.39-.2-.55-.33c-.16-.13-.29-.3-.39-.5-.1-.2-.15-.44-.15-.72,0-.25.05-.49.16-.72.1-.23.26-.44.46-.61s.44-.32.73-.42c.29-.1.62-.16,1-.16.43,0,.82.07,1.17.21.34.14.64.32.89.56l-.26.42Z"/><path class="cls-3" d="M134.28,214.31c-.05.1-.13.14-.24.14-.06,0-.14-.02-.22-.07s-.18-.1-.3-.16-.26-.11-.43-.16c-.16-.05-.36-.08-.58-.08-.19,0-.37.03-.53.08-.16.05-.29.12-.4.2-.11.09-.2.19-.25.3s-.09.24-.09.37c0,.17.05.31.15.42.1.11.23.21.39.29s.34.16.55.22c.2.06.41.13.63.2.21.07.42.15.63.24s.39.2.55.33.29.29.39.48.15.42.15.68c0,.3-.05.58-.16.84-.11.26-.27.48-.48.67s-.47.34-.78.45-.66.16-1.07.16c-.46,0-.88-.07-1.25-.22-.37-.15-.69-.34-.95-.58l.27-.44c.03-.06.08-.1.12-.13s.11-.05.18-.05c.08,0,.16.03.25.09s.19.13.32.2c.12.07.27.14.45.2.18.06.4.09.66.09.22,0,.42-.03.59-.09s.31-.14.42-.24c.11-.1.2-.21.25-.34.05-.13.08-.27.08-.42,0-.18-.05-.33-.15-.45-.1-.12-.23-.22-.39-.3-.16-.08-.34-.16-.55-.22-.21-.06-.42-.13-.63-.2-.21-.07-.42-.15-.63-.24s-.39-.2-.55-.33c-.16-.13-.29-.3-.39-.5-.1-.2-.15-.44-.15-.72,0-.25.05-.49.16-.72.1-.23.26-.44.46-.61s.44-.32.73-.42c.29-.1.62-.16,1-.16.43,0,.82.07,1.17.21.34.14.64.32.89.56l-.26.42Z"/><path class="cls-3" d="M137.4,211.15c0,.11-.02.22-.07.32-.05.1-.11.18-.18.26-.08.08-.16.14-.27.18-.1.04-.21.07-.32.07s-.22-.02-.32-.07-.18-.1-.26-.18c-.07-.08-.13-.16-.17-.26-.04-.1-.07-.2-.07-.32s.02-.22.07-.32c.04-.1.1-.19.17-.27.07-.08.16-.13.26-.18.1-.04.2-.06.32-.06s.22.02.32.06c.1.04.19.1.27.18s.14.17.18.27c.04.1.07.21.07.32ZM137.16,213.22v6.58h-1.16v-6.58h1.16Z"/><path class="cls-3" d="M141.73,213.12c.48,0,.91.08,1.3.24s.71.39.99.68c.27.29.48.65.63,1.07.14.42.22.88.22,1.4s-.07.99-.22,1.4c-.15.42-.35.77-.63,1.07-.27.29-.6.52-.99.68s-.82.24-1.3.24-.92-.08-1.31-.24-.72-.38-.99-.68c-.27-.29-.48-.65-.63-1.07s-.22-.88-.22-1.4.07-.98.22-1.4.35-.77.63-1.07c.27-.29.6-.52.99-.68s.83-.24,1.31-.24ZM141.73,218.99c.65,0,1.13-.22,1.46-.65.32-.44.48-1.04.48-1.82s-.16-1.4-.48-1.83c-.32-.44-.81-.66-1.46-.66-.33,0-.62.06-.86.17-.25.11-.45.28-.61.49-.16.21-.28.47-.36.78s-.12.66-.12,1.05c0,.78.16,1.39.48,1.82s.81.65,1.47.65Z"/><path class="cls-3" d="M147.38,214.18c.14-.16.29-.31.46-.44.16-.13.33-.24.51-.33.18-.09.37-.16.57-.21s.42-.08.65-.08c.36,0,.68.06.95.18s.5.29.69.51c.18.22.32.48.42.79.09.31.14.65.14,1.02v4.19h-1.16v-4.19c0-.5-.11-.88-.34-1.16s-.57-.41-1.04-.41c-.34,0-.66.08-.96.25s-.57.39-.82.67v4.85h-1.16v-6.58h.7c.16,0,.27.08.31.24l.09.71Z"/><path class="cls-3" d="M157.54,215.72c0,.93.12,1.83.35,2.7.24.88.58,1.71,1.04,2.5.07.13.09.24.05.31-.03.07-.08.13-.15.17l-.51.31c-.32-.5-.6-.99-.83-1.48-.23-.49-.41-.98-.55-1.48s-.24-.99-.31-1.49c-.07-.5-.1-1.01-.1-1.54s.03-1.04.1-1.54c.06-.5.17-1,.31-1.49.14-.49.33-.98.55-1.47.23-.49.5-.99.83-1.49l.51.32c.07.04.12.1.15.17.04.07.02.17-.05.3-.46.79-.8,1.62-1.04,2.5-.24.88-.35,1.78-.35,2.7Z"/><path class="cls-3" d="M161.68,219.8h-1.26v-9.31h1.26v9.31Z"/><path class="cls-3" d="M166.73,210.49c.59,0,1.1.07,1.54.21.44.14.8.33,1.08.58.29.25.5.55.64.91.14.36.21.75.21,1.19s-.08.83-.23,1.19c-.15.36-.37.67-.67.93-.29.26-.65.46-1.09.61-.43.15-.93.22-1.49.22h-1.5v3.48h-1.25v-9.31h2.75ZM166.73,215.32c.36,0,.68-.05.95-.14.27-.1.51-.23.7-.4.19-.17.33-.38.43-.61.09-.24.14-.5.14-.79,0-.59-.18-1.06-.55-1.39s-.92-.5-1.67-.5h-1.5v3.83h1.5Z"/><path class="cls-3" d="M178.18,211.55h-3.02v8.25h-1.25v-8.25h-3.02v-1.06h7.29v1.06Z"/><path class="cls-3" d="M192.04,210.49l-2.91,9.31h-1.13l-2.36-7.1c-.02-.07-.04-.14-.06-.22-.02-.08-.04-.16-.06-.25-.02.09-.04.17-.06.25-.02.08-.04.15-.07.22l-2.37,7.1h-1.13l-2.91-9.31h1.05c.11,0,.21.03.28.08.08.06.12.13.15.21l1.92,6.47c.03.12.06.24.09.38.03.13.06.28.08.43.03-.15.06-.3.09-.43s.07-.26.11-.37l2.19-6.47c.03-.07.08-.14.15-.21.08-.06.17-.09.28-.09h.36c.11,0,.2.03.27.08.07.06.12.13.16.21l2.18,6.47c.04.11.07.23.11.36.03.13.06.27.09.41.02-.14.05-.28.07-.41.03-.13.05-.25.08-.36l1.93-6.47c.02-.08.07-.15.15-.21.08-.06.17-.09.28-.09h.98Z"/><path class="cls-3" d="M194.41,215.72c0-.93-.12-1.83-.35-2.7-.24-.88-.58-1.71-1.04-2.5-.03-.07-.06-.12-.06-.17,0-.05,0-.09,0-.13.01-.04.03-.07.06-.1.03-.03.06-.05.09-.07l.51-.32c.33.5.6,1,.83,1.49.23.49.41.98.55,1.47.14.49.24.99.31,1.49.07.5.1,1.02.1,1.54s-.03,1.04-.1,1.54c-.06.5-.17,1-.31,1.49s-.33.99-.55,1.48c-.23.49-.5.98-.83,1.48l-.51-.31s-.07-.05-.09-.08c-.03-.03-.05-.06-.06-.1-.01-.04-.01-.08,0-.13,0-.05.03-.11.06-.18.46-.79.8-1.62,1.04-2.5.24-.88.35-1.78.35-2.7Z"/><path class="cls-3" d="M232.33,219.8h-1.12c-.23,0-.4-.09-.51-.27l-2.42-3.33c-.07-.1-.15-.18-.24-.22-.08-.05-.22-.07-.39-.07h-.96v3.89h-1.25v-9.31h2.63c.59,0,1.1.06,1.53.18s.78.29,1.06.52.49.5.62.82c.13.32.2.68.2,1.07,0,.33-.05.64-.16.92-.1.29-.25.54-.45.77s-.44.42-.72.58-.61.28-.96.36c.16.09.3.22.42.4l2.72,3.7ZM228.03,215c.36,0,.69-.04.97-.13s.51-.21.7-.38c.19-.16.33-.36.43-.58.09-.23.14-.47.14-.75,0-.55-.18-.97-.55-1.25s-.91-.42-1.64-.42h-1.38v3.52h1.33Z"/><path class="cls-3" d="M238.46,218.88c-.14.17-.31.32-.51.45-.2.13-.41.23-.64.32-.23.08-.46.14-.71.19-.24.04-.48.06-.72.06-.46,0-.87-.08-1.26-.23-.38-.15-.71-.38-.99-.68s-.5-.66-.65-1.1c-.16-.44-.23-.94-.23-1.51,0-.46.07-.89.21-1.29.14-.4.34-.74.61-1.04.26-.29.59-.52.97-.69.38-.17.81-.25,1.29-.25.39,0,.76.07,1.09.2s.63.32.87.57.44.56.58.92.21.78.21,1.25c0,.18-.02.3-.06.36s-.11.09-.22.09h-4.4c.01.42.07.78.17,1.09s.24.56.43.77c.18.21.4.36.65.46.25.1.53.15.84.15.29,0,.54-.03.75-.1s.39-.14.54-.22c.15-.08.28-.15.38-.22s.19-.1.26-.1c.09,0,.17.04.22.11l.33.42ZM237.52,215.79c0-.27-.04-.51-.11-.74-.08-.22-.19-.42-.33-.58-.14-.16-.32-.29-.53-.38s-.44-.13-.71-.13c-.55,0-.99.16-1.32.48-.32.32-.52.77-.6,1.34h3.6Z"/><path class="cls-3" d="M245.46,213.48v.43c0,.14-.09.23-.27.27l-.75.1c.15.29.22.6.22.95,0,.32-.06.61-.19.87-.12.26-.29.49-.51.67-.22.19-.48.33-.78.43-.3.1-.63.15-.99.15-.31,0-.6-.04-.87-.11-.14.09-.25.18-.32.28-.07.1-.11.2-.11.3,0,.16.06.27.19.35s.3.14.5.17c.21.04.45.06.71.07s.54.02.82.04c.28.02.55.05.82.1.27.05.5.13.71.23s.38.26.5.45c.13.19.19.44.19.74,0,.28-.07.55-.21.82-.14.26-.34.5-.61.71-.26.21-.59.37-.97.49-.38.12-.82.18-1.3.18s-.9-.05-1.26-.14c-.36-.1-.66-.22-.9-.38s-.42-.35-.54-.56-.18-.43-.18-.66c0-.33.1-.6.31-.83.2-.22.48-.41.84-.54-.2-.09-.35-.2-.46-.35-.11-.15-.17-.34-.17-.59,0-.09.02-.19.05-.29.04-.1.09-.2.16-.31s.16-.2.26-.29c.1-.09.22-.17.36-.24-.32-.18-.58-.42-.76-.72-.18-.3-.27-.65-.27-1.05,0-.32.06-.61.19-.87.12-.26.3-.49.52-.67.22-.18.48-.33.79-.43.31-.1.64-.15,1-.15.29,0,.55.03.8.09s.47.16.68.28h1.79ZM244.29,220.16c0-.16-.05-.29-.14-.39s-.21-.18-.37-.23c-.15-.06-.33-.1-.54-.12-.2-.02-.42-.04-.65-.06-.23-.01-.46-.03-.69-.04-.23-.01-.46-.03-.68-.06-.24.11-.44.25-.59.43-.15.17-.23.37-.23.6,0,.15.04.28.11.41.08.13.19.24.35.33.16.09.35.17.59.22.24.05.51.08.83.08s.59-.03.84-.08c.25-.06.46-.14.63-.24.17-.1.3-.23.39-.37s.14-.3.14-.47ZM242.2,216.59c.23,0,.44-.03.62-.1.18-.06.33-.16.45-.27.12-.12.21-.26.27-.42.06-.16.09-.34.09-.54,0-.4-.12-.72-.37-.96-.24-.24-.6-.36-1.06-.36s-.82.12-1.07.36-.37.56-.37.96c0,.2.03.37.09.54.06.16.15.3.28.42.12.12.27.21.45.27.18.07.38.1.62.1Z"/><path class="cls-3" d="M247.71,214.54c.21-.45.46-.8.77-1.06.3-.25.67-.38,1.11-.38.14,0,.27.01.4.04s.24.08.34.14l-.08.86c-.03.11-.09.16-.19.16-.06,0-.15-.01-.27-.04-.12-.03-.25-.04-.4-.04-.21,0-.39.03-.56.09-.16.06-.31.15-.44.27-.13.12-.24.27-.34.44-.1.18-.19.38-.28.6v4.16h-1.16v-6.58h.66c.13,0,.21.02.26.07.05.05.08.13.1.25l.08,1Z"/><path class="cls-3" d="M256.6,218.88c-.14.17-.31.32-.51.45-.2.13-.41.23-.64.32-.23.08-.46.14-.71.19-.24.04-.48.06-.72.06-.46,0-.87-.08-1.26-.23-.38-.15-.71-.38-.99-.68s-.5-.66-.65-1.1c-.16-.44-.23-.94-.23-1.51,0-.46.07-.89.21-1.29.14-.4.34-.74.61-1.04.26-.29.59-.52.97-.69.38-.17.81-.25,1.29-.25.39,0,.76.07,1.09.2s.63.32.87.57.44.56.58.92.21.78.21,1.25c0,.18-.02.3-.06.36s-.11.09-.22.09h-4.4c.01.42.07.78.17,1.09s.24.56.43.77c.18.21.4.36.65.46.25.1.53.15.84.15.29,0,.54-.03.75-.1s.39-.14.54-.22c.15-.08.28-.15.38-.22s.19-.1.26-.1c.09,0,.17.04.22.11l.33.42ZM255.66,215.79c0-.27-.04-.51-.11-.74-.08-.22-.19-.42-.33-.58-.14-.16-.32-.29-.53-.38s-.44-.13-.71-.13c-.55,0-.99.16-1.32.48-.32.32-.52.77-.6,1.34h3.6Z"/><path class="cls-3" d="M261.97,214.31c-.05.1-.13.14-.24.14-.06,0-.14-.02-.22-.07s-.18-.1-.3-.16-.26-.11-.43-.16c-.16-.05-.36-.08-.58-.08-.19,0-.37.03-.53.08-.16.05-.29.12-.4.2-.11.09-.2.19-.25.3s-.09.24-.09.37c0,.17.05.31.15.42.1.11.23.21.39.29s.34.16.55.22c.2.06.41.13.63.2.21.07.42.15.63.24s.39.2.55.33.29.29.39.48.15.42.15.68c0,.3-.05.58-.16.84-.11.26-.27.48-.48.67s-.47.34-.78.45-.66.16-1.07.16c-.46,0-.88-.07-1.25-.22-.37-.15-.69-.34-.95-.58l.27-.44c.03-.06.08-.1.12-.13s.11-.05.18-.05c.08,0,.16.03.25.09s.19.13.32.2c.12.07.27.14.45.2.18.06.4.09.66.09.22,0,.42-.03.59-.09s.31-.14.42-.24c.11-.1.2-.21.25-.34.05-.13.08-.27.08-.42,0-.18-.05-.33-.15-.45-.1-.12-.23-.22-.39-.3-.16-.08-.34-.16-.55-.22-.21-.06-.42-.13-.63-.2-.21-.07-.42-.15-.63-.24s-.39-.2-.55-.33c-.16-.13-.29-.3-.39-.5-.1-.2-.15-.44-.15-.72,0-.25.05-.49.16-.72.1-.23.26-.44.46-.61s.44-.32.73-.42c.29-.1.62-.16,1-.16.43,0,.82.07,1.17.21.34.14.64.32.89.56l-.26.42Z"/><path class="cls-3" d="M267.53,214.31c-.05.1-.13.14-.24.14-.06,0-.14-.02-.22-.07s-.18-.1-.3-.16-.26-.11-.43-.16c-.16-.05-.36-.08-.58-.08-.19,0-.37.03-.53.08-.16.05-.29.12-.4.2-.11.09-.2.19-.25.3s-.09.24-.09.37c0,.17.05.31.15.42.1.11.23.21.39.29s.34.16.55.22c.2.06.41.13.63.2.21.07.42.15.63.24s.39.2.55.33.29.29.39.48.15.42.15.68c0,.3-.05.58-.16.84-.11.26-.27.48-.48.67s-.47.34-.78.45-.66.16-1.07.16c-.46,0-.88-.07-1.25-.22-.37-.15-.69-.34-.95-.58l.27-.44c.03-.06.08-.1.12-.13s.11-.05.18-.05c.08,0,.16.03.25.09s.19.13.32.2c.12.07.27.14.45.2.18.06.4.09.66.09.22,0,.42-.03.59-.09s.31-.14.42-.24c.11-.1.2-.21.25-.34.05-.13.08-.27.08-.42,0-.18-.05-.33-.15-.45-.1-.12-.23-.22-.39-.3-.16-.08-.34-.16-.55-.22-.21-.06-.42-.13-.63-.2-.21-.07-.42-.15-.63-.24s-.39-.2-.55-.33c-.16-.13-.29-.3-.39-.5-.1-.2-.15-.44-.15-.72,0-.25.05-.49.16-.72.1-.23.26-.44.46-.61s.44-.32.73-.42c.29-.1.62-.16,1-.16.43,0,.82.07,1.17.21.34.14.64.32.89.56l-.26.42Z"/><path class="cls-3" d="M270.65,211.15c0,.11-.02.22-.07.32-.05.1-.11.18-.18.26-.08.08-.16.14-.27.18-.1.04-.21.07-.32.07s-.22-.02-.32-.07-.18-.1-.26-.18c-.07-.08-.13-.16-.17-.26-.04-.1-.07-.2-.07-.32s.02-.22.07-.32c.04-.1.1-.19.17-.27.07-.08.16-.13.26-.18.1-.04.2-.06.32-.06s.22.02.32.06c.1.04.19.1.27.18s.14.17.18.27c.04.1.07.21.07.32ZM270.41,213.22v6.58h-1.16v-6.58h1.16Z"/><path class="cls-3" d="M274.98,213.12c.48,0,.91.08,1.3.24s.71.39.99.68c.27.29.48.65.63,1.07.14.42.22.88.22,1.4s-.07.99-.22,1.4c-.15.42-.35.77-.63,1.07-.27.29-.6.52-.99.68s-.82.24-1.3.24-.92-.08-1.31-.24-.72-.38-.99-.68c-.27-.29-.48-.65-.63-1.07s-.22-.88-.22-1.4.07-.98.22-1.4.35-.77.63-1.07c.27-.29.6-.52.99-.68s.83-.24,1.31-.24ZM274.98,218.99c.65,0,1.13-.22,1.46-.65.32-.44.48-1.04.48-1.82s-.16-1.4-.48-1.83c-.32-.44-.81-.66-1.46-.66-.33,0-.62.06-.86.17-.25.11-.45.28-.61.49-.16.21-.28.47-.36.78s-.12.66-.12,1.05c0,.78.16,1.39.48,1.82s.81.65,1.47.65Z"/><path class="cls-3" d="M280.63,214.18c.14-.16.29-.31.46-.44.16-.13.33-.24.51-.33.18-.09.37-.16.57-.21s.42-.08.65-.08c.36,0,.68.06.95.18s.5.29.69.51c.18.22.32.48.42.79.09.31.14.65.14,1.02v4.19h-1.16v-4.19c0-.5-.11-.88-.34-1.16s-.57-.41-1.04-.41c-.34,0-.66.08-.96.25s-.57.39-.82.67v4.85h-1.16v-6.58h.7c.16,0,.27.08.31.24l.09.71Z"/><path class="cls-3" d="M295.56,210.23v9.57h-.69c-.17,0-.27-.08-.31-.24l-.1-.8c-.28.34-.6.61-.96.82-.36.21-.78.31-1.25.31-.38,0-.72-.07-1.03-.22-.31-.14-.57-.36-.79-.64-.22-.28-.38-.63-.5-1.05-.12-.42-.18-.9-.18-1.45,0-.49.07-.94.2-1.36.13-.42.32-.78.56-1.09.24-.31.54-.55.89-.72.35-.17.75-.26,1.19-.26.4,0,.75.07,1.04.2.29.14.54.33.77.57v-3.65h1.16ZM294.41,214.79c-.22-.29-.45-.49-.7-.61-.25-.11-.53-.17-.85-.17-.61,0-1.08.22-1.41.66s-.49,1.06-.49,1.87c0,.43.04.8.11,1.1.07.31.18.56.33.75.14.2.32.34.53.43s.44.14.71.14c.38,0,.71-.09,1-.26.28-.17.54-.42.78-.73v-3.18Z"/><path class="cls-3" d="M298.79,211.15c0,.11-.02.22-.07.32-.05.1-.11.18-.18.26-.08.08-.16.14-.27.18-.1.04-.21.07-.32.07s-.22-.02-.32-.07-.18-.1-.26-.18c-.07-.08-.13-.16-.17-.26-.04-.1-.07-.2-.07-.32s.02-.22.07-.32c.04-.1.1-.19.17-.27.07-.08.16-.13.26-.18.1-.04.2-.06.32-.06s.22.02.32.06c.1.04.19.1.27.18s.14.17.18.27c.04.1.07.21.07.32ZM298.54,213.22v6.58h-1.16v-6.58h1.16Z"/><path class="cls-3" d="M304.13,214.31c-.05.1-.13.14-.24.14-.06,0-.14-.02-.22-.07s-.18-.1-.3-.16-.26-.11-.43-.16c-.16-.05-.36-.08-.58-.08-.19,0-.37.03-.53.08-.16.05-.29.12-.4.2-.11.09-.2.19-.25.3s-.09.24-.09.37c0,.17.05.31.15.42.1.11.23.21.39.29s.34.16.55.22c.2.06.41.13.63.2.21.07.42.15.63.24s.39.2.55.33.29.29.39.48.15.42.15.68c0,.3-.05.58-.16.84-.11.26-.27.48-.48.67s-.47.34-.78.45-.66.16-1.07.16c-.46,0-.88-.07-1.25-.22-.37-.15-.69-.34-.95-.58l.27-.44c.03-.06.08-.1.12-.13s.11-.05.18-.05c.08,0,.16.03.25.09s.19.13.32.2c.12.07.27.14.45.2.18.06.4.09.66.09.22,0,.42-.03.59-.09s.31-.14.42-.24c.11-.1.2-.21.25-.34.05-.13.08-.27.08-.42,0-.18-.05-.33-.15-.45-.1-.12-.23-.22-.39-.3-.16-.08-.34-.16-.55-.22-.21-.06-.42-.13-.63-.2-.21-.07-.42-.15-.63-.24s-.39-.2-.55-.33c-.16-.13-.29-.3-.39-.5-.1-.2-.15-.44-.15-.72,0-.25.05-.49.16-.72.1-.23.26-.44.46-.61s.44-.32.73-.42c.29-.1.62-.16,1-.16.43,0,.82.07,1.17.21.34.14.64.32.89.56l-.26.42Z"/><path class="cls-3" d="M310.49,214.39s-.07.08-.1.11c-.03.03-.08.04-.14.04-.07,0-.14-.03-.21-.08-.08-.05-.17-.11-.29-.18-.11-.06-.26-.12-.42-.18-.17-.05-.37-.08-.61-.08-.33,0-.61.06-.86.17-.25.11-.45.28-.62.5s-.29.48-.38.79c-.08.31-.13.65-.13,1.03s.05.75.14,1.06c.09.31.22.57.39.78.17.21.37.37.6.48s.5.17.8.17.51-.03.7-.1c.18-.07.33-.14.45-.22s.22-.16.3-.22c.08-.07.16-.1.24-.1.09,0,.17.04.22.11l.33.42c-.14.18-.31.33-.49.46-.18.13-.38.23-.59.32-.21.08-.43.15-.66.18-.23.04-.46.06-.7.06-.41,0-.79-.08-1.15-.23s-.66-.37-.92-.66-.46-.64-.61-1.06c-.15-.42-.22-.9-.22-1.44,0-.49.07-.94.21-1.36s.34-.77.6-1.08c.26-.3.58-.54.97-.71s.82-.25,1.32-.25c.46,0,.87.08,1.23.22s.67.36.94.63l-.31.42Z"/><path class="cls-3" d="M314.7,213.12c.48,0,.91.08,1.3.24s.71.39.99.68c.27.29.48.65.63,1.07.14.42.22.88.22,1.4s-.07.99-.22,1.4c-.15.42-.35.77-.63,1.07-.27.29-.6.52-.99.68s-.82.24-1.3.24-.92-.08-1.31-.24-.72-.38-.99-.68c-.27-.29-.48-.65-.63-1.07s-.22-.88-.22-1.4.07-.98.22-1.4.35-.77.63-1.07c.27-.29.6-.52.99-.68s.83-.24,1.31-.24ZM314.7,218.99c.65,0,1.13-.22,1.46-.65.32-.44.48-1.04.48-1.82s-.16-1.4-.48-1.83c-.32-.44-.81-.66-1.46-.66-.33,0-.62.06-.86.17-.25.11-.45.28-.61.49-.16.21-.28.47-.36.78s-.12.66-.12,1.05c0,.78.16,1.39.48,1.82s.81.65,1.47.65Z"/><path class="cls-3" d="M320.35,214.18c.14-.16.29-.31.46-.44.16-.13.33-.24.51-.33.18-.09.37-.16.57-.21s.42-.08.65-.08c.36,0,.68.06.95.18s.5.29.69.51c.18.22.32.48.42.79.09.31.14.65.14,1.02v4.19h-1.16v-4.19c0-.5-.11-.88-.34-1.16s-.57-.41-1.04-.41c-.34,0-.66.08-.96.25s-.57.39-.82.67v4.85h-1.16v-6.58h.7c.16,0,.27.08.31.24l.09.71Z"/><path class="cls-3" d="M332.49,219.8h-1.16v-5.62h-3.39v3.95c0,.28.07.48.2.62s.31.2.52.2c.12,0,.23-.02.32-.05.09-.03.17-.07.23-.11.06-.04.12-.08.17-.11.04-.03.08-.05.12-.05.06,0,.11.04.16.11l.34.55c-.2.19-.44.33-.72.44-.28.11-.57.16-.87.16-.52,0-.92-.14-1.2-.43-.28-.29-.42-.71-.42-1.25v-4.03h-.79c-.07,0-.13-.02-.18-.06-.05-.04-.07-.11-.07-.19v-.46l1.08-.14.27-2.03c.01-.07.04-.12.09-.16.04-.04.1-.06.18-.06h.58v2.27h4.55v6.45ZM332.78,211.11c0,.11-.02.22-.07.32-.04.1-.11.18-.18.26-.08.07-.16.13-.26.18-.1.04-.21.06-.32.06s-.22-.02-.32-.06c-.1-.04-.18-.1-.26-.18s-.13-.16-.17-.26c-.04-.1-.07-.2-.07-.32s.02-.22.07-.32c.04-.1.1-.19.17-.27.07-.08.16-.14.26-.18s.2-.07.32-.07.22.02.32.07.19.1.26.18c.08.08.14.17.18.27.05.1.07.21.07.32Z"/><path class="cls-3" d="M335.44,214.18c.14-.16.29-.31.46-.44.16-.13.33-.24.51-.33.18-.09.37-.16.57-.21s.42-.08.65-.08c.36,0,.68.06.95.18s.5.29.69.51c.18.22.32.48.42.79.09.31.14.65.14,1.02v4.19h-1.16v-4.19c0-.5-.11-.88-.34-1.16s-.57-.41-1.04-.41c-.34,0-.66.08-.96.25s-.57.39-.82.67v4.85h-1.16v-6.58h.7c.16,0,.27.08.31.24l.09.71Z"/><path class="cls-3" d="M346.97,213.22v6.58h-.69c-.16,0-.27-.08-.31-.24l-.09-.71c-.29.32-.61.57-.96.76-.36.19-.76.29-1.22.29-.36,0-.68-.06-.95-.18s-.51-.29-.69-.5c-.19-.22-.33-.48-.42-.79s-.14-.65-.14-1.02v-4.2h1.16v4.2c0,.5.11.88.34,1.16s.58.41,1.04.41c.34,0,.66-.08.96-.24.3-.16.57-.39.82-.67v-4.85h1.16Z"/><path class="cls-3" d="M350.19,211.15c0,.11-.02.22-.07.32-.05.1-.11.18-.18.26-.08.08-.16.14-.27.18-.1.04-.21.07-.32.07s-.22-.02-.32-.07-.18-.1-.26-.18c-.07-.08-.13-.16-.17-.26-.04-.1-.07-.2-.07-.32s.02-.22.07-.32c.04-.1.1-.19.17-.27.07-.08.16-.13.26-.18.1-.04.2-.06.32-.06s.22.02.32.06c.1.04.19.1.27.18s.14.17.18.27c.04.1.07.21.07.32ZM349.95,213.22v6.58h-1.16v-6.58h1.16Z"/><path class="cls-3" d="M353.78,219.91c-.52,0-.92-.14-1.2-.43-.28-.29-.42-.71-.42-1.25v-4.03h-.79c-.07,0-.13-.02-.18-.06-.05-.04-.07-.11-.07-.19v-.46l1.08-.14.27-2.03c.01-.07.04-.12.09-.16.04-.04.1-.06.18-.06h.58v2.27h1.9v.84h-1.9v3.95c0,.28.07.48.2.62s.31.2.52.2c.12,0,.23-.02.32-.05.09-.03.17-.07.23-.11.06-.04.12-.08.17-.11.04-.03.08-.05.12-.05.06,0,.11.04.16.11l.34.55c-.2.19-.44.33-.72.44-.28.11-.57.16-.87.16Z"/><path class="cls-3" d="M362.41,213.22l-3.67,8.53c-.04.09-.09.16-.15.21-.06.05-.15.08-.27.08h-.86l1.2-2.61-2.72-6.2h1c.1,0,.18.03.24.08s.1.11.12.17l1.76,4.15c.07.18.13.37.17.57.06-.2.13-.4.2-.58l1.71-4.14c.03-.07.07-.13.13-.17.06-.04.13-.07.21-.07h.92Z"/><path class="cls-3" d="M367.43,215.72c0,.93.12,1.83.35,2.7.24.88.58,1.71,1.04,2.5.07.13.09.24.05.31-.03.07-.08.13-.15.17l-.51.31c-.32-.5-.6-.99-.83-1.48-.23-.49-.41-.98-.55-1.48s-.24-.99-.31-1.49c-.07-.5-.1-1.01-.1-1.54s.03-1.04.1-1.54c.06-.5.17-1,.31-1.49.14-.49.33-.98.55-1.47.23-.49.5-.99.83-1.49l.51.32c.07.04.12.1.15.17.04.07.02.17-.05.3-.46.79-.8,1.62-1.04,2.5-.24.88-.35,1.78-.35,2.7Z"/><path class="cls-3" d="M377.2,219.8h-1.12c-.23,0-.4-.09-.51-.27l-2.42-3.33c-.07-.1-.15-.18-.24-.22-.08-.05-.22-.07-.39-.07h-.96v3.89h-1.25v-9.31h2.63c.59,0,1.1.06,1.53.18s.78.29,1.06.52.49.5.62.82c.13.32.2.68.2,1.07,0,.33-.05.64-.16.92-.1.29-.25.54-.45.77s-.44.42-.72.58-.61.28-.96.36c.16.09.3.22.42.4l2.72,3.7ZM372.89,215c.36,0,.69-.04.97-.13s.51-.21.7-.38c.19-.16.33-.36.43-.58.09-.23.14-.47.14-.75,0-.55-.18-.97-.55-1.25s-.91-.42-1.64-.42h-1.38v3.52h1.33Z"/><path class="cls-3" d="M386.51,215.15c0,.7-.11,1.33-.33,1.91-.22.57-.53,1.06-.94,1.47s-.89.72-1.45.95c-.57.22-1.19.33-1.88.33h-3.48v-9.31h3.48c.68,0,1.31.11,1.88.33.57.22,1.05.54,1.45.95.4.41.71.9.94,1.47.22.57.33,1.21.33,1.9ZM385.22,215.15c0-.57-.08-1.08-.23-1.53-.16-.45-.38-.83-.66-1.14-.29-.31-.63-.55-1.04-.71s-.86-.25-1.37-.25h-2.22v7.27h2.22c.5,0,.96-.08,1.37-.25s.75-.4,1.04-.71c.29-.31.51-.69.66-1.14.16-.45.23-.96.23-1.53Z"/><path class="cls-3" d="M388.73,215.72c0-.93-.12-1.83-.35-2.7-.24-.88-.58-1.71-1.04-2.5-.03-.07-.06-.12-.06-.17,0-.05,0-.09,0-.13.01-.04.03-.07.06-.1.03-.03.06-.05.09-.07l.51-.32c.33.5.6,1,.83,1.49.23.49.41.98.55,1.47.14.49.24.99.31,1.49.07.5.1,1.02.1,1.54s-.03,1.04-.1,1.54c-.06.5-.17,1-.31,1.49s-.33.99-.55,1.48c-.23.49-.5.98-.83,1.48l-.51-.31s-.07-.05-.09-.08c-.03-.03-.05-.06-.06-.1-.01-.04-.01-.08,0-.13,0-.05.03-.11.06-.18.46-.79.8-1.62,1.04-2.5.24-.88.35-1.78.35-2.7Z"/></svg>