<?xml version="1.0" encoding="UTF-8"?><svg id="Layer_1" xmlns="http://www.w3.org/2000/svg" viewBox="0 0 216 68.33"><defs><style>.cls-1{fill:none;}.cls-2{fill:#006982;}.cls-3{fill:#ea2130;fill-rule:evenodd;}</style></defs><path class="cls-2" d="M23.09,34.5c.22.88.55,1.72.96,2.5-1.22.26-2.49.4-3.8.4-9.9,0-17.92-8.02-17.92-17.92S10.36,1.56,20.25,1.56s17.92,8.02,17.92,17.92c0,.72-.04,1.43-.13,2.12-.82-.34-1.68-.58-2.58-.72.04-.46.06-.93.06-1.4,0-8.44-6.84-15.28-15.28-15.28s-15.28,6.84-15.28,15.28,6.84,15.28,15.28,15.28c.97,0,1.91-.09,2.83-.26h0Z"/><path class="cls-2" d="M32.54,19.48c0,.35.28.63.63.63h1.1c0,.22-.02.44-.04.66-.14,0-.28,0-.42,0-6.1,0-11.05,4.95-11.05,11.05,0,.5.03.99.1,1.47-.64.12-1.3.2-1.97.23v-1.1c0-.35-.28-.63-.63-.63s-.63.28-.63.63v1.1c-2.1-.09-4.08-.65-5.85-1.56l.12-.2c.17-.3.07-.68-.23-.85-.3-.17-.68-.07-.85.23l-.12.2c-1.72-1.1-3.18-2.56-4.28-4.28l.2-.12c.3-.17.4-.55.23-.85-.17-.3-.55-.4-.85-.23l-.2.12c-.92-1.76-1.47-3.74-1.56-5.85h1.1c.35,0,.63-.28.63-.63s-.28-.63-.63-.63h-1.1c.09-2.1.65-4.08,1.56-5.85l.2.12c.3.17.68.07.85-.23.17-.3.07-.68-.23-.85l-.2-.12c1.1-1.72,2.56-3.18,4.28-4.28l.12.2c.17.3.55.4.85.23.3-.17.4-.55.23-.85l-.12-.2c1.76-.92,3.74-1.47,5.85-1.56v1.1c0,.35.28.63.63.63s.63-.28.63-.63v-1.1c2.1.09,4.08.65,5.85,1.56l-.12.2c-.17.3-.07.68.23.85s.68.07.85-.23l.12-.2c1.72,1.1,3.18,2.56,4.28,4.28l-.2.12c-.3.17-.4.55-.23.85.17.3.55.4.85.23l.2-.12c.92,1.76,1.47,3.74,1.56,5.85h-1.1c-.35,0-.63.28-.63.63h0ZM22.5,19.48c0-1.02-.68-1.88-1.62-2.15v-7.1c0-.35-.28-.63-.63-.63s-.63.28-.63.63v7.1c-.93.27-1.62,1.13-1.62,2.15,0,.39.1.76.28,1.08l-4.59,4.59c-.24.24-.24.64,0,.88.24.24.64.24.88,0l4.59-4.59c.32.18.69.28,1.08.28,1.24,0,2.24-1,2.24-2.24h0Z"/><path class="cls-3" d="M34.08,22.23c5.38,0,9.75,4.37,9.75,9.75s-4.37,9.75-9.75,9.75-9.75-4.37-9.75-9.75,4.37-9.75,9.75-9.75ZM34.08,32.79c.87,0,1.63.56,1.63,1.32s-.76,1.32-1.63,1.32-1.62-.56-1.62-1.32c0-.45-.37-.81-.81-.81s-.81.37-.81.81c0,1.35,1.02,2.52,2.44,2.85v.5c0,.45.37.81.81.81s.81-.36.81-.81v-.5c1.42-.33,2.44-1.51,2.44-2.85,0-1.59-1.43-2.95-3.25-2.95-.87,0-1.62-.56-1.62-1.32s.76-1.32,1.62-1.32,1.63.56,1.63,1.32c0,.45.37.81.81.81s.81-.36.81-.81c0-1.35-1.02-2.52-2.44-2.85v-.5c0-.45-.37-.81-.81-.81s-.81.36-.81.81v.5c-1.42.33-2.44,1.5-2.44,2.85,0,1.59,1.43,2.95,3.25,2.95Z"/><rect class="cls-1" x=".31" y="45.16" width="42.54" height="24.34"/><path d="M13.31,45.37v7.29h-1.7v-3.08h-2.96v3.08h-1.7v-7.29h1.7v3.04h2.96v-3.04h1.7Z"/><path d="M16.77,47.39c.39,0,.75.06,1.08.18.32.12.6.3.83.53.23.23.41.51.54.84.13.33.19.7.19,1.11s-.06.79-.19,1.12c-.13.33-.31.61-.54.84-.23.23-.51.41-.83.54-.32.12-.68.19-1.08.19s-.76-.06-1.08-.19-.6-.3-.84-.54c-.24-.23-.42-.51-.55-.84-.13-.33-.19-.7-.19-1.12s.06-.78.19-1.11c.13-.33.31-.61.55-.84.23-.23.51-.41.84-.53s.69-.18,1.08-.18ZM16.77,51.59c.36,0,.62-.12.79-.38.17-.25.25-.63.25-1.15s-.08-.9-.25-1.15c-.17-.25-.43-.38-.79-.38s-.64.12-.81.38-.25.63-.25,1.15.08.9.25,1.15.44.38.81.38Z"/><path d="M24.84,47.47v5.18h-.96c-.19,0-.32-.09-.38-.26l-.09-.3c-.1.1-.2.18-.31.26-.11.08-.22.15-.34.2-.12.05-.25.1-.4.13-.14.03-.3.05-.46.05-.28,0-.53-.05-.75-.15s-.4-.24-.55-.41c-.15-.18-.26-.38-.34-.62-.08-.24-.11-.5-.11-.79v-3.29h1.55v3.29c0,.26.06.45.18.59.12.14.29.21.51.21.17,0,.33-.04.48-.11.15-.07.29-.17.43-.29v-3.69h1.55Z"/><path d="M27.34,48.27c.16-.28.34-.5.55-.66.21-.16.45-.24.72-.24.23,0,.42.05.57.17l-.1,1.14c-.02.07-.04.12-.08.15-.04.03-.09.04-.16.04-.03,0-.06,0-.1,0-.04,0-.09,0-.14-.01-.05,0-.09,0-.14-.01s-.09,0-.13,0c-.23,0-.41.06-.54.18-.13.12-.25.29-.34.5v3.15h-1.55v-5.18h.92c.08,0,.14,0,.19.02.05.01.09.03.13.06s.06.07.08.11c.02.05.03.1.05.17l.08.44Z"/><path d="M31.26,45.17v7.49h-1.55v-7.49h1.55Z"/><path d="M37.23,47.47l-2.77,6.53c-.05.1-.1.18-.17.23-.07.05-.17.07-.32.07h-1.16l1-2.1-2.07-4.73h1.37c.12,0,.21.03.28.08.06.05.11.12.14.19l.85,2.24c.08.2.15.41.19.62.04-.11.07-.21.11-.32s.08-.21.12-.32l.77-2.22c.03-.08.08-.14.16-.19.08-.05.16-.08.25-.08h1.25Z"/><path d="M17.77,59.47l-1.61,5.18h-1.26c-.07,0-.12-.02-.17-.06-.05-.04-.08-.11-.11-.2l-.74-2.58c-.04-.12-.07-.23-.1-.35-.03-.11-.05-.23-.08-.34-.02.12-.05.23-.08.35-.03.12-.06.23-.1.35l-.75,2.58c-.05.17-.16.26-.33.26h-1.2l-1.61-5.18h1.24c.11,0,.2.03.28.08s.13.12.15.19l.52,2.33c.04.18.08.35.12.51s.06.33.09.5c.04-.17.09-.33.14-.5s.1-.34.16-.51l.65-2.33c.03-.08.08-.14.15-.19.07-.05.16-.08.26-.08h.69c.11,0,.2.03.28.08.07.05.13.12.15.19l.62,2.33c.05.18.1.35.15.51.05.17.09.33.13.5.03-.17.06-.33.1-.5.04-.17.08-.34.12-.52l.55-2.33c.03-.08.08-.14.15-.19s.16-.08.26-.08h1.18Z"/><path d="M18.13,60.19c.31-.28.66-.48,1.04-.62.38-.14.79-.2,1.23-.2.31,0,.6.05.85.15.25.1.47.24.64.43s.31.4.4.65.14.52.14.82v3.24h-.71c-.15,0-.26-.02-.33-.06s-.14-.12-.19-.25l-.11-.29c-.13.11-.25.21-.38.29-.12.08-.24.15-.37.21-.13.06-.27.1-.41.13s-.31.04-.48.04c-.24,0-.45-.03-.65-.09s-.36-.15-.49-.27c-.13-.12-.24-.27-.31-.45-.07-.18-.11-.38-.11-.62,0-.19.05-.38.14-.57.09-.19.25-.37.48-.52s.54-.29.93-.4.88-.17,1.48-.18v-.22c0-.3-.06-.52-.19-.66s-.3-.2-.53-.2c-.18,0-.33.02-.45.06s-.22.08-.31.13c-.09.05-.18.1-.27.14-.09.04-.19.06-.31.06-.11,0-.2-.03-.27-.08s-.13-.12-.18-.19l-.28-.48ZM20.92,62.55c-.31.01-.57.04-.77.08-.2.04-.36.09-.48.15-.12.06-.2.13-.24.21-.04.08-.07.16-.07.25,0,.18.05.3.15.37.1.07.24.11.43.11.2,0,.38-.04.52-.1.15-.07.3-.18.46-.34v-.72Z"/><path d="M28.12,59.63v.57c0,.09-.02.16-.07.21-.05.05-.13.09-.25.12l-.38.08c.02.07.04.15.05.22.01.08.02.16.02.24,0,.26-.05.49-.16.7-.11.21-.26.38-.44.53-.19.14-.41.26-.67.33-.26.08-.53.12-.83.12-.08,0-.16,0-.23,0-.08,0-.15-.01-.23-.03-.11.07-.17.15-.17.24s.05.15.14.19c.09.04.22.07.37.08s.33.02.52.03c.2,0,.39.02.6.03.2.02.4.05.6.09.19.04.37.11.52.21s.28.23.37.39c.09.16.14.37.14.62,0,.23-.06.46-.17.69-.11.22-.28.42-.5.59-.22.17-.49.31-.81.42-.32.1-.69.16-1.1.16s-.76-.04-1.05-.12c-.29-.08-.54-.18-.73-.3-.2-.12-.34-.27-.43-.43-.09-.16-.14-.33-.14-.51,0-.23.07-.42.2-.58s.32-.28.56-.37c-.13-.08-.23-.18-.3-.3-.07-.12-.11-.27-.11-.46,0-.08.01-.16.04-.24.03-.08.07-.17.13-.25.06-.08.13-.16.22-.23.09-.07.19-.14.31-.2-.27-.14-.48-.33-.64-.57-.16-.24-.24-.51-.24-.82,0-.26.06-.49.17-.7.11-.21.26-.38.45-.53.19-.15.42-.26.68-.33.26-.08.54-.12.85-.12.44,0,.83.08,1.17.25h1.56ZM26.59,64.85c0-.12-.06-.21-.17-.27-.11-.06-.25-.09-.43-.12s-.37-.04-.59-.04c-.22,0-.44-.02-.65-.04-.1.07-.18.14-.24.22-.06.08-.09.17-.09.28,0,.07.02.14.05.2.03.06.09.11.17.16s.19.08.32.1c.14.02.31.04.51.04.22,0,.41-.01.55-.04.14-.03.26-.06.34-.11.08-.05.14-.1.18-.17.03-.06.05-.14.05-.21ZM25.39,61.79c.26,0,.44-.06.56-.19.11-.13.17-.29.17-.5s-.06-.38-.17-.5c-.12-.12-.3-.18-.56-.18s-.44.06-.56.18c-.11.12-.17.29-.17.5,0,.1.01.19.04.27.03.08.07.16.13.22s.14.11.23.14c.09.04.2.05.33.05Z"/><path d="M29.95,62.34c.05.43.18.75.4.94.21.19.49.29.83.29.18,0,.33-.02.46-.06.13-.04.25-.09.35-.15s.19-.1.28-.14c.08-.04.17-.07.27-.07.12,0,.22.04.28.13l.45.56c-.16.18-.33.33-.52.45-.18.12-.38.21-.57.27-.19.07-.39.11-.58.14-.19.02-.38.04-.56.04-.36,0-.7-.06-1.02-.18s-.6-.29-.83-.53-.43-.52-.56-.87-.21-.75-.21-1.21c0-.35.06-.67.18-.99.12-.31.29-.58.51-.81s.49-.42.81-.55.67-.21,1.07-.21c.34,0,.66.05.94.16.29.11.53.26.73.47.21.2.37.45.48.75.12.29.17.63.17,1,0,.12,0,.21-.02.28,0,.07-.03.13-.06.18-.03.04-.06.07-.11.09s-.1.02-.17.02h-2.99ZM31.9,61.44c0-.12-.02-.24-.05-.36-.03-.12-.08-.22-.16-.31s-.17-.17-.28-.22-.26-.08-.43-.08c-.29,0-.52.08-.69.25s-.28.41-.33.73h1.93Z"/><path class="cls-2" d="M143,30.39c-.7,0-1.28-.58-1.28-1.28V12.64h25.07v9.76c1.03.25,1.99.62,2.9,1.16v-15.22c0-2.15-1.78-3.93-3.93-3.93h-.83v1.65c0,1.78-1.45,3.23-3.23,3.23h-1.94c-1.78,0-3.23-1.45-3.23-3.23v-1.65h-4.51v1.65c0,1.78-1.45,3.23-3.23,3.23h-1.99c-1.78,0-3.23-1.45-3.23-3.23v-1.65h-.83c-2.15,0-3.93,1.74-3.93,3.93v20.81c0,2.32,1.86,4.18,4.18,4.18h11.33c-.04-.29-.04-.62-.04-.91,0-.66.08-1.37.21-1.99h-11.5s0-.04,0-.04Z"/><path class="cls-2" d="M149.28,15.5c0-.29-.21-.5-.5-.5h-4.01c-.29,0-.5.21-.5.5v2.23c0,.29.21.5.5.5h4.01c.29,0,.5-.21.5-.5v-2.23Z"/><path class="cls-2" d="M148.79,24.85h-4.01c-.29,0-.5.21-.5.5v2.19c0,.29.21.5.5.5h4.01c.29,0,.5-.21.5-.5v-2.19c0-.29-.21-.5-.5-.5Z"/><path class="cls-2" d="M163.68,18.23c.29,0,.5-.21.5-.5v-2.19c0-.29-.21-.5-.5-.5h-4.01c-.29,0-.5.21-.5.5v2.19c0,.29.21.5.5.5h4.01Z"/><path class="cls-2" d="M156.73,15.5c0-.29-.21-.5-.5-.5h-4.01c-.29,0-.5.21-.5.5v2.23c0,.29.21.5.5.5h4.01c.29,0,.5-.21.5-.5v-2.23Z"/><path class="cls-2" d="M156.73,25.34c0-.29-.21-.5-.5-.5h-3.97c-.29,0-.5.21-.5.5v2.19c0,.29.21.5.5.5h3.02c.37-.83.87-1.57,1.45-2.28v-.41Z"/><path class="cls-2" d="M149.28,20.42c0-.29-.21-.5-.5-.5h-4.01c-.29,0-.5.21-.5.5v2.19c0,.29.21.5.5.5h4.01c.29,0,.5-.21.5-.5v-2.19Z"/><path class="cls-2" d="M159.17,22.61c0,.29.21.5.5.5h.5c1.2-.58,2.56-.91,3.97-.95v-1.74c0-.29-.21-.5-.5-.5h-3.97c-.29,0-.5.21-.5.5v2.19Z"/><path class="cls-2" d="M156.23,19.92h-4.01c-.29,0-.5.21-.5.5v2.19c0,.29.21.5.5.5h4.01c.29,0,.5-.21.5-.5v-2.19c0-.25-.21-.5-.5-.5Z"/><path class="cls-2" d="M146.8,7.1h1.99c.58,0,1.03-.45,1.03-1.03V2.01c0-.58-.45-1.03-1.03-1.03h-1.99c-.58,0-1.03.45-1.03,1.03v4.05c0,.58.46,1.03,1.03,1.03Z"/><path class="cls-2" d="M159.67,7.1h1.99c.58,0,1.03-.45,1.03-1.03V2.01c0-.58-.46-1.03-1.03-1.03h-1.99c-.58,0-1.03.45-1.03,1.03v4.05c0,.58.46,1.03,1.03,1.03h0Z"/><path class="cls-3" d="M165.06,23.65c5.15,0,9.33,4.18,9.33,9.33s-4.18,9.33-9.33,9.33-9.33-4.18-9.33-9.33,4.18-9.33,9.33-9.33ZM165.06,33.76c.83,0,1.55.54,1.55,1.26s-.72,1.26-1.55,1.26-1.55-.53-1.55-1.26c0-.43-.35-.78-.78-.78s-.78.35-.78.78c0,1.29.98,2.41,2.33,2.73v.48c0,.43.35.78.78.78s.78-.35.78-.78v-.48c1.35-.31,2.33-1.44,2.33-2.73,0-1.53-1.37-2.82-3.11-2.82-.83,0-1.55-.53-1.55-1.27s.72-1.26,1.55-1.26,1.55.53,1.55,1.26c0,.43.35.78.78.78s.78-.35.78-.78c0-1.29-.98-2.41-2.33-2.73v-.48c0-.43-.35-.78-.78-.78s-.78.35-.78.78v.48c-1.36.31-2.33,1.44-2.33,2.73,0,1.53,1.37,2.82,3.11,2.82Z"/><rect class="cls-1" x="134.55" y="45.16" width="42.54" height="24.34"/><path d="M147.07,52.66h-1.31c-.15,0-.26-.03-.35-.1-.09-.07-.16-.16-.21-.26l-.43-1.27h-2.77l-.43,1.27c-.04.09-.1.18-.2.25-.09.08-.21.11-.35.11h-1.32l2.82-7.29h1.73l2.82,7.29ZM144.39,49.87l-.67-2c-.05-.13-.1-.28-.16-.45s-.11-.36-.17-.56c-.05.2-.1.39-.16.57-.06.17-.11.32-.16.45l-.67,1.98h2Z"/><path d="M148.89,48.03c.1-.09.2-.18.31-.26.11-.08.22-.15.34-.2.12-.05.25-.1.4-.13.14-.03.3-.05.46-.05.28,0,.53.05.75.15.22.1.4.23.55.41.15.17.26.38.34.62.08.24.12.5.12.79v3.29h-1.55v-3.29c0-.25-.06-.45-.17-.59-.12-.14-.29-.21-.51-.21-.17,0-.33.04-.48.11-.15.07-.29.17-.43.29v3.7h-1.55v-5.18h.96c.19,0,.32.09.38.26l.09.3Z"/><path d="M154.6,48.03c.1-.09.2-.18.31-.26s.22-.15.34-.2c.12-.05.25-.1.39-.13.14-.03.3-.05.46-.05.28,0,.53.05.75.15.22.1.4.23.55.41.15.17.26.38.34.62.08.24.12.5.12.79v3.29h-1.55v-3.29c0-.25-.06-.45-.17-.59-.12-.14-.29-.21-.52-.21-.17,0-.33.04-.48.11-.15.07-.29.17-.43.29v3.7h-1.55v-5.18h.96c.19,0,.32.09.38.26l.09.3Z"/><path d="M163.51,47.47v5.18h-.96c-.19,0-.32-.09-.38-.26l-.09-.3c-.1.1-.2.18-.31.26-.11.08-.22.15-.34.2s-.25.1-.4.13c-.14.03-.29.05-.46.05-.28,0-.53-.05-.75-.15-.22-.1-.4-.24-.55-.41-.15-.18-.26-.38-.34-.62-.08-.24-.11-.5-.11-.79v-3.29h1.55v3.29c0,.26.06.45.17.59.12.14.29.21.51.21.17,0,.33-.04.48-.11.15-.07.29-.17.43-.29v-3.69h1.55Z"/><path d="M164.45,48.19c.31-.28.66-.48,1.04-.62.38-.14.79-.2,1.23-.2.31,0,.6.05.85.15s.46.24.64.43.31.4.4.65c.09.25.14.52.14.82v3.24h-.71c-.15,0-.26-.02-.33-.06s-.14-.12-.19-.25l-.11-.29c-.13.11-.25.21-.38.29-.12.08-.24.15-.37.21-.13.06-.26.1-.41.13-.14.03-.31.04-.48.04-.24,0-.45-.03-.64-.09s-.36-.15-.49-.27c-.13-.12-.24-.27-.31-.45-.07-.18-.11-.38-.11-.62,0-.19.05-.38.14-.57.09-.19.25-.37.49-.52.23-.16.54-.29.93-.4.39-.11.88-.17,1.48-.18v-.22c0-.3-.06-.52-.19-.66s-.3-.2-.53-.2c-.18,0-.33.02-.45.06-.12.04-.22.08-.31.13-.09.05-.18.1-.27.14-.09.04-.19.06-.31.06-.11,0-.2-.03-.27-.08s-.13-.12-.18-.19l-.28-.48ZM167.24,50.55c-.31.01-.57.04-.77.08s-.36.09-.47.15c-.12.06-.2.13-.24.21-.04.08-.07.16-.07.25,0,.18.05.3.15.37.1.07.24.11.42.11.2,0,.38-.04.53-.1.15-.07.3-.18.46-.34v-.72Z"/><path d="M171.29,45.17v7.49h-1.55v-7.49h1.55Z"/><path d="M146.47,60.61c-.04.06-.08.11-.13.13s-.1.04-.17.04-.15-.02-.22-.05c-.07-.03-.15-.07-.24-.1-.08-.04-.18-.07-.29-.1-.11-.03-.23-.05-.36-.05-.2,0-.35.04-.45.11-.1.08-.16.18-.16.31,0,.1.03.18.1.24s.16.12.27.17c.11.05.24.09.38.14s.29.09.44.15c.15.05.3.12.44.19.14.07.27.16.39.26.11.1.2.23.27.38.07.15.1.33.1.54,0,.26-.05.49-.14.71-.09.22-.23.4-.42.56-.19.16-.41.28-.69.37s-.58.13-.94.13c-.18,0-.35-.02-.53-.05-.18-.03-.35-.08-.51-.14-.17-.06-.32-.12-.46-.2-.14-.08-.26-.16-.36-.25l.36-.57c.04-.07.09-.12.15-.16.06-.04.14-.06.24-.06.09,0,.17.02.24.06.07.04.15.08.23.13.08.05.18.09.29.13.11.04.25.06.42.06.12,0,.22-.01.3-.04.08-.02.15-.06.2-.1.05-.04.09-.09.11-.14s.04-.11.04-.17c0-.1-.04-.19-.11-.25-.07-.07-.16-.12-.27-.17-.11-.05-.24-.09-.39-.13-.15-.04-.29-.09-.44-.14-.15-.05-.3-.12-.44-.19-.15-.08-.27-.17-.39-.29s-.21-.26-.28-.42c-.07-.17-.1-.37-.1-.61,0-.22.04-.43.13-.63.08-.2.21-.37.38-.52.17-.15.38-.27.64-.36.26-.09.56-.13.9-.13.19,0,.37.02.54.05.18.03.34.08.49.14.15.06.29.13.42.21.13.08.24.17.33.27l-.35.54Z"/><path d="M147.51,60.19c.31-.28.66-.48,1.04-.62.38-.14.79-.2,1.23-.2.31,0,.6.05.85.15s.46.24.64.43.31.4.4.65c.09.25.14.52.14.82v3.24h-.71c-.15,0-.26-.02-.33-.06s-.14-.12-.19-.25l-.11-.29c-.13.11-.25.21-.38.29-.12.08-.24.15-.37.21-.13.06-.26.1-.41.13-.14.03-.31.04-.48.04-.24,0-.45-.03-.64-.09s-.36-.15-.49-.27c-.13-.12-.24-.27-.31-.45-.07-.18-.11-.38-.11-.62,0-.19.05-.38.14-.57.09-.19.25-.37.49-.52.23-.16.54-.29.93-.4.39-.11.88-.17,1.48-.18v-.22c0-.3-.06-.52-.19-.66s-.3-.2-.53-.2c-.18,0-.33.02-.45.06-.12.04-.22.08-.31.13-.09.05-.18.1-.27.14-.09.04-.19.06-.31.06-.11,0-.2-.03-.27-.08s-.13-.12-.18-.19l-.28-.48ZM150.3,62.55c-.31.01-.57.04-.77.08s-.36.09-.47.15c-.12.06-.2.13-.24.21-.04.08-.07.16-.07.25,0,.18.05.3.15.37.1.07.24.11.42.11.2,0,.38-.04.53-.1.15-.07.3-.18.46-.34v-.72Z"/><path d="M154.35,57.17v7.49h-1.55v-7.49h1.55Z"/><path d="M155.29,60.19c.31-.28.66-.48,1.04-.62.38-.14.79-.2,1.23-.2.31,0,.6.05.85.15.25.1.47.24.64.43s.31.4.4.65c.09.25.14.52.14.82v3.24h-.71c-.15,0-.26-.02-.33-.06s-.14-.12-.19-.25l-.11-.29c-.13.11-.25.21-.38.29-.12.08-.24.15-.37.21-.13.06-.27.1-.41.13-.15.03-.31.04-.48.04-.24,0-.45-.03-.65-.09s-.36-.15-.49-.27-.24-.27-.31-.45-.11-.38-.11-.62c0-.19.05-.38.14-.57.09-.19.25-.37.48-.52.23-.16.54-.29.93-.4.39-.11.88-.17,1.47-.18v-.22c0-.3-.06-.52-.19-.66s-.3-.2-.53-.2c-.18,0-.33.02-.45.06-.12.04-.22.08-.31.13s-.18.1-.27.14c-.09.04-.19.06-.31.06-.11,0-.2-.03-.27-.08s-.13-.12-.18-.19l-.28-.48ZM158.08,62.55c-.31.01-.57.04-.76.08-.2.04-.36.09-.48.15-.12.06-.2.13-.24.21-.04.08-.07.16-.07.25,0,.18.05.3.14.37.1.07.24.11.43.11.2,0,.38-.04.52-.1.15-.07.3-.18.46-.34v-.72Z"/><path d="M162.03,60.27c.16-.28.34-.5.55-.66.21-.16.45-.24.72-.24.23,0,.42.05.57.17l-.1,1.14c-.02.07-.04.12-.08.15s-.09.04-.16.04c-.03,0-.06,0-.11,0s-.09,0-.13-.01-.09,0-.14-.01c-.05,0-.09,0-.13,0-.23,0-.41.06-.54.18-.13.12-.25.29-.34.5v3.15h-1.55v-5.18h.92c.08,0,.14,0,.19.02s.09.03.13.06.06.07.08.11.03.1.05.17l.08.44Z"/><path d="M169.32,59.47l-2.77,6.53c-.05.1-.1.18-.17.23-.07.05-.17.07-.32.07h-1.16l1-2.1-2.07-4.73h1.37c.12,0,.21.03.28.08.06.05.11.12.14.19l.85,2.24c.08.2.15.41.2.62.04-.11.07-.21.11-.32.04-.11.08-.21.12-.32l.77-2.22c.03-.08.08-.14.16-.19.08-.05.16-.08.25-.08h1.25Z"/><path class="cls-2" d="M86.53,27.58v2.54h-9.41v-2.54h3.17v-8.33c0-.21,0-.43.01-.64,0-.22.02-.43.04-.65l-1.88,1.56c-.17.13-.33.21-.49.23-.16.03-.32.03-.46,0-.14-.03-.27-.08-.39-.15-.11-.07-.2-.15-.25-.22l-1.11-1.47,5.15-4.32h2.9v13.99h2.72Z"/><path class="cls-2" d="M99.8,21.86c0,1.44-.15,2.69-.46,3.75-.31,1.06-.74,1.94-1.29,2.63-.55.7-1.2,1.21-1.95,1.55-.75.34-1.57.51-2.44.51s-1.69-.17-2.43-.51c-.74-.34-1.39-.86-1.93-1.55-.54-.69-.97-1.57-1.27-2.63-.31-1.06-.46-2.31-.46-3.75s.15-2.69.46-3.75c.3-1.06.73-1.93,1.27-2.63s1.19-1.21,1.93-1.55c.75-.34,1.56-.5,2.43-.5s1.69.17,2.44.5c.75.34,1.4.85,1.95,1.55s.98,1.57,1.29,2.63.46,2.31.46,3.75ZM96.17,21.86c0-1.14-.07-2.08-.22-2.81-.14-.73-.33-1.3-.57-1.72-.24-.42-.51-.7-.81-.86-.3-.15-.61-.23-.92-.23s-.61.08-.91.23c-.3.15-.56.44-.79.86-.23.42-.42.99-.56,1.72-.14.73-.21,1.66-.21,2.81s.07,2.09.21,2.81c.14.73.32,1.3.56,1.72.23.42.49.71.79.86.3.15.6.23.91.23s.62-.08.92-.23.57-.44.81-.86.43-.99.57-1.72c.14-.73.22-1.66.22-2.81Z"/><path class="cls-2" d="M113.61,21.86c0,1.44-.15,2.69-.46,3.75-.31,1.06-.74,1.94-1.29,2.63-.55.7-1.2,1.21-1.95,1.55-.75.34-1.57.51-2.44.51s-1.69-.17-2.43-.51c-.74-.34-1.39-.86-1.93-1.55-.54-.69-.97-1.57-1.27-2.63-.31-1.06-.46-2.31-.46-3.75s.15-2.69.46-3.75c.3-1.06.73-1.93,1.27-2.63s1.19-1.21,1.93-1.55c.75-.34,1.56-.5,2.43-.5s1.69.17,2.44.5c.75.34,1.4.85,1.95,1.55s.98,1.57,1.29,2.63.46,2.31.46,3.75ZM109.98,21.86c0-1.14-.07-2.08-.22-2.81-.14-.73-.33-1.3-.57-1.72-.24-.42-.51-.7-.81-.86-.3-.15-.61-.23-.92-.23s-.61.08-.91.23c-.3.15-.56.44-.79.86-.23.42-.42.99-.56,1.72-.14.73-.21,1.66-.21,2.81s.07,2.09.21,2.81c.14.73.32,1.3.56,1.72.23.42.49.71.79.86.3.15.6.23.91.23s.62-.08.92-.23.57-.44.81-.86.43-.99.57-1.72c.14-.73.22-1.66.22-2.81Z"/><path class="cls-3" d="M69.03,22.88c1.33,0,2.48.85,2.48,2.01s-1.15,2.01-2.48,2.01-2.47-.85-2.47-2.01c0-.68-.56-1.24-1.24-1.24s-1.24.56-1.24,1.24c0,2.05,1.55,3.85,3.72,4.35v.76c0,.68.56,1.24,1.24,1.24s1.24-.55,1.24-1.24v-.76c2.16-.5,3.72-2.29,3.72-4.35,0-2.43-2.18-4.49-4.96-4.49-1.32,0-2.47-.85-2.47-2.02s1.15-2.01,2.47-2.01,2.48.85,2.48,2.01c0,.69.56,1.24,1.24,1.24s1.24-.55,1.24-1.24c0-2.05-1.56-3.84-3.72-4.34v-.76c0-.68-.56-1.24-1.24-1.24s-1.24.55-1.24,1.24v.76c-2.16.5-3.72,2.29-3.72,4.34,0,2.43,2.18,4.49,4.95,4.49Z"/><rect class="cls-1" x="56.03" y="45.16" width="67.62" height="24.34"/><path d="M61.24,46.67v1.7h2.29v1.25h-2.29v1.74h2.99v1.3h-4.69v-7.29h4.69v1.3h-2.99Z"/><path d="M70.05,52.66h-1.49c-.11,0-.2-.03-.27-.08-.07-.05-.12-.12-.16-.19l-.92-1.59c-.02.06-.04.11-.06.16s-.05.1-.08.14l-.76,1.29c-.05.07-.1.13-.17.18-.06.06-.15.08-.25.08h-1.38l1.74-2.68-1.67-2.5h1.49c.11,0,.19.01.24.04s.1.08.14.14l.92,1.54c.02-.06.05-.12.08-.18s.06-.12.1-.18l.66-1.15c.05-.07.1-.13.15-.16.05-.03.12-.05.19-.05h1.42l-1.67,2.43,1.74,2.75Z"/><path d="M70.41,48.19c.31-.28.66-.48,1.04-.62.38-.14.79-.2,1.23-.2.31,0,.6.05.85.15.25.1.47.24.64.43s.31.4.4.65.14.52.14.82v3.24h-.71c-.15,0-.26-.02-.33-.06s-.14-.12-.19-.25l-.11-.29c-.13.11-.25.21-.38.29-.12.08-.24.15-.37.21-.13.06-.27.1-.41.13s-.31.04-.48.04c-.24,0-.45-.03-.65-.09s-.36-.15-.49-.27c-.13-.12-.24-.27-.31-.45-.07-.18-.11-.38-.11-.62,0-.19.05-.38.14-.57.09-.19.25-.37.48-.52s.54-.29.93-.4.88-.17,1.48-.18v-.22c0-.3-.06-.52-.19-.66s-.3-.2-.53-.2c-.18,0-.33.02-.45.06s-.22.08-.31.13c-.09.05-.18.1-.27.14-.09.04-.19.06-.31.06-.11,0-.2-.03-.27-.08s-.13-.12-.18-.19l-.28-.48ZM73.2,50.55c-.31.01-.57.04-.77.08-.2.04-.36.09-.48.15-.12.06-.2.13-.24.21-.04.08-.07.16-.07.25,0,.18.05.3.15.37.1.07.24.11.43.11.2,0,.38-.04.52-.1.15-.07.3-.18.46-.34v-.72Z"/><path d="M79.51,48.7c-.05.06-.09.1-.13.13-.04.03-.1.05-.19.05s-.15-.02-.21-.06c-.06-.04-.13-.08-.21-.12s-.17-.09-.27-.12c-.1-.04-.23-.05-.39-.05-.19,0-.35.04-.49.11-.14.07-.25.17-.34.3-.09.13-.16.29-.2.48-.04.19-.06.4-.06.64,0,.5.1.88.29,1.15.19.27.46.4.79.4.18,0,.32-.02.43-.07.1-.04.19-.09.27-.15s.14-.11.2-.15c.06-.05.14-.07.23-.07.12,0,.22.04.28.13l.45.56c-.16.18-.33.33-.51.45-.18.12-.36.21-.54.27-.18.07-.37.11-.56.14-.19.02-.37.04-.55.04-.32,0-.62-.06-.91-.18-.29-.12-.54-.29-.76-.52-.22-.23-.39-.51-.52-.84-.13-.33-.19-.71-.19-1.14,0-.37.06-.72.17-1.05s.28-.61.5-.84.49-.43.81-.56.69-.21,1.12-.21.76.06,1.07.19.58.32.83.57l-.41.54Z"/><path d="M82.42,52.74c-.25,0-.46-.04-.65-.11-.19-.07-.35-.17-.48-.3-.13-.13-.23-.29-.29-.48-.07-.19-.1-.4-.1-.62v-2.68h-.44c-.08,0-.15-.03-.21-.08s-.08-.13-.08-.23v-.61l.83-.16.3-1.27c.04-.16.15-.24.34-.24h.81v1.52h1.28v1.06h-1.28v2.58c0,.12.03.22.09.3.06.08.14.12.25.12.06,0,.1,0,.14-.02.04-.01.07-.03.1-.04s.05-.03.08-.04c.03-.01.05-.02.09-.02.05,0,.08.01.11.03.03.02.06.06.09.1l.47.74c-.2.15-.43.26-.68.34s-.51.11-.77.11Z"/><path d="M86.6,48.19c.31-.28.66-.48,1.04-.62.38-.14.79-.2,1.23-.2.31,0,.6.05.85.15.25.1.47.24.64.43s.31.4.4.65.14.52.14.82v3.24h-.71c-.15,0-.26-.02-.33-.06s-.14-.12-.19-.25l-.11-.29c-.13.11-.25.21-.38.29-.12.08-.24.15-.37.21-.13.06-.27.1-.41.13s-.31.04-.48.04c-.24,0-.45-.03-.65-.09s-.36-.15-.49-.27c-.13-.12-.24-.27-.31-.45-.07-.18-.11-.38-.11-.62,0-.19.05-.38.14-.57.09-.19.25-.37.48-.52s.54-.29.93-.4.88-.17,1.48-.18v-.22c0-.3-.06-.52-.19-.66s-.3-.2-.53-.2c-.18,0-.33.02-.45.06s-.22.08-.31.13c-.09.05-.18.1-.27.14-.09.04-.19.06-.31.06-.11,0-.2-.03-.27-.08s-.13-.12-.18-.19l-.28-.48ZM89.39,50.55c-.31.01-.57.04-.77.08-.2.04-.36.09-.48.15-.12.06-.2.13-.24.21-.04.08-.07.16-.07.25,0,.18.05.3.15.37.1.07.24.11.43.11.2,0,.38-.04.52-.1.15-.07.3-.18.46-.34v-.72Z"/><path d="M91.89,52.66v-5.18h.96c.19,0,.32.09.38.26l.08.28c.09-.09.18-.17.27-.25.09-.08.19-.14.3-.2.11-.05.23-.1.35-.13.12-.03.26-.05.41-.05.31,0,.57.08.78.24s.36.38.47.65c.09-.16.19-.3.32-.41s.26-.21.4-.27c.15-.07.3-.12.46-.16s.32-.05.48-.05c.3,0,.56.04.79.13.23.09.42.22.58.39.15.17.27.38.35.62.08.25.12.52.12.83v3.29h-1.55v-3.29c0-.54-.23-.8-.69-.8-.21,0-.38.07-.52.21s-.21.34-.21.6v3.29h-1.55v-3.29c0-.3-.06-.5-.18-.62s-.29-.18-.51-.18c-.14,0-.27.03-.4.09s-.24.15-.35.25v3.75h-1.55Z"/><path d="M102.79,47.39c.39,0,.75.06,1.08.18.32.12.6.3.83.53.23.23.41.51.54.84.13.33.19.7.19,1.11s-.06.79-.19,1.12c-.13.33-.31.61-.54.84-.23.23-.51.41-.83.54-.32.12-.68.19-1.08.19s-.76-.06-1.08-.19-.6-.3-.84-.54c-.24-.23-.42-.51-.55-.84-.13-.33-.19-.7-.19-1.12s.06-.78.19-1.11c.13-.33.31-.61.55-.84.23-.23.51-.41.84-.53s.69-.18,1.08-.18ZM102.79,51.59c.36,0,.62-.12.79-.38.17-.25.25-.63.25-1.15s-.08-.9-.25-1.15c-.17-.25-.43-.38-.79-.38s-.64.12-.81.38-.25.63-.25,1.15.08.9.25,1.15.44.38.81.38Z"/><path d="M110.86,47.47v5.18h-.96c-.19,0-.32-.09-.38-.26l-.09-.3c-.1.1-.2.18-.31.26-.11.08-.22.15-.34.2-.12.05-.25.1-.4.13-.14.03-.3.05-.46.05-.28,0-.53-.05-.75-.15s-.4-.24-.55-.41c-.15-.18-.26-.38-.34-.62-.08-.24-.11-.5-.11-.79v-3.29h1.55v3.29c0,.26.06.45.18.59.12.14.29.21.51.21.17,0,.33-.04.48-.11.15-.07.29-.17.43-.29v-3.69h1.55Z"/><path d="M113.34,48.03c.1-.09.2-.18.31-.26.11-.08.22-.15.34-.2.12-.05.25-.1.4-.13.14-.03.3-.05.46-.05.28,0,.53.05.75.15.22.1.4.23.55.41.15.17.26.38.34.62.08.24.12.5.12.79v3.29h-1.55v-3.29c0-.25-.06-.45-.17-.59-.12-.14-.29-.21-.51-.21-.17,0-.33.04-.48.11-.15.07-.29.17-.43.29v3.7h-1.55v-5.18h.96c.19,0,.32.09.38.26l.09.3Z"/><path d="M119.39,52.74c-.25,0-.46-.04-.65-.11-.19-.07-.35-.17-.47-.3-.13-.13-.23-.29-.29-.48-.07-.19-.1-.4-.1-.62v-2.68h-.44c-.08,0-.15-.03-.21-.08s-.08-.13-.08-.23v-.61l.83-.16.3-1.27c.04-.16.15-.24.34-.24h.81v1.52h1.29v1.06h-1.29v2.58c0,.12.03.22.09.3.06.08.14.12.25.12.06,0,.1,0,.14-.02s.07-.03.1-.04.05-.03.08-.04c.03-.01.05-.02.09-.02.05,0,.08.01.11.03.03.02.06.06.09.1l.47.74c-.2.15-.42.26-.67.34s-.51.11-.78.11Z"/><path d="M60.87,64.66v-4.12l-.34-.07c-.12-.03-.21-.07-.28-.12-.07-.06-.11-.14-.11-.25v-.61h.73v-.29c0-.3.05-.57.14-.81.09-.24.23-.44.41-.61s.4-.3.65-.4c.26-.09.55-.14.88-.14.13,0,.24,0,.35.02.11.01.22.04.33.07l-.03.75c0,.05-.02.1-.04.13s-.05.06-.09.08c-.04.02-.08.04-.12.05-.04,0-.09.01-.13.01-.14,0-.26.01-.36.04-.11.03-.2.07-.27.14s-.13.16-.16.27c-.04.11-.05.25-.05.42v.25h1.21v1.06h-1.17v4.12h-1.55Z"/><path d="M65.59,60.27c.16-.28.34-.5.55-.66.21-.16.45-.24.72-.24.23,0,.42.05.57.17l-.1,1.14c-.02.07-.04.12-.08.15-.04.03-.09.04-.16.04-.03,0-.06,0-.1,0-.04,0-.09,0-.14-.01-.05,0-.09,0-.14-.01s-.09,0-.13,0c-.23,0-.41.06-.54.18-.13.12-.25.29-.34.5v3.15h-1.55v-5.18h.92c.08,0,.14,0,.19.02.05.01.09.03.13.06s.06.07.08.11c.02.05.03.1.05.17l.08.44Z"/><path d="M70.26,59.39c.39,0,.75.06,1.08.18.32.12.6.3.83.53.23.23.41.51.54.84.13.33.19.7.19,1.11s-.06.79-.19,1.12c-.13.33-.31.61-.54.84-.23.23-.51.41-.83.54-.32.12-.68.19-1.08.19s-.76-.06-1.08-.19-.6-.3-.84-.54c-.24-.23-.42-.51-.55-.84-.13-.33-.19-.7-.19-1.12s.06-.78.19-1.11c.13-.33.31-.61.55-.84.23-.23.51-.41.84-.53s.69-.18,1.08-.18ZM70.26,63.59c.36,0,.62-.12.79-.38.17-.25.25-.63.25-1.15s-.08-.9-.25-1.15c-.17-.25-.43-.38-.79-.38s-.64.12-.81.38-.25.63-.25,1.15.08.9.25,1.15.44.38.81.38Z"/><path d="M73.68,64.66v-5.18h.96c.19,0,.32.09.38.26l.08.28c.09-.09.18-.17.27-.25.09-.08.19-.14.3-.2.11-.05.23-.1.35-.13.12-.03.26-.05.41-.05.31,0,.57.08.78.24s.36.38.47.65c.09-.16.19-.3.32-.41s.26-.21.4-.27c.15-.07.3-.12.46-.16s.32-.05.48-.05c.3,0,.56.04.79.13.23.09.42.22.58.39.15.17.27.38.35.62.08.25.12.52.12.83v3.29h-1.55v-3.29c0-.54-.23-.8-.69-.8-.21,0-.38.07-.52.21s-.21.34-.21.6v3.29h-1.55v-3.29c0-.3-.06-.5-.18-.62s-.29-.18-.51-.18c-.14,0-.27.03-.4.09s-.24.15-.35.25v3.75h-1.55Z"/><path d="M85.95,60.11c.2-.22.43-.39.69-.53.26-.14.57-.21.92-.21.27,0,.52.06.75.18.23.12.43.29.59.52s.3.5.39.83c.1.33.14.7.14,1.12,0,.39-.05.75-.16,1.08s-.26.62-.46.86c-.19.24-.43.43-.7.57-.27.14-.57.21-.9.21-.27,0-.5-.04-.68-.12-.18-.08-.35-.18-.5-.31v1.99h-1.55v-6.83h.96c.19,0,.32.09.38.26l.11.38ZM86.05,63.25c.12.13.24.22.38.27.14.05.28.08.43.08s.28-.03.4-.08c.12-.06.22-.15.31-.27s.16-.29.21-.49c.05-.2.08-.44.08-.73s-.02-.5-.06-.69-.1-.34-.17-.45-.16-.2-.26-.25c-.1-.05-.21-.07-.33-.07-.23,0-.41.04-.56.12-.15.08-.29.21-.42.36v2.2Z"/><path d="M90.13,60.19c.31-.28.66-.48,1.04-.62.38-.14.79-.2,1.23-.2.31,0,.6.05.85.15.25.1.47.24.64.43s.31.4.4.65.14.52.14.82v3.24h-.71c-.15,0-.26-.02-.33-.06s-.14-.12-.19-.25l-.11-.29c-.13.11-.25.21-.38.29-.12.08-.24.15-.37.21-.13.06-.27.1-.41.13s-.31.04-.48.04c-.24,0-.45-.03-.65-.09s-.36-.15-.49-.27c-.13-.12-.24-.27-.31-.45-.07-.18-.11-.38-.11-.62,0-.19.05-.38.14-.57.09-.19.25-.37.48-.52s.54-.29.93-.4.88-.17,1.48-.18v-.22c0-.3-.06-.52-.19-.66s-.3-.2-.53-.2c-.18,0-.33.02-.45.06s-.22.08-.31.13c-.09.05-.18.1-.27.14-.09.04-.19.06-.31.06-.11,0-.2-.03-.27-.08s-.13-.12-.18-.19l-.28-.48ZM92.92,62.55c-.31.01-.57.04-.77.08-.2.04-.36.09-.48.15-.12.06-.2.13-.24.21-.04.08-.07.16-.07.25,0,.18.05.3.15.37.1.07.24.11.43.11.2,0,.38-.04.52-.1.15-.07.3-.18.46-.34v-.72Z"/><path d="M100.18,59.47l-2.77,6.53c-.05.1-.1.18-.17.23-.07.05-.17.07-.32.07h-1.16l1-2.1-2.07-4.73h1.37c.12,0,.21.03.28.08.06.05.11.12.14.19l.85,2.24c.08.2.15.41.19.62.04-.11.07-.21.11-.32s.08-.21.12-.32l.77-2.22c.03-.08.08-.14.16-.19.08-.05.16-.08.25-.08h1.25Z"/><path d="M103.81,60.61c-.04.06-.08.11-.13.13s-.1.04-.17.04c-.07,0-.15-.02-.22-.05-.07-.03-.15-.07-.24-.1-.08-.04-.18-.07-.29-.1-.11-.03-.23-.05-.36-.05-.2,0-.35.04-.45.11s-.16.18-.16.31c0,.1.03.18.1.24s.16.12.27.17c.11.05.24.09.39.14.14.04.29.09.44.15.15.05.3.12.44.19.14.07.27.16.39.26.11.1.2.23.27.38.07.15.1.33.1.54,0,.26-.05.49-.14.71s-.23.4-.42.56c-.19.16-.41.28-.69.37-.27.09-.58.13-.94.13-.18,0-.35-.02-.53-.05-.18-.03-.35-.08-.51-.14-.17-.06-.32-.12-.46-.2s-.26-.16-.36-.25l.36-.57c.04-.07.09-.12.15-.16.06-.04.14-.06.24-.06.09,0,.17.02.24.06s.15.08.23.13c.08.05.18.09.29.13.11.04.25.06.42.06.12,0,.22-.01.3-.04.08-.02.15-.06.2-.1.05-.04.09-.09.11-.14s.04-.11.04-.17c0-.1-.04-.19-.1-.25s-.16-.12-.27-.17c-.11-.05-.24-.09-.39-.13s-.29-.09-.44-.14c-.15-.05-.3-.12-.44-.19s-.27-.17-.39-.29-.21-.26-.27-.42c-.07-.17-.1-.37-.1-.61,0-.22.04-.43.13-.63.08-.2.21-.37.38-.52.17-.15.38-.27.64-.36.26-.09.56-.13.9-.13.19,0,.37.02.54.05.18.03.34.08.49.14.15.06.29.13.42.21.13.08.24.17.33.27l-.35.54Z"/><path d="M106.82,64.74c-.25,0-.46-.04-.65-.11-.19-.07-.35-.17-.48-.3-.13-.13-.23-.29-.29-.48-.07-.19-.1-.4-.1-.62v-2.68h-.44c-.08,0-.15-.03-.21-.08s-.08-.13-.08-.23v-.61l.83-.16.3-1.27c.04-.16.15-.24.34-.24h.81v1.52h1.28v1.06h-1.28v2.58c0,.12.03.22.09.3.06.08.14.12.25.12.06,0,.1,0,.14-.02.04-.01.07-.03.1-.04s.05-.03.08-.04c.03-.01.05-.02.09-.02.05,0,.08.01.11.03.03.02.06.06.09.1l.47.74c-.2.15-.43.26-.68.34s-.51.11-.77.11Z"/><path d="M113.46,59.47v5.18h-.96c-.19,0-.32-.09-.38-.26l-.09-.3c-.1.1-.2.18-.31.26-.11.08-.22.15-.34.2s-.25.1-.4.13c-.14.03-.29.05-.46.05-.28,0-.53-.05-.75-.15-.22-.1-.4-.24-.55-.41-.15-.18-.26-.38-.34-.62-.08-.24-.11-.5-.11-.79v-3.29h1.55v3.29c0,.26.06.45.17.59.12.14.29.21.51.21.17,0,.33-.04.48-.11.15-.07.29-.17.43-.29v-3.69h1.55Z"/><path d="M116.06,60.02c.2-.19.42-.34.66-.46.24-.11.5-.17.8-.17s.56.06.8.18c.24.12.44.29.61.51.17.22.3.49.39.8.09.31.14.66.14,1.05,0,.42-.05.8-.16,1.14-.11.34-.26.64-.45.88s-.43.43-.7.57c-.27.13-.57.2-.9.2-.16,0-.3-.01-.42-.04s-.24-.07-.34-.13c-.1-.05-.2-.12-.28-.2-.08-.08-.17-.16-.25-.25l-.05.26c-.03.11-.07.18-.13.22-.06.04-.14.06-.24.06h-1.03v-7.49h1.55v2.85ZM116.06,63.25c.12.13.24.22.38.27.14.05.27.08.42.08s.28-.03.4-.08c.12-.05.23-.14.32-.27.09-.12.16-.29.21-.5s.08-.46.08-.76c0-.26-.02-.48-.06-.66s-.09-.33-.17-.45-.17-.2-.28-.25-.24-.08-.38-.08c-.19,0-.35.04-.49.12-.14.08-.28.21-.42.36v2.2Z"/></svg>