<?xml version="1.0" encoding="UTF-8"?><svg id="Layer_1" xmlns="http://www.w3.org/2000/svg" viewBox="0 0 216 68.33"><defs><style>.cls-1{fill:none;}.cls-2{fill:#006982;}.cls-3{fill:#ea2130;fill-rule:evenodd;}</style></defs><path class="cls-2" d="M77.56,32.12c-.7,0-1.28-.58-1.28-1.28V14.37h25.07v9.76c1.03.25,1.99.62,2.9,1.16v-15.22c0-2.15-1.78-3.93-3.93-3.93h-.83v1.65c0,1.78-1.45,3.23-3.23,3.23h-1.94c-1.78,0-3.23-1.45-3.23-3.23v-1.65h-4.51v1.65c0,1.78-1.45,3.23-3.23,3.23h-1.99c-1.78,0-3.23-1.45-3.23-3.23v-1.65h-.83c-2.15,0-3.93,1.74-3.93,3.93v20.81c0,2.32,1.86,4.18,4.18,4.18h11.33c-.04-.29-.04-.62-.04-.91,0-.66.08-1.37.21-1.99h-11.5s0-.04,0-.04Z"/><path class="cls-2" d="M83.84,17.23c0-.29-.21-.5-.5-.5h-4.01c-.29,0-.5.21-.5.5v2.23c0,.29.21.5.5.5h4.01c.29,0,.5-.21.5-.5v-2.23Z"/><path class="cls-2" d="M83.35,26.57h-4.01c-.29,0-.5.21-.5.5v2.19c0,.29.21.5.5.5h4.01c.29,0,.5-.21.5-.5v-2.19c0-.29-.21-.5-.5-.5Z"/><path class="cls-2" d="M98.24,19.96c.29,0,.5-.21.5-.5v-2.19c0-.29-.21-.5-.5-.5h-4.01c-.29,0-.5.21-.5.5v2.19c0,.29.21.5.5.5h4.01Z"/><path class="cls-2" d="M91.29,17.23c0-.29-.21-.5-.5-.5h-4.01c-.29,0-.5.21-.5.5v2.23c0,.29.21.5.5.5h4.01c.29,0,.5-.21.5-.5v-2.23Z"/><path class="cls-2" d="M91.29,27.07c0-.29-.21-.5-.5-.5h-3.97c-.29,0-.5.21-.5.5v2.19c0,.29.21.5.5.5h3.02c.37-.83.87-1.57,1.45-2.28v-.41Z"/><path class="cls-2" d="M83.84,22.15c0-.29-.21-.5-.5-.5h-4.01c-.29,0-.5.21-.5.5v2.19c0,.29.21.5.5.5h4.01c.29,0,.5-.21.5-.5v-2.19Z"/><path class="cls-2" d="M93.73,24.34c0,.29.21.5.5.5h.5c1.2-.58,2.56-.91,3.97-.95v-1.74c0-.29-.21-.5-.5-.5h-3.97c-.29,0-.5.21-.5.5v2.19Z"/><path class="cls-2" d="M90.79,21.65h-4.01c-.29,0-.5.21-.5.5v2.19c0,.29.21.5.5.5h4.01c.29,0,.5-.21.5-.5v-2.19c0-.25-.21-.5-.5-.5Z"/><path class="cls-2" d="M81.36,8.83h1.99c.58,0,1.03-.45,1.03-1.03V3.74c0-.58-.45-1.03-1.03-1.03h-1.99c-.58,0-1.03.45-1.03,1.03v4.05c0,.58.46,1.03,1.03,1.03Z"/><path class="cls-2" d="M94.23,8.83h1.99c.58,0,1.03-.45,1.03-1.03V3.74c0-.58-.46-1.03-1.03-1.03h-1.99c-.58,0-1.03.45-1.03,1.03v4.05c0,.58.46,1.03,1.03,1.03h0Z"/><path class="cls-3" d="M99.62,25.38c5.15,0,9.33,4.18,9.33,9.33s-4.18,9.33-9.33,9.33-9.33-4.18-9.33-9.33,4.18-9.33,9.33-9.33ZM99.62,35.49c.83,0,1.55.54,1.55,1.26s-.72,1.26-1.55,1.26-1.55-.53-1.55-1.26c0-.43-.35-.78-.78-.78s-.78.35-.78.78c0,1.29.98,2.41,2.33,2.73v.48c0,.43.35.78.78.78s.78-.35.78-.78v-.48c1.35-.31,2.33-1.44,2.33-2.73,0-1.53-1.37-2.82-3.11-2.82-.83,0-1.55-.53-1.55-1.27s.72-1.26,1.55-1.26,1.55.53,1.55,1.26c0,.43.35.78.78.78s.78-.35.78-.78c0-1.29-.98-2.41-2.33-2.73v-.48c0-.43-.35-.78-.78-.78s-.78.35-.78.78v.48c-1.36.31-2.33,1.44-2.33,2.73,0,1.53,1.37,2.82,3.11,2.82Z"/><rect class="cls-1" x="69.11" y="46.18" width="42.54" height="24.34"/><path d="M81.63,53.67h-1.31c-.15,0-.27-.03-.35-.1-.09-.07-.16-.16-.21-.26l-.43-1.27h-2.77l-.43,1.27c-.04.09-.1.18-.2.25s-.21.11-.35.11h-1.32l2.82-7.29h1.73l2.82,7.29ZM78.95,50.89l-.68-2c-.05-.13-.1-.28-.16-.45-.06-.17-.11-.36-.17-.56-.05.2-.1.39-.16.57-.06.17-.11.32-.16.45l-.67,1.98h2Z"/><path d="M83.46,49.05c.1-.09.2-.18.31-.26.11-.08.22-.15.34-.2.12-.05.25-.1.4-.13.14-.03.3-.05.46-.05.28,0,.53.05.75.15.22.1.4.23.55.41.15.17.26.38.34.62.08.24.12.5.12.79v3.29h-1.55v-3.29c0-.25-.06-.45-.17-.59s-.29-.21-.52-.21c-.17,0-.33.04-.48.11-.15.07-.29.17-.43.29v3.7h-1.55v-5.18h.96c.19,0,.32.09.38.26l.09.3Z"/><path d="M89.16,49.05c.1-.09.2-.18.31-.26.11-.08.22-.15.34-.2.12-.05.25-.1.4-.13.14-.03.3-.05.46-.05.28,0,.53.05.75.15.22.1.4.23.55.41.15.17.26.38.34.62.08.24.12.5.12.79v3.29h-1.55v-3.29c0-.25-.06-.45-.17-.59s-.29-.21-.52-.21c-.17,0-.33.04-.48.11-.15.07-.29.17-.43.29v3.7h-1.55v-5.18h.96c.19,0,.32.09.38.26l.09.3Z"/><path d="M98.08,48.49v5.18h-.96c-.19,0-.32-.09-.38-.26l-.09-.3c-.1.1-.2.18-.31.26-.11.08-.22.15-.34.2-.12.05-.25.1-.4.13-.14.03-.3.05-.46.05-.28,0-.53-.05-.75-.15s-.4-.24-.55-.41c-.15-.18-.26-.38-.34-.62-.08-.24-.11-.5-.11-.79v-3.29h1.55v3.29c0,.26.06.45.18.59.12.14.29.21.51.21.17,0,.33-.04.48-.11.15-.07.29-.17.43-.29v-3.69h1.55Z"/><path d="M99.01,49.21c.31-.28.66-.48,1.04-.62.38-.14.79-.2,1.23-.2.31,0,.6.05.85.15.25.1.47.24.64.43s.31.4.4.65.14.52.14.82v3.24h-.71c-.15,0-.26-.02-.33-.06s-.14-.12-.19-.25l-.11-.29c-.13.11-.25.21-.38.29-.12.08-.24.15-.37.21-.13.06-.27.1-.41.13s-.31.04-.48.04c-.24,0-.45-.03-.65-.09s-.36-.15-.49-.27c-.13-.12-.24-.27-.31-.45-.07-.18-.11-.38-.11-.62,0-.19.05-.38.14-.57.09-.19.25-.37.48-.52s.54-.29.93-.4.88-.17,1.48-.18v-.22c0-.3-.06-.52-.19-.66s-.3-.2-.53-.2c-.18,0-.33.02-.45.06s-.22.08-.31.13c-.09.05-.18.1-.27.14-.09.04-.19.06-.31.06-.11,0-.2-.03-.27-.08s-.13-.12-.18-.19l-.28-.48ZM101.8,51.56c-.31.01-.57.04-.77.08-.2.04-.36.09-.48.15-.12.06-.2.13-.24.21-.04.08-.07.16-.07.25,0,.18.05.3.15.37.1.07.24.11.43.11.2,0,.38-.04.52-.1.15-.07.3-.18.46-.34v-.72Z"/><path d="M105.85,46.19v7.49h-1.55v-7.49h1.55Z"/><path d="M81.03,61.62c-.04.06-.08.11-.13.13s-.1.04-.17.04c-.07,0-.15-.02-.22-.05-.07-.03-.15-.07-.24-.1-.08-.04-.18-.07-.29-.1-.11-.03-.23-.05-.36-.05-.2,0-.35.04-.45.11s-.16.18-.16.31c0,.1.03.18.1.24s.16.12.27.17c.11.05.24.09.39.14.14.04.29.09.44.15.15.05.3.12.44.19.14.07.27.16.39.26.11.1.2.23.27.38.07.15.1.33.1.54,0,.26-.05.49-.14.71s-.23.4-.42.56c-.19.16-.41.28-.69.37-.27.09-.58.13-.94.13-.18,0-.35-.02-.53-.05-.18-.03-.35-.08-.51-.14-.17-.06-.32-.12-.46-.2s-.26-.16-.36-.25l.36-.57c.04-.07.09-.12.15-.16.06-.04.14-.06.24-.06.09,0,.17.02.24.06s.15.08.23.13c.08.05.18.09.29.13.11.04.25.06.42.06.12,0,.22-.01.3-.04.08-.02.15-.06.2-.1.05-.04.09-.09.11-.14s.04-.11.04-.17c0-.1-.04-.19-.1-.25s-.16-.12-.27-.17c-.11-.05-.24-.09-.39-.13s-.29-.09-.44-.14c-.15-.05-.3-.12-.44-.19s-.27-.17-.39-.29-.21-.26-.27-.42c-.07-.17-.1-.37-.1-.61,0-.22.04-.43.13-.63.08-.2.21-.37.38-.52.17-.15.38-.27.64-.36.26-.09.56-.13.9-.13.19,0,.37.02.54.05.18.03.34.08.49.14.15.06.29.13.42.21.13.08.24.17.33.27l-.35.54Z"/><path d="M82.07,61.21c.31-.28.66-.48,1.04-.62.38-.14.79-.2,1.23-.2.31,0,.6.05.85.15.25.1.47.24.64.43s.31.4.4.65.14.52.14.82v3.24h-.71c-.15,0-.26-.02-.33-.06s-.14-.12-.19-.25l-.11-.29c-.13.11-.25.21-.38.29-.12.08-.24.15-.37.21-.13.06-.27.1-.41.13s-.31.04-.48.04c-.24,0-.45-.03-.65-.09s-.36-.15-.49-.27c-.13-.12-.24-.27-.31-.45-.07-.18-.11-.38-.11-.62,0-.19.05-.38.14-.57.09-.19.25-.37.48-.52s.54-.29.93-.4.88-.17,1.48-.18v-.22c0-.3-.06-.52-.19-.66s-.3-.2-.53-.2c-.18,0-.33.02-.45.06s-.22.08-.31.13c-.09.05-.18.1-.27.14-.09.04-.19.06-.31.06-.11,0-.2-.03-.27-.08s-.13-.12-.18-.19l-.28-.48ZM84.86,63.56c-.31.01-.57.04-.77.08-.2.04-.36.09-.48.15-.12.06-.2.13-.24.21-.04.08-.07.16-.07.25,0,.18.05.3.15.37.1.07.24.11.43.11.2,0,.38-.04.52-.1.15-.07.3-.18.46-.34v-.72Z"/><path d="M88.91,58.19v7.49h-1.55v-7.49h1.55Z"/><path d="M89.85,61.21c.31-.28.66-.48,1.04-.62.38-.14.79-.2,1.23-.2.31,0,.6.05.85.15.25.1.47.24.64.43s.31.4.4.65.14.52.14.82v3.24h-.71c-.15,0-.26-.02-.33-.06s-.14-.12-.19-.25l-.11-.29c-.13.11-.25.21-.38.29-.12.08-.24.15-.37.21-.13.06-.27.1-.41.13s-.31.04-.48.04c-.24,0-.45-.03-.65-.09s-.36-.15-.49-.27c-.13-.12-.24-.27-.31-.45-.07-.18-.11-.38-.11-.62,0-.19.05-.38.14-.57.09-.19.25-.37.48-.52s.54-.29.93-.4.88-.17,1.48-.18v-.22c0-.3-.06-.52-.19-.66s-.3-.2-.53-.2c-.18,0-.33.02-.45.06s-.22.08-.31.13c-.09.05-.18.1-.27.14-.09.04-.19.06-.31.06-.11,0-.2-.03-.27-.08s-.13-.12-.18-.19l-.28-.48ZM92.64,63.56c-.31.01-.57.04-.77.08-.2.04-.36.09-.48.15-.12.06-.2.13-.24.21-.04.08-.07.16-.07.25,0,.18.05.3.15.37.1.07.24.11.43.11.2,0,.38-.04.52-.1.15-.07.3-.18.46-.34v-.72Z"/><path d="M96.59,61.29c.16-.28.34-.5.55-.66.21-.16.45-.24.72-.24.23,0,.42.05.57.17l-.1,1.14c-.02.07-.04.12-.08.15-.04.03-.09.04-.16.04-.03,0-.06,0-.1,0-.04,0-.09,0-.14-.01-.05,0-.09,0-.14-.01s-.09,0-.13,0c-.23,0-.41.06-.54.18-.13.12-.25.29-.34.5v3.15h-1.55v-5.18h.92c.08,0,.14,0,.19.02.05.01.09.03.13.06s.06.07.08.11c.02.05.03.1.05.17l.08.44Z"/><path d="M103.88,60.49l-2.77,6.53c-.05.1-.1.18-.17.23-.07.05-.17.07-.32.07h-1.16l1-2.1-2.07-4.73h1.37c.12,0,.21.03.28.08.06.05.11.12.14.19l.85,2.24c.08.2.15.41.19.62.04-.11.07-.21.11-.32s.08-.21.12-.32l.77-2.22c.03-.08.08-.14.16-.19.08-.05.16-.08.25-.08h1.25Z"/><path class="cls-2" d="M23.09,34.28c.22.88.55,1.72.96,2.5-1.22.26-2.49.4-3.8.4-9.9,0-17.92-8.02-17.92-17.92S10.36,1.34,20.25,1.34s17.92,8.02,17.92,17.92c0,.72-.04,1.43-.13,2.12-.82-.34-1.68-.58-2.58-.72.04-.46.06-.93.06-1.4,0-8.44-6.84-15.28-15.28-15.28s-15.28,6.84-15.28,15.28,6.84,15.28,15.28,15.28c.97,0,1.91-.09,2.83-.26h0Z"/><path class="cls-2" d="M32.54,19.26c0,.35.28.63.63.63h1.1c0,.22-.02.44-.04.66-.14,0-.28,0-.42,0-6.1,0-11.05,4.95-11.05,11.05,0,.5.03.99.1,1.47-.64.12-1.3.2-1.97.23v-1.1c0-.35-.28-.63-.63-.63s-.63.28-.63.63v1.1c-2.1-.09-4.08-.65-5.85-1.56l.12-.2c.17-.3.07-.68-.23-.85-.3-.17-.68-.07-.85.23l-.12.2c-1.72-1.1-3.18-2.56-4.28-4.28l.2-.12c.3-.17.4-.55.23-.85-.17-.3-.55-.4-.85-.23l-.2.12c-.92-1.76-1.47-3.74-1.56-5.85h1.1c.35,0,.63-.28.63-.63s-.28-.63-.63-.63h-1.1c.09-2.1.65-4.08,1.56-5.85l.2.12c.3.17.68.07.85-.23.17-.3.07-.68-.23-.85l-.2-.12c1.1-1.72,2.56-3.18,4.28-4.28l.12.2c.17.3.55.4.85.23.3-.17.4-.55.23-.85l-.12-.2c1.76-.92,3.74-1.47,5.85-1.56v1.1c0,.35.28.63.63.63s.63-.28.63-.63v-1.1c2.1.09,4.08.65,5.85,1.56l-.12.2c-.17.3-.07.68.23.85s.68.07.85-.23l.12-.2c1.72,1.1,3.18,2.56,4.28,4.28l-.2.12c-.3.17-.4.55-.23.85.17.3.55.4.85.23l.2-.12c.92,1.76,1.47,3.74,1.56,5.85h-1.1c-.35,0-.63.28-.63.63h0ZM22.5,19.26c0-1.02-.68-1.88-1.62-2.15v-7.1c0-.35-.28-.63-.63-.63s-.63.28-.63.63v7.1c-.93.27-1.62,1.13-1.62,2.15,0,.39.1.76.28,1.08l-4.59,4.59c-.24.24-.24.64,0,.88.24.24.64.24.88,0l4.59-4.59c.32.18.69.28,1.08.28,1.24,0,2.24-1,2.24-2.24h0Z"/><path class="cls-3" d="M34.08,22.01c5.38,0,9.75,4.37,9.75,9.75s-4.37,9.75-9.75,9.75-9.75-4.37-9.75-9.75,4.37-9.75,9.75-9.75ZM34.08,32.58c.87,0,1.63.56,1.63,1.32s-.76,1.32-1.63,1.32-1.62-.56-1.62-1.32c0-.45-.37-.81-.81-.81s-.81.37-.81.81c0,1.35,1.02,2.52,2.44,2.85v.5c0,.45.37.81.81.81s.81-.36.81-.81v-.5c1.42-.33,2.44-1.51,2.44-2.85,0-1.59-1.43-2.95-3.25-2.95-.87,0-1.62-.56-1.62-1.32s.76-1.32,1.62-1.32,1.63.56,1.63,1.32c0,.45.37.81.81.81s.81-.36.81-.81c0-1.35-1.02-2.52-2.44-2.85v-.5c0-.45-.37-.81-.81-.81s-.81.36-.81.81v.5c-1.42.33-2.44,1.5-2.44,2.85,0,1.59,1.43,2.95,3.25,2.95Z"/><rect class="cls-1" x=".31" y="45.16" width="42.54" height="24.34"/><path d="M13.31,45.37v7.29h-1.7v-3.08h-2.96v3.08h-1.7v-7.29h1.7v3.04h2.96v-3.04h1.7Z"/><path d="M16.77,47.39c.39,0,.75.06,1.08.19.32.12.6.3.83.53.23.23.41.51.54.84.13.33.19.7.19,1.11s-.06.79-.19,1.12c-.13.33-.31.61-.54.85-.23.23-.51.41-.83.54-.32.12-.68.19-1.08.19s-.76-.06-1.08-.19-.6-.3-.84-.54c-.24-.23-.42-.51-.55-.85-.13-.33-.19-.7-.19-1.12s.06-.78.19-1.11c.13-.33.31-.61.55-.84.23-.23.51-.41.84-.53s.69-.19,1.08-.19ZM16.77,51.59c.36,0,.62-.12.79-.38.17-.25.25-.63.25-1.15s-.08-.89-.25-1.14c-.17-.25-.43-.38-.79-.38s-.64.12-.81.38-.25.63-.25,1.14.08.9.25,1.15.44.38.81.38Z"/><path d="M24.84,47.47v5.19h-.96c-.19,0-.32-.09-.38-.26l-.09-.3c-.1.1-.2.18-.31.26-.11.08-.22.15-.34.2-.12.05-.25.1-.4.13-.14.03-.3.05-.46.05-.28,0-.53-.05-.75-.15-.22-.1-.4-.24-.55-.41-.15-.18-.26-.38-.34-.62s-.11-.5-.11-.79v-3.29h1.55v3.29c0,.26.06.45.18.59.12.14.29.21.51.21.17,0,.33-.04.48-.11.15-.07.29-.17.43-.29v-3.7h1.55Z"/><path d="M27.34,48.27c.16-.28.34-.5.55-.66.21-.16.45-.24.72-.24.23,0,.42.05.57.16l-.1,1.14c-.02.07-.04.12-.08.15-.04.03-.09.04-.16.04-.03,0-.06,0-.1,0-.04,0-.09,0-.14-.01-.05,0-.09,0-.14-.01-.05,0-.09,0-.13,0-.23,0-.41.06-.54.18-.13.12-.25.29-.34.5v3.15h-1.55v-5.19h.92c.08,0,.14,0,.19.02.05.01.09.04.13.06.04.03.06.07.08.11.02.05.03.1.05.17l.08.44Z"/><path d="M31.26,45.17v7.49h-1.55v-7.49h1.55Z"/><path d="M37.23,47.47l-2.77,6.53c-.05.1-.1.18-.17.23-.07.05-.17.07-.32.07h-1.16l1-2.1-2.07-4.73h1.37c.12,0,.21.03.28.08s.11.12.14.19l.85,2.24c.08.2.15.41.19.62.04-.11.07-.21.11-.32.04-.11.08-.21.12-.32l.77-2.22c.03-.08.08-.14.16-.19.08-.05.16-.08.25-.08h1.25Z"/><path d="M17.77,59.47l-1.61,5.19h-1.26c-.07,0-.12-.02-.17-.06-.05-.04-.08-.11-.11-.2l-.74-2.59c-.04-.12-.07-.23-.1-.35-.03-.11-.05-.23-.08-.34-.02.12-.05.23-.08.35s-.06.23-.1.35l-.75,2.58c-.05.17-.16.26-.33.26h-1.2l-1.61-5.19h1.24c.11,0,.2.03.28.08.08.05.13.12.15.19l.52,2.33c.04.18.08.35.12.51.03.17.06.33.09.5.04-.17.09-.33.14-.5.05-.16.1-.34.16-.51l.65-2.33c.03-.08.08-.14.15-.19.07-.05.16-.08.26-.08h.69c.11,0,.2.03.28.08.07.05.13.12.15.19l.62,2.33c.05.18.1.35.15.51.05.17.09.34.13.51.03-.17.06-.33.1-.5s.08-.34.12-.52l.55-2.33c.03-.08.08-.14.15-.19.07-.05.16-.08.26-.08h1.18Z"/><path d="M18.13,60.19c.31-.28.66-.48,1.04-.62.38-.14.79-.2,1.23-.2.31,0,.6.05.85.15.25.1.47.24.64.43s.31.4.4.65.14.52.14.82v3.24h-.71c-.15,0-.26-.02-.33-.06-.08-.04-.14-.12-.19-.25l-.11-.29c-.13.11-.25.21-.38.29-.12.08-.24.15-.37.21-.13.06-.27.1-.41.13-.15.03-.31.04-.48.04-.24,0-.45-.03-.65-.09-.19-.06-.36-.15-.49-.27-.13-.12-.24-.27-.31-.45-.07-.18-.11-.38-.11-.62,0-.19.05-.38.14-.57s.25-.37.48-.53.54-.29.93-.4c.39-.11.88-.17,1.48-.18v-.22c0-.3-.06-.52-.19-.66s-.3-.2-.53-.2c-.18,0-.33.02-.45.06-.12.04-.22.09-.31.13-.09.05-.18.1-.27.14-.09.04-.19.06-.31.06-.11,0-.2-.03-.27-.08-.07-.05-.13-.12-.18-.19l-.28-.48ZM20.92,62.55c-.31.01-.57.04-.77.08-.2.04-.36.09-.48.15s-.2.13-.24.21c-.04.08-.07.16-.07.25,0,.18.05.3.15.37s.24.11.43.11c.2,0,.38-.04.52-.11s.3-.18.46-.34v-.72Z"/><path d="M28.12,59.63v.56c0,.09-.02.16-.07.21-.05.05-.13.09-.25.12l-.38.09c.02.07.04.15.05.22s.02.16.02.24c0,.26-.05.49-.16.7s-.26.38-.44.53c-.19.14-.41.26-.67.34-.26.08-.53.12-.83.12-.08,0-.16,0-.23,0s-.15-.01-.23-.03c-.11.07-.17.15-.17.23s.05.15.14.19c.09.04.22.07.37.08.15.02.33.03.52.03.2,0,.39.02.6.03.2.02.4.05.6.09.19.04.37.11.52.21.15.1.28.23.37.39.09.16.14.37.14.62,0,.23-.06.46-.17.69-.11.22-.28.42-.5.59-.22.17-.49.31-.81.42-.32.11-.69.16-1.1.16s-.76-.04-1.05-.12-.54-.18-.73-.3c-.2-.12-.34-.27-.43-.43-.09-.16-.14-.33-.14-.51,0-.23.07-.42.2-.57.13-.15.32-.28.56-.37-.13-.08-.23-.18-.3-.3-.07-.12-.11-.27-.11-.46,0-.08.01-.16.04-.24.03-.08.07-.17.13-.25.06-.08.13-.16.22-.23.09-.07.19-.14.31-.2-.27-.14-.48-.33-.64-.57-.16-.24-.24-.51-.24-.82,0-.26.06-.49.17-.7s.26-.38.45-.53c.19-.15.42-.26.68-.34.26-.08.54-.12.85-.12.44,0,.83.08,1.17.25h1.56ZM26.59,64.85c0-.12-.06-.21-.17-.27-.11-.05-.25-.09-.43-.12s-.37-.04-.59-.04c-.22,0-.44-.02-.65-.04-.1.07-.18.14-.24.22-.06.08-.09.17-.09.28,0,.07.02.14.05.2.03.06.09.11.17.16s.19.08.32.1c.14.03.31.04.51.04.22,0,.41-.01.55-.04.14-.03.26-.06.34-.11.08-.05.14-.1.18-.17s.05-.14.05-.21ZM25.39,61.79c.26,0,.44-.06.56-.19.11-.13.17-.29.17-.5s-.06-.38-.17-.5c-.12-.12-.3-.18-.56-.18s-.44.06-.56.18c-.11.12-.17.29-.17.5,0,.1.01.19.04.27.03.08.07.16.13.22.06.06.14.11.23.14s.2.05.33.05Z"/><path d="M29.95,62.34c.05.43.18.75.4.94s.49.29.83.29c.18,0,.33-.02.46-.06.13-.04.25-.09.35-.15.1-.05.19-.1.28-.14s.17-.06.27-.06c.12,0,.22.04.28.13l.45.55c-.16.18-.33.33-.52.45-.18.12-.38.21-.57.27-.19.07-.39.11-.58.14-.19.02-.38.04-.56.04-.36,0-.7-.06-1.02-.18-.32-.12-.6-.29-.83-.53-.24-.23-.43-.52-.56-.87-.14-.35-.21-.75-.21-1.21,0-.35.06-.68.18-.99.12-.31.29-.58.51-.81.22-.23.49-.42.81-.55s.67-.21,1.07-.21c.34,0,.66.05.94.16s.53.26.73.46c.21.2.37.45.48.75.12.29.17.63.17,1,0,.12,0,.21-.02.29s-.03.13-.06.18c-.03.04-.06.07-.11.09-.04.02-.1.02-.17.02h-2.99ZM31.9,61.44c0-.12-.02-.24-.05-.36-.03-.12-.08-.22-.16-.31s-.17-.17-.28-.22-.26-.08-.43-.08c-.29,0-.52.08-.69.25s-.28.41-.33.73h1.93Z"/></svg>