<svg width="1808" height="1241" xmlns="http://www.w3.org/2000/svg" xmlns:xlink="http://www.w3.org/1999/xlink" xml:space="preserve" overflow="hidden"><defs><clipPath id="clip0"><rect x="655" y="611" width="1808" height="1241"/></clipPath></defs><g clip-path="url(#clip0)" transform="translate(-655 -611)"><rect x="655" y="611" width="1808" height="1241" fill="#FFFFFF"/><g><rect x="1072.5" y="1135.5" width="170" height="540" stroke="#000000" stroke-width="3.4375" stroke-linejoin="round" stroke-miterlimit="10" fill="#003C71"/></g><g><rect x="1430.5" y="1144.5" width="171" height="531" stroke="#000000" stroke-width="3.4375" stroke-linejoin="round" stroke-miterlimit="10" fill="#B72929"/></g><g><rect x="1789.5" y="1132.5" width="171" height="543" stroke="#000000" stroke-width="3.4375" stroke-linejoin="round" stroke-miterlimit="10" fill="#5C5C5C"/></g><g><rect x="2148.5" y="1156.5" width="170" height="519" stroke="#000000" stroke-width="3.4375" stroke-linejoin="round" stroke-miterlimit="10" fill="#1E8E8E"/></g><g><path d="M1516.05 1144.04 1516.05 1159M1516.05 1144.04 1516.05 1129M1506 1159 1526 1159M1506 1129 1526 1129" stroke="#000000" stroke-width="5.72917" stroke-linejoin="round" stroke-miterlimit="10" fill="none"/></g><g><path d="M1875.06 1132.04 1875.06 1149M1875.06 1132.04 1875.06 1115M1864 1149 1885 1149M1864 1115 1885 1115" stroke="#000000" stroke-width="5.72917" stroke-linejoin="round" stroke-miterlimit="10" fill="none"/></g><g><path d="M2233.07 1156.04 2233.07 1175M2233.07 1156.04 2233.07 1138M2223 1175 2244 1175M2223 1138 2244 1138" stroke="#000000" stroke-width="5.72917" stroke-linejoin="round" stroke-miterlimit="10" fill="none"/></g><g><path d="M978.5 1675.5 2412.5 1675.5" stroke="#D9D9D9" stroke-width="3.4375" stroke-linejoin="round" stroke-miterlimit="10" fill="none" fill-rule="evenodd"/></g><g><path d="M1157.5 1135.5 1516.55 1135.5 1874.56 1135.5 2233.5 1135.5" stroke="#000000" stroke-width="4.58333" stroke-linecap="round" stroke-linejoin="round" stroke-miterlimit="10" stroke-dasharray="13.75 18.3333" fill="none"/></g><g><text font-family="Lato,Lato_MSFontService,sans-serif" font-weight="400" font-size="48" transform="matrix(1 0 0 1 1082.57 1105)">$4,827</text></g><g><text font-family="Lato,Lato_MSFontService,sans-serif" font-weight="400" font-size="48" transform="matrix(1 0 0 1 1441.25 1114)">$4,751</text></g><g><text font-family="Lato,Lato_MSFontService,sans-serif" font-weight="400" font-size="48" transform="matrix(1 0 0 1 1799.93 1102)">$4,859</text></g><g><text font-family="Lato,Lato_MSFontService,sans-serif" font-weight="400" font-size="48" transform="matrix(1 0 0 1 2158.61 1126)">$4,643</text></g><g><text font-family="Lato,Lato_MSFontService,sans-serif" font-weight="400" font-size="48" transform="matrix(1 0 0 1 877.57 1692)">$0</text></g><g><text font-family="Lato,Lato_MSFontService,sans-serif" font-weight="400" font-size="48" transform="matrix(1 0 0 1 783.635 1580)">$1,000</text></g><g><text font-family="Lato,Lato_MSFontService,sans-serif" font-weight="400" font-size="48" transform="matrix(1 0 0 1 783.635 1468)">$2,000</text></g><g><text font-family="Lato,Lato_MSFontService,sans-serif" font-weight="400" font-size="48" transform="matrix(1 0 0 1 783.635 1357)">$3,000</text></g><g><text font-family="Lato,Lato_MSFontService,sans-serif" font-weight="400" font-size="48" transform="matrix(1 0 0 1 783.635 1245)">$4,000</text></g><g><text font-family="Lato,Lato_MSFontService,sans-serif" font-weight="400" font-size="48" transform="matrix(1 0 0 1 783.635 1133)">$5,000</text></g><g><text font-family="Lato,Lato_MSFontService,sans-serif" font-weight="400" font-size="48" transform="matrix(1 0 0 1 783.635 1022)">$6,000</text></g><g><text font-family="Lato,Lato_MSFontService,sans-serif" font-weight="400" font-size="48" transform="matrix(1 0 0 1 783.635 910)">$7,000</text></g><g><text font-family="Lato,Lato_MSFontService,sans-serif" font-weight="400" font-size="48" transform="matrix(1 0 0 1 783.635 798)">$8,000</text></g><g><text font-family="Lato,Lato_MSFontService,sans-serif" font-weight="400" font-size="48" transform="matrix(1 0 0 1 1075.98 1755)">Control</text></g><g><text font-family="Lato,Lato_MSFontService,sans-serif" font-weight="400" font-size="48" transform="matrix(1 0 0 1 1376.37 1755)">Any preparer</text></g><g><text font-family="Lato,Lato_MSFontService,sans-serif" font-weight="400" font-size="48" transform="matrix(1 0 0 1 1421.26 1813)">outreach</text></g><g><text font-family="Lato,Lato_MSFontService,sans-serif" font-weight="400" font-size="48" transform="matrix(1 0 0 1 1739.92 1755)">Preparer call</text></g><g><text font-family="Lato,Lato_MSFontService,sans-serif" font-weight="400" font-size="48" transform="matrix(1 0 0 1 2081.39 1755)">Call plus client</text></g><g><text font-family="Lato,Lato_MSFontService,sans-serif" font-weight="400" font-size="48" transform="matrix(1 0 0 1 2174.48 1813)">letter</text></g><g><text font-family="Lato,Lato_MSFontService,sans-serif" font-weight="400" font-size="48" transform="matrix(6.12323e-17 -1 1 6.12323e-17 760.145 1419)">Erroneous Dollars</text></g><g><text fill="#FFFFFF" font-family="Lato,Lato_MSFontService,sans-serif" font-weight="400" font-size="64" transform="matrix(1 0 0 1 1060.69 709)">Erroneous Dollars </text></g><g><text fill="#FFFFFF" font-family="Lato,Lato_MSFontService,sans-serif" font-weight="400" font-size="64" transform="matrix(1 0 0 1 1581.7 709)">-</text></g><g><text fill="#FFFFFF" font-family="Lato,Lato_MSFontService,sans-serif" font-weight="400" font-size="64" transform="matrix(1 0 0 1 1616.35 709)">5025 Preparers</text></g><g><path d="M1836.5 1028.5C1836.5 1009.17 1839.11 993.5 1842.33 993.5L2019.67 993.5C2022.89 993.5 2025.5 977.83 2025.5 958.5 2025.5 977.83 2028.11 993.5 2031.33 993.5L2208.67 993.5C2211.89 993.5 2214.5 1009.17 2214.5 1028.5" stroke="#000000" stroke-width="4.58333" stroke-miterlimit="8" fill="none" fill-rule="evenodd"/></g><g><rect x="1709" y="856" width="691" height="96.9999" fill="#FFFFFF"/></g><g><text font-family="Lato,Lato_MSFontService,sans-serif" font-weight="400" font-size="50" transform="matrix(1 0 0 1 1864.49 923)">dif=$215, p&lt;0.01</text></g></g></svg>