<svg width="1808" height="1241" xmlns="http://www.w3.org/2000/svg" xmlns:xlink="http://www.w3.org/1999/xlink" xml:space="preserve" overflow="hidden"><defs><clipPath id="clip0"><rect x="655" y="611" width="1808" height="1241"/></clipPath></defs><g clip-path="url(#clip0)" transform="translate(-655 -611)"><rect x="655" y="611" width="1808" height="1241" fill="#FFFFFF"/><g><rect x="1043.5" y="1143.5" width="174" height="553" stroke="#000000" stroke-width="3.4375" stroke-linejoin="round" stroke-miterlimit="10" fill="#003C71"/></g><g><rect x="1409.5" y="1152.5" width="175" height="544" stroke="#000000" stroke-width="3.4375" stroke-linejoin="round" stroke-miterlimit="10" fill="#B72929"/></g><g><rect x="1776.5" y="1139.5" width="174" height="557" stroke="#000000" stroke-width="3.4375" stroke-linejoin="round" stroke-miterlimit="10" fill="#5C5C5C"/></g><g><rect x="2142.5" y="1164.5" width="174" height="532" stroke="#000000" stroke-width="3.4375" stroke-linejoin="round" stroke-miterlimit="10" fill="#1E8E8E"/></g><g><path d="M1497.05 1152.04 1497.05 1167M1497.05 1152.04 1497.05 1137M1487 1167 1507 1167M1487 1137 1507 1137" stroke="#000000" stroke-width="5.72917" stroke-linejoin="round" stroke-miterlimit="10" fill="none"/></g><g><path d="M1863.06 1140.04 1863.06 1157M1863.06 1140.04 1863.06 1122M1853 1157 1874 1157M1853 1122 1874 1122" stroke="#000000" stroke-width="5.72917" stroke-linejoin="round" stroke-miterlimit="10" fill="none"/></g><g><path d="M2230.07 1164.04 2230.07 1183M2230.07 1164.04 2230.07 1146M2219 1183 2240 1183M2219 1146 2240 1146" stroke="#000000" stroke-width="5.72917" stroke-linejoin="round" stroke-miterlimit="10" fill="none"/></g><g><path d="M947.5 1696.5 2412.5 1696.5" stroke="#D9D9D9" stroke-width="3.4375" stroke-linejoin="round" stroke-miterlimit="10" fill="none" fill-rule="evenodd"/></g><g><path d="M1130.5 1143.5 1497.55 1143.5 1863.56 1143.5 2229.5 1143.5" stroke="#000000" stroke-width="4.58333" stroke-linecap="round" stroke-linejoin="round" stroke-miterlimit="10" stroke-dasharray="13.75 18.3333" fill="none"/></g><g><text fill="#404040" font-family="Lato,Lato_MSFontService,sans-serif" font-weight="400" font-size="41" transform="matrix(1 0 0 1 1066.55 1114)">$4,827</text></g><g><text fill="#404040" font-family="Lato,Lato_MSFontService,sans-serif" font-weight="400" font-size="41" transform="matrix(1 0 0 1 1432.86 1123)">$4,751</text></g><g><text fill="#404040" font-family="Lato,Lato_MSFontService,sans-serif" font-weight="400" font-size="41" transform="matrix(1 0 0 1 1799.17 1111)">$4,859</text></g><g><text fill="#404040" font-family="Lato,Lato_MSFontService,sans-serif" font-weight="400" font-size="41" transform="matrix(1 0 0 1 2165.48 1135)">$4,643</text></g><g><text fill="#595959" font-family="Lato,Lato_MSFontService,sans-serif" font-weight="400" font-size="41" transform="matrix(1 0 0 1 861.414 1710)">$0</text></g><g><text fill="#595959" font-family="Lato,Lato_MSFontService,sans-serif" font-weight="400" font-size="41" transform="matrix(1 0 0 1 780.885 1596)">$1,000</text></g><g><text fill="#595959" font-family="Lato,Lato_MSFontService,sans-serif" font-weight="400" font-size="41" transform="matrix(1 0 0 1 780.885 1481)">$2,000</text></g><g><text fill="#595959" font-family="Lato,Lato_MSFontService,sans-serif" font-weight="400" font-size="41" transform="matrix(1 0 0 1 780.885 1367)">$3,000</text></g><g><text fill="#595959" font-family="Lato,Lato_MSFontService,sans-serif" font-weight="400" font-size="41" transform="matrix(1 0 0 1 780.885 1252)">$4,000</text></g><g><text fill="#595959" font-family="Lato,Lato_MSFontService,sans-serif" font-weight="400" font-size="41" transform="matrix(1 0 0 1 780.885 1138)">$5,000</text></g><g><text fill="#595959" font-family="Lato,Lato_MSFontService,sans-serif" font-weight="400" font-size="41" transform="matrix(1 0 0 1 780.885 1023)">$6,000</text></g><g><text fill="#595959" font-family="Lato,Lato_MSFontService,sans-serif" font-weight="400" font-size="41" transform="matrix(1 0 0 1 780.885 909)">$7,000</text></g><g><text fill="#595959" font-family="Lato,Lato_MSFontService,sans-serif" font-weight="400" font-size="41" transform="matrix(1 0 0 1 780.885 794)">$8,000</text></g><g><text fill="#595959" font-family="Lato,Lato_MSFontService,sans-serif" font-weight="400" font-size="41" transform="matrix(1 0 0 1 1060.93 1764)">Control</text></g><g><text fill="#595959" font-family="Lato,Lato_MSFontService,sans-serif" font-weight="400" font-size="41" transform="matrix(1 0 0 1 1377.24 1764)">Any preparer</text></g><g><text fill="#595959" font-family="Lato,Lato_MSFontService,sans-serif" font-weight="400" font-size="41" transform="matrix(1 0 0 1 1415.74 1814)">outreach</text></g><g><text fill="#595959" font-family="Lato,Lato_MSFontService,sans-serif" font-weight="400" font-size="41" transform="matrix(1 0 0 1 1747.73 1764)">Preparer call</text></g><g><text fill="#595959" font-family="Lato,Lato_MSFontService,sans-serif" font-weight="400" font-size="41" transform="matrix(1 0 0 1 2099.31 1764)">Call plus client</text></g><g><text fill="#595959" font-family="Lato,Lato_MSFontService,sans-serif" font-weight="400" font-size="41" transform="matrix(1 0 0 1 2179.09 1814)">letter</text></g><g><text fill="#595959" font-family="Lato,Lato_MSFontService,sans-serif" font-weight="400" font-size="46" transform="matrix(6.12323e-17 -1 1 6.12323e-17 757.143 1420)">Erroneous Dollars</text></g><g><text fill="#FFFFFF" font-family="Lato,Lato_MSFontService,sans-serif" font-weight="400" font-size="64" transform="matrix(1 0 0 1 1060.69 709)">Erroneous Dollars </text></g><g><text fill="#FFFFFF" font-family="Lato,Lato_MSFontService,sans-serif" font-weight="400" font-size="64" transform="matrix(1 0 0 1 1581.7 709)">-</text></g><g><text fill="#FFFFFF" font-family="Lato,Lato_MSFontService,sans-serif" font-weight="400" font-size="64" transform="matrix(1 0 0 1 1616.35 709)">5025 Preparers</text></g><g><path d="M1836.5 1028.5C1836.5 1009.17 1839.11 993.5 1842.33 993.5L2019.67 993.5C2022.89 993.5 2025.5 977.83 2025.5 958.5 2025.5 977.83 2028.11 993.5 2031.33 993.5L2208.67 993.5C2211.89 993.5 2214.5 1009.17 2214.5 1028.5" stroke="#000000" stroke-width="4.58333" stroke-miterlimit="8" fill="none" fill-rule="evenodd"/></g><g><rect x="1709" y="856" width="691" height="96.9999" fill="#FFFFFF"/></g><g><text font-family="Aptos Narrow,Aptos Narrow_MSFontService,sans-serif" font-weight="400" font-stretch="semi-condensed" font-size="50" transform="matrix(1 0 0 1 1883.17 920)">dif=$215, p&lt;0.01</text></g></g></svg>