<svg width="1263" height="992" xmlns="http://www.w3.org/2000/svg" xmlns:xlink="http://www.w3.org/1999/xlink" xml:space="preserve" overflow="hidden"><defs><clipPath id="clip0"><rect x="2041" y="2062" width="1263" height="992"/></clipPath></defs><g clip-path="url(#clip0)" transform="translate(-2041 -2062)"><rect x="2042" y="2063" width="1260" height="989" fill="#FFFFFF"/><g><rect x="2498.5" y="2447.5" width="190" height="353" stroke="#000000" stroke-width="3.4375" stroke-linejoin="round" stroke-miterlimit="10" fill="#19677F"/></g><g><rect x="2937.5" y="2363.5" width="190" height="437" stroke="#000000" stroke-width="3.4375" stroke-linejoin="round" stroke-miterlimit="10" fill="#B72929"/></g><g><path d="M3032.6 2363.58 3032.6 2573.5M3032.6 2363.58 3032.6 2153.5M3022.5 2573.5 3042.5 2573.5M3022.5 2153.5 3042.5 2153.5" stroke="#595959" stroke-width="3.4375" stroke-linejoin="round" stroke-miterlimit="10" fill="none"/></g><g><path d="M2374.5 2800.5 3251.5 2800.5" stroke="#D9D9D9" stroke-width="3.4375" stroke-linejoin="round" stroke-miterlimit="10" fill="none" fill-rule="evenodd"/></g><g><path d="M2594 2448 3032 2448" stroke="#000000" stroke-width="5.72917" stroke-linecap="round" stroke-linejoin="round" stroke-miterlimit="10" stroke-dasharray="17.1875 22.9167" fill="none"/></g><g><text fill="#404040" font-family="Lato,Lato_MSFontService,sans-serif" font-weight="400" font-size="41" transform="matrix(1 0 0 1 2537.14 2419)">48.1%</text></g><g><text fill="#404040" font-family="Lato,Lato_MSFontService,sans-serif" font-weight="400" font-size="41" transform="matrix(1 0 0 1 2975.98 2335)">49.4%</text></g><g><text fill="#595959" font-family="Lato,Lato_MSFontService,sans-serif" font-weight="400" font-size="41" transform="matrix(1 0 0 1 2222.92 2814)">43.0%</text></g><g><text fill="#595959" font-family="Lato,Lato_MSFontService,sans-serif" font-weight="400" font-size="41" transform="matrix(1 0 0 1 2222.92 2746)">44.0%</text></g><g><text fill="#595959" font-family="Lato,Lato_MSFontService,sans-serif" font-weight="400" font-size="41" transform="matrix(1 0 0 1 2222.92 2677)">45.0%</text></g><g><text fill="#595959" font-family="Lato,Lato_MSFontService,sans-serif" font-weight="400" font-size="41" transform="matrix(1 0 0 1 2222.92 2608)">46.0%</text></g><g><text fill="#595959" font-family="Lato,Lato_MSFontService,sans-serif" font-weight="400" font-size="41" transform="matrix(1 0 0 1 2222.92 2540)">47.0%</text></g><g><text fill="#595959" font-family="Lato,Lato_MSFontService,sans-serif" font-weight="400" font-size="41" transform="matrix(1 0 0 1 2222.92 2471)">48.0%</text></g><g><text fill="#595959" font-family="Lato,Lato_MSFontService,sans-serif" font-weight="400" font-size="41" transform="matrix(1 0 0 1 2222.92 2402)">49.0%</text></g><g><text fill="#595959" font-family="Lato,Lato_MSFontService,sans-serif" font-weight="400" font-size="41" transform="matrix(1 0 0 1 2222.92 2333)">50.0%</text></g><g><text fill="#595959" font-family="Lato,Lato_MSFontService,sans-serif" font-weight="400" font-size="41" transform="matrix(1 0 0 1 2222.92 2265)">51.0%</text></g><g><text fill="#595959" font-family="Lato,Lato_MSFontService,sans-serif" font-weight="400" font-size="41" transform="matrix(1 0 0 1 2222.92 2196)">52.0%</text></g><g><text fill="#595959" font-family="Lato,Lato_MSFontService,sans-serif" font-weight="400" font-size="41" transform="matrix(1 0 0 1 2222.92 2127)">53.0%</text></g><g><text fill="#595959" font-family="Lato,Lato_MSFontService,sans-serif" font-weight="400" font-size="41" transform="matrix(1 0 0 1 2401.99 2868)">National Distribution</text></g><g><text fill="#595959" font-family="Lato,Lato_MSFontService,sans-serif" font-weight="400" font-size="41" transform="matrix(1 0 0 1 2530.41 2918)">Center</text></g><g><text fill="#595959" font-family="Lato,Lato_MSFontService,sans-serif" font-weight="400" font-size="41" transform="matrix(1 0 0 1 2883.37 2868)">Online Accounts</text></g><g><text fill="#595959" font-family="Lato,Lato_MSFontService,sans-serif" font-weight="400" font-size="46" transform="matrix(6.12323e-17 -1 1 6.12323e-17 2144.17 2749)">Percent reached filing season </text></g><g><text fill="#595959" font-family="Lato,Lato_MSFontService,sans-serif" font-weight="400" font-size="46" transform="matrix(6.12323e-17 -1 1 6.12323e-17 2199.17 2648)">outreach threshold</text></g><g><text fill="#595959" font-family="Lato,Lato_MSFontService,sans-serif" font-weight="400" font-size="46" transform="matrix(1 0 0 1 2613.25 2985)">Distribution System</text></g><rect x="2042.5" y="2063.5" width="1260" height="989" stroke="#FFFFFF" stroke-width="3.4375" stroke-linejoin="round" stroke-miterlimit="10" fill="none"/></g></svg>