<svg width="1263" height="985" xmlns="http://www.w3.org/2000/svg" xmlns:xlink="http://www.w3.org/1999/xlink" xml:space="preserve" overflow="hidden"><defs><clipPath id="clip0"><rect x="2288" y="480" width="1263" height="985"/></clipPath></defs><g clip-path="url(#clip0)" transform="translate(-2288 -480)"><rect x="2289" y="481" width="1260" height="982" fill="#FFFFFF"/><g><rect x="2702.5" y="735.5" width="218" height="475" stroke="#000000" stroke-width="3.4375" stroke-linejoin="round" stroke-miterlimit="10" fill="#19677F"/></g><g><rect x="3160.5" y="738.5" width="218" height="472" stroke="#000000" stroke-width="3.4375" stroke-linejoin="round" stroke-miterlimit="10" fill="#B72929"/></g><g><path d="M3269.61 738.524 3269.61 756.5M3269.61 738.524 3269.61 721.5M3259.5 756.5 3279.5 756.5M3259.5 721.5 3279.5 721.5" stroke="#595959" stroke-width="3.4375" stroke-linejoin="round" stroke-miterlimit="10" fill="none"/></g><g><path d="M2582.5 1210.5 3498.5 1210.5" stroke="#D9D9D9" stroke-width="3.4375" stroke-linejoin="round" stroke-miterlimit="10" fill="none" fill-rule="evenodd"/></g><g><path d="M2811.5 735.5 3269.5 735.5" stroke="#000000" stroke-width="4.58333" stroke-linecap="round" stroke-linejoin="round" stroke-miterlimit="10" stroke-dasharray="13.75 18.3333" fill="none"/></g><g><text fill="#404040" font-family="Lato,Lato_MSFontService,sans-serif" font-weight="400" font-size="41" transform="matrix(1 0 0 1 2747 706)">$4,900</text></g><g><text fill="#404040" font-family="Lato,Lato_MSFontService,sans-serif" font-weight="400" font-size="41" transform="matrix(1 0 0 1 3205.15 710)">$4,862</text></g><g><text fill="#595959" font-family="Lato,Lato_MSFontService,sans-serif" font-weight="400" font-size="41" transform="matrix(1 0 0 1 2495.95 1225)">$0</text></g><g><text fill="#595959" font-family="Lato,Lato_MSFontService,sans-serif" font-weight="400" font-size="41" transform="matrix(1 0 0 1 2415.42 1128)">$1,000</text></g><g><text fill="#595959" font-family="Lato,Lato_MSFontService,sans-serif" font-weight="400" font-size="41" transform="matrix(1 0 0 1 2415.42 1031)">$2,000</text></g><g><text fill="#595959" font-family="Lato,Lato_MSFontService,sans-serif" font-weight="400" font-size="41" transform="matrix(1 0 0 1 2415.42 934)">$3,000</text></g><g><text fill="#595959" font-family="Lato,Lato_MSFontService,sans-serif" font-weight="400" font-size="41" transform="matrix(1 0 0 1 2415.42 837)">$4,000</text></g><g><text fill="#595959" font-family="Lato,Lato_MSFontService,sans-serif" font-weight="400" font-size="41" transform="matrix(1 0 0 1 2415.42 740)">$5,000</text></g><g><text fill="#595959" font-family="Lato,Lato_MSFontService,sans-serif" font-weight="400" font-size="41" transform="matrix(1 0 0 1 2415.42 643)">$6,000</text></g><g><text fill="#595959" font-family="Lato,Lato_MSFontService,sans-serif" font-weight="400" font-size="41" transform="matrix(1 0 0 1 2415.42 546)">$7,000</text></g><g><text fill="#595959" font-family="Lato,Lato_MSFontService,sans-serif" font-weight="400" font-size="41" transform="matrix(1 0 0 1 2619.56 1279)">National Distribution</text></g><g><text fill="#595959" font-family="Lato,Lato_MSFontService,sans-serif" font-weight="400" font-size="41" transform="matrix(1 0 0 1 2747.99 1328)">Center</text></g><g><text fill="#595959" font-family="Lato,Lato_MSFontService,sans-serif" font-weight="400" font-size="41" transform="matrix(1 0 0 1 3120.25 1279)">Online Accounts</text></g><g><text fill="#595959" font-family="Lato,Lato_MSFontService,sans-serif" font-weight="400" font-size="46" transform="matrix(6.12323e-17 -1 1 6.12323e-17 2391.67 1048)">Erroneous dollars</text></g><g><text fill="#595959" font-family="Lato,Lato_MSFontService,sans-serif" font-weight="400" font-size="46" transform="matrix(1 0 0 1 2840.48 1395)">Distribution System</text></g><rect x="2289.5" y="481.5" width="1260" height="982" stroke="#FFFFFF" stroke-width="3.4375" stroke-linejoin="round" stroke-miterlimit="10" fill="none"/></g></svg>