<svg width="1937" height="1240" xmlns="http://www.w3.org/2000/svg" xmlns:xlink="http://www.w3.org/1999/xlink" xml:space="preserve" overflow="hidden"><defs><clipPath id="clip0"><rect x="2807" y="2888" width="1937" height="1240"/></clipPath></defs><g clip-path="url(#clip0)" transform="translate(-2807 -2888)"><rect x="2807" y="2888" width="1937" height="1240" fill="#FFFFFF"/><g><rect x="3235" y="3304" width="219" height="567" fill="#003C71"/></g><g><rect x="3620" y="3309" width="219" height="562" fill="#B72929"/></g><g><rect x="4005" y="3334" width="219" height="537" fill="#5C5C5C"/></g><g><rect x="4391" y="3325" width="219" height="546" fill="#1E8E8E"/></g><g><path d="M3729.62 3308.61 3729.62 3329.5M3729.62 3308.61 3729.62 3288.5M3719.5 3329.5 3739.5 3329.5M3719.5 3288.5 3739.5 3288.5" stroke="#000000" stroke-width="6.875" stroke-linejoin="round" stroke-miterlimit="10" fill="none"/></g><g><path d="M4114.64 3334.61 4114.64 3353.5M4114.64 3334.61 4114.64 3314.5M4104.5 3353.5 4125.5 3353.5M4104.5 3314.5 4125.5 3314.5" stroke="#000000" stroke-width="6.875" stroke-linejoin="round" stroke-miterlimit="10" fill="none"/></g><g><path d="M4499.65 3325.61 4499.65 3352.5M4499.65 3325.61 4499.65 3297.5M4489.5 3352.5 4510.5 3352.5M4489.5 3297.5 4510.5 3297.5" stroke="#000000" stroke-width="6.875" stroke-linejoin="round" stroke-miterlimit="10" fill="none"/></g><g><path d="M0 0 0.000360892 747" stroke="#000000" stroke-width="3.4375" stroke-linejoin="round" stroke-miterlimit="10" fill="none" fill-rule="evenodd" transform="matrix(1 0 0 -1 3151.5 3871.5)"/></g><g><path d="M3137.5 3871.5 3151.5 3871.5M3137.5 3764.62 3151.5 3764.62M3137.5 3657.62 3151.5 3657.62M3137.5 3551.62 3151.5 3551.62M3137.5 3444.61 3151.5 3444.61M3137.5 3337.61 3151.5 3337.61M3137.5 3231.61 3151.5 3231.61M3137.5 3124.5 3151.5 3124.5" stroke="#000000" stroke-width="3.4375" stroke-linejoin="round" stroke-miterlimit="10" fill="none"/></g><g><path d="M3151.5 3871.5 4692.5 3871.5" stroke="#000000" stroke-width="3.4375" stroke-linejoin="round" stroke-miterlimit="10" fill="none" fill-rule="evenodd"/></g><g><path d="M3344.5 3303.5 3729.62 3303.5 4114.64 3303.5 4500.5 3303.5" stroke="#000000" stroke-width="4.58333" stroke-linecap="round" stroke-linejoin="round" stroke-miterlimit="10" stroke-dasharray="13.75 18.3333" fill="none"/></g><g><text font-family="Lato,Lato_MSFontService,sans-serif" font-weight="400" font-size="50" transform="matrix(1 0 0 1 3216.44 3273)">$1,063,713</text></g><g><text font-family="Lato,Lato_MSFontService,sans-serif" font-weight="400" font-size="50" transform="matrix(1 0 0 1 3601.76 3278)">$1,053,929</text></g><g><text font-family="Lato,Lato_MSFontService,sans-serif" font-weight="400" font-size="50" transform="matrix(1 0 0 1 3987.08 3303)">$1,006,243</text></g><g><text font-family="Lato,Lato_MSFontService,sans-serif" font-weight="400" font-size="50" transform="matrix(1 0 0 1 4372.4 3294)">$1,023,430</text></g><g><text font-family="Lato,Lato_MSFontService,sans-serif" font-weight="400" font-size="41" transform="matrix(1 0 0 1 3065.25 3885)">$0</text></g><g><text font-family="Lato,Lato_MSFontService,sans-serif" font-weight="400" font-size="41" transform="matrix(1 0 0 1 2936.87 3779)">$200,000</text></g><g><text font-family="Lato,Lato_MSFontService,sans-serif" font-weight="400" font-size="41" transform="matrix(1 0 0 1 2936.87 3672)">$400,000</text></g><g><text font-family="Lato,Lato_MSFontService,sans-serif" font-weight="400" font-size="41" transform="matrix(1 0 0 1 2936.87 3565)">$600,000</text></g><g><text font-family="Lato,Lato_MSFontService,sans-serif" font-weight="400" font-size="41" transform="matrix(1 0 0 1 2936.87 3459)">$800,000</text></g><g><text font-family="Lato,Lato_MSFontService,sans-serif" font-weight="400" font-size="41" transform="matrix(1 0 0 1 2904.19 3352)">$1,000,000</text></g><g><text font-family="Lato,Lato_MSFontService,sans-serif" font-weight="400" font-size="41" transform="matrix(1 0 0 1 2904.19 3245)">$1,200,000</text></g><g><text font-family="Lato,Lato_MSFontService,sans-serif" font-weight="400" font-size="41" transform="matrix(1 0 0 1 2904.19 3139)">$1,400,000</text></g><g><text font-family="Lato,Lato_MSFontService,sans-serif" font-weight="400" font-size="50" transform="matrix(1 0 0 1 3258.75 3954)">Control</text></g><g><text font-family="Lato,Lato_MSFontService,sans-serif" font-weight="400" font-size="50" transform="matrix(1 0 0 1 3633 3954)">Webinar</text></g><g><text font-family="Lato,Lato_MSFontService,sans-serif" font-weight="400" font-size="50" transform="matrix(1 0 0 1 3997.53 3954)">L5025 and</text></g><g><text font-family="Lato,Lato_MSFontService,sans-serif" font-weight="400" font-size="50" transform="matrix(1 0 0 1 3997.99 4015)">eligible for</text></g><g><text font-family="Lato,Lato_MSFontService,sans-serif" font-weight="400" font-size="50" transform="matrix(1 0 0 1 4044.78 4075)">FS call</text></g><g><text font-family="Lato,Lato_MSFontService,sans-serif" font-weight="400" font-size="50" transform="matrix(1 0 0 1 4382.85 3954)">L5025 and</text></g><g><text font-family="Lato,Lato_MSFontService,sans-serif" font-weight="400" font-size="50" transform="matrix(1 0 0 1 4383.31 4015)">eligible for</text></g><g><text font-family="Lato,Lato_MSFontService,sans-serif" font-weight="400" font-size="50" transform="matrix(1 0 0 1 4396.1 4075)">FS L4858</text></g><g><text font-family="Lato,Lato_MSFontService,sans-serif" font-weight="400" font-size="55" transform="matrix(6.12323e-17 -1 1 6.12323e-17 2878.43 3688)">Refund Amount</text></g><g><text fill="#FFFFFF" font-family="Lato,Lato_MSFontService,sans-serif" font-weight="400" font-size="64" transform="matrix(1 0 0 1 3363.8 2985)">Refund </text></g><g><text fill="#FFFFFF" font-family="Lato,Lato_MSFontService,sans-serif" font-weight="400" font-size="64" transform="matrix(1 0 0 1 3579.98 2985)">-</text></g><g><text fill="#FFFFFF" font-family="Lato,Lato_MSFontService,sans-serif" font-weight="400" font-size="64" transform="matrix(1 0 0 1 3614.63 2985)">Returning Preparers</text></g><g><path d="M4092.5 3246.5C4092.5 3220.82 4095.97 3200 4100.25 3200L4282.75 3200C4287.03 3200 4290.5 3179.18 4290.5 3153.5 4290.5 3179.18 4293.97 3200 4298.25 3200L4480.75 3200C4485.03 3200 4488.5 3220.82 4488.5 3246.5" stroke="#000000" stroke-width="4.58333" stroke-miterlimit="8" fill="none" fill-rule="evenodd"/></g><g><rect x="3994" y="3061" width="549" height="90" fill="#FFFFFF"/></g><g><text font-family="Lato,Lato_MSFontService,sans-serif" font-weight="400" font-size="50" transform="matrix(1 0 0 1 4043.68 3127)">dif=$17,187, p=0.48</text></g></g></svg>