<svg width="1997" height="1419" xmlns="http://www.w3.org/2000/svg" xmlns:xlink="http://www.w3.org/1999/xlink" xml:space="preserve" overflow="hidden"><defs><clipPath id="clip0"><rect x="3032" y="6559" width="1997" height="1419"/></clipPath></defs><g clip-path="url(#clip0)" transform="translate(-3032 -6559)"><rect x="3032" y="6559" width="1997" height="1419" fill="#FFFFFF"/><g><rect x="3602" y="7198" width="287" height="486" fill="#003C71"/></g><g><rect x="4108" y="7188" width="288" height="496" fill="#B72929"/></g><g><rect x="4614" y="7224" width="288" height="460" fill="#5C5C5C"/></g><g><path d="M4251.64 7187.74 4251.64 7206.5M4251.64 7187.74 4251.64 7169.5M4241.5 7206.5 4262.5 7206.5M4241.5 7169.5 4262.5 7169.5" stroke="#000000" stroke-width="6.875" stroke-linejoin="round" stroke-miterlimit="10" fill="none"/></g><g><path d="M4757.66 7223.74 4757.66 7240.5M4757.66 7223.74 4757.66 7208.5M4747.5 7240.5 4768.5 7240.5M4747.5 7208.5 4768.5 7208.5" stroke="#000000" stroke-width="6.875" stroke-linejoin="round" stroke-miterlimit="10" fill="none"/></g><g><path d="M0 0 0.000360892 842" stroke="#000000" stroke-width="3.4375" stroke-linejoin="round" stroke-miterlimit="10" fill="none" fill-rule="evenodd" transform="matrix(1 0 0 -1 3492.5 7684.5)"/></g><g><path d="M3476.5 7684.5 3492.5 7684.5M3476.5 7563.75 3492.5 7563.75M3476.5 7443.74 3492.5 7443.74M3476.5 7323.74 3492.5 7323.74M3476.5 7202.74 3492.5 7202.74M3476.5 7082.73 3492.5 7082.73M3476.5 6962.73 3492.5 6962.73M3476.5 6842.5 3492.5 6842.5" stroke="#000000" stroke-width="3.4375" stroke-linejoin="round" stroke-miterlimit="10" fill="none"/></g><g><path d="M3492.5 7684.5 5011.5 7684.5" stroke="#000000" stroke-width="3.4375" stroke-linejoin="round" stroke-miterlimit="10" fill="none" fill-rule="evenodd"/></g><g><path d="M3745.5 7197.5 4251.64 7197.5 4758.5 7197.5" stroke="#000000" stroke-width="4.58333" stroke-linecap="round" stroke-linejoin="round" stroke-miterlimit="10" stroke-dasharray="13.75 18.3333" fill="none"/></g><g><text fill="#404040" font-family="Lato,Lato_MSFontService,sans-serif" font-weight="400" font-size="64" transform="matrix(1 0 0 1 3608.43 7163)">$808,751</text></g><g><text fill="#404040" font-family="Lato,Lato_MSFontService,sans-serif" font-weight="400" font-size="64" transform="matrix(1 0 0 1 4114.74 7153)">$824,881</text></g><g><text fill="#404040" font-family="Lato,Lato_MSFontService,sans-serif" font-weight="400" font-size="64" transform="matrix(1 0 0 1 4621.05 7190)">$764,719</text></g><g><text fill="#595959" font-family="Lato,Lato_MSFontService,sans-serif" font-weight="400" font-size="48" transform="matrix(1 0 0 1 3391.81 7701)">$0</text></g><g><text fill="#595959" font-family="Lato,Lato_MSFontService,sans-serif" font-weight="400" font-size="48" transform="matrix(1 0 0 1 3242.05 7581)">$200,000</text></g><g><text fill="#595959" font-family="Lato,Lato_MSFontService,sans-serif" font-weight="400" font-size="48" transform="matrix(1 0 0 1 3242.05 7460)">$400,000</text></g><g><text fill="#595959" font-family="Lato,Lato_MSFontService,sans-serif" font-weight="400" font-size="48" transform="matrix(1 0 0 1 3242.05 7340)">$600,000</text></g><g><text fill="#595959" font-family="Lato,Lato_MSFontService,sans-serif" font-weight="400" font-size="48" transform="matrix(1 0 0 1 3242.05 7220)">$800,000</text></g><g><text fill="#595959" font-family="Lato,Lato_MSFontService,sans-serif" font-weight="400" font-size="48" transform="matrix(1 0 0 1 3203.93 7099)">$1,000,000</text></g><g><text fill="#595959" font-family="Lato,Lato_MSFontService,sans-serif" font-weight="400" font-size="48" transform="matrix(1 0 0 1 3203.93 6979)">$1,200,000</text></g><g><text fill="#595959" font-family="Lato,Lato_MSFontService,sans-serif" font-weight="400" font-size="48" transform="matrix(1 0 0 1 3203.93 6859)">$1,400,000</text></g><g><text fill="#595959" font-family="Lato,Lato_MSFontService,sans-serif" font-weight="400" font-size="64" transform="matrix(1 0 0 1 3636.89 7789)">Control</text></g><g><text fill="#595959" font-family="Lato,Lato_MSFontService,sans-serif" font-weight="400" font-size="64" transform="matrix(1 0 0 1 4129.12 7789)">Webinar</text></g><g><text fill="#595959" font-family="Lato,Lato_MSFontService,sans-serif" font-weight="400" font-size="64" transform="matrix(1 0 0 1 4608.96 7789)">L5025 and</text></g><g><text fill="#595959" font-family="Lato,Lato_MSFontService,sans-serif" font-weight="400" font-size="64" transform="matrix(1 0 0 1 4568.18 7866)">eligible for FS</text></g><g><text fill="#595959" font-family="Lato,Lato_MSFontService,sans-serif" font-weight="400" font-size="64" transform="matrix(1 0 0 1 4631.64 7943)">outreach</text></g><g><text fill="#595959" font-family="Lato,Lato_MSFontService,sans-serif" font-weight="400" font-size="64" transform="matrix(6.12323e-17 -1 1 6.12323e-17 3169.79 7472)">Refund Amount</text></g><g><text fill="#FFFFFF" font-family="Lato,Lato_MSFontService,sans-serif" font-weight="400" font-size="64" transform="matrix(1 0 0 1 3337.39 6656)">Refund </text></g><g><text fill="#FFFFFF" font-family="Lato,Lato_MSFontService,sans-serif" font-weight="400" font-size="64" transform="matrix(1 0 0 1 3553.56 6656)">-</text></g><g><text fill="#FFFFFF" font-family="Lato,Lato_MSFontService,sans-serif" font-weight="400" font-size="64" transform="matrix(1 0 0 1 3588.21 6656)">Combined New and Returning Preparers</text></g></g></svg>