<svg width="1939" height="1242" xmlns="http://www.w3.org/2000/svg" xmlns:xlink="http://www.w3.org/1999/xlink" xml:space="preserve" overflow="hidden"><defs><clipPath id="clip0"><rect x="2861" y="4743" width="1939" height="1242"/></clipPath></defs><g clip-path="url(#clip0)" transform="translate(-2861 -4743)"><rect x="2862" y="4744" width="1936" height="1239" fill="#FFFFFF"/><g><rect x="3301" y="5347" width="217" height="380" fill="#003C71"/></g><g><rect x="3683" y="5335" width="217" height="392" fill="#B72929"/></g><g><rect x="4065" y="5370" width="217" height="357" fill="#5C5C5C"/></g><g><rect x="4447" y="5368" width="217" height="359" fill="#1E8E8E"/></g><g><path d="M3791.62 5334.68 3791.62 5356.5M3791.62 5334.68 3791.62 5313.5M3781.5 5356.5 3801.5 5356.5M3781.5 5313.5 3801.5 5313.5" stroke="#000000" stroke-width="6.875" stroke-linejoin="round" stroke-miterlimit="10" fill="none"/></g><g><path d="M4173.64 5369.68 4173.64 5388.5M4173.64 5369.68 4173.64 5351.5M4163.5 5388.5 4183.5 5388.5M4163.5 5351.5 4183.5 5351.5" stroke="#000000" stroke-width="6.875" stroke-linejoin="round" stroke-miterlimit="10" fill="none"/></g><g><path d="M4555.65 5367.68 4555.65 5390.5M4555.65 5367.68 4555.65 5345.5M4544.5 5390.5 4565.5 5390.5M4544.5 5345.5 4565.5 5345.5" stroke="#000000" stroke-width="6.875" stroke-linejoin="round" stroke-miterlimit="10" fill="none"/></g><g><path d="M0 0 0.000360892 754" stroke="#000000" stroke-width="3.4375" stroke-linejoin="round" stroke-miterlimit="10" fill="none" fill-rule="evenodd" transform="matrix(1 0 0 -1 3218.5 5726.5)"/></g><g><path d="M3204.5 5726.5 3218.5 5726.5M3204.5 5618.68 3218.5 5618.68M3204.5 5511.68 3218.5 5511.68M3204.5 5403.68 3218.5 5403.68M3204.5 5295.67 3218.5 5295.67M3204.5 5187.67 3218.5 5187.67M3204.5 5080.67 3218.5 5080.67M3204.5 4972.5 3218.5 4972.5" stroke="#000000" stroke-width="3.4375" stroke-linejoin="round" stroke-miterlimit="10" fill="none"/></g><g><path d="M3218.5 5726.5 4746.5 5726.5" stroke="#000000" stroke-width="3.4375" stroke-linejoin="round" stroke-miterlimit="10" fill="none" fill-rule="evenodd"/></g><g><path d="M3409.5 5346.5 3791.62 5346.5 4173.64 5346.5 4555.5 5346.5" stroke="#000000" stroke-width="4.58333" stroke-linecap="round" stroke-linejoin="round" stroke-miterlimit="10" stroke-dasharray="13.75 18.3333" fill="none"/></g><g><text fill="#404040" font-family="Lato,Lato_MSFontService,sans-serif" font-weight="400" font-size="50" transform="matrix(1 0 0 1 3301.79 5315)">$705,779</text></g><g><text fill="#404040" font-family="Lato,Lato_MSFontService,sans-serif" font-weight="400" font-size="50" transform="matrix(1 0 0 1 3683.71 5304)">$727,607</text></g><g><text fill="#404040" font-family="Lato,Lato_MSFontService,sans-serif" font-weight="400" font-size="50" transform="matrix(1 0 0 1 4065.63 5339)">$662,687</text></g><g><text fill="#404040" font-family="Lato,Lato_MSFontService,sans-serif" font-weight="400" font-size="50" transform="matrix(1 0 0 1 4447.55 5337)">$665,654</text></g><g><text fill="#595959" font-family="Lato,Lato_MSFontService,sans-serif" font-weight="400" font-size="41" transform="matrix(1 0 0 1 3132.33 5741)">$0</text></g><g><text fill="#595959" font-family="Lato,Lato_MSFontService,sans-serif" font-weight="400" font-size="41" transform="matrix(1 0 0 1 3003.96 5633)">$200,000</text></g><g><text fill="#595959" font-family="Lato,Lato_MSFontService,sans-serif" font-weight="400" font-size="41" transform="matrix(1 0 0 1 3003.96 5525)">$400,000</text></g><g><text fill="#595959" font-family="Lato,Lato_MSFontService,sans-serif" font-weight="400" font-size="41" transform="matrix(1 0 0 1 3003.96 5418)">$600,000</text></g><g><text fill="#595959" font-family="Lato,Lato_MSFontService,sans-serif" font-weight="400" font-size="41" transform="matrix(1 0 0 1 3003.96 5310)">$800,000</text></g><g><text fill="#595959" font-family="Lato,Lato_MSFontService,sans-serif" font-weight="400" font-size="41" transform="matrix(1 0 0 1 2971.28 5202)">$1,000,000</text></g><g><text fill="#595959" font-family="Lato,Lato_MSFontService,sans-serif" font-weight="400" font-size="41" transform="matrix(1 0 0 1 2971.28 5095)">$1,200,000</text></g><g><text fill="#595959" font-family="Lato,Lato_MSFontService,sans-serif" font-weight="400" font-size="41" transform="matrix(1 0 0 1 2971.28 4987)">$1,400,000</text></g><g><text fill="#595959" font-family="Lato,Lato_MSFontService,sans-serif" font-weight="400" font-size="50" transform="matrix(1 0 0 1 3324.14 5810)">Control</text></g><g><text fill="#595959" font-family="Lato,Lato_MSFontService,sans-serif" font-weight="400" font-size="50" transform="matrix(1 0 0 1 3694.99 5810)">Webinar</text></g><g><text fill="#595959" font-family="Lato,Lato_MSFontService,sans-serif" font-weight="400" font-size="50" transform="matrix(1 0 0 1 4056.12 5810)">L5025 and</text></g><g><text fill="#595959" font-family="Lato,Lato_MSFontService,sans-serif" font-weight="400" font-size="50" transform="matrix(1 0 0 1 4056.58 5870)">eligible for</text></g><g><text fill="#595959" font-family="Lato,Lato_MSFontService,sans-serif" font-weight="400" font-size="50" transform="matrix(1 0 0 1 4103.37 5931)">FS call</text></g><g><text fill="#595959" font-family="Lato,Lato_MSFontService,sans-serif" font-weight="400" font-size="50" transform="matrix(1 0 0 1 4438.04 5810)">L5025 and</text></g><g><text fill="#595959" font-family="Lato,Lato_MSFontService,sans-serif" font-weight="400" font-size="50" transform="matrix(1 0 0 1 4438.5 5870)">eligible for</text></g><g><text fill="#595959" font-family="Lato,Lato_MSFontService,sans-serif" font-weight="400" font-size="50" transform="matrix(1 0 0 1 4451.3 5931)">FS L4858</text></g><g><text fill="#595959" font-family="Lato,Lato_MSFontService,sans-serif" font-weight="400" font-size="55" transform="matrix(6.12323e-17 -1 1 6.12323e-17 2945.52 5540)">Refund Amount</text></g><g><text fill="#FFFFFF" font-family="Lato,Lato_MSFontService,sans-serif" font-weight="400" font-size="64" transform="matrix(1 0 0 1 3492.6 4841)">Refund </text></g><g><text fill="#FFFFFF" font-family="Lato,Lato_MSFontService,sans-serif" font-weight="400" font-size="64" transform="matrix(1 0 0 1 3708.77 4841)">-</text></g><g><text fill="#FFFFFF" font-family="Lato,Lato_MSFontService,sans-serif" font-weight="400" font-size="64" transform="matrix(1 0 0 1 3743.42 4841)">New Preparers</text></g><rect x="2862.5" y="4744.5" width="1936" height="1239" stroke="#000000" stroke-width="3.4375" stroke-linejoin="round" stroke-miterlimit="10" fill="none"/><g><path d="M4125.5 5273.5C4125.5 5248.1 4128.93 5227.5 4133.17 5227.5L4329.33 5227.5C4333.57 5227.5 4337 5206.91 4337 5181.5 4337 5206.91 4340.43 5227.5 4344.67 5227.5L4540.83 5227.5C4545.07 5227.5 4548.5 5248.1 4548.5 5273.5" stroke="#000000" stroke-width="4.58333" stroke-miterlimit="8" fill="none" fill-rule="evenodd"/></g><g><rect x="4054" y="5071" width="548" height="91" fill="#FFFFFF"/></g><g><text font-family="Aptos Narrow,Aptos Narrow_MSFontService,sans-serif" font-weight="400" font-stretch="semi-condensed" font-size="55" transform="matrix(1 0 0 1 4120.05 5140)">dif=$2,966, p=0.87</text></g></g></svg>