<svg class="icon-gears" width="135" height="135" viewBox="0 0 135 135" xmlns="http://www.w3.org/2000/svg"><title>Gears</title><path d="M126.287 43.902l-5.704-1.5c-1.112-.293-2.302.13-2.98 1.064-1.168 1.615-2.577 3.03-4.19 4.21-.936.685-1.35 1.872-1.044 2.99l1.555 5.676c-.967.475-1.962.89-2.982 1.248l-2.964-5.087c-.587-.998-1.735-1.543-2.867-1.35-1.943.316-3.944.338-5.954.03-1.157-.162-2.28.372-2.853 1.373L93.38 57.67c-1.03-.347-2.016-.75-2.994-1.22l1.51-5.687c.297-1.12-.13-2.305-1.07-2.98-1.616-1.16-3.042-2.57-4.232-4.187-.686-.93-1.87-1.334-2.99-1.04l-5.69 1.552c-.474-.965-.896-1.963-1.252-2.974l5.095-2.958c1.004-.58 1.54-1.72 1.354-2.858-.32-1.98-.33-3.983-.027-5.95.178-1.147-.37-2.28-1.376-2.85L76.59 23.6c.347-1.016.756-2.01 1.226-2.98l5.693 1.503c1.13.294 2.31-.128 2.987-1.068 1.167-1.62 2.58-3.04 4.195-4.217.94-.686 1.356-1.876 1.05-2.99L90.19 8.17c.966-.47 1.967-.886 2.978-1.245l2.967 5.087c.578.998 1.684 1.524 2.868 1.354 1.946-.317 3.95-.336 5.955-.025 1.14.176 2.282-.37 2.854-1.372l2.925-5.11c1.026.345 2.015.748 2.99 1.22l-1.51 5.69c-.293 1.12.13 2.303 1.07 2.978 1.617 1.17 3.04 2.577 4.224 4.187.685.934 1.883 1.342 2.995 1.042l5.688-1.55c.475.964.892 1.96 1.248 2.976l-5.098 2.96c-1 .58-1.542 1.717-1.356 2.86.32 1.973.33 3.97.028 5.93-.178 1.144.37 2.278 1.376 2.848l5.123 2.922c-.348 1.025-.753 2.01-1.226 2.982m5.924-6.735l-5.445-3.105c.092-1.265.086-2.533-.02-3.8l5.43-3.15c1.087-.63 1.62-1.912 1.295-3.127-.767-2.9-1.932-5.676-3.466-8.262-.64-1.084-1.924-1.584-3.144-1.27l-6.055 1.65c-.83-.958-1.734-1.856-2.704-2.678l1.604-6.055c.323-1.217-.21-2.5-1.3-3.13-2.64-1.526-5.354-2.635-8.3-3.39-1.227-.324-2.503.224-3.125 1.316l-3.112 5.438c-1.284-.098-2.56-.092-3.822.01l-3.158-5.41c-.63-1.088-1.92-1.617-3.136-1.294-2.86.753-5.72 1.948-8.272 3.452-1.085.642-1.607 1.93-1.276 3.142l1.654 6.04c-.97.83-1.87 1.74-2.7 2.713l-6.06-1.6c-1.228-.335-2.507.207-3.138 1.297-1.51 2.59-2.65 5.376-3.4 8.278-.314 1.218.23 2.497 1.324 3.117l5.448 3.104c-.095 1.273-.086 2.55.017 3.822l-5.425 3.147c-1.09.633-1.618 1.915-1.295 3.127.76 2.857 1.96 5.712 3.47 8.256.644 1.084 1.93 1.595 3.146 1.273l6.054-1.655c.837.967 1.743 1.865 2.713 2.685l-1.6 6.05c-.326 1.217.208 2.498 1.3 3.13 2.674 1.545 5.31 2.62 8.303 3.388.234.058.467.09.698.09.987 0 1.924-.527 2.43-1.41l3.11-5.438c1.268.092 2.552.083 3.814-.02l3.155 5.413c.634 1.087 1.918 1.618 3.14 1.292 2.903-.77 5.686-1.934 8.274-3.46 1.08-.643 1.6-1.927 1.273-3.14l-1.657-6.04c.965-.828 1.86-1.73 2.683-2.698L127 49.865c1.205.31 2.498-.21 3.13-1.295 1.536-2.63 2.648-5.34 3.404-8.29.31-1.217-.23-2.493-1.323-3.113m-23.59-2.224c-1.444 3.53-5.694 5.33-9.264 3.875-3.625-1.482-5.365-5.63-3.88-9.243 1.095-2.677 3.677-4.403 6.574-4.403.92 0 1.826.178 2.69.53 1.755.718 3.125 2.072 3.86 3.818.73 1.745.74 3.672.02 5.423m-1.758-14.41c-6.363-2.59-13.98.614-16.568 6.924-2.652 6.47.462 13.882 6.944 16.53 1.54.627 3.155.947 4.806.947 5.18 0 9.796-3.094 11.756-7.873 1.287-3.132 1.27-6.576-.04-9.698-1.31-3.118-3.76-5.545-6.898-6.83M82.79 93.247l-8.977 1.175c-1.148.15-2.088.99-2.36 2.116-.67 2.79-1.774 5.45-3.278 7.897-.608.987-.54 2.243.167 3.16l5.52 7.164c-1.38 1.626-2.89 3.132-4.52 4.508l-7.177-5.5c-.914-.704-2.17-.77-3.17-.168-2.462 1.504-5.127 2.608-7.924 3.28-1.122.273-1.964 1.207-2.114 2.352l-1.176 8.957c-2.15.182-4.242.18-6.388 0l-1.173-8.95c-.15-1.148-.996-2.082-2.122-2.354-2.797-.667-5.468-1.77-7.942-3.277-.98-.602-2.24-.54-3.163.165l-7.18 5.504c-1.62-1.37-3.142-2.892-4.515-4.5l5.515-7.162c.706-.917.773-2.174.167-3.16-1.515-2.466-2.624-5.132-3.294-7.926-.275-1.126-1.212-1.965-2.36-2.115l-8.97-1.17c-.173-2.12-.173-4.25 0-6.375l8.97-1.167c1.148-.15 2.085-.99 2.36-2.118.67-2.794 1.78-5.46 3.294-7.926.606-.985.54-2.24-.167-3.156l-5.515-7.16c1.373-1.613 2.896-3.134 4.514-4.502l7.18 5.504c.923.706 2.185.776 3.164.167 2.474-1.51 5.145-2.613 7.942-3.277 1.126-.275 1.97-1.207 2.12-2.355l1.174-8.952c2.15-.178 4.236-.18 6.388.005l1.176 8.957c.15 1.142.992 2.08 2.115 2.35 2.8.67 5.47 1.775 7.926 3.28.998.607 2.255.544 3.17-.165l7.177-5.504c1.63 1.377 3.138 2.883 4.52 4.512l-5.52 7.16c-.707.918-.776 2.175-.168 3.164 1.504 2.447 2.608 5.107 3.278 7.895.272 1.13 1.212 1.97 2.36 2.12l8.976 1.172c.182 2.144.182 4.23 0 6.375m2.898-11.626l-9.3-1.216c-.63-2.06-1.455-4.05-2.475-5.952l5.723-7.425c.768-.998.773-2.382.012-3.385-2.458-3.24-5.343-6.122-8.582-8.562-1.006-.762-2.393-.756-3.394.008l-7.44 5.704c-1.906-1.017-3.904-1.84-5.97-2.47l-1.22-9.28c-.158-1.245-1.137-2.232-2.388-2.402-4.147-.575-7.98-.58-12.134-.005-1.25.17-2.232 1.153-2.393 2.402l-1.215 9.273c-2.068.628-4.072 1.457-5.985 2.477l-7.444-5.707c-1-.767-2.388-.77-3.394-.014-3.198 2.416-6.167 5.373-8.582 8.556-.76 1.004-.754 2.39.013 3.39l5.72 7.418c-1.026 1.913-1.857 3.914-2.488 5.982l-9.3 1.212c-1.247.16-2.234 1.137-2.406 2.385-.556 4.016-.556 8.088 0 12.102.172 1.246 1.16 2.224 2.407 2.386l9.3 1.212c.63 2.068 1.46 4.07 2.487 5.982l-5.72 7.42c-.766.997-.77 2.38-.012 3.385 2.418 3.188 5.387 6.146 8.58 8.56 1.01.758 2.397.747 3.395-.015l7.444-5.707c1.913 1.02 3.917 1.846 5.985 2.474l1.215 9.275c.16 1.248 1.142 2.232 2.393 2.405 2.074.283 4.053.42 6.055.42 2.015 0 4.003-.14 6.08-.43 1.25-.17 2.23-1.155 2.387-2.4l1.22-9.282c2.063-.628 4.062-1.454 5.97-2.474l7.44 5.704c.998.762 2.385.767 3.394.014 3.236-2.444 6.124-5.323 8.582-8.565.76-1 .756-2.388-.012-3.383l-5.723-7.427c1.02-1.9 1.846-3.89 2.474-5.952l9.3-1.215c1.25-.164 2.233-1.14 2.408-2.385.565-4.08.565-8.042 0-12.11-.175-1.244-1.16-2.22-2.407-2.384m-41.12 20.855c-6.86 0-12.44-5.57-12.44-12.417 0-6.844 5.58-12.415 12.44-12.415 6.862 0 12.446 5.57 12.446 12.415 0 6.847-5.584 12.417-12.445 12.417m0-30.416c-9.95 0-18.04 8.074-18.04 17.998 0 9.924 8.09 18.002 18.04 18.002 9.948 0 18.04-8.078 18.04-18.002s-8.092-18-18.04-18" stroke="#FFF" stroke-width=".8" fill="#2FCFC4" fill-rule="evenodd"/></svg>