<svg xmlns="http://www.w3.org/2000/svg" x="0" y="0" fill="#03CAB9" data-name="Layer 1" viewBox="0 0 64 64"><title>test-check-verify-investigate-examine</title><path d="M22.007,51.48a8.95,8.95,0,1,0-6.331-2.618A8.926,8.926,0,0,0,22.007,51.48ZM17.09,37.613a6.954,6.954,0,1,1-2.037,4.917A6.91,6.91,0,0,1,17.09,37.613Z"/><path d="M23.422,40.409l1.414-1.414a4.1,4.1,0,0,0-5.657,0l1.414,1.414A2.048,2.048,0,0,1,23.422,40.409Z"/><path d="M7.95,61.707a1,1,0,0,0,1.414,0l4.242-4.242a1,1,0,0,0,0-1.414l-.791-.792L14.4,53.677a13.557,13.557,0,1,0-4.077-4.408L8.572,51.016l-.622-.622a1,1,0,0,0-1.414,0L2.293,54.636a1,1,0,0,0,0,1.414ZM13.875,34.4a11.5,11.5,0,1,1-3.368,8.132A11.465,11.465,0,0,1,13.875,34.4ZM11.4,51.016l1.414,1.415L11.4,53.845l-.69-.69-.724-.725Zm-4.158,1.5.621.621v0l1.448,1.448,2.172,2.172L8.657,59.586,4.414,55.343Z"/><path d="M61.9,15.307a1,1,0,0,0-.59-.807L59.2,13.569c-.1-.389-.218-.757-.346-1.112l1.169-2.017a1,1,0,0,0,.008-.989,15.342,15.342,0,0,0-1.963-2.744A1,1,0,0,0,57.1,6.4l-2.221.509c-.286-.232-.587-.454-.9-.664L53.769,3.9a1,1,0,0,0-.575-.816,14.779,14.779,0,0,0-3.161-1.062,1,1,0,0,0-.963.327L47.554,4.106a10.776,10.776,0,0,0-1.108,0L44.93,2.348a1,1,0,0,0-.963-.327,14.789,14.789,0,0,0-3.16,1.062,1,1,0,0,0-.576.816l-.215,2.345c-.311.21-.612.432-.9.663L36.9,6.4a.994.994,0,0,0-.968.308A15.369,15.369,0,0,0,33.965,9.45a1,1,0,0,0,.008.988l1.169,2.018c-.128.355-.243.724-.346,1.113l-2.109.931a1,1,0,0,0-.59.807,14.823,14.823,0,0,0,0,3.386,1,1,0,0,0,.59.807l2.109.931c.1.389.218.757.346,1.112L33.973,23.56a1,1,0,0,0-.008.989,15.342,15.342,0,0,0,1.963,2.744.992.992,0,0,0,.968.308l2.221-.509c.286.232.587.454.9.664l.215,2.345a1,1,0,0,0,.575.816,14.779,14.779,0,0,0,3.161,1.062,1,1,0,0,0,.963-.327l1.516-1.758a10.776,10.776,0,0,0,1.108,0l1.516,1.758a1,1,0,0,0,.758.348,1.026,1.026,0,0,0,.2-.021,14.789,14.789,0,0,0,3.16-1.062,1,1,0,0,0,.576-.816l.215-2.345c.311-.21.612-.432.9-.663L57.1,27.6a.993.993,0,0,0,.968-.308,15.369,15.369,0,0,0,1.964-2.744,1,1,0,0,0-.008-.988l-1.169-2.018c.128-.355.243-.724.346-1.113l2.109-.931a1,1,0,0,0,.59-.807,14.823,14.823,0,0,0,0-3.386Zm-1.936,2.6-2.02.891a1,1,0,0,0-.572.692,10.8,10.8,0,0,1-.547,1.756,1,1,0,0,0,.059.884L58,24.06a13.527,13.527,0,0,1-1.043,1.458l-2.119-.486a.988.988,0,0,0-.884.225,10.791,10.791,0,0,1-1.453,1.074,1,1,0,0,0-.468.759l-.206,2.241a12.815,12.815,0,0,1-1.642.557L48.74,28.207a.979.979,0,0,0-.841-.344,11.014,11.014,0,0,1-1.8,0,.979.979,0,0,0-.841.344l-1.449,1.681a12.828,12.828,0,0,1-1.643-.557l-.2-2.241a1,1,0,0,0-.469-.76,10.628,10.628,0,0,1-1.452-1.073.99.99,0,0,0-.885-.226l-2.118.486A13.294,13.294,0,0,1,36,24.059l1.117-1.927a1,1,0,0,0,.059-.884,10.84,10.84,0,0,1-.547-1.757,1,1,0,0,0-.572-.692l-2.02-.891C34.011,17.6,34,17.294,34,17s.011-.595.033-.908l2.02-.891a1,1,0,0,0,.572-.692,10.8,10.8,0,0,1,.547-1.756,1,1,0,0,0-.059-.884L36,9.94a13.527,13.527,0,0,1,1.043-1.458l2.119.486a.994.994,0,0,0,.884-.225A10.791,10.791,0,0,1,41.5,7.669a1,1,0,0,0,.468-.759l.206-2.241a12.815,12.815,0,0,1,1.642-.557L45.26,5.793a.974.974,0,0,0,.841.344,11.014,11.014,0,0,1,1.8,0,.975.975,0,0,0,.841-.344l1.449-1.681a12.828,12.828,0,0,1,1.643.557l.2,2.241a1,1,0,0,0,.469.76,10.628,10.628,0,0,1,1.452,1.073,1,1,0,0,0,.885.226l2.118-.486A13.294,13.294,0,0,1,58,9.941l-1.117,1.927a1,1,0,0,0-.059.884,10.84,10.84,0,0,1,.547,1.757,1,1,0,0,0,.572.692l2.02.891c.022.313.033.614.033.908S59.989,17.6,59.967,17.908Z"/><path d="M47,8a9,9,0,1,0,9,9A9.01,9.01,0,0,0,47,8Zm0,16a7,7,0,1,1,7-7A7.008,7.008,0,0,1,47,24Z"/><path d="M2.674,17.273l1.745.77c.079.292.165.569.26.838l-.969,1.67a1,1,0,0,0-.007.989,13.242,13.242,0,0,0,1.7,2.378.99.99,0,0,0,.969.308l1.836-.42c.214.171.438.336.67.494l.178,1.942a1,1,0,0,0,.575.817,12.8,12.8,0,0,0,2.741.92,1,1,0,0,0,.961-.326L14.588,26.2a8.088,8.088,0,0,0,.824,0l1.255,1.455a.993.993,0,0,0,.961.326,12.789,12.789,0,0,0,2.74-.92,1,1,0,0,0,.576-.817l.178-1.941q.348-.237.67-.495l1.836.42a.989.989,0,0,0,.968-.308,13.177,13.177,0,0,0,1.7-2.378,1,1,0,0,0-.007-.989l-.969-1.67c.095-.269.181-.546.26-.838l1.745-.77a1,1,0,0,0,.591-.807,12.988,12.988,0,0,0,0-2.932,1,1,0,0,0-.591-.807l-1.745-.77c-.079-.292-.165-.569-.26-.838l.969-1.67A1,1,0,0,0,26.3,8.46a13.242,13.242,0,0,0-1.7-2.378,1,1,0,0,0-.969-.308l-1.836.42c-.214-.171-.438-.336-.67-.494l-.178-1.942a1,1,0,0,0-.575-.817,12.8,12.8,0,0,0-2.741-.92.991.991,0,0,0-.961.326L15.412,3.8a8.088,8.088,0,0,0-.824,0L13.333,2.347a.991.991,0,0,0-.961-.326,12.789,12.789,0,0,0-2.74.92,1,1,0,0,0-.576.817L8.878,5.7c-.232.158-.456.323-.67.494l-1.836-.42a1,1,0,0,0-.968.308A13.177,13.177,0,0,0,3.7,8.46a1,1,0,0,0,.007.989l.969,1.67c-.1.269-.181.546-.26.838l-1.745.77a1,1,0,0,0-.591.807,12.988,12.988,0,0,0,0,2.932A1,1,0,0,0,2.674,17.273Zm1.348-2.956,1.653-.728a1,1,0,0,0,.571-.693,9.314,9.314,0,0,1,.462-1.483,1,1,0,0,0-.059-.884L5.735,8.952a11.294,11.294,0,0,1,.782-1.093l1.729.4a1,1,0,0,0,.885-.225,9.156,9.156,0,0,1,1.226-.907,1,1,0,0,0,.468-.759l.169-1.835a11.229,11.229,0,0,1,1.223-.415L13.4,5.488a.982.982,0,0,0,.842.343,9.358,9.358,0,0,1,1.516,0,.983.983,0,0,0,.842-.343l1.183-1.374a11.318,11.318,0,0,1,1.224.415l.167,1.836a1,1,0,0,0,.471.76,9.073,9.073,0,0,1,1.224.9,1,1,0,0,0,.885.226l1.729-.4a10.961,10.961,0,0,1,.782,1.093l-.914,1.577a1,1,0,0,0-.059.884,9.314,9.314,0,0,1,.462,1.483,1,1,0,0,0,.571.693l1.653.728c.015.235.022.461.022.683s-.007.448-.022.683l-1.653.728a1,1,0,0,0-.571.693,9.314,9.314,0,0,1-.462,1.483,1,1,0,0,0,.059.884l.914,1.577a11.294,11.294,0,0,1-.782,1.093l-1.729-.4a1,1,0,0,0-.885.226,9.045,9.045,0,0,1-1.225.905,1,1,0,0,0-.469.76l-.169,1.835a11.229,11.229,0,0,1-1.223.415L16.6,24.512a.99.99,0,0,0-.842-.343,9.591,9.591,0,0,1-1.516,0,.992.992,0,0,0-.842.343l-1.183,1.374a11.318,11.318,0,0,1-1.224-.415l-.167-1.836a1,1,0,0,0-.471-.76,9.073,9.073,0,0,1-1.224-.9,1,1,0,0,0-.885-.226l-1.729.4a10.961,10.961,0,0,1-.782-1.093l.914-1.577a1,1,0,0,0,.059-.884A9.314,9.314,0,0,1,6.246,17.1a1,1,0,0,0-.571-.693l-1.653-.728C4.007,15.448,4,15.222,4,15S4.007,14.552,4.022,14.317Z"/><path d="M15,23a8,8,0,1,0-8-8A8.009,8.009,0,0,0,15,23ZM15,9a6,6,0,1,1-6,6A6.006,6.006,0,0,1,15,9Z"/><path d="M46.277,18.6l-2.608-2.347-1.338,1.486,3.334,3a1,1,0,0,0,1.4-.056l5.666-6-1.454-1.374Z"/><path d="M14,18a1,1,0,0,0,.707-.293l4-4-1.414-1.414L14,15.586l-1.293-1.293-1.414,1.414,2,2A1,1,0,0,0,14,18Z"/><path d="M61.333,51.16a1,1,0,0,0,.59-.806,11.943,11.943,0,0,0,0-2.708,1,1,0,0,0-.59-.806l-1.563-.69c-.067-.242-.139-.474-.218-.7l.869-1.5a1,1,0,0,0,.008-.988,12.293,12.293,0,0,0-1.57-2.194.993.993,0,0,0-.968-.308l-1.644.376q-.269-.211-.556-.409l-.159-1.741a1,1,0,0,0-.575-.817,11.692,11.692,0,0,0-2.531-.85.991.991,0,0,0-.962.327l-1.123,1.3c-.226-.009-.455-.009-.682,0l-1.123-1.3a.992.992,0,0,0-.962-.326,11.729,11.729,0,0,0-2.531.85,1,1,0,0,0-.575.817l-.159,1.741q-.286.2-.556.409l-1.644-.376a1,1,0,0,0-.968.308,12.293,12.293,0,0,0-1.57,2.194,1,1,0,0,0,.008.988l.869,1.5c-.079.225-.152.457-.218.7l-1.563.69a1,1,0,0,0-.59.806,11.943,11.943,0,0,0,0,2.708,1,1,0,0,0,.59.806l1.563.69c.067.242.139.474.218.7l-.869,1.5a1,1,0,0,0-.008.988,12.257,12.257,0,0,0,1.57,2.194.987.987,0,0,0,.968.308l1.644-.376q.269.211.556.409l.159,1.742a1,1,0,0,0,.575.816,11.692,11.692,0,0,0,2.531.85.992.992,0,0,0,.962-.327l1.123-1.3c.226.009.455.009.682,0l1.123,1.3a1,1,0,0,0,.962.326,11.729,11.729,0,0,0,2.531-.85,1,1,0,0,0,.575-.816l.159-1.742q.286-.2.556-.409l1.644.376a.989.989,0,0,0,.968-.308,12.257,12.257,0,0,0,1.57-2.194,1,1,0,0,0-.008-.988l-.869-1.5c.079-.225.152-.457.218-.7Zm-2.818-.943a1,1,0,0,0-.572.692,8.206,8.206,0,0,1-.419,1.346,1,1,0,0,0,.059.884l.813,1.4a10.531,10.531,0,0,1-.652.911L56.209,55.1a.983.983,0,0,0-.885.224,8.037,8.037,0,0,1-1.112.822,1,1,0,0,0-.468.76l-.15,1.631a9.782,9.782,0,0,1-1.014.345l-1.051-1.219a.993.993,0,0,0-.841-.343,8.543,8.543,0,0,1-1.376,0,.989.989,0,0,0-.842.344l-1.05,1.218a9.7,9.7,0,0,1-1.014-.345l-.15-1.631a1,1,0,0,0-.469-.759,8.23,8.23,0,0,1-1.112-.823.984.984,0,0,0-.885-.224l-1.534.351a10.531,10.531,0,0,1-.652-.911l.813-1.4a1,1,0,0,0,.059-.884,8.338,8.338,0,0,1-.42-1.346,1,1,0,0,0-.571-.692l-1.468-.648c-.011-.2-.017-.383-.017-.569s.006-.374.017-.569l1.468-.648a1,1,0,0,0,.572-.692,8.206,8.206,0,0,1,.419-1.346,1,1,0,0,0-.059-.884l-.813-1.4a10.531,10.531,0,0,1,.652-.911l1.535.351a.992.992,0,0,0,.885-.224,8.037,8.037,0,0,1,1.112-.822,1,1,0,0,0,.468-.76l.15-1.631a9.782,9.782,0,0,1,1.014-.345l1.051,1.219a.99.99,0,0,0,.841.343,8.543,8.543,0,0,1,1.376,0,.982.982,0,0,0,.842-.344l1.05-1.218a9.7,9.7,0,0,1,1.014.345l.15,1.631a1,1,0,0,0,.469.759,8.23,8.23,0,0,1,1.112.823.99.99,0,0,0,.885.224l1.534-.351a10.531,10.531,0,0,1,.652.911l-.813,1.4a1,1,0,0,0-.059.884,8.338,8.338,0,0,1,.42,1.346,1,1,0,0,0,.571.692l1.468.648c.011.2.017.383.017.569s-.006.374-.017.569Z"/><path d="M50,42a7,7,0,1,0,7,7A7.008,7.008,0,0,0,50,42Zm0,12a5,5,0,1,1,5-5A5.006,5.006,0,0,1,50,54Z"/><polygon points="51.414 46.172 50 47.586 48.586 46.172 47.172 47.586 48.586 49 47.172 50.414 48.586 51.828 50 50.414 51.414 51.828 52.828 50.414 51.414 49 52.828 47.586 51.414 46.172"/></svg>