<svg role="img" aria-label="OES" class="logo-icon" width="48" height="48" viewBox="0 0 48 48" xmlns="http://www.w3.org/2000/svg"><title>Office of Evaluation Sciences</title><g fill="none" fill-rule="evenodd"><path fill="#1FD0C5" d="M0 48h48V0H0"/><g fill="#FFF"><path d="M43.385 7.254c-.154.09-.207.286-.118.44.09.154.286.207.44.118l1.052-.608-7.97 13.835H5.746v.698h31.47l8.11-14.154v1.103c0 .178.145.322.323.322.178 0 .323-.145.323-.323V5.733l-2.588 1.52zM16.046 33.123c0-.814-.106-1.546-.316-2.198-.21-.652-.515-1.203-.91-1.656-.396-.453-.88-.8-1.452-1.04-.573-.24-1.225-.362-1.955-.362-.74 0-1.396.12-1.972.362-.576.24-1.062.587-1.457 1.04-.396.452-.7 1.003-.91 1.655-.21.652-.316 1.384-.316 2.198 0 .82.105 1.558.316 2.21.21.65.514 1.203.91 1.655.395.452.88.797 1.458 1.034.577.237 1.234.356 1.973.356.73 0 1.382-.12 1.955-.356.572-.237 1.056-.582 1.452-1.034.395-.452.7-1.004.91-1.656.21-.65.316-1.388.316-2.21m3.91 0c0 1.192-.205 2.3-.616 3.323-.41 1.025-.99 1.916-1.734 2.673-.746.757-1.645 1.35-2.696 1.78-1.05.43-2.217.644-3.497.644-1.28 0-2.45-.215-3.503-.644-1.055-.43-1.957-1.023-2.707-1.78-.75-.757-1.33-1.648-1.74-2.673-.41-1.024-.616-2.13-.616-3.322 0-1.19.205-2.298.616-3.322.41-1.024.99-1.913 1.74-2.666.75-.754 1.652-1.345 2.707-1.775 1.054-.43 2.222-.645 3.503-.645 1.28 0 2.446.217 3.497.65 1.05.433 1.95 1.027 2.696 1.78.745.753 1.324 1.642 1.734 2.667.41 1.024.616 2.128.616 3.31M32.543 24.896v2.938h-6.757v3.843h5.175v2.825h-5.174v3.92h6.757v2.94h-10.6V24.895M43.875 28.24c-.113.182-.232.318-.356.408-.125.09-.286.136-.48.136-.175 0-.36-.055-.56-.164-.2-.11-.426-.232-.68-.368-.25-.135-.54-.258-.863-.367-.324-.11-.694-.164-1.108-.164-.717 0-1.25.154-1.6.46-.35.304-.525.716-.525 1.236 0 .332.105.607.316.825.212.22.49.408.832.566.343.16.734.304 1.175.435.44.133.89.28 1.35.442.46.162.91.352 1.35.57.442.22.833.498 1.176.837.343.338.62.75.83 1.237.212.485.317 1.07.317 1.757 0 .76-.132 1.473-.395 2.136-.264.663-.647 1.24-1.147 1.734-.502.494-1.12.882-1.854 1.164-.734.283-1.57.424-2.503.424-.51 0-1.033-.053-1.564-.158-.53-.106-1.045-.254-1.542-.446-.498-.193-.965-.42-1.402-.684-.437-.264-.817-.558-1.14-.882l1.13-1.785c.082-.136.198-.245.35-.328.15-.084.312-.125.485-.125.226 0 .454.072.684.214.23.143.49.3.78.474.29.173.624.332 1 .475.377.142.822.213 1.334.213.693 0 1.232-.152 1.616-.457.384-.305.577-.79.577-1.452 0-.385-.106-.697-.317-.938-.21-.24-.488-.44-.83-.6-.343-.157-.733-.297-1.17-.417-.437-.122-.885-.256-1.345-.402-.46-.147-.908-.328-1.345-.543-.437-.215-.827-.497-1.17-.848-.342-.35-.62-.787-.83-1.31-.21-.524-.316-1.17-.316-1.938 0-.62.124-1.222.373-1.81.248-.587.614-1.11 1.096-1.57.482-.46 1.073-.827 1.774-1.102.7-.275 1.503-.413 2.407-.413.505 0 .996.04 1.475.12.477.078.93.195 1.36.35.43.154.83.338 1.204.553.373.215.706.458 1 .73l-.95 1.773z"/></g></g></svg>