<svg class="icon-privacy" width="29" height="39" viewBox="0 0 29 39" xmlns="http://www.w3.org/2000/svg"><title>Lock</title><path d="M15.4 30.31h-2.133l-.575-4.77c0-.88.735-1.6 1.64-1.6.92 0 1.642.698 1.65 1.49l-.58 4.88zm-1.07-7.98c-1.778 0-3.224 1.44-3.218 3.31l.668 5.576c.048.405.385.708.786.708h3.538c.4 0 .74-.305.787-.71l.67-5.687c0-1.764-1.448-3.198-3.23-3.198zm11.26 11.825c0 1.438-1.16 2.608-2.587 2.608H5.665c-1.45 0-2.588-1.132-2.59-2.655L1.58 18.368c0-1.444 1.136-2.574 2.587-2.574h20.328c1.453 0 2.59 1.125 2.592 2.483l-1.5 15.878zM7.995 7.79c0-3.238 2.905-5.974 6.342-5.974s6.34 2.736 6.34 5.973v6.39H7.995V7.79zm16.504 6.39h-2.236V7.79c0-4.114-3.63-7.587-7.926-7.587S6.41 3.676 6.41 7.79v6.39H4.17c-2.302 0-4.174 1.88-4.17 4.264l1.492 15.74c0 2.312 1.872 4.192 4.173 4.192h17.338c2.3 0 4.173-1.893 4.17-4.144l1.5-15.878c0-2.34-1.835-4.173-4.175-4.173z" fill="#38756F" fill-rule="evenodd" opacity=".5"/></svg>