<svg width="29" height="23" viewBox="0 0 29 23" xmlns="http://www.w3.org/2000/svg"><title>twitter</title><path d="M28.647 2.858c-1.105.476-2.21.773-3.316.892C26.58 3 27.424 1.944 27.864.577c-1.14.677-2.36 1.14-3.656 1.39C23.067.755 21.664.147 20 .147c-1.594 0-2.952.563-4.075 1.686C14.8 2.957 14.24 4.315 14.24 5.907c0 .428.047.868.143 1.32-2.354-.12-4.562-.71-6.625-1.774C5.696 4.39 3.945 2.97 2.508 1.2c-.524.89-.785 1.86-.785 2.906 0 .987.232 1.902.695 2.746.464.844 1.088 1.528 1.873 2.05-.927-.035-1.794-.28-2.603-.73v.07c0 1.392.437 2.613 1.31 3.665.875 1.052 1.977 1.715 3.31 1.99-.5.13-1.006.196-1.517.196-.333 0-.695-.03-1.088-.09.37 1.154 1.046 2.1 2.033 2.844.987.744 2.104 1.127 3.353 1.15-2.093 1.64-4.476 2.46-7.15 2.46-.512 0-.975-.022-1.39-.07 2.673 1.724 5.62 2.586 8.843 2.586 2.046 0 3.965-.324 5.76-.972 1.795-.647 3.33-1.514 4.6-2.603 1.272-1.087 2.37-2.338 3.29-3.753.922-1.414 1.608-2.89 2.06-4.43.45-1.54.677-3.082.677-4.628 0-.333-.006-.582-.018-.75 1.13-.82 2.092-1.81 2.888-2.976v-.002z" fill="#FFF" fill-rule="evenodd"/></svg>