<?xml version="1.0" encoding="UTF-8"?><svg xmlns="http://www.w3.org/2000/svg" viewBox="0 0 280.87 116.35"><defs><style>.cls-1{fill:#f8dd9b;}.cls-1,.cls-2,.cls-3,.cls-4,.cls-5,.cls-6,.cls-7,.cls-8,.cls-9{mix-blend-mode:multiply;}.cls-1,.cls-2,.cls-3,.cls-4,.cls-5,.cls-6,.cls-7,.cls-8,.cls-9,.cls-10,.cls-11{stroke-width:0px;}.cls-2{fill:#929fcd;}.cls-3{fill:#fbecca;}.cls-4{fill:#f2c237;}.cls-5{fill:#dddff0;}.cls-6{fill:#c9cee7;}.cls-7{fill:#f5cf6e;}.cls-8{fill:#5773b4;}.cls-9,.cls-11{fill:#1057a3;}.cls-12{isolation:isolate;}.cls-10{fill:#414042;}</style></defs><g class="cls-12"><g id="Layer_2"><rect class="cls-3" x="52.49" y="20" width="11.37" height="43.86" rx="4.12" ry="4.12"/><rect class="cls-1" x="52.49" y="52.49" width="11.37" height="43.86" rx="4.12" ry="4.12"/><rect class="cls-2" x="36.25" y="36.25" width="11.37" height="43.86" rx="4.12" ry="4.12" transform="translate(-16.25 100.11) rotate(-90)"/><rect class="cls-5" x="68.74" y="36.25" width="11.37" height="43.86" rx="4.12" ry="4.12" transform="translate(16.25 132.6) rotate(-90)"/><rect class="cls-9" x="44.19" y="22.28" width="11.37" height="43.86" rx="4.12" ry="4.12" transform="translate(-15.59 31.71) rotate(-30.74)"/><rect class="cls-2" x="60.79" y="50.21" width="11.37" height="43.86" rx="4.12" ry="4.12" transform="translate(-27.53 44.12) rotate(-30.74)"/><rect class="cls-8" x="38.13" y="28.65" width="11.37" height="43.86" rx="4.12" ry="4.12" transform="translate(-21.38 65.67) rotate(-62.13)"/><rect class="cls-6" x="66.85" y="43.84" width="11.37" height="43.86" rx="4.12" ry="4.12" transform="translate(-19.51 99.15) rotate(-62.13)"/><rect class="cls-1" x="66.45" y="27.94" width="11.37" height="43.86" rx="4.12" ry="4.12" transform="translate(78.13 -37.62) rotate(59.26)"/><rect class="cls-4" x="38.53" y="44.55" width="11.37" height="43.86" rx="4.12" ry="4.12" transform="translate(78.75 -5.5) rotate(59.26)"/><rect class="cls-1" x="60.08" y="21.88" width="11.37" height="43.86" rx="4.12" ry="4.12" transform="translate(28.11 -25.66) rotate(27.87)"/><rect class="cls-7" x="44.9" y="50.61" width="11.37" height="43.86" rx="4.12" ry="4.12" transform="translate(39.77 -15.23) rotate(27.87)"/><path class="cls-11" d="m111.64,48.37h-2.19l8.49-19.65h1.94l8.44,19.65h-2.22l-2.17-5.16h-10.16l-2.14,5.16Zm2.89-6.99h8.66l-4.33-10.44-4.33,10.44Z"/><path class="cls-11" d="m142.32,44.99h.03l6.58-16.27h3.05v19.65h-2v-17.07h-.06l-7.11,17.07h-1.05l-7.11-17.07h-.06v17.07h-2v-19.65h3.05l6.66,16.27Z"/><path class="cls-11" d="m160.58,46.6h10.52v1.78h-12.52v-19.65h12.19v1.78h-10.19v6.75h9.52v1.78h-9.52v7.58Z"/><path class="cls-11" d="m178.4,48.37h-2v-19.65h5.77c.96,0,1.86.09,2.68.28.82.19,1.54.49,2.14.9.6.42,1.07.96,1.4,1.62.33.67.5,1.48.5,2.44,0,.72-.13,1.38-.39,1.97-.26.59-.61,1.11-1.05,1.54-.45.43-.97.78-1.58,1.04-.61.26-1.28.43-2,.5l5.75,9.35h-2.44l-5.44-9.19h-3.33v9.19Zm0-10.91h3.47c1.61,0,2.85-.29,3.72-.87s1.3-1.46,1.3-2.62c0-.65-.12-1.19-.36-1.64-.24-.44-.57-.8-1-1.08-.43-.28-.94-.48-1.55-.61-.61-.13-1.29-.19-2.03-.19h-3.55v7.02Z"/><path class="cls-11" d="m196.42,48.37h-2v-19.65h2v19.65Z"/><path class="cls-11" d="m219.57,45.18c-.33.5-.74.97-1.21,1.42-.47.45-1.02.84-1.64,1.18-.62.34-1.3.61-2.05.8-.75.2-1.57.3-2.46.3-1.48,0-2.85-.26-4.11-.78-1.26-.52-2.34-1.24-3.25-2.15s-1.61-2-2.12-3.26c-.51-1.26-.76-2.64-.76-4.14s.26-2.88.78-4.14c.52-1.26,1.23-2.35,2.15-3.26s2-1.63,3.25-2.15c1.25-.52,2.6-.78,4.07-.78.72,0,1.43.08,2.12.23.69.15,1.35.36,1.96.63.61.27,1.17.6,1.66.98.5.38.92.81,1.25,1.29l-1.66,1.22c-.2-.31-.48-.63-.82-.94-.34-.31-.75-.59-1.21-.83-.46-.24-.97-.43-1.51-.58s-1.13-.22-1.76-.22c-1.28,0-2.42.23-3.43.69-1.01.46-1.86,1.08-2.57,1.87-.7.78-1.24,1.69-1.61,2.73-.37,1.03-.56,2.12-.56,3.26s.19,2.23.57,3.27c.38,1.03.92,1.94,1.62,2.72.7.78,1.56,1.41,2.57,1.87,1.01.46,2.14.69,3.4.69,1.13,0,2.2-.23,3.22-.69,1.02-.46,1.87-1.2,2.55-2.22l1.56,1Z"/><path class="cls-11" d="m223.93,48.37h-2.19l8.49-19.65h1.94l8.44,19.65h-2.22l-2.17-5.16h-10.16l-2.14,5.16Zm2.89-6.99h8.66l-4.33-10.44-4.33,10.44Z"/><path class="cls-11" d="m258.82,45.46h.06v-16.74h2v19.65h-2.5l-11.44-16.91h-.06v16.91h-2v-19.65h2.5l11.44,16.74Z"/><path class="cls-11" d="m111.1,71.65h-1.59v-15.66h4.6c.77,0,1.48.07,2.14.22.66.15,1.22.39,1.7.72.48.33.85.76,1.12,1.29.26.53.4,1.18.4,1.95,0,.57-.1,1.1-.31,1.57-.21.47-.49.88-.84,1.23-.35.35-.77.62-1.26.83-.49.21-1.02.34-1.59.4l4.58,7.45h-1.95l-4.34-7.32h-2.65v7.32Zm0-8.69h2.77c1.28,0,2.27-.23,2.97-.7.69-.46,1.04-1.16,1.04-2.09,0-.52-.1-.95-.29-1.31-.19-.35-.46-.64-.8-.86-.34-.22-.75-.38-1.24-.49-.49-.1-1.03-.15-1.61-.15h-2.83v5.6Z"/><path class="cls-11" d="m125.34,70.24h8.38v1.42h-9.98v-15.66h9.71v1.42h-8.12v5.37h7.59v1.42h-7.59v6.04Z"/><path class="cls-11" d="m145.43,58.51c-.34-.47-.77-.85-1.31-1.14s-1.17-.43-1.92-.43c-.38,0-.77.06-1.17.18s-.76.3-1.08.54c-.33.24-.59.55-.79.92-.2.37-.3.8-.3,1.31s.09.91.29,1.24c.19.32.44.6.76.83.32.23.68.42,1.08.56.4.15.83.3,1.27.44.54.18,1.09.37,1.64.57.55.21,1.05.48,1.49.81.44.33.8.75,1.08,1.26.28.51.42,1.15.42,1.94s-.15,1.46-.45,2.02c-.3.57-.69,1.04-1.16,1.4s-1.02.64-1.63.82c-.61.18-1.23.27-1.85.27-.47,0-.94-.05-1.42-.14s-.92-.24-1.35-.43-.83-.43-1.19-.73c-.37-.3-.69-.63-.97-1.02l1.37-1.02c.34.56.81,1.03,1.43,1.4.61.38,1.33.56,2.16.56.4,0,.8-.06,1.22-.19.41-.13.78-.32,1.12-.58.33-.26.6-.57.82-.95.21-.38.32-.81.32-1.32,0-.55-.11-1-.32-1.36s-.5-.66-.85-.91-.76-.45-1.22-.61c-.46-.16-.94-.32-1.44-.49-.52-.16-1.02-.35-1.53-.55s-.95-.48-1.35-.81c-.4-.33-.72-.74-.96-1.23s-.36-1.08-.36-1.79c0-.75.15-1.4.45-1.95.3-.55.7-1,1.18-1.35.49-.35,1.02-.61,1.61-.77.59-.16,1.17-.24,1.75-.24,1.06,0,1.97.19,2.72.56.75.38,1.32.82,1.7,1.34l-1.26,1.02Z"/><path class="cls-11" d="m164.5,69.11c-.27.4-.59.77-.96,1.13-.38.35-.81.67-1.31.94-.49.27-1.04.48-1.64.64-.6.16-1.25.24-1.96.24-1.18,0-2.27-.21-3.27-.62-1-.41-1.87-.98-2.59-1.71-.72-.73-1.29-1.6-1.69-2.6-.41-1-.61-2.1-.61-3.3s.21-2.29.62-3.3c.41-1,.98-1.87,1.71-2.6s1.59-1.3,2.59-1.71c.99-.41,2.07-.62,3.24-.62.58,0,1.14.06,1.69.18.55.12,1.07.29,1.56.51s.93.48,1.33.78c.4.3.73.65,1,1.03l-1.33.97c-.16-.25-.38-.5-.65-.75-.27-.25-.59-.47-.96-.66s-.77-.35-1.21-.46c-.44-.12-.9-.18-1.4-.18-1.02,0-1.93.18-2.73.55-.8.37-1.49.86-2.05,1.49s-.99,1.35-1.28,2.17c-.3.82-.44,1.69-.44,2.6s.15,1.78.45,2.6.73,1.55,1.29,2.17c.56.63,1.24,1.12,2.05,1.49.8.37,1.71.55,2.71.55.9,0,1.75-.18,2.56-.55.81-.37,1.49-.96,2.04-1.77l1.24.8Z"/><path class="cls-11" d="m174.01,72.05c-1.18,0-2.15-.2-2.9-.61-.75-.41-1.35-.92-1.79-1.54-.44-.62-.75-1.29-.92-2.02-.17-.73-.25-1.42-.25-2.07v-9.82h1.59v9.64c0,.63.07,1.25.22,1.85s.39,1.13.72,1.59c.33.46.77.84,1.32,1.13s1.22.43,2.01.43,1.47-.14,2.01-.43.98-.66,1.32-1.13.57-1,.72-1.59.22-1.21.22-1.85v-9.64h1.59v9.82c0,.65-.08,1.34-.25,2.07-.17.73-.48,1.4-.92,2.02-.44.62-1.04,1.13-1.8,1.54-.76.41-1.72.61-2.89.61Z"/><path class="cls-11" d="m186.53,70.24h8.38v1.42h-9.98v-15.66h9.71v1.42h-8.12v5.37h7.59v1.42h-7.59v6.04Z"/><path class="cls-11" d="m205.55,55.99h4.42c.8,0,1.52.09,2.17.25.65.17,1.21.43,1.67.77.47.35.82.78,1.07,1.31.25.52.38,1.14.38,1.85s-.13,1.32-.39,1.85-.62.96-1.08,1.31c-.47.35-1.03.61-1.68.79s-1.38.27-2.18.27h-2.79v7.28h-1.59v-15.66Zm1.59,7.03h2.7c1.25,0,2.2-.24,2.85-.73s.97-1.19.97-2.12-.34-1.68-1.01-2.13c-.67-.45-1.61-.67-2.82-.67h-2.7v5.66Z"/><path class="cls-11" d="m220.97,70.24h7.3v1.42h-8.89v-15.66h1.59v14.25Z"/><path class="cls-11" d="m231.54,71.65h-1.75l6.77-15.66h1.55l6.73,15.66h-1.77l-1.72-4.11h-8.1l-1.7,4.11Zm2.3-5.57h6.9l-3.45-8.32-3.45,8.32Z"/><path class="cls-11" d="m259.24,69.33h.04v-13.34h1.59v15.66h-1.99l-9.11-13.47h-.04v13.47h-1.59v-15.66h1.99l9.11,13.34Z"/><path class="cls-10" d="m109.45,79.75h2.73l2.33,4.13h.05l-.11-4.13h2.6v8.15h-2.8l-2.26-3.89h-.05l.12,3.89h-2.6v-8.15Z"/><path class="cls-10" d="m121.41,79.75h2.91l3.18,8.15h-2.98l-.43-1.2h-2.59l-.4,1.2h-2.9l3.21-8.15Zm1.42,2.84l-.67,2.02h1.32l-.66-2.02Z"/><path class="cls-10" d="m132.02,87.9h-2.74v-5.84h-2v-2.32h6.75v2.32h-2v5.84Z"/><path class="cls-10" d="m135.45,79.75h2.76v8.15h-2.76v-8.15Z"/><path class="cls-10" d="m139.94,83.78c0-.65.11-1.24.35-1.77.23-.53.55-.97.95-1.34.4-.37.88-.65,1.43-.85.55-.2,1.15-.3,1.8-.3s1.24.1,1.8.3c.55.2,1.03.48,1.44.85.41.37.73.82.96,1.34.23.53.35,1.12.35,1.77s-.12,1.25-.35,1.79c-.23.54-.55,1-.96,1.38-.41.38-.89.67-1.44.88-.55.21-1.15.31-1.8.31s-1.24-.1-1.8-.31c-.55-.21-1.03-.5-1.43-.88s-.72-.84-.95-1.38c-.23-.54-.35-1.13-.35-1.79Zm2.91,0c0,.27.04.52.12.74s.19.41.33.58c.14.16.31.29.51.37.2.09.41.13.64.13s.44-.04.64-.13c.2-.09.37-.21.51-.37.15-.16.26-.35.34-.58.08-.22.12-.47.12-.74s-.04-.5-.12-.72c-.08-.22-.19-.4-.34-.55s-.32-.27-.51-.35c-.2-.08-.41-.13-.64-.13s-.45.04-.64.13c-.2.08-.37.2-.51.35s-.25.33-.33.55c-.08.22-.12.46-.12.72Z"/><path class="cls-10" d="m150.73,79.75h2.73l2.33,4.13h.05l-.11-4.13h2.6v8.15h-2.8l-2.26-3.89h-.05l.12,3.89h-2.6v-8.15Z"/><path class="cls-10" d="m162.68,79.75h2.91l3.18,8.15h-2.98l-.43-1.2h-2.59l-.4,1.2h-2.9l3.21-8.15Zm1.42,2.84l-.67,2.02h1.32l-.66-2.02Z"/><path class="cls-10" d="m169.93,79.75h2.76v5.79h2.71v2.36h-5.47v-8.15Z"/><path class="cls-10" d="m180,79.75h5.61v2.28h-3.03v.7h2.84v2.13h-2.84v.76h3.22v2.28h-5.8v-8.15Z"/><path class="cls-10" d="m186.58,79.75h3.1l1.35,5.04h.05l1.29-5.04h3.1l-2.95,8.15h-3.04l-2.89-8.15Z"/><path class="cls-10" d="m198.53,79.75h2.91l3.18,8.15h-2.98l-.43-1.2h-2.59l-.4,1.2h-2.9l3.21-8.15Zm1.42,2.84l-.67,2.02h1.32l-.66-2.02Z"/><path class="cls-10" d="m205.78,79.75h2.76v5.79h2.71v2.36h-5.47v-8.15Z"/><path class="cls-10" d="m216.06,88.13c-.64,0-1.19-.09-1.66-.26-.47-.18-.87-.42-1.18-.73-.31-.31-.55-.67-.7-1.09-.15-.42-.23-.87-.23-1.35v-4.95h2.74v4.65c0,.39.09.7.28.92.19.22.46.33.8.33s.61-.11.8-.33c.19-.22.28-.52.28-.92v-4.65h2.73v4.95c0,.48-.08.93-.25,1.35s-.41.78-.73,1.09c-.32.31-.72.55-1.2.73-.48.18-1.04.26-1.68.26Z"/><path class="cls-10" d="m223.96,79.75h2.91l3.18,8.15h-2.98l-.43-1.2h-2.59l-.4,1.2h-2.9l3.21-8.15Zm1.42,2.84l-.67,2.02h1.32l-.66-2.02Z"/><path class="cls-10" d="m234.58,87.9h-2.74v-5.84h-2v-2.32h6.75v2.32h-2v5.84Z"/><path class="cls-10" d="m238,79.75h2.76v8.15h-2.76v-8.15Z"/><path class="cls-10" d="m242.49,83.78c0-.65.12-1.24.35-1.77.23-.53.55-.97.95-1.34.4-.37.88-.65,1.43-.85.55-.2,1.15-.3,1.8-.3s1.24.1,1.8.3c.55.2,1.03.48,1.44.85.41.37.73.82.96,1.34.23.53.35,1.12.35,1.77s-.11,1.25-.35,1.79c-.23.54-.55,1-.96,1.38s-.89.67-1.44.88c-.55.21-1.15.31-1.8.31s-1.24-.1-1.8-.31c-.55-.21-1.03-.5-1.43-.88-.4-.38-.72-.84-.95-1.38-.23-.54-.35-1.13-.35-1.79Zm2.91,0c0,.27.04.52.12.74.08.22.19.41.33.58.14.16.31.29.51.37.2.09.42.13.65.13s.44-.04.64-.13c.2-.09.37-.21.51-.37.15-.16.26-.35.34-.58.08-.22.12-.47.12-.74s-.04-.5-.12-.72c-.08-.22-.19-.4-.34-.55-.15-.15-.32-.27-.51-.35-.2-.08-.41-.13-.64-.13s-.45.04-.65.13c-.2.08-.37.2-.51.35-.14.15-.25.33-.33.55-.08.22-.12.46-.12.72Z"/><path class="cls-10" d="m253.28,79.75h2.73l2.33,4.13h.05l-.11-4.13h2.6v8.15h-2.8l-2.26-3.89h-.05l.11,3.89h-2.6v-8.15Z"/></g></g></svg>