<svg width="8" height="13" viewBox="0 0 8 13" fill="none" xmlns="http://www.w3.org/2000/svg">
<g clip-path="url(#clip0_1_4)">
<path d="M0.405369 6.86449L0.381899 6.88796L0.558679 7.06474L5.43272 11.9388C5.84768 12.3537 6.5213 12.3537 6.93625 11.9388C7.35118 11.5238 7.3512 10.8503 6.9363 10.4353C6.93631 10.4353 6.93628 10.4353 6.9363 10.4353L2.81518 6.31176L6.93879 2.1882C7.35374 1.7732 7.35374 1.0996 6.93879 0.684599C6.52383 0.269699 5.85021 0.269699 5.43526 0.684599L0.561209 5.55868C0.207139 5.91275 0.155189 6.45515 0.405369 6.86449Z" fill="#074B69"/>
<path d="M6.9363 10.4353C7.3512 10.8503 7.35118 11.5238 6.93625 11.9388C6.5213 12.3537 5.84768 12.3537 5.43272 11.9388L0.558679 7.06474L0.381899 6.88796L0.405369 6.86449C0.155189 6.45515 0.207139 5.91275 0.561209 5.55868L5.43526 0.684599C5.85021 0.269699 6.52383 0.269699 6.93879 0.684599C7.35374 1.0996 7.35374 1.7732 6.93879 2.1882L2.81518 6.31176L6.9363 10.4353ZM6.9363 10.4353C6.93628 10.4353 6.93631 10.4353 6.9363 10.4353Z" stroke="#074B69" stroke-width="0.5"/>
</g>
<defs>
<clipPath id="clip0_1_4">
<rect width="8" height="13" fill="white" transform="matrix(-1 0 0 -1 8 13)"/>
</clipPath>
</defs>
</svg>
